%TF.GenerationSoftware,KiCad,Pcbnew,10.0.3*%
%TF.CreationDate,2026-06-20T18:38:36-04:00*%
%TF.ProjectId,BTtamagotchi,42547461-6d61-4676-9f74-6368692e6b69,rev?*%
%TF.SameCoordinates,Original*%
%TF.FileFunction,Copper,L1,Top*%
%TF.FilePolarity,Positive*%
%FSLAX46Y46*%
G04 Gerber Fmt 4.6, Leading zero omitted, Abs format (unit mm)*
G04 Created by KiCad (PCBNEW 10.0.3) date 2026-06-20 18:38:36*
%MOMM*%
%LPD*%
G01*
G04 APERTURE LIST*
G04 Aperture macros list*
%AMRoundRect*
0 Rectangle with rounded corners*
0 $1 Rounding radius*
0 $2 $3 $4 $5 $6 $7 $8 $9 X,Y pos of 4 corners*
0 Add a 4 corners polygon primitive as box body*
4,1,4,$2,$3,$4,$5,$6,$7,$8,$9,$2,$3,0*
0 Add four circle primitives for the rounded corners*
1,1,$1+$1,$2,$3*
1,1,$1+$1,$4,$5*
1,1,$1+$1,$6,$7*
1,1,$1+$1,$8,$9*
0 Add four rect primitives between the rounded corners*
20,1,$1+$1,$2,$3,$4,$5,0*
20,1,$1+$1,$4,$5,$6,$7,0*
20,1,$1+$1,$6,$7,$8,$9,0*
20,1,$1+$1,$8,$9,$2,$3,0*%
G04 Aperture macros list end*
%TA.AperFunction,ComponentPad*%
%ADD10C,1.600000*%
%TD*%
%TA.AperFunction,ComponentPad*%
%ADD11RoundRect,0.275000X-0.275000X0.975000X-0.275000X-0.975000X0.275000X-0.975000X0.275000X0.975000X0*%
%TD*%
%TA.AperFunction,ComponentPad*%
%ADD12C,1.524000*%
%TD*%
%TA.AperFunction,SMDPad,CuDef*%
%ADD13R,0.650000X0.350000*%
%TD*%
%TA.AperFunction,SMDPad,CuDef*%
%ADD14R,1.550000X2.400000*%
%TD*%
%TA.AperFunction,ComponentPad*%
%ADD15C,2.700000*%
%TD*%
%TA.AperFunction,ComponentPad*%
%ADD16C,1.800000*%
%TD*%
%TA.AperFunction,ComponentPad*%
%ADD17R,1.700000X1.700000*%
%TD*%
%TA.AperFunction,ComponentPad*%
%ADD18C,1.700000*%
%TD*%
%TA.AperFunction,ComponentPad*%
%ADD19R,2.500000X2.500000*%
%TD*%
%TA.AperFunction,ComponentPad*%
%ADD20C,2.500000*%
%TD*%
%TA.AperFunction,ViaPad*%
%ADD21C,0.600000*%
%TD*%
%TA.AperFunction,Conductor*%
%ADD22C,0.200000*%
%TD*%
G04 APERTURE END LIST*
D10*
%TO.P,SW4,2,2_2*%
%TO.N,Net-(U1-GPIO5_A3_D3)*%
X199790000Y-107500000D03*
X199790000Y-102700000D03*
%TO.P,SW4,1,1_1*%
%TO.N,GND*%
X202790000Y-107500000D03*
X202790000Y-102700000D03*
%TD*%
%TO.P,SW3,2,2_2*%
%TO.N,Net-(U1-GPIO4_A2_D2)*%
X199800000Y-117710000D03*
X199800000Y-112910000D03*
%TO.P,SW3,1,1_1*%
%TO.N,GND*%
X202800000Y-117710000D03*
X202800000Y-112910000D03*
%TD*%
D11*
%TO.P,U1,16,GND_16*%
%TO.N,GND*%
X196692500Y-87305000D03*
%TO.P,U1,15,BAT_15*%
%TO.N,+BATT*%
X194787502Y-87305001D03*
D12*
%TO.P,U1,14,5V_14*%
%TO.N,+5V*%
X202021499Y-75240001D03*
%TO.P,U1,13,GND_13*%
%TO.N,GND*%
X199481502Y-75240001D03*
%TO.P,U1,12,3V3_12*%
%TO.N,+3V3*%
X196941500Y-75240000D03*
%TO.P,U1,11,GPIO10_D10_MOSI_11*%
%TO.N,unconnected-(U1-GPIO10_D10_MOSI-Pad11)*%
X194401501Y-75239999D03*
%TO.P,U1,10,GPIO9_D9_MISO_10*%
%TO.N,unconnected-(U1-GPIO9_D9_MISO-Pad10)*%
X191861499Y-75240001D03*
%TO.P,U1,9,GPIO8_D8_SCK_9*%
%TO.N,Net-(U1-GPIO8_D8_SCK)*%
X189321500Y-75239998D03*
%TO.P,U1,8,GPIO20_D7_RX_8*%
%TO.N,Net-(U1-GPIO20_D7_RX)*%
X186781501Y-75240001D03*
%TO.P,U1,7,GPIO21_D6_TX_7*%
%TO.N,unconnected-(U1-GPIO21_D6_TX-Pad7)_1*%
X186781501Y-90479999D03*
%TO.P,U1,6,GPIO7_D5_SCL_6*%
%TO.N,Net-(U1-GPIO7_D5_SCL)*%
X189321498Y-90479999D03*
%TO.P,U1,5,GPIO6_D4_SDA_5*%
%TO.N,Net-(U1-GPIO6_D4_SDA)*%
X191861500Y-90480000D03*
%TO.P,U1,4,GPIO5_A3_D3_4*%
%TO.N,Net-(U1-GPIO5_A3_D3)*%
X194401499Y-90480001D03*
%TO.P,U1,3,GPIO4_A2_D2_3*%
%TO.N,Net-(U1-GPIO4_A2_D2)*%
X196941501Y-90479999D03*
%TO.P,U1,2,GPIO3_A1_D1_2*%
%TO.N,Net-(U1-GPIO3_A1_D1)*%
X199481500Y-90480002D03*
%TO.P,U1,1,GPIO2_A0_D0_1*%
%TO.N,Net-(U1-GPIO2_A0_D0)*%
X202021499Y-90479999D03*
%TD*%
D13*
%TO.P,U3,1,~{SD}_1*%
%TO.N,Net-(U1-GPIO20_D7_RX)*%
X172522500Y-77335000D03*
%TO.P,U3,2,NC_2*%
%TO.N,unconnected-(U3-NC-Pad2)*%
X172522500Y-76685000D03*
%TO.P,U3,3,IN+_3*%
%TO.N,Net-(U1-GPIO8_D8_SCK)*%
X172522500Y-76035000D03*
%TO.P,U3,4,IN-_4*%
%TO.N,GND*%
X172522500Y-75385000D03*
%TO.P,U3,5,OUT+_5*%
%TO.N,Net-(SPK1-+)*%
X169422500Y-75385000D03*
%TO.P,U3,6,VDD_6*%
%TO.N,+3V3*%
X169422500Y-76035000D03*
%TO.P,U3,7,GND_7*%
%TO.N,GND*%
X169422500Y-76685000D03*
%TO.P,U3,8,OUT-_8*%
%TO.N,Net-(SPK1--)*%
X169422500Y-77335000D03*
D14*
%TO.P,U3,9*%
%TO.N,N/C*%
X170972500Y-76360000D03*
%TD*%
D10*
%TO.P,SW1,1,1_1*%
%TO.N,GND*%
X156730000Y-117760000D03*
X156730000Y-112960000D03*
%TO.P,SW1,2,2_2*%
%TO.N,Net-(U1-GPIO2_A0_D0)*%
X159730000Y-117760000D03*
X159730000Y-112960000D03*
%TD*%
%TO.P,SW2,1,1_1*%
%TO.N,GND*%
X156710000Y-107650000D03*
X156710000Y-102850000D03*
%TO.P,SW2,2,2_2*%
%TO.N,Net-(U1-GPIO3_A1_D1)*%
X159710000Y-107650000D03*
X159710000Y-102850000D03*
%TD*%
D15*
%TO.P,U2,*%
%TO.N,*%
X167780000Y-97850000D03*
X167780000Y-121650000D03*
X191080000Y-97850000D03*
X191080000Y-121650000D03*
D16*
%TO.P,U2,1,GND_1*%
%TO.N,GND*%
X175680000Y-97790000D03*
%TO.P,U2,2,VCC_2*%
%TO.N,+3V3*%
X178180000Y-97790000D03*
%TO.P,U2,3,SCL_3*%
%TO.N,Net-(U1-GPIO7_D5_SCL)*%
X180680000Y-97790000D03*
%TO.P,U2,4,SDA_4*%
%TO.N,Net-(U1-GPIO6_D4_SDA)*%
X183180000Y-97790000D03*
%TD*%
D17*
%TO.P,BT1,1,+_1*%
%TO.N,+BATT*%
X177950000Y-122050000D03*
D18*
%TO.P,BT1,2,-_2*%
%TO.N,GND*%
X180490000Y-122050000D03*
%TD*%
D19*
%TO.P,SPK1,1,+_1*%
%TO.N,Net-(SPK1-+)*%
X170930000Y-71070000D03*
D20*
%TO.P,SPK1,2,-_2*%
%TO.N,Net-(SPK1--)*%
X170930000Y-81070000D03*
%TD*%
D21*
%TO.N,Net-(U1-GPIO20_D7_RX)*%
X173719485Y-77630515D03*
%TO.N,GND*%
X173260000Y-74530000D03*
X168714265Y-76784265D03*
%TO.N,Net-(U1-GPIO4_A2_D2)*%
X197210000Y-97410000D03*
%TO.N,+BATT*%
X193124009Y-92624009D03*
%TD*%
%TO.N,Net-(U1-GPIO8_D8_SCK)*%
D22*
X174690000Y-80860000D02*
X175315000Y-81485000D01*
X175315000Y-81485000D02*
X179034607Y-81485000D01*
%TO.N,Net-(SPK1-+)*%
X169422500Y-72577500D02*
X170930000Y-71070000D01*
X169422500Y-75385000D02*
X169422500Y-72577500D01*
%TO.N,GND*%
X198001501Y-73760000D02*
X199481502Y-75240001D01*
X174620000Y-73760000D02*
X198001501Y-73760000D01*
X172995000Y-75385000D02*
X174620000Y-73760000D01*
%TO.N,Net-(U1-GPIO20_D7_RX)*%
X173423970Y-77335000D02*
X173719485Y-77630515D01*
X172522500Y-77335000D02*
X173423970Y-77335000D01*
%TO.N,Net-(U1-GPIO8_D8_SCK)*%
X174690000Y-77752500D02*
X174690000Y-80860000D01*
X172972500Y-76035000D02*
X174690000Y-77752500D01*
X172522500Y-76035000D02*
X172972500Y-76035000D01*
%TO.N,GND*%
X173260000Y-74530000D02*
X173260000Y-75120000D01*
X173260000Y-75120000D02*
X172995000Y-75385000D01*
X172995000Y-75385000D02*
X172522500Y-75385000D01*
X168813530Y-76685000D02*
X168714265Y-76784265D01*
X169422500Y-76685000D02*
X168813530Y-76685000D01*
%TO.N,+3V3*%
X168615000Y-76035000D02*
X169422500Y-76035000D01*
X168110000Y-77960000D02*
X168110000Y-76540000D01*
X168110000Y-76540000D02*
X168615000Y-76035000D01*
X168797500Y-78647500D02*
X168110000Y-77960000D01*
X178180000Y-97790000D02*
X168797500Y-88407500D01*
X168797500Y-88407500D02*
X168797500Y-78647500D01*
%TO.N,Net-(SPK1--)*%
X169422500Y-79562500D02*
X170930000Y-81070000D01*
X169422500Y-77335000D02*
X169422500Y-79562500D01*
%TO.N,Net-(U1-GPIO4_A2_D2)*%
X197210000Y-110320000D02*
X197210000Y-97410000D01*
X199800000Y-112910000D02*
X197210000Y-110320000D01*
%TO.N,+BATT*%
X193124009Y-92624009D02*
X193124009Y-88968494D01*
X193124009Y-88968494D02*
X194787502Y-87305001D01*
%TO.N,GND*%
X201700000Y-114010000D02*
X202800000Y-112910000D01*
X188530000Y-114010000D02*
X201700000Y-114010000D01*
X180490000Y-122050000D02*
X188530000Y-114010000D01*
%TO.N,Net-(U1-GPIO2_A0_D0)*%
X159730000Y-112960000D02*
X179541498Y-112960000D01*
X179541498Y-112960000D02*
X202021499Y-90479999D01*
%TO.N,Net-(U1-GPIO3_A1_D1)*%
X195054548Y-91541999D02*
X198419503Y-91541999D01*
X198419503Y-91541999D02*
X199481500Y-90480002D01*
X183746547Y-102850000D02*
X195054548Y-91541999D01*
X159710000Y-102850000D02*
X183746547Y-102850000D01*
%TO.N,GND*%
X173970000Y-99500000D02*
X175680000Y-97790000D01*
X160060000Y-99500000D02*
X173970000Y-99500000D01*
X156710000Y-102850000D02*
X160060000Y-99500000D01*
%TO.N,Net-(U1-GPIO8_D8_SCK)*%
X179034607Y-81485000D02*
X186341606Y-74178001D01*
X186341606Y-74178001D02*
X188259503Y-74178001D01*
X188259503Y-74178001D02*
X189321500Y-75239998D01*
%TO.N,GND*%
X156730000Y-112960000D02*
X156730000Y-107670000D01*
X156730000Y-107670000D02*
X156710000Y-107650000D01*
X199481502Y-84515998D02*
X196692500Y-87305000D01*
X156730000Y-117760000D02*
X156730000Y-112960000D01*
X156710000Y-107650000D02*
X156710000Y-102850000D01*
X199481502Y-75240001D02*
X199481502Y-84515998D01*
%TO.N,+3V3*%
X196941500Y-75240000D02*
X196941500Y-78208500D01*
X196941500Y-78208500D02*
X178290000Y-96860000D01*
%TO.N,Net-(U1-GPIO2_A0_D0)*%
X159730000Y-112960000D02*
X159730000Y-117760000D01*
%TO.N,Net-(U1-GPIO3_A1_D1)*%
X159710000Y-107650000D02*
X159710000Y-102850000D01*
%TD*%
%TA.AperFunction,Conductor*%
%TO.N,GND*%
G36*
X181804828Y-53490900D02*
G01*
X181893290Y-53498034D01*
X181907172Y-53499949D01*
X182061241Y-53530163D01*
X182076786Y-53534274D01*
X182224969Y-53583948D01*
X182241180Y-53590693D01*
X182368049Y-53654386D01*
X182384341Y-53664198D01*
X182509391Y-53753246D01*
X182517207Y-53759295D01*
X203703368Y-71550879D01*
X203709072Y-71555977D01*
X203879502Y-71718037D01*
X203890147Y-71729524D01*
X204030808Y-71901987D01*
X204039562Y-71914153D01*
X204166128Y-72114583D01*
X204172980Y-72126942D01*
X204283866Y-72356957D01*
X204288955Y-72369131D01*
X204380976Y-72627011D01*
X204384526Y-72638768D01*
X204453369Y-72915676D01*
X204455621Y-72926938D01*
X204496641Y-73196501D01*
X204497788Y-73207071D01*
X204509236Y-73382285D01*
X204509500Y-73390370D01*
X204509500Y-125011944D01*
X204509293Y-125019106D01*
X204493413Y-125293575D01*
X204491638Y-125308494D01*
X204449840Y-125539462D01*
X204446098Y-125554622D01*
X204380034Y-125764440D01*
X204374294Y-125779271D01*
X204285037Y-125972169D01*
X204277464Y-125986117D01*
X204164756Y-126165308D01*
X204155669Y-126177925D01*
X204018822Y-126344772D01*
X204008620Y-126355779D01*
X203848114Y-126509177D01*
X203837183Y-126518475D01*
X203657955Y-126653867D01*
X203646580Y-126661511D01*
X203466255Y-126768718D01*
X203454547Y-126774859D01*
X203324234Y-126834578D01*
X203315050Y-126838349D01*
X183732869Y-133978206D01*
X183731164Y-133978814D01*
X183584024Y-134030041D01*
X183580532Y-134031199D01*
X183025739Y-134206079D01*
X183020492Y-134207606D01*
X182447747Y-134360757D01*
X182441254Y-134362308D01*
X181949263Y-134465857D01*
X181941033Y-134467301D01*
X181552661Y-134522050D01*
X181542006Y-134523085D01*
X181239894Y-134539321D01*
X181233240Y-134539500D01*
X178225299Y-134539500D01*
X178219228Y-134539351D01*
X178194606Y-134538144D01*
X177909616Y-134524173D01*
X177902066Y-134523571D01*
X177458007Y-134474491D01*
X177450275Y-134473389D01*
X176980953Y-134391340D01*
X176972922Y-134389661D01*
X176517902Y-134278671D01*
X176509503Y-134276306D01*
X176074495Y-134137135D01*
X176069766Y-134135517D01*
X171186289Y-132353226D01*
X166296718Y-130568711D01*
X177629500Y-130568711D01*
X177629500Y-130811288D01*
X177661161Y-131051785D01*
X177723947Y-131286104D01*
X177816773Y-131510205D01*
X177816776Y-131510212D01*
X177938064Y-131720289D01*
X177938066Y-131720292D01*
X177938067Y-131720293D01*
X178085733Y-131912736D01*
X178085739Y-131912743D01*
X178257256Y-132084260D01*
X178257262Y-132084265D01*
X178449711Y-132231936D01*
X178659788Y-132353224D01*
X178883900Y-132446054D01*
X179118211Y-132508838D01*
X179298586Y-132532584D01*
X179358711Y-132540500D01*
X179358712Y-132540500D01*
X179601289Y-132540500D01*
X179649388Y-132534167D01*
X179841789Y-132508838D01*
X180076100Y-132446054D01*
X180300212Y-132353224D01*
X180510289Y-132231936D01*
X180702738Y-132084265D01*
X180874265Y-131912738D01*
X181021936Y-131720289D01*
X181143224Y-131510212D01*
X181236054Y-131286100D01*
X181298838Y-131051789D01*
X181330500Y-130811288D01*
X181330500Y-130568712D01*
X181298838Y-130328211D01*
X181236054Y-130093900D01*
X181143224Y-129869788D01*
X181021936Y-129659711D01*
X180874265Y-129467262D01*
X180874260Y-129467256D01*
X180702743Y-129295739D01*
X180702736Y-129295733D01*
X180510293Y-129148067D01*
X180510292Y-129148066D01*
X180510289Y-129148064D01*
X180300212Y-129026776D01*
X180300205Y-129026773D01*
X180076104Y-128933947D01*
X179841785Y-128871161D01*
X179601289Y-128839500D01*
X179601288Y-128839500D01*
X179358712Y-128839500D01*
X179358711Y-128839500D01*
X179118214Y-128871161D01*
X178883895Y-128933947D01*
X178659794Y-129026773D01*
X178659785Y-129026777D01*
X178449706Y-129148067D01*
X178257263Y-129295733D01*
X178257256Y-129295739D01*
X178085739Y-129467256D01*
X178085733Y-129467263D01*
X177938067Y-129659706D01*
X177816777Y-129869785D01*
X177816773Y-129869794D01*
X177723947Y-130093895D01*
X177661161Y-130328214D01*
X177629500Y-130568711D01*
X166296718Y-130568711D01*
X156918576Y-127146031D01*
X156911905Y-127143374D01*
X156652707Y-127031377D01*
X156639586Y-127024759D01*
X156428257Y-126901945D01*
X156415598Y-126893510D01*
X156231533Y-126753816D01*
X156219838Y-126743733D01*
X156101528Y-126628135D01*
X156059022Y-126586602D01*
X156048713Y-126575197D01*
X155908494Y-126399260D01*
X155899858Y-126386961D01*
X155779284Y-126190957D01*
X155772421Y-126178184D01*
X155672330Y-125962445D01*
X155667222Y-125949598D01*
X155590091Y-125718777D01*
X155586581Y-125706049D01*
X155535935Y-125475009D01*
X155533863Y-125462556D01*
X155527590Y-125407735D01*
X155512012Y-125271595D01*
X155511298Y-125262168D01*
X155510584Y-125242956D01*
X155510500Y-125238397D01*
X155510500Y-121528711D01*
X165929500Y-121528711D01*
X165929500Y-121771288D01*
X165961161Y-122011785D01*
X166023947Y-122246104D01*
X166073664Y-122366130D01*
X166116776Y-122470212D01*
X166238064Y-122680289D01*
X166238066Y-122680292D01*
X166238067Y-122680293D01*
X166385733Y-122872736D01*
X166385739Y-122872743D01*
X166557256Y-123044260D01*
X166557262Y-123044265D01*
X166749711Y-123191936D01*
X166959788Y-123313224D01*
X167183900Y-123406054D01*
X167418211Y-123468838D01*
X167598586Y-123492584D01*
X167658711Y-123500500D01*
X167658712Y-123500500D01*
X167901289Y-123500500D01*
X167949388Y-123494167D01*
X168141789Y-123468838D01*
X168376100Y-123406054D01*
X168600212Y-123313224D01*
X168810289Y-123191936D01*
X169002738Y-123044265D01*
X169174265Y-122872738D01*
X169321936Y-122680289D01*
X169443224Y-122470212D01*
X169536054Y-122246100D01*
X169598838Y-122011789D01*
X169630500Y-121771288D01*
X169630500Y-121528712D01*
X169598838Y-121288211D01*
X169562376Y-121152135D01*
X176599500Y-121152135D01*
X176599500Y-122947870D01*
X176599501Y-122947876D01*
X176605908Y-123007483D01*
X176656202Y-123142328D01*
X176656206Y-123142335D01*
X176742452Y-123257544D01*
X176742455Y-123257547D01*
X176857664Y-123343793D01*
X176857671Y-123343797D01*
X176992517Y-123394091D01*
X176992516Y-123394091D01*
X176999444Y-123394835D01*
X177052127Y-123400500D01*
X178847872Y-123400499D01*
X178907483Y-123394091D01*
X179042331Y-123343796D01*
X179157546Y-123257546D01*
X179243796Y-123142331D01*
X179294091Y-123007483D01*
X179300500Y-122947873D01*
X179300499Y-122923979D01*
X179303330Y-122910963D01*
X179313940Y-122891525D01*
X179320179Y-122870275D01*
X179336803Y-122849643D01*
X179336808Y-122849636D01*
X179336811Y-122849634D01*
X179336818Y-122849626D01*
X180007037Y-122179408D01*
X180024075Y-122242993D01*
X180089901Y-122357007D01*
X180182993Y-122450099D01*
X180297007Y-122515925D01*
X180360590Y-122532962D01*
X179728282Y-123165269D01*
X179728282Y-123165270D01*
X179782449Y-123204624D01*
X179971782Y-123301095D01*
X180173870Y-123366757D01*
X180383754Y-123400000D01*
X180596246Y-123400000D01*
X180806127Y-123366757D01*
X180806130Y-123366757D01*
X181008217Y-123301095D01*
X181197554Y-123204622D01*
X181251716Y-123165270D01*
X181251717Y-123165270D01*
X180619408Y-122532962D01*
X180682993Y-122515925D01*
X180797007Y-122450099D01*
X180890099Y-122357007D01*
X180955925Y-122242993D01*
X180972962Y-122179408D01*
X181605270Y-122811717D01*
X181605270Y-122811716D01*
X181644622Y-122757554D01*
X181741095Y-122568217D01*
X181806757Y-122366130D01*
X181806757Y-122366127D01*
X181840000Y-122156246D01*
X181840000Y-121943753D01*
X181806757Y-121733872D01*
X181806757Y-121733869D01*
X181751229Y-121562971D01*
X181751228Y-121562969D01*
X181741096Y-121531784D01*
X181739530Y-121528711D01*
X189229500Y-121528711D01*
X189229500Y-121771288D01*
X189261161Y-122011785D01*
X189323947Y-122246104D01*
X189373664Y-122366130D01*
X189416776Y-122470212D01*
X189538064Y-122680289D01*
X189538066Y-122680292D01*
X189538067Y-122680293D01*
X189685733Y-122872736D01*
X189685739Y-122872743D01*
X189857256Y-123044260D01*
X189857262Y-123044265D01*
X190049711Y-123191936D01*
X190259788Y-123313224D01*
X190483900Y-123406054D01*
X190718211Y-123468838D01*
X190898586Y-123492584D01*
X190958711Y-123500500D01*
X190958712Y-123500500D01*
X191201289Y-123500500D01*
X191249388Y-123494167D01*
X191441789Y-123468838D01*
X191676100Y-123406054D01*
X191900212Y-123313224D01*
X192110289Y-123191936D01*
X192302738Y-123044265D01*
X192474265Y-122872738D01*
X192621936Y-122680289D01*
X192743224Y-122470212D01*
X192836054Y-122246100D01*
X192898838Y-122011789D01*
X192930500Y-121771288D01*
X192930500Y-121528712D01*
X192898838Y-121288211D01*
X192836054Y-121053900D01*
X192743224Y-120829788D01*
X192621936Y-120619711D01*
X192474265Y-120427262D01*
X192474260Y-120427256D01*
X192302743Y-120255739D01*
X192302736Y-120255733D01*
X192110293Y-120108067D01*
X192110292Y-120108066D01*
X192110289Y-120108064D01*
X191900212Y-119986776D01*
X191900205Y-119986773D01*
X191676104Y-119893947D01*
X191441785Y-119831161D01*
X191201289Y-119799500D01*
X191201288Y-119799500D01*
X190958712Y-119799500D01*
X190958711Y-119799500D01*
X190718214Y-119831161D01*
X190483895Y-119893947D01*
X190259794Y-119986773D01*
X190259785Y-119986777D01*
X190049706Y-120108067D01*
X189857263Y-120255733D01*
X189857256Y-120255739D01*
X189685739Y-120427256D01*
X189685733Y-120427263D01*
X189538067Y-120619706D01*
X189416777Y-120829785D01*
X189416773Y-120829794D01*
X189323947Y-121053895D01*
X189261161Y-121288214D01*
X189229500Y-121528711D01*
X181739530Y-121528711D01*
X181644624Y-121342449D01*
X181605270Y-121288282D01*
X181605269Y-121288282D01*
X180972962Y-121920590D01*
X180955925Y-121857007D01*
X180890099Y-121742993D01*
X180797007Y-121649901D01*
X180682993Y-121584075D01*
X180619409Y-121567037D01*
X181251716Y-120934728D01*
X181197550Y-120895375D01*
X181008217Y-120798904D01*
X180806129Y-120733242D01*
X180596246Y-120700000D01*
X180383754Y-120700000D01*
X180173872Y-120733242D01*
X180173869Y-120733242D01*
X179971782Y-120798904D01*
X179782439Y-120895380D01*
X179728282Y-120934727D01*
X179728282Y-120934728D01*
X180360591Y-121567037D01*
X180297007Y-121584075D01*
X180182993Y-121649901D01*
X180089901Y-121742993D01*
X180024075Y-121857007D01*
X180007037Y-121920591D01*
X179336818Y-121250372D01*
X179303333Y-121189049D01*
X179303330Y-121189036D01*
X179300499Y-121176015D01*
X179300499Y-121152128D01*
X179294091Y-121092517D01*
X179265926Y-121017002D01*
X179243798Y-120957673D01*
X179243793Y-120957664D01*
X179157547Y-120842455D01*
X179157544Y-120842452D01*
X179042335Y-120756206D01*
X179042328Y-120756202D01*
X178907482Y-120705908D01*
X178907483Y-120705908D01*
X178847883Y-120699501D01*
X178847881Y-120699500D01*
X178847873Y-120699500D01*
X178847864Y-120699500D01*
X177052129Y-120699500D01*
X177052123Y-120699501D01*
X176992516Y-120705908D01*
X176857671Y-120756202D01*
X176857664Y-120756206D01*
X176742455Y-120842452D01*
X176742452Y-120842455D01*
X176656206Y-120957664D01*
X176656202Y-120957671D01*
X176605908Y-121092517D01*
X176599501Y-121152116D01*
X176599500Y-121152135D01*
X169562376Y-121152135D01*
X169536054Y-121053900D01*
X169520770Y-121017002D01*
X169470391Y-120895375D01*
X169443224Y-120829788D01*
X169321936Y-120619711D01*
X169174265Y-120427262D01*
X169174260Y-120427256D01*
X169002743Y-120255739D01*
X169002736Y-120255733D01*
X168810293Y-120108067D01*
X168810292Y-120108066D01*
X168810289Y-120108064D01*
X168600212Y-119986776D01*
X168600205Y-119986773D01*
X168376104Y-119893947D01*
X168141785Y-119831161D01*
X167901289Y-119799500D01*
X167901288Y-119799500D01*
X167658712Y-119799500D01*
X167658711Y-119799500D01*
X167418214Y-119831161D01*
X167183895Y-119893947D01*
X166959794Y-119986773D01*
X166959785Y-119986777D01*
X166749706Y-120108067D01*
X166557263Y-120255733D01*
X166557256Y-120255739D01*
X166385739Y-120427256D01*
X166385733Y-120427263D01*
X166238067Y-120619706D01*
X166116777Y-120829785D01*
X166116773Y-120829794D01*
X166023947Y-121053895D01*
X165961161Y-121288214D01*
X165929500Y-121528711D01*
X155510500Y-121528711D01*
X155510500Y-118609044D01*
X155530185Y-118542005D01*
X155582989Y-118496250D01*
X155644230Y-118485426D01*
X155650525Y-118485921D01*
X156247038Y-117889408D01*
X156264076Y-117952992D01*
X156329902Y-118067006D01*
X156422994Y-118160098D01*
X156537008Y-118225924D01*
X156600590Y-118242961D01*
X156004076Y-118839474D01*
X156048650Y-118871859D01*
X156230968Y-118964755D01*
X156425582Y-119027990D01*
X156627683Y-119060000D01*
X156832317Y-119060000D01*
X157034417Y-119027990D01*
X157229031Y-118964755D01*
X157411349Y-118871859D01*
X157455921Y-118839474D01*
X156859408Y-118242961D01*
X156922992Y-118225924D01*
X157037006Y-118160098D01*
X157130098Y-118067006D01*
X157195924Y-117952992D01*
X157212961Y-117889408D01*
X157809474Y-118485921D01*
X157841859Y-118441349D01*
X157934755Y-118259031D01*
X157997990Y-118064417D01*
X158030000Y-117862317D01*
X158030000Y-117657682D01*
X157997990Y-117455582D01*
X157934755Y-117260968D01*
X157841859Y-117078650D01*
X157809474Y-117034077D01*
X157809474Y-117034076D01*
X157212961Y-117630590D01*
X157195924Y-117567008D01*
X157130098Y-117452994D01*
X157037006Y-117359902D01*
X156922992Y-117294076D01*
X156859407Y-117277038D01*
X157455922Y-116680524D01*
X157455921Y-116680523D01*
X157411359Y-116648147D01*
X157411350Y-116648141D01*
X157229031Y-116555244D01*
X157034417Y-116492009D01*
X156832317Y-116460000D01*
X156627683Y-116460000D01*
X156425582Y-116492009D01*
X156230968Y-116555244D01*
X156048644Y-116648143D01*
X156004077Y-116680523D01*
X156004077Y-116680524D01*
X156600592Y-117277038D01*
X156537008Y-117294076D01*
X156422994Y-117359902D01*
X156329902Y-117452994D01*
X156264076Y-117567008D01*
X156247038Y-117630591D01*
X155650523Y-117034076D01*
X155644228Y-117034572D01*
X155630618Y-117031712D01*
X155616853Y-117033692D01*
X155597099Y-117024671D01*
X155575851Y-117020207D01*
X155565947Y-117010444D01*
X155553297Y-117004667D01*
X155541557Y-116986400D01*
X155526094Y-116971156D01*
X155522267Y-116956383D01*
X155515523Y-116945889D01*
X155510500Y-116910954D01*
X155510500Y-113809044D01*
X155530185Y-113742005D01*
X155582989Y-113696250D01*
X155644230Y-113685426D01*
X155650525Y-113685921D01*
X156247038Y-113089408D01*
X156264076Y-113152992D01*
X156329902Y-113267006D01*
X156422994Y-113360098D01*
X156537008Y-113425924D01*
X156600590Y-113442961D01*
X156004076Y-114039474D01*
X156048650Y-114071859D01*
X156230968Y-114164755D01*
X156425582Y-114227990D01*
X156627683Y-114260000D01*
X156832317Y-114260000D01*
X157034417Y-114227990D01*
X157229031Y-114164755D01*
X157411349Y-114071859D01*
X157455921Y-114039474D01*
X156859408Y-113442961D01*
X156922992Y-113425924D01*
X157037006Y-113360098D01*
X157130098Y-113267006D01*
X157195924Y-113152992D01*
X157212961Y-113089408D01*
X157809474Y-113685921D01*
X157841859Y-113641349D01*
X157934755Y-113459031D01*
X157997990Y-113264417D01*
X158030000Y-113062317D01*
X158030000Y-112857682D01*
X157997990Y-112655582D01*
X157934755Y-112460968D01*
X157841859Y-112278650D01*
X157809474Y-112234077D01*
X157809474Y-112234076D01*
X157212961Y-112830590D01*
X157195924Y-112767008D01*
X157130098Y-112652994D01*
X157037006Y-112559902D01*
X156922992Y-112494076D01*
X156859407Y-112477038D01*
X157455922Y-111880524D01*
X157455921Y-111880523D01*
X157411359Y-111848147D01*
X157411350Y-111848141D01*
X157229031Y-111755244D01*
X157034417Y-111692009D01*
X156832317Y-111660000D01*
X156627683Y-111660000D01*
X156425582Y-111692009D01*
X156230968Y-111755244D01*
X156048644Y-111848143D01*
X156004077Y-111880523D01*
X156004077Y-111880524D01*
X156600592Y-112477038D01*
X156537008Y-112494076D01*
X156422994Y-112559902D01*
X156329902Y-112652994D01*
X156264076Y-112767008D01*
X156247038Y-112830591D01*
X155650523Y-112234076D01*
X155644228Y-112234572D01*
X155630618Y-112231712D01*
X155616853Y-112233692D01*
X155597099Y-112224671D01*
X155575851Y-112220207D01*
X155565947Y-112210444D01*
X155553297Y-112204667D01*
X155541557Y-112186400D01*
X155526094Y-112171156D01*
X155522267Y-112156383D01*
X155515523Y-112145889D01*
X155510500Y-112110954D01*
X155510500Y-108500618D01*
X155530185Y-108433579D01*
X155582989Y-108387824D01*
X155626273Y-108380173D01*
X156227038Y-107779408D01*
X156244076Y-107842992D01*
X156309902Y-107957006D01*
X156402994Y-108050098D01*
X156517008Y-108115924D01*
X156580590Y-108132961D01*
X155984076Y-108729474D01*
X156028650Y-108761859D01*
X156210968Y-108854755D01*
X156405582Y-108917990D01*
X156607683Y-108950000D01*
X156812317Y-108950000D01*
X157014417Y-108917990D01*
X157209031Y-108854755D01*
X157391349Y-108761859D01*
X157435921Y-108729474D01*
X156839408Y-108132961D01*
X156902992Y-108115924D01*
X157017006Y-108050098D01*
X157110098Y-107957006D01*
X157175924Y-107842992D01*
X157192961Y-107779409D01*
X157789474Y-108375922D01*
X157789474Y-108375921D01*
X157821859Y-108331349D01*
X157914755Y-108149031D01*
X157977990Y-107954417D01*
X158010000Y-107752317D01*
X158010000Y-107547682D01*
X157977990Y-107345582D01*
X157914755Y-107150968D01*
X157821859Y-106968650D01*
X157789474Y-106924077D01*
X157789474Y-106924076D01*
X157192961Y-107520590D01*
X157175924Y-107457008D01*
X157110098Y-107342994D01*
X157017006Y-107249902D01*
X156902992Y-107184076D01*
X156839407Y-107167038D01*
X157435922Y-106570524D01*
X157435921Y-106570523D01*
X157391359Y-106538147D01*
X157391350Y-106538141D01*
X157209031Y-106445244D01*
X157014417Y-106382009D01*
X156812317Y-106350000D01*
X156607683Y-106350000D01*
X156405582Y-106382009D01*
X156210968Y-106445244D01*
X156028644Y-106538143D01*
X155984077Y-106570523D01*
X155984077Y-106570524D01*
X156580592Y-107167038D01*
X156517008Y-107184076D01*
X156402994Y-107249902D01*
X156309902Y-107342994D01*
X156244076Y-107457008D01*
X156227038Y-107520591D01*
X155627092Y-106920645D01*
X155616853Y-106922118D01*
X155597099Y-106913097D01*
X155575851Y-106908633D01*
X155565948Y-106898870D01*
X155553297Y-106893093D01*
X155541556Y-106874824D01*
X155526094Y-106859581D01*
X155522267Y-106844810D01*
X155515523Y-106834315D01*
X155510500Y-106799380D01*
X155510500Y-103700618D01*
X155530185Y-103633579D01*
X155582989Y-103587824D01*
X155626273Y-103580173D01*
X156227038Y-102979408D01*
X156244076Y-103042992D01*
X156309902Y-103157006D01*
X156402994Y-103250098D01*
X156517008Y-103315924D01*
X156580590Y-103332961D01*
X155984076Y-103929474D01*
X156028650Y-103961859D01*
X156210968Y-104054755D01*
X156405582Y-104117990D01*
X156607683Y-104150000D01*
X156812317Y-104150000D01*
X157014417Y-104117990D01*
X157209031Y-104054755D01*
X157391349Y-103961859D01*
X157435921Y-103929474D01*
X156839408Y-103332961D01*
X156902992Y-103315924D01*
X157017006Y-103250098D01*
X157110098Y-103157006D01*
X157175924Y-103042992D01*
X157192961Y-102979409D01*
X157789474Y-103575922D01*
X157789474Y-103575921D01*
X157821859Y-103531349D01*
X157914755Y-103349031D01*
X157977990Y-103154417D01*
X158010000Y-102952317D01*
X158010000Y-102747682D01*
X158009995Y-102747648D01*
X158409500Y-102747648D01*
X158409500Y-102952351D01*
X158441522Y-103154534D01*
X158504781Y-103349223D01*
X158597715Y-103531613D01*
X158718028Y-103697213D01*
X158718034Y-103697219D01*
X158862781Y-103841966D01*
X159028390Y-103962287D01*
X159041793Y-103969116D01*
X159092589Y-104017088D01*
X159109500Y-104079601D01*
X159109500Y-106420397D01*
X159089815Y-106487436D01*
X159041800Y-106530879D01*
X159028389Y-106537712D01*
X158862786Y-106658028D01*
X158718028Y-106802786D01*
X158597715Y-106968386D01*
X158504781Y-107150776D01*
X158441522Y-107345465D01*
X158409500Y-107547648D01*
X158409500Y-107752351D01*
X158441522Y-107954534D01*
X158504781Y-108149223D01*
X158597715Y-108331613D01*
X158718028Y-108497213D01*
X158862786Y-108641971D01*
X158949843Y-108705220D01*
X159028390Y-108762287D01*
X159144607Y-108821503D01*
X159210776Y-108855218D01*
X159210778Y-108855218D01*
X159210781Y-108855220D01*
X159315137Y-108889127D01*
X159405465Y-108918477D01*
X159506557Y-108934488D01*
X159607648Y-108950500D01*
X159607649Y-108950500D01*
X159812351Y-108950500D01*
X159812352Y-108950500D01*
X160014534Y-108918477D01*
X160209219Y-108855220D01*
X160391610Y-108762287D01*
X160484590Y-108694732D01*
X160557213Y-108641971D01*
X160557215Y-108641968D01*
X160557219Y-108641966D01*
X160701966Y-108497219D01*
X160701968Y-108497215D01*
X160701971Y-108497213D01*
X160787004Y-108380173D01*
X160822287Y-108331610D01*
X160915220Y-108149219D01*
X160978477Y-107954534D01*
X161010500Y-107752352D01*
X161010500Y-107547648D01*
X160986742Y-107397648D01*
X160978477Y-107345465D01*
X160929739Y-107195466D01*
X160915220Y-107150781D01*
X160915218Y-107150778D01*
X160915218Y-107150776D01*
X160881503Y-107084607D01*
X160822287Y-106968390D01*
X160790092Y-106924077D01*
X160701971Y-106802786D01*
X160557213Y-106658028D01*
X160391610Y-106537712D01*
X160378200Y-106530879D01*
X160327406Y-106482903D01*
X160310500Y-106420397D01*
X160310500Y-104079601D01*
X160330185Y-104012562D01*
X160378206Y-103969116D01*
X160391610Y-103962287D01*
X160557219Y-103841966D01*
X160701966Y-103697219D01*
X160701968Y-103697215D01*
X160701971Y-103697213D01*
X160822284Y-103531614D01*
X160822285Y-103531613D01*
X160822287Y-103531610D01*
X160829117Y-103518204D01*
X160877091Y-103467409D01*
X160939602Y-103450500D01*
X183659878Y-103450500D01*
X183659894Y-103450501D01*
X183667490Y-103450501D01*
X183825601Y-103450501D01*
X183825604Y-103450501D01*
X183978332Y-103409577D01*
X184028451Y-103380639D01*
X184115263Y-103330520D01*
X184227067Y-103218716D01*
X184227067Y-103218714D01*
X184237275Y-103208507D01*
X184237277Y-103208504D01*
X189103554Y-98342226D01*
X189164875Y-98308743D01*
X189234567Y-98313727D01*
X189290500Y-98355599D01*
X189311007Y-98397812D01*
X189317382Y-98421604D01*
X189323948Y-98446106D01*
X189376843Y-98573806D01*
X189416776Y-98670212D01*
X189538064Y-98880289D01*
X189538066Y-98880292D01*
X189538067Y-98880293D01*
X189685733Y-99072736D01*
X189685739Y-99072743D01*
X189857256Y-99244260D01*
X189857262Y-99244265D01*
X190049711Y-99391936D01*
X190259788Y-99513224D01*
X190483900Y-99606054D01*
X190718211Y-99668838D01*
X190898586Y-99692584D01*
X190958711Y-99700500D01*
X190958712Y-99700500D01*
X191201289Y-99700500D01*
X191249388Y-99694167D01*
X191441789Y-99668838D01*
X191676100Y-99606054D01*
X191731977Y-99582908D01*
X191801446Y-99575440D01*
X191863925Y-99606715D01*
X191899578Y-99666804D01*
X191897085Y-99736629D01*
X191867111Y-99785151D01*
X179329082Y-112323181D01*
X179267759Y-112356666D01*
X179241401Y-112359500D01*
X160959602Y-112359500D01*
X160892563Y-112339815D01*
X160849117Y-112291795D01*
X160842284Y-112278385D01*
X160721971Y-112112786D01*
X160577213Y-111968028D01*
X160411613Y-111847715D01*
X160411612Y-111847714D01*
X160411610Y-111847713D01*
X160354653Y-111818691D01*
X160229223Y-111754781D01*
X160034534Y-111691522D01*
X159859995Y-111663878D01*
X159832352Y-111659500D01*
X159627648Y-111659500D01*
X159603329Y-111663351D01*
X159425465Y-111691522D01*
X159230776Y-111754781D01*
X159048386Y-111847715D01*
X158882786Y-111968028D01*
X158738028Y-112112786D01*
X158617715Y-112278386D01*
X158524781Y-112460776D01*
X158461522Y-112655465D01*
X158429500Y-112857648D01*
X158429500Y-113062351D01*
X158461522Y-113264534D01*
X158524781Y-113459223D01*
X158576385Y-113560500D01*
X158614814Y-113635921D01*
X158617715Y-113641613D01*
X158738028Y-113807213D01*
X158738034Y-113807219D01*
X158882781Y-113951966D01*
X159048390Y-114072287D01*
X159061793Y-114079116D01*
X159112589Y-114127088D01*
X159129500Y-114189601D01*
X159129500Y-116530397D01*
X159109815Y-116597436D01*
X159061800Y-116640879D01*
X159048389Y-116647712D01*
X158882786Y-116768028D01*
X158738028Y-116912786D01*
X158617715Y-117078386D01*
X158524781Y-117260776D01*
X158461522Y-117455465D01*
X158429500Y-117657648D01*
X158429500Y-117862351D01*
X158461522Y-118064534D01*
X158524781Y-118259223D01*
X158588691Y-118384653D01*
X158614814Y-118435921D01*
X158617715Y-118441613D01*
X158738028Y-118607213D01*
X158882786Y-118751971D01*
X158978981Y-118821859D01*
X159048390Y-118872287D01*
X159132647Y-118915218D01*
X159230776Y-118965218D01*
X159230778Y-118965218D01*
X159230781Y-118965220D01*
X159335137Y-118999127D01*
X159425465Y-119028477D01*
X159526557Y-119044488D01*
X159627648Y-119060500D01*
X159627649Y-119060500D01*
X159832351Y-119060500D01*
X159832352Y-119060500D01*
X160034534Y-119028477D01*
X160229219Y-118965220D01*
X160411610Y-118872287D01*
X160504590Y-118804732D01*
X160577213Y-118751971D01*
X160577215Y-118751968D01*
X160577219Y-118751966D01*
X160721966Y-118607219D01*
X160721968Y-118607215D01*
X160721971Y-118607213D01*
X160810453Y-118485426D01*
X160842287Y-118441610D01*
X160935220Y-118259219D01*
X160998477Y-118064534D01*
X161030500Y-117862352D01*
X161030500Y-117657648D01*
X161022581Y-117607648D01*
X198499500Y-117607648D01*
X198499500Y-117812351D01*
X198531522Y-118014534D01*
X198594781Y-118209223D01*
X198658691Y-118334653D01*
X198687585Y-118391359D01*
X198687715Y-118391613D01*
X198808028Y-118557213D01*
X198952786Y-118701971D01*
X199073226Y-118789474D01*
X199118390Y-118822287D01*
X199234607Y-118881503D01*
X199300776Y-118915218D01*
X199300778Y-118915218D01*
X199300781Y-118915220D01*
X199405137Y-118949127D01*
X199495465Y-118978477D01*
X199596557Y-118994488D01*
X199697648Y-119010500D01*
X199697649Y-119010500D01*
X199902351Y-119010500D01*
X199902352Y-119010500D01*
X200104534Y-118978477D01*
X200299219Y-118915220D01*
X200481610Y-118822287D01*
X200574590Y-118754732D01*
X200647213Y-118701971D01*
X200647215Y-118701968D01*
X200647219Y-118701966D01*
X200791966Y-118557219D01*
X200791968Y-118557215D01*
X200791971Y-118557213D01*
X200875960Y-118441610D01*
X200912287Y-118391610D01*
X201005220Y-118209219D01*
X201068477Y-118014534D01*
X201100500Y-117812352D01*
X201100500Y-117607682D01*
X201500000Y-117607682D01*
X201500000Y-117812317D01*
X201532009Y-118014417D01*
X201595244Y-118209031D01*
X201688141Y-118391350D01*
X201688147Y-118391359D01*
X201720523Y-118435921D01*
X201720524Y-118435922D01*
X202317038Y-117839408D01*
X202334076Y-117902992D01*
X202399902Y-118017006D01*
X202492994Y-118110098D01*
X202607008Y-118175924D01*
X202670590Y-118192961D01*
X202074076Y-118789474D01*
X202118650Y-118821859D01*
X202300968Y-118914755D01*
X202495582Y-118977990D01*
X202697683Y-119010000D01*
X202902317Y-119010000D01*
X203104417Y-118977990D01*
X203299031Y-118914755D01*
X203481349Y-118821859D01*
X203525921Y-118789474D01*
X202929408Y-118192961D01*
X202992992Y-118175924D01*
X203107006Y-118110098D01*
X203200098Y-118017006D01*
X203265924Y-117902992D01*
X203282961Y-117839408D01*
X203879474Y-118435921D01*
X203911859Y-118391349D01*
X204004755Y-118209031D01*
X204067990Y-118014417D01*
X204100000Y-117812317D01*
X204100000Y-117607682D01*
X204067990Y-117405582D01*
X204004755Y-117210968D01*
X203911859Y-117028650D01*
X203879474Y-116984077D01*
X203879474Y-116984076D01*
X203282961Y-117580590D01*
X203265924Y-117517008D01*
X203200098Y-117402994D01*
X203107006Y-117309902D01*
X202992992Y-117244076D01*
X202929407Y-117227038D01*
X203525922Y-116630524D01*
X203525921Y-116630523D01*
X203481359Y-116598147D01*
X203481350Y-116598141D01*
X203299031Y-116505244D01*
X203104417Y-116442009D01*
X202902317Y-116410000D01*
X202697683Y-116410000D01*
X202495582Y-116442009D01*
X202300968Y-116505244D01*
X202118644Y-116598143D01*
X202074077Y-116630523D01*
X202074077Y-116630524D01*
X202670592Y-117227038D01*
X202607008Y-117244076D01*
X202492994Y-117309902D01*
X202399902Y-117402994D01*
X202334076Y-117517008D01*
X202317038Y-117580591D01*
X201720524Y-116984077D01*
X201720523Y-116984077D01*
X201688143Y-117028644D01*
X201595244Y-117210968D01*
X201532009Y-117405582D01*
X201500000Y-117607682D01*
X201100500Y-117607682D01*
X201100500Y-117607648D01*
X201068632Y-117406446D01*
X201068477Y-117405465D01*
X201021464Y-117260776D01*
X201005220Y-117210781D01*
X201005218Y-117210778D01*
X201005218Y-117210776D01*
X200971503Y-117144607D01*
X200912287Y-117028390D01*
X200880092Y-116984077D01*
X200791971Y-116862786D01*
X200647213Y-116718028D01*
X200481613Y-116597715D01*
X200481612Y-116597714D01*
X200481610Y-116597713D01*
X200398260Y-116555244D01*
X200299223Y-116504781D01*
X200104534Y-116441522D01*
X199929995Y-116413878D01*
X199902352Y-116409500D01*
X199697648Y-116409500D01*
X199673329Y-116413351D01*
X199495465Y-116441522D01*
X199300776Y-116504781D01*
X199118386Y-116597715D01*
X198952786Y-116718028D01*
X198808028Y-116862786D01*
X198687715Y-117028386D01*
X198594781Y-117210776D01*
X198531522Y-117405465D01*
X198499500Y-117607648D01*
X161022581Y-117607648D01*
X160998477Y-117455466D01*
X160935220Y-117260781D01*
X160935218Y-117260778D01*
X160935218Y-117260776D01*
X160842419Y-117078650D01*
X160842287Y-117078390D01*
X160810092Y-117034077D01*
X160721971Y-116912786D01*
X160577213Y-116768028D01*
X160411610Y-116647712D01*
X160398200Y-116640879D01*
X160347406Y-116592903D01*
X160330500Y-116530397D01*
X160330500Y-114189601D01*
X160350185Y-114122562D01*
X160398206Y-114079116D01*
X160411610Y-114072287D01*
X160577219Y-113951966D01*
X160721966Y-113807219D01*
X160721968Y-113807215D01*
X160721971Y-113807213D01*
X160842284Y-113641614D01*
X160842285Y-113641613D01*
X160842287Y-113641610D01*
X160849117Y-113628204D01*
X160897091Y-113577409D01*
X160959602Y-113560500D01*
X179454829Y-113560500D01*
X179454845Y-113560501D01*
X179462441Y-113560501D01*
X179620552Y-113560501D01*
X179620555Y-113560501D01*
X179773283Y-113519577D01*
X179859885Y-113469577D01*
X179878152Y-113459031D01*
X179910207Y-113440524D01*
X179910206Y-113440524D01*
X179910214Y-113440520D01*
X180022018Y-113328716D01*
X180022018Y-113328714D01*
X180032222Y-113318511D01*
X180032226Y-113318506D01*
X196217275Y-97133456D01*
X196278596Y-97099973D01*
X196348288Y-97104957D01*
X196404221Y-97146829D01*
X196428638Y-97212293D01*
X196426572Y-97245329D01*
X196409500Y-97331158D01*
X196409500Y-97488846D01*
X196440261Y-97643489D01*
X196440264Y-97643501D01*
X196500602Y-97789172D01*
X196500609Y-97789185D01*
X196588602Y-97920874D01*
X196609480Y-97987551D01*
X196609500Y-97989765D01*
X196609500Y-110233330D01*
X196609499Y-110233348D01*
X196609499Y-110399054D01*
X196609498Y-110399054D01*
X196650423Y-110551785D01*
X196679358Y-110601900D01*
X196679359Y-110601904D01*
X196679360Y-110601904D01*
X196729479Y-110688714D01*
X196729481Y-110688717D01*
X196848349Y-110807585D01*
X196848355Y-110807590D01*
X198505922Y-112465157D01*
X198539407Y-112526480D01*
X198536173Y-112591155D01*
X198531522Y-112605468D01*
X198499500Y-112807648D01*
X198499500Y-113012351D01*
X198531522Y-113214534D01*
X198594781Y-113409223D01*
X198625534Y-113469578D01*
X198687585Y-113591359D01*
X198687715Y-113591613D01*
X198808028Y-113757213D01*
X198952786Y-113901971D01*
X199073226Y-113989474D01*
X199118390Y-114022287D01*
X199229921Y-114079115D01*
X199300776Y-114115218D01*
X199300778Y-114115218D01*
X199300781Y-114115220D01*
X199405137Y-114149127D01*
X199495465Y-114178477D01*
X199565699Y-114189601D01*
X199697648Y-114210500D01*
X199697649Y-114210500D01*
X199902351Y-114210500D01*
X199902352Y-114210500D01*
X200104534Y-114178477D01*
X200299219Y-114115220D01*
X200481610Y-114022287D01*
X200578401Y-113951965D01*
X200647213Y-113901971D01*
X200647215Y-113901968D01*
X200647219Y-113901966D01*
X200791966Y-113757219D01*
X200791968Y-113757215D01*
X200791971Y-113757213D01*
X200875960Y-113641610D01*
X200912287Y-113591610D01*
X201005220Y-113409219D01*
X201068477Y-113214534D01*
X201100500Y-113012352D01*
X201100500Y-112807682D01*
X201500000Y-112807682D01*
X201500000Y-113012317D01*
X201532009Y-113214417D01*
X201595244Y-113409031D01*
X201688141Y-113591350D01*
X201688147Y-113591359D01*
X201720523Y-113635921D01*
X201720524Y-113635922D01*
X202317038Y-113039408D01*
X202334076Y-113102992D01*
X202399902Y-113217006D01*
X202492994Y-113310098D01*
X202607008Y-113375924D01*
X202670590Y-113392961D01*
X202074076Y-113989474D01*
X202118650Y-114021859D01*
X202300968Y-114114755D01*
X202495582Y-114177990D01*
X202697683Y-114210000D01*
X202902317Y-114210000D01*
X203104417Y-114177990D01*
X203299031Y-114114755D01*
X203481349Y-114021859D01*
X203525921Y-113989474D01*
X202929408Y-113392961D01*
X202992992Y-113375924D01*
X203107006Y-113310098D01*
X203200098Y-113217006D01*
X203265924Y-113102992D01*
X203282961Y-113039408D01*
X203879474Y-113635921D01*
X203911859Y-113591349D01*
X204004755Y-113409031D01*
X204067990Y-113214417D01*
X204100000Y-113012317D01*
X204100000Y-112807682D01*
X204067990Y-112605582D01*
X204004755Y-112410968D01*
X203911859Y-112228650D01*
X203879474Y-112184077D01*
X203879474Y-112184076D01*
X203282961Y-112780590D01*
X203265924Y-112717008D01*
X203200098Y-112602994D01*
X203107006Y-112509902D01*
X202992992Y-112444076D01*
X202929407Y-112427038D01*
X203525922Y-111830524D01*
X203525921Y-111830523D01*
X203481359Y-111798147D01*
X203481350Y-111798141D01*
X203299031Y-111705244D01*
X203104417Y-111642009D01*
X202902317Y-111610000D01*
X202697683Y-111610000D01*
X202495582Y-111642009D01*
X202300968Y-111705244D01*
X202118644Y-111798143D01*
X202074077Y-111830523D01*
X202074077Y-111830524D01*
X202670592Y-112427038D01*
X202607008Y-112444076D01*
X202492994Y-112509902D01*
X202399902Y-112602994D01*
X202334076Y-112717008D01*
X202317038Y-112780591D01*
X201720524Y-112184077D01*
X201720523Y-112184077D01*
X201688143Y-112228644D01*
X201595244Y-112410968D01*
X201532009Y-112605582D01*
X201500000Y-112807682D01*
X201100500Y-112807682D01*
X201100500Y-112807648D01*
X201068632Y-112606446D01*
X201068477Y-112605465D01*
X201021464Y-112460776D01*
X201005220Y-112410781D01*
X201005218Y-112410778D01*
X201005218Y-112410776D01*
X200969061Y-112339815D01*
X200912287Y-112228390D01*
X200880092Y-112184077D01*
X200791971Y-112062786D01*
X200647213Y-111918028D01*
X200481613Y-111797715D01*
X200481612Y-111797714D01*
X200481610Y-111797713D01*
X200398260Y-111755244D01*
X200299223Y-111704781D01*
X200104534Y-111641522D01*
X199929995Y-111613878D01*
X199902352Y-111609500D01*
X199697648Y-111609500D01*
X199659599Y-111615526D01*
X199495468Y-111641522D01*
X199486717Y-111644365D01*
X199481154Y-111646173D01*
X199411313Y-111648167D01*
X199355157Y-111615922D01*
X197846819Y-110107584D01*
X197813334Y-110046261D01*
X197810500Y-110019903D01*
X197810500Y-107397648D01*
X198489500Y-107397648D01*
X198489500Y-107602351D01*
X198521522Y-107804534D01*
X198584781Y-107999223D01*
X198610704Y-108050098D01*
X198677585Y-108181359D01*
X198677715Y-108181613D01*
X198798028Y-108347213D01*
X198942786Y-108491971D01*
X199063226Y-108579474D01*
X199108390Y-108612287D01*
X199224607Y-108671503D01*
X199290776Y-108705218D01*
X199290778Y-108705218D01*
X199290781Y-108705220D01*
X199365427Y-108729474D01*
X199485465Y-108768477D01*
X199586557Y-108784488D01*
X199687648Y-108800500D01*
X199687649Y-108800500D01*
X199892351Y-108800500D01*
X199892352Y-108800500D01*
X200094534Y-108768477D01*
X200289219Y-108705220D01*
X200471610Y-108612287D01*
X200564590Y-108544732D01*
X200637213Y-108491971D01*
X200637215Y-108491968D01*
X200637219Y-108491966D01*
X200781966Y-108347219D01*
X200781968Y-108347215D01*
X200781971Y-108347213D01*
X200834732Y-108274590D01*
X200902287Y-108181610D01*
X200995220Y-107999219D01*
X201058477Y-107804534D01*
X201090500Y-107602352D01*
X201090500Y-107397682D01*
X201490000Y-107397682D01*
X201490000Y-107602317D01*
X201522009Y-107804417D01*
X201585244Y-107999031D01*
X201678141Y-108181350D01*
X201678147Y-108181359D01*
X201710523Y-108225921D01*
X201710524Y-108225922D01*
X202307038Y-107629408D01*
X202324076Y-107692992D01*
X202389902Y-107807006D01*
X202482994Y-107900098D01*
X202597008Y-107965924D01*
X202660590Y-107982961D01*
X202064076Y-108579474D01*
X202108650Y-108611859D01*
X202290968Y-108704755D01*
X202485582Y-108767990D01*
X202687683Y-108800000D01*
X202892317Y-108800000D01*
X203094417Y-108767990D01*
X203289031Y-108704755D01*
X203471349Y-108611859D01*
X203515921Y-108579474D01*
X202919408Y-107982961D01*
X202982992Y-107965924D01*
X203097006Y-107900098D01*
X203190098Y-107807006D01*
X203255924Y-107692992D01*
X203272961Y-107629408D01*
X203869474Y-108225921D01*
X203901859Y-108181349D01*
X203994755Y-107999031D01*
X204057990Y-107804417D01*
X204090000Y-107602317D01*
X204090000Y-107397682D01*
X204057990Y-107195582D01*
X203994755Y-107000968D01*
X203901859Y-106818650D01*
X203869474Y-106774077D01*
X203869474Y-106774076D01*
X203272961Y-107370590D01*
X203255924Y-107307008D01*
X203190098Y-107192994D01*
X203097006Y-107099902D01*
X202982992Y-107034076D01*
X202919407Y-107017038D01*
X203515922Y-106420524D01*
X203515921Y-106420523D01*
X203471359Y-106388147D01*
X203471350Y-106388141D01*
X203289031Y-106295244D01*
X203094417Y-106232009D01*
X202892317Y-106200000D01*
X202687683Y-106200000D01*
X202485582Y-106232009D01*
X202290968Y-106295244D01*
X202108644Y-106388143D01*
X202064077Y-106420523D01*
X202064077Y-106420524D01*
X202660592Y-107017038D01*
X202597008Y-107034076D01*
X202482994Y-107099902D01*
X202389902Y-107192994D01*
X202324076Y-107307008D01*
X202307038Y-107370591D01*
X201710524Y-106774077D01*
X201710523Y-106774077D01*
X201678143Y-106818644D01*
X201585244Y-107000968D01*
X201522009Y-107195582D01*
X201490000Y-107397682D01*
X201090500Y-107397682D01*
X201090500Y-107397648D01*
X201067099Y-107249902D01*
X201058477Y-107195465D01*
X201006038Y-107034076D01*
X200995220Y-107000781D01*
X200995218Y-107000778D01*
X200995218Y-107000776D01*
X200955139Y-106922118D01*
X200902287Y-106818390D01*
X200890950Y-106802786D01*
X200781971Y-106652786D01*
X200637213Y-106508028D01*
X200471613Y-106387715D01*
X200471612Y-106387714D01*
X200471610Y-106387713D01*
X200397594Y-106350000D01*
X200289223Y-106294781D01*
X200094534Y-106231522D01*
X199919995Y-106203878D01*
X199892352Y-106199500D01*
X199687648Y-106199500D01*
X199663329Y-106203351D01*
X199485465Y-106231522D01*
X199290776Y-106294781D01*
X199108386Y-106387715D01*
X198942786Y-106508028D01*
X198798028Y-106652786D01*
X198677715Y-106818386D01*
X198584781Y-107000776D01*
X198521522Y-107195465D01*
X198489500Y-107397648D01*
X197810500Y-107397648D01*
X197810500Y-102597648D01*
X198489500Y-102597648D01*
X198489500Y-102802351D01*
X198521522Y-103004534D01*
X198584781Y-103199223D01*
X198610704Y-103250098D01*
X198677585Y-103381359D01*
X198677715Y-103381613D01*
X198798028Y-103547213D01*
X198942786Y-103691971D01*
X199063226Y-103779474D01*
X199108390Y-103812287D01*
X199224607Y-103871503D01*
X199290776Y-103905218D01*
X199290778Y-103905218D01*
X199290781Y-103905220D01*
X199365427Y-103929474D01*
X199485465Y-103968477D01*
X199586557Y-103984488D01*
X199687648Y-104000500D01*
X199687649Y-104000500D01*
X199892351Y-104000500D01*
X199892352Y-104000500D01*
X200094534Y-103968477D01*
X200289219Y-103905220D01*
X200471610Y-103812287D01*
X200564590Y-103744732D01*
X200637213Y-103691971D01*
X200637215Y-103691968D01*
X200637219Y-103691966D01*
X200781966Y-103547219D01*
X200781968Y-103547215D01*
X200781971Y-103547213D01*
X200852236Y-103450500D01*
X200902287Y-103381610D01*
X200995220Y-103199219D01*
X201058477Y-103004534D01*
X201090500Y-102802352D01*
X201090500Y-102597682D01*
X201490000Y-102597682D01*
X201490000Y-102802317D01*
X201522009Y-103004417D01*
X201585244Y-103199031D01*
X201678141Y-103381350D01*
X201678147Y-103381359D01*
X201710523Y-103425921D01*
X201710524Y-103425922D01*
X202307038Y-102829408D01*
X202324076Y-102892992D01*
X202389902Y-103007006D01*
X202482994Y-103100098D01*
X202597008Y-103165924D01*
X202660590Y-103182961D01*
X202064076Y-103779474D01*
X202108650Y-103811859D01*
X202290968Y-103904755D01*
X202485582Y-103967990D01*
X202687683Y-104000000D01*
X202892317Y-104000000D01*
X203094417Y-103967990D01*
X203289031Y-103904755D01*
X203471349Y-103811859D01*
X203515921Y-103779474D01*
X202919408Y-103182961D01*
X202982992Y-103165924D01*
X203097006Y-103100098D01*
X203190098Y-103007006D01*
X203255924Y-102892992D01*
X203272961Y-102829408D01*
X203869474Y-103425921D01*
X203901859Y-103381349D01*
X203994755Y-103199031D01*
X204057990Y-103004417D01*
X204090000Y-102802317D01*
X204090000Y-102597682D01*
X204057990Y-102395582D01*
X203994755Y-102200968D01*
X203901859Y-102018650D01*
X203869474Y-101974077D01*
X203869474Y-101974076D01*
X203272961Y-102570590D01*
X203255924Y-102507008D01*
X203190098Y-102392994D01*
X203097006Y-102299902D01*
X202982992Y-102234076D01*
X202919407Y-102217038D01*
X203515922Y-101620524D01*
X203515921Y-101620523D01*
X203471359Y-101588147D01*
X203471350Y-101588141D01*
X203289031Y-101495244D01*
X203094417Y-101432009D01*
X202892317Y-101400000D01*
X202687683Y-101400000D01*
X202485582Y-101432009D01*
X202290968Y-101495244D01*
X202108644Y-101588143D01*
X202064077Y-101620523D01*
X202064077Y-101620524D01*
X202660592Y-102217038D01*
X202597008Y-102234076D01*
X202482994Y-102299902D01*
X202389902Y-102392994D01*
X202324076Y-102507008D01*
X202307038Y-102570591D01*
X201710524Y-101974077D01*
X201710523Y-101974077D01*
X201678143Y-102018644D01*
X201585244Y-102200968D01*
X201522009Y-102395582D01*
X201490000Y-102597682D01*
X201090500Y-102597682D01*
X201090500Y-102597648D01*
X201067099Y-102449902D01*
X201058477Y-102395465D01*
X201006038Y-102234076D01*
X200995220Y-102200781D01*
X200995218Y-102200778D01*
X200995218Y-102200776D01*
X200955139Y-102122118D01*
X200902287Y-102018390D01*
X200890950Y-102002786D01*
X200781971Y-101852786D01*
X200637213Y-101708028D01*
X200471613Y-101587715D01*
X200471612Y-101587714D01*
X200471610Y-101587713D01*
X200396613Y-101549500D01*
X200289223Y-101494781D01*
X200094534Y-101431522D01*
X199919995Y-101403878D01*
X199892352Y-101399500D01*
X199687648Y-101399500D01*
X199663329Y-101403351D01*
X199485465Y-101431522D01*
X199290776Y-101494781D01*
X199108386Y-101587715D01*
X198942786Y-101708028D01*
X198798028Y-101852786D01*
X198677715Y-102018386D01*
X198584781Y-102200776D01*
X198521522Y-102395465D01*
X198489500Y-102597648D01*
X197810500Y-102597648D01*
X197810500Y-97989765D01*
X197830185Y-97922726D01*
X197831398Y-97920874D01*
X197919390Y-97789185D01*
X197919390Y-97789184D01*
X197919394Y-97789179D01*
X197979737Y-97643497D01*
X198010500Y-97488842D01*
X198010500Y-97331158D01*
X198010500Y-97331155D01*
X198010499Y-97331153D01*
X198004458Y-97300785D01*
X197979737Y-97176503D01*
X197979735Y-97176498D01*
X197919397Y-97030827D01*
X197919390Y-97030814D01*
X197831789Y-96899711D01*
X197831786Y-96899707D01*
X197720292Y-96788213D01*
X197720288Y-96788210D01*
X197589185Y-96700609D01*
X197589172Y-96700602D01*
X197443501Y-96640264D01*
X197443489Y-96640261D01*
X197288845Y-96609500D01*
X197288842Y-96609500D01*
X197131158Y-96609500D01*
X197045329Y-96626572D01*
X196975738Y-96620344D01*
X196920561Y-96577480D01*
X196897317Y-96511590D01*
X196913385Y-96443593D01*
X196933454Y-96417277D01*
X201606972Y-91743759D01*
X201668293Y-91710276D01*
X201721020Y-91710840D01*
X201721051Y-91710650D01*
X201722342Y-91710854D01*
X201723598Y-91710868D01*
X201725851Y-91711408D01*
X201725863Y-91711412D01*
X201922138Y-91742499D01*
X201922139Y-91742499D01*
X202120859Y-91742499D01*
X202120860Y-91742499D01*
X202317135Y-91711412D01*
X202506131Y-91650004D01*
X202683193Y-91559786D01*
X202843963Y-91442980D01*
X202984480Y-91302463D01*
X203101286Y-91141693D01*
X203191504Y-90964631D01*
X203252912Y-90775635D01*
X203283999Y-90579360D01*
X203283999Y-90380638D01*
X203252912Y-90184363D01*
X203191504Y-89995368D01*
X203191504Y-89995366D01*
X203145534Y-89905148D01*
X203101286Y-89818305D01*
X202984480Y-89657535D01*
X202843963Y-89517018D01*
X202683193Y-89400212D01*
X202506131Y-89309993D01*
X202506128Y-89309992D01*
X202317136Y-89248586D01*
X202218997Y-89233042D01*
X202120860Y-89217499D01*
X201922138Y-89217499D01*
X201856713Y-89227861D01*
X201725861Y-89248586D01*
X201536869Y-89309992D01*
X201536866Y-89309993D01*
X201359804Y-89400212D01*
X201199032Y-89517020D01*
X201058520Y-89657532D01*
X200941710Y-89818306D01*
X200861982Y-89974780D01*
X200814008Y-90025575D01*
X200746186Y-90042370D01*
X200680052Y-90019832D01*
X200641013Y-89974779D01*
X200561287Y-89818308D01*
X200444481Y-89657538D01*
X200303964Y-89517021D01*
X200143194Y-89400215D01*
X200143188Y-89400212D01*
X199966132Y-89309996D01*
X199966129Y-89309995D01*
X199777137Y-89248589D01*
X199678998Y-89233045D01*
X199580861Y-89217502D01*
X199382139Y-89217502D01*
X199316714Y-89227864D01*
X199185862Y-89248589D01*
X198996870Y-89309995D01*
X198996867Y-89309996D01*
X198819805Y-89400215D01*
X198659033Y-89517023D01*
X198518521Y-89657535D01*
X198401709Y-89818312D01*
X198321985Y-89974779D01*
X198274011Y-90025575D01*
X198206190Y-90042370D01*
X198140055Y-90019832D01*
X198101016Y-89974779D01*
X198081680Y-89936831D01*
X198021288Y-89818305D01*
X197904482Y-89657535D01*
X197763965Y-89517018D01*
X197603195Y-89400212D01*
X197426133Y-89309993D01*
X197426130Y-89309992D01*
X197237137Y-89248585D01*
X197237059Y-89248567D01*
X197237032Y-89248551D01*
X197232503Y-89247080D01*
X197232812Y-89246128D01*
X197176468Y-89213773D01*
X197144307Y-89151746D01*
X197150786Y-89082177D01*
X197193848Y-89027155D01*
X197225058Y-89010952D01*
X197305885Y-88982670D01*
X197453762Y-88889753D01*
X197577256Y-88766259D01*
X197663287Y-88629340D01*
X196776594Y-87742647D01*
X196864071Y-87719208D01*
X196965430Y-87660689D01*
X197048189Y-87577930D01*
X197106708Y-87476571D01*
X197130147Y-87389094D01*
X197742499Y-88001447D01*
X197742500Y-88001446D01*
X197742500Y-86608553D01*
X197742499Y-86608552D01*
X197130147Y-87220904D01*
X197106708Y-87133429D01*
X197048189Y-87032070D01*
X196965430Y-86949311D01*
X196864071Y-86890792D01*
X196776593Y-86867352D01*
X197663286Y-85980659D01*
X197577253Y-85843737D01*
X197453762Y-85720246D01*
X197305886Y-85627330D01*
X197141039Y-85569648D01*
X197011030Y-85555000D01*
X196373969Y-85555000D01*
X196243960Y-85569648D01*
X196079113Y-85627330D01*
X195931237Y-85720246D01*
X195828035Y-85823449D01*
X195766712Y-85856934D01*
X195697020Y-85851950D01*
X195652673Y-85823449D01*
X195549078Y-85719854D01*
X195401108Y-85626879D01*
X195401107Y-85626878D01*
X195401106Y-85626878D01*
X195236160Y-85569160D01*
X195236150Y-85569158D01*
X195106060Y-85554501D01*
X195106054Y-85554501D01*
X194468950Y-85554501D01*
X194468943Y-85554501D01*
X194338853Y-85569158D01*
X194338843Y-85569160D01*
X194173897Y-85626878D01*
X194025925Y-85719854D01*
X193902355Y-85843424D01*
X193809379Y-85991396D01*
X193751661Y-86156342D01*
X193751659Y-86156352D01*
X193737002Y-86286442D01*
X193737002Y-87454903D01*
X193717317Y-87521942D01*
X193700683Y-87542584D01*
X192643490Y-88599776D01*
X192643488Y-88599778D01*
X192632618Y-88618607D01*
X192620680Y-88639285D01*
X192564432Y-88736709D01*
X192523508Y-88889437D01*
X192523508Y-88889439D01*
X192523508Y-89057540D01*
X192523509Y-89057553D01*
X192523509Y-89198023D01*
X192503824Y-89265062D01*
X192451020Y-89310817D01*
X192381862Y-89320761D01*
X192351000Y-89310977D01*
X192350635Y-89311860D01*
X192346129Y-89309993D01*
X192157137Y-89248587D01*
X192058998Y-89233043D01*
X191960861Y-89217500D01*
X191762139Y-89217500D01*
X191696714Y-89227862D01*
X191565862Y-89248587D01*
X191376870Y-89309993D01*
X191376867Y-89309994D01*
X191199805Y-89400213D01*
X191039033Y-89517021D01*
X190898521Y-89657533D01*
X190781709Y-89818310D01*
X190701983Y-89974781D01*
X190654009Y-90025577D01*
X190586188Y-90042372D01*
X190520053Y-90019834D01*
X190481014Y-89974781D01*
X190463509Y-89940426D01*
X190401285Y-89818305D01*
X190284479Y-89657535D01*
X190143962Y-89517018D01*
X189983192Y-89400212D01*
X189806130Y-89309993D01*
X189806127Y-89309992D01*
X189617135Y-89248586D01*
X189518996Y-89233042D01*
X189420859Y-89217499D01*
X189222137Y-89217499D01*
X189156712Y-89227861D01*
X189025860Y-89248586D01*
X188836868Y-89309992D01*
X188836865Y-89309993D01*
X188659803Y-89400212D01*
X188499031Y-89517020D01*
X188358519Y-89657532D01*
X188241707Y-89818309D01*
X188161983Y-89974776D01*
X188114009Y-90025572D01*
X188046188Y-90042367D01*
X187980053Y-90019829D01*
X187941014Y-89974776D01*
X187861288Y-89818305D01*
X187744482Y-89657535D01*
X187603965Y-89517018D01*
X187443195Y-89400212D01*
X187266133Y-89309993D01*
X187266130Y-89309992D01*
X187077139Y-89248586D01*
X187035654Y-89242015D01*
X186972520Y-89212084D01*
X186935590Y-89152772D01*
X186936589Y-89082910D01*
X186967371Y-89031863D01*
X197300006Y-78699227D01*
X197300011Y-78699224D01*
X197310214Y-78689020D01*
X197310216Y-78689020D01*
X197422020Y-78577216D01*
X197500941Y-78440520D01*
X197500950Y-78440525D01*
X197501003Y-78440412D01*
X197501077Y-78440285D01*
X197542000Y-78287558D01*
X197542000Y-78129443D01*
X197542000Y-76426730D01*
X197561685Y-76359691D01*
X197599366Y-76322808D01*
X197599252Y-76322651D01*
X197600323Y-76321872D01*
X197601215Y-76321000D01*
X197603190Y-76319789D01*
X197603189Y-76319789D01*
X197603194Y-76319787D01*
X197763964Y-76202981D01*
X197904481Y-76062464D01*
X198021287Y-75901694D01*
X198101297Y-75744665D01*
X198149270Y-75693871D01*
X198217091Y-75677076D01*
X198283226Y-75699613D01*
X198322266Y-75744667D01*
X198402143Y-75901433D01*
X198429232Y-75938716D01*
X198429233Y-75938717D01*
X199043854Y-75324095D01*
X199067294Y-75411572D01*
X199125813Y-75512931D01*
X199208572Y-75595690D01*
X199309931Y-75654209D01*
X199397407Y-75677648D01*
X198782785Y-76292269D01*
X198782785Y-76292270D01*
X198820069Y-76319359D01*
X198997064Y-76409543D01*
X199185979Y-76470925D01*
X199382181Y-76502001D01*
X199580823Y-76502001D01*
X199777022Y-76470925D01*
X199777025Y-76470925D01*
X199965939Y-76409543D01*
X200142927Y-76319363D01*
X200180218Y-76292269D01*
X199565597Y-75677648D01*
X199653073Y-75654209D01*
X199754432Y-75595690D01*
X199837191Y-75512931D01*
X199895710Y-75411572D01*
X199919149Y-75324095D01*
X200533770Y-75938716D01*
X200560866Y-75901423D01*
X200640734Y-75744673D01*
X200688708Y-75693877D01*
X200756529Y-75677081D01*
X200822664Y-75699618D01*
X200861704Y-75744672D01*
X200862536Y-75746304D01*
X200941712Y-75901695D01*
X201058518Y-76062465D01*
X201199035Y-76202982D01*
X201359805Y-76319788D01*
X201420997Y-76350967D01*
X201536866Y-76410006D01*
X201536869Y-76410007D01*
X201631365Y-76440710D01*
X201725863Y-76471414D01*
X201922138Y-76502501D01*
X201922139Y-76502501D01*
X202120859Y-76502501D01*
X202120860Y-76502501D01*
X202317135Y-76471414D01*
X202506131Y-76410006D01*
X202683193Y-76319788D01*
X202843963Y-76202982D01*
X202984480Y-76062465D01*
X203101286Y-75901695D01*
X203191504Y-75724633D01*
X203252912Y-75535637D01*
X203283999Y-75339362D01*
X203283999Y-75140640D01*
X203252912Y-74944365D01*
X203214386Y-74825793D01*
X203191505Y-74755371D01*
X203191504Y-74755368D01*
X203132626Y-74639815D01*
X203101286Y-74578307D01*
X202984480Y-74417537D01*
X202843963Y-74277020D01*
X202683193Y-74160214D01*
X202683187Y-74160211D01*
X202506131Y-74069995D01*
X202506128Y-74069994D01*
X202317136Y-74008588D01*
X202218997Y-73993044D01*
X202120860Y-73977501D01*
X201922138Y-73977501D01*
X201856713Y-73987863D01*
X201725861Y-74008588D01*
X201536869Y-74069994D01*
X201536866Y-74069995D01*
X201359804Y-74160214D01*
X201199032Y-74277022D01*
X201058520Y-74417534D01*
X200941710Y-74578308D01*
X200861703Y-74735330D01*
X200813729Y-74786125D01*
X200745908Y-74802920D01*
X200679773Y-74780382D01*
X200640734Y-74735329D01*
X200560860Y-74578568D01*
X200533770Y-74541284D01*
X199919149Y-75155905D01*
X199895710Y-75068430D01*
X199837191Y-74967071D01*
X199754432Y-74884312D01*
X199653073Y-74825793D01*
X199565596Y-74802353D01*
X200180218Y-74187732D01*
X200180217Y-74187731D01*
X200142934Y-74160642D01*
X199965939Y-74070458D01*
X199777024Y-74009076D01*
X199580823Y-73978001D01*
X199382181Y-73978001D01*
X199185981Y-74009076D01*
X199185978Y-74009076D01*
X198997064Y-74070458D01*
X198820066Y-74160644D01*
X198782785Y-74187730D01*
X198782784Y-74187731D01*
X199397408Y-74802353D01*
X199309931Y-74825793D01*
X199208572Y-74884312D01*
X199125813Y-74967071D01*
X199067294Y-75068430D01*
X199043854Y-75155906D01*
X198429232Y-74541283D01*
X198429231Y-74541284D01*
X198402145Y-74578565D01*
X198322267Y-74735333D01*
X198274292Y-74786129D01*
X198206471Y-74802924D01*
X198140336Y-74780386D01*
X198101297Y-74735333D01*
X198062658Y-74659500D01*
X198021287Y-74578306D01*
X197904481Y-74417536D01*
X197763964Y-74277019D01*
X197603194Y-74160213D01*
X197603190Y-74160211D01*
X197426132Y-74069994D01*
X197426129Y-74069993D01*
X197237137Y-74008587D01*
X197138998Y-73993043D01*
X197040861Y-73977500D01*
X196842139Y-73977500D01*
X196776714Y-73987862D01*
X196645862Y-74008587D01*
X196456870Y-74069993D01*
X196456867Y-74069994D01*
X196279805Y-74160213D01*
X196119033Y-74277021D01*
X195978521Y-74417533D01*
X195861711Y-74578307D01*
X195781984Y-74734779D01*
X195734010Y-74785574D01*
X195666188Y-74802369D01*
X195600054Y-74779831D01*
X195561015Y-74734778D01*
X195552897Y-74718845D01*
X195481288Y-74578305D01*
X195364482Y-74417535D01*
X195223965Y-74277018D01*
X195063195Y-74160212D01*
X195063193Y-74160211D01*
X194886133Y-74069993D01*
X194886130Y-74069992D01*
X194697138Y-74008586D01*
X194504031Y-73978001D01*
X194500862Y-73977499D01*
X194302140Y-73977499D01*
X194298971Y-73978001D01*
X194105863Y-74008586D01*
X193916871Y-74069992D01*
X193916868Y-74069993D01*
X193739806Y-74160212D01*
X193579034Y-74277020D01*
X193438522Y-74417532D01*
X193321710Y-74578309D01*
X193241983Y-74734782D01*
X193194009Y-74785578D01*
X193126188Y-74802373D01*
X193060053Y-74779835D01*
X193021014Y-74734782D01*
X192941286Y-74578307D01*
X192824480Y-74417537D01*
X192683963Y-74277020D01*
X192523193Y-74160214D01*
X192523187Y-74160211D01*
X192346131Y-74069995D01*
X192346128Y-74069994D01*
X192157136Y-74008588D01*
X192058997Y-73993044D01*
X191960860Y-73977501D01*
X191762138Y-73977501D01*
X191696713Y-73987863D01*
X191565861Y-74008588D01*
X191376869Y-74069994D01*
X191376866Y-74069995D01*
X191199804Y-74160214D01*
X191039032Y-74277022D01*
X190898520Y-74417534D01*
X190781708Y-74578311D01*
X190701984Y-74734778D01*
X190654010Y-74785574D01*
X190586189Y-74802369D01*
X190520054Y-74779831D01*
X190481015Y-74734778D01*
X190442659Y-74659501D01*
X190401287Y-74578304D01*
X190284481Y-74417534D01*
X190143964Y-74277017D01*
X189983194Y-74160211D01*
X189806132Y-74069992D01*
X189806129Y-74069991D01*
X189617137Y-74008585D01*
X189518998Y-73993041D01*
X189420861Y-73977498D01*
X189222139Y-73977498D01*
X189182884Y-73983715D01*
X189025860Y-74008585D01*
X189023587Y-74009131D01*
X189022697Y-74009086D01*
X189021052Y-74009347D01*
X189020997Y-74009001D01*
X189013222Y-74008611D01*
X189003499Y-74012238D01*
X188978924Y-74006892D01*
X188953805Y-74005633D01*
X188943552Y-73999197D01*
X188935226Y-73997386D01*
X188906972Y-73976235D01*
X188747093Y-73816356D01*
X188747091Y-73816353D01*
X188628220Y-73697482D01*
X188628215Y-73697478D01*
X188515817Y-73632586D01*
X188491288Y-73618424D01*
X188338560Y-73577500D01*
X188180446Y-73577500D01*
X188172850Y-73577500D01*
X188172834Y-73577501D01*
X186262549Y-73577501D01*
X186109819Y-73618424D01*
X186085292Y-73632586D01*
X186085291Y-73632586D01*
X185972893Y-73697478D01*
X185972888Y-73697482D01*
X185861084Y-73809287D01*
X178822191Y-80848181D01*
X178760868Y-80881666D01*
X178734510Y-80884500D01*
X175615097Y-80884500D01*
X175548058Y-80864815D01*
X175527416Y-80848181D01*
X175326819Y-80647584D01*
X175293334Y-80586261D01*
X175290500Y-80559903D01*
X175290500Y-77841560D01*
X175290501Y-77841547D01*
X175290501Y-77673445D01*
X175290501Y-77673443D01*
X175249577Y-77520715D01*
X175170520Y-77383784D01*
X173453021Y-75666286D01*
X173453020Y-75666284D01*
X173383816Y-75597080D01*
X173382897Y-75595397D01*
X173336818Y-75549318D01*
X173322004Y-75543388D01*
X173254404Y-75504360D01*
X173254402Y-75504358D01*
X173254401Y-75504358D01*
X173204285Y-75475423D01*
X173204284Y-75475422D01*
X173172313Y-75466855D01*
X173165583Y-75463586D01*
X173161079Y-75463264D01*
X173130102Y-75446350D01*
X173112627Y-75433269D01*
X173070754Y-75377336D01*
X173065768Y-75307645D01*
X173099252Y-75246321D01*
X173160574Y-75212834D01*
X173186935Y-75210000D01*
X173347500Y-75210000D01*
X173347500Y-75162172D01*
X173347499Y-75162155D01*
X173341098Y-75102627D01*
X173341096Y-75102620D01*
X173290854Y-74967913D01*
X173290850Y-74967906D01*
X173204690Y-74852812D01*
X173204687Y-74852809D01*
X173089593Y-74766649D01*
X173089586Y-74766645D01*
X172954879Y-74716403D01*
X172954872Y-74716401D01*
X172895344Y-74710000D01*
X172697500Y-74710000D01*
X172697500Y-75235500D01*
X172694949Y-75244185D01*
X172696238Y-75253147D01*
X172685259Y-75277187D01*
X172677815Y-75302539D01*
X172670974Y-75308466D01*
X172667213Y-75316703D01*
X172644978Y-75330992D01*
X172625011Y-75348294D01*
X172614496Y-75350581D01*
X172608435Y-75354477D01*
X172573500Y-75359500D01*
X172471500Y-75359500D01*
X172404461Y-75339815D01*
X172358706Y-75287011D01*
X172347500Y-75235500D01*
X172347500Y-74710000D01*
X172149655Y-74710000D01*
X172090124Y-74716401D01*
X172090123Y-74716402D01*
X172083573Y-74718845D01*
X172013881Y-74723827D01*
X171996910Y-74718844D01*
X171854982Y-74665908D01*
X171854983Y-74665908D01*
X171795383Y-74659501D01*
X171795381Y-74659500D01*
X171795373Y-74659500D01*
X171795365Y-74659500D01*
X170147000Y-74659500D01*
X170079961Y-74639815D01*
X170034206Y-74587011D01*
X170023000Y-74535500D01*
X170023000Y-72944499D01*
X170042685Y-72877460D01*
X170095489Y-72831705D01*
X170147000Y-72820499D01*
X172227871Y-72820499D01*
X172227872Y-72820499D01*
X172287483Y-72814091D01*
X172422331Y-72763796D01*
X172537546Y-72677546D01*
X172623796Y-72562331D01*
X172674091Y-72427483D01*
X172680500Y-72367873D01*
X172680499Y-69772128D01*
X172674091Y-69712517D01*
X172623796Y-69577669D01*
X172623795Y-69577668D01*
X172623793Y-69577664D01*
X172537547Y-69462455D01*
X172537544Y-69462452D01*
X172422335Y-69376206D01*
X172422328Y-69376202D01*
X172287482Y-69325908D01*
X172287483Y-69325908D01*
X172227883Y-69319501D01*
X172227881Y-69319500D01*
X172227873Y-69319500D01*
X172227864Y-69319500D01*
X169632129Y-69319500D01*
X169632123Y-69319501D01*
X169572516Y-69325908D01*
X169437671Y-69376202D01*
X169437664Y-69376206D01*
X169322455Y-69462452D01*
X169322452Y-69462455D01*
X169236206Y-69577664D01*
X169236202Y-69577671D01*
X169185908Y-69712517D01*
X169179501Y-69772116D01*
X169179501Y-69772123D01*
X169179500Y-69772135D01*
X169179500Y-71919902D01*
X169159815Y-71986941D01*
X169143181Y-72007583D01*
X168941981Y-72208782D01*
X168941975Y-72208790D01*
X168905088Y-72272682D01*
X168905088Y-72272683D01*
X168862923Y-72345715D01*
X168821999Y-72498443D01*
X168821999Y-72498445D01*
X168821999Y-72666546D01*
X168822000Y-72666559D01*
X168822000Y-74728964D01*
X168802315Y-74796003D01*
X168772312Y-74828230D01*
X168739957Y-74852450D01*
X168739951Y-74852457D01*
X168653706Y-74967664D01*
X168653702Y-74967671D01*
X168603410Y-75102513D01*
X168603409Y-75102517D01*
X168597000Y-75162127D01*
X168597000Y-75162134D01*
X168597000Y-75162135D01*
X168597000Y-75322990D01*
X168590663Y-75344568D01*
X168588930Y-75366993D01*
X168581009Y-75377447D01*
X168577315Y-75390029D01*
X168560320Y-75404754D01*
X168546737Y-75422684D01*
X168530709Y-75430412D01*
X168524511Y-75435784D01*
X168515663Y-75439420D01*
X168510452Y-75441329D01*
X168383215Y-75475423D01*
X168333095Y-75504360D01*
X168323816Y-75509716D01*
X168323816Y-75509717D01*
X168246285Y-75554479D01*
X168246282Y-75554481D01*
X167629481Y-76171282D01*
X167629477Y-76171287D01*
X167579489Y-76257871D01*
X167579489Y-76257872D01*
X167550423Y-76308214D01*
X167546555Y-76322651D01*
X167509499Y-76460943D01*
X167509499Y-76460945D01*
X167509499Y-76629046D01*
X167509500Y-76629059D01*
X167509500Y-77873330D01*
X167509499Y-77873348D01*
X167509499Y-78039054D01*
X167509498Y-78039054D01*
X167509499Y-78039057D01*
X167550423Y-78191785D01*
X167553982Y-78197950D01*
X167559194Y-78206978D01*
X167559196Y-78206980D01*
X167629477Y-78328712D01*
X167629481Y-78328717D01*
X167748349Y-78447585D01*
X167748355Y-78447590D01*
X168160681Y-78859916D01*
X168194166Y-78921239D01*
X168197000Y-78947597D01*
X168197000Y-88320830D01*
X168196999Y-88320848D01*
X168196999Y-88486554D01*
X168196998Y-88486554D01*
X168214294Y-88551102D01*
X168237923Y-88639285D01*
X168237924Y-88639286D01*
X168266858Y-88689400D01*
X168266859Y-88689404D01*
X168266860Y-88689404D01*
X168311231Y-88766259D01*
X168316979Y-88776214D01*
X168316981Y-88776217D01*
X168435849Y-88895085D01*
X168435855Y-88895090D01*
X175719083Y-96178319D01*
X175752568Y-96239642D01*
X175747584Y-96309334D01*
X175705712Y-96365267D01*
X175640248Y-96389684D01*
X175631402Y-96390000D01*
X175569819Y-96390000D01*
X175352164Y-96424473D01*
X175142589Y-96492567D01*
X174946233Y-96592616D01*
X174882485Y-96638931D01*
X174882485Y-96638932D01*
X175530184Y-97286630D01*
X175477360Y-97300785D01*
X175357647Y-97369901D01*
X175259901Y-97467647D01*
X175190785Y-97587360D01*
X175176630Y-97640183D01*
X174528932Y-96992485D01*
X174528931Y-96992485D01*
X174482616Y-97056233D01*
X174382567Y-97252589D01*
X174314473Y-97462164D01*
X174280000Y-97679818D01*
X174280000Y-97900181D01*
X174314473Y-98117835D01*
X174382567Y-98327410D01*
X174482611Y-98523756D01*
X174528932Y-98587513D01*
X175176630Y-97939815D01*
X175190785Y-97992640D01*
X175259901Y-98112353D01*
X175357647Y-98210099D01*
X175477360Y-98279215D01*
X175530183Y-98293369D01*
X174882485Y-98941065D01*
X174882485Y-98941066D01*
X174946243Y-98987388D01*
X175142589Y-99087432D01*
X175352164Y-99155526D01*
X175569819Y-99190000D01*
X175790181Y-99190000D01*
X176007835Y-99155526D01*
X176217410Y-99087432D01*
X176413760Y-98987386D01*
X176477513Y-98941066D01*
X176477514Y-98941066D01*
X175829816Y-98293369D01*
X175882640Y-98279215D01*
X176002353Y-98210099D01*
X176100099Y-98112353D01*
X176169215Y-97992640D01*
X176183369Y-97939816D01*
X176831066Y-98587514D01*
X176832547Y-98587397D01*
X176884700Y-98547180D01*
X176954314Y-98541200D01*
X177016109Y-98573806D01*
X177030008Y-98589846D01*
X177111752Y-98702359D01*
X177267636Y-98858243D01*
X177267641Y-98858247D01*
X177381632Y-98941065D01*
X177445978Y-98987815D01*
X177574375Y-99053237D01*
X177642393Y-99087895D01*
X177642396Y-99087896D01*
X177747221Y-99121955D01*
X177852049Y-99156015D01*
X178069778Y-99190500D01*
X178069779Y-99190500D01*
X178290221Y-99190500D01*
X178290222Y-99190500D01*
X178507951Y-99156015D01*
X178717606Y-99087895D01*
X178914022Y-98987815D01*
X179092365Y-98858242D01*
X179248242Y-98702365D01*
X179329682Y-98590270D01*
X179385011Y-98547606D01*
X179454624Y-98541627D01*
X179516420Y-98574232D01*
X179530313Y-98590265D01*
X179585056Y-98665612D01*
X179611758Y-98702365D01*
X179767636Y-98858243D01*
X179767641Y-98858247D01*
X179881632Y-98941065D01*
X179945978Y-98987815D01*
X180074375Y-99053237D01*
X180142393Y-99087895D01*
X180142396Y-99087896D01*
X180247221Y-99121955D01*
X180352049Y-99156015D01*
X180569778Y-99190500D01*
X180569779Y-99190500D01*
X180790221Y-99190500D01*
X180790222Y-99190500D01*
X181007951Y-99156015D01*
X181217606Y-99087895D01*
X181414022Y-98987815D01*
X181592365Y-98858242D01*
X181748242Y-98702365D01*
X181829682Y-98590270D01*
X181885011Y-98547606D01*
X181954624Y-98541627D01*
X182016420Y-98574232D01*
X182030313Y-98590265D01*
X182085056Y-98665612D01*
X182111758Y-98702365D01*
X182267636Y-98858243D01*
X182267641Y-98858247D01*
X182381632Y-98941065D01*
X182445978Y-98987815D01*
X182574375Y-99053237D01*
X182642393Y-99087895D01*
X182642396Y-99087896D01*
X182747221Y-99121955D01*
X182852049Y-99156015D01*
X183069778Y-99190500D01*
X183069779Y-99190500D01*
X183290221Y-99190500D01*
X183290222Y-99190500D01*
X183507951Y-99156015D01*
X183717606Y-99087895D01*
X183914022Y-98987815D01*
X184092365Y-98858242D01*
X184248242Y-98702365D01*
X184377815Y-98524022D01*
X184477895Y-98327606D01*
X184546015Y-98117951D01*
X184580500Y-97900222D01*
X184580500Y-97679778D01*
X184546015Y-97462049D01*
X184481993Y-97265007D01*
X184477896Y-97252396D01*
X184477895Y-97252393D01*
X184439224Y-97176498D01*
X184377815Y-97055978D01*
X184329681Y-96989727D01*
X184248247Y-96877641D01*
X184248243Y-96877636D01*
X184092363Y-96721756D01*
X184092358Y-96721752D01*
X183914025Y-96592187D01*
X183914024Y-96592186D01*
X183914022Y-96592185D01*
X183851096Y-96560122D01*
X183717606Y-96492104D01*
X183717603Y-96492103D01*
X183507952Y-96423985D01*
X183347083Y-96398506D01*
X183290222Y-96389500D01*
X183069778Y-96389500D01*
X183012917Y-96398506D01*
X182852047Y-96423985D01*
X182642396Y-96492103D01*
X182642393Y-96492104D01*
X182445974Y-96592187D01*
X182267641Y-96721752D01*
X182267636Y-96721756D01*
X182111756Y-96877636D01*
X182111752Y-96877641D01*
X182030318Y-96989727D01*
X181974989Y-97032393D01*
X181905375Y-97038372D01*
X181843580Y-97005767D01*
X181829682Y-96989727D01*
X181748247Y-96877641D01*
X181748243Y-96877636D01*
X181592363Y-96721756D01*
X181592358Y-96721752D01*
X181414025Y-96592187D01*
X181414024Y-96592186D01*
X181414022Y-96592185D01*
X181351096Y-96560122D01*
X181217606Y-96492104D01*
X181217603Y-96492103D01*
X181007952Y-96423985D01*
X180847083Y-96398506D01*
X180790222Y-96389500D01*
X180569778Y-96389500D01*
X180512917Y-96398506D01*
X180352047Y-96423985D01*
X180142396Y-96492103D01*
X180142393Y-96492104D01*
X179945974Y-96592187D01*
X179767641Y-96721752D01*
X179767636Y-96721756D01*
X179611756Y-96877636D01*
X179611752Y-96877641D01*
X179530318Y-96989727D01*
X179474989Y-97032393D01*
X179405375Y-97038372D01*
X179343580Y-97005767D01*
X179329682Y-96989727D01*
X179257200Y-96889963D01*
X179233720Y-96824156D01*
X179249546Y-96756103D01*
X179269833Y-96729401D01*
X185333365Y-90665869D01*
X185394686Y-90632386D01*
X185464378Y-90637370D01*
X185520311Y-90679242D01*
X185543517Y-90734152D01*
X185550088Y-90775637D01*
X185611494Y-90964628D01*
X185611495Y-90964631D01*
X185701712Y-91141689D01*
X185701714Y-91141693D01*
X185818520Y-91302463D01*
X185959037Y-91442980D01*
X186119807Y-91559786D01*
X186206650Y-91604034D01*
X186296868Y-91650004D01*
X186296871Y-91650005D01*
X186342502Y-91664831D01*
X186485865Y-91711412D01*
X186682140Y-91742499D01*
X186682141Y-91742499D01*
X186880861Y-91742499D01*
X186880862Y-91742499D01*
X187077137Y-91711412D01*
X187266133Y-91650004D01*
X187443195Y-91559786D01*
X187603965Y-91442980D01*
X187744482Y-91302463D01*
X187861288Y-91141693D01*
X187941015Y-90985219D01*
X187988988Y-90934425D01*
X188056809Y-90917630D01*
X188122944Y-90940167D01*
X188161984Y-90985221D01*
X188241711Y-91141693D01*
X188358517Y-91302463D01*
X188499034Y-91442980D01*
X188659804Y-91559786D01*
X188746647Y-91604034D01*
X188836865Y-91650004D01*
X188836868Y-91650005D01*
X188882499Y-91664831D01*
X189025862Y-91711412D01*
X189222137Y-91742499D01*
X189222138Y-91742499D01*
X189420858Y-91742499D01*
X189420859Y-91742499D01*
X189617134Y-91711412D01*
X189806130Y-91650004D01*
X189983192Y-91559786D01*
X190143962Y-91442980D01*
X190284479Y-91302463D01*
X190401285Y-91141693D01*
X190481014Y-90985215D01*
X190528987Y-90934421D01*
X190596808Y-90917626D01*
X190662943Y-90940163D01*
X190701982Y-90985217D01*
X190781709Y-91141689D01*
X190781712Y-91141693D01*
X190781713Y-91141694D01*
X190898519Y-91302464D01*
X191039036Y-91442981D01*
X191199806Y-91559787D01*
X191286649Y-91604035D01*
X191376867Y-91650005D01*
X191376870Y-91650006D01*
X191422498Y-91664831D01*
X191565864Y-91711413D01*
X191762139Y-91742500D01*
X191762140Y-91742500D01*
X191960860Y-91742500D01*
X191960861Y-91742500D01*
X192157136Y-91711413D01*
X192346132Y-91650005D01*
X192346134Y-91650003D01*
X192350635Y-91648140D01*
X192351392Y-91649969D01*
X192411818Y-91638588D01*
X192476573Y-91664831D01*
X192516860Y-91721916D01*
X192523509Y-91761976D01*
X192523509Y-92044243D01*
X192503824Y-92111282D01*
X192502611Y-92113134D01*
X192414618Y-92244823D01*
X192414611Y-92244836D01*
X192354273Y-92390507D01*
X192354270Y-92390519D01*
X192323509Y-92545162D01*
X192323509Y-92702855D01*
X192354270Y-92857498D01*
X192354273Y-92857510D01*
X192414611Y-93003181D01*
X192414618Y-93003194D01*
X192490060Y-93116100D01*
X192510938Y-93182778D01*
X192492454Y-93250158D01*
X192474639Y-93272672D01*
X183534131Y-102213181D01*
X183472808Y-102246666D01*
X183446450Y-102249500D01*
X160939602Y-102249500D01*
X160872563Y-102229815D01*
X160829117Y-102181795D01*
X160822284Y-102168385D01*
X160701971Y-102002786D01*
X160557213Y-101858028D01*
X160391613Y-101737715D01*
X160391612Y-101737714D01*
X160391610Y-101737713D01*
X160333350Y-101708028D01*
X160209223Y-101644781D01*
X160014534Y-101581522D01*
X159839995Y-101553878D01*
X159812352Y-101549500D01*
X159607648Y-101549500D01*
X159583329Y-101553351D01*
X159405465Y-101581522D01*
X159210776Y-101644781D01*
X159028386Y-101737715D01*
X158862786Y-101858028D01*
X158718028Y-102002786D01*
X158597715Y-102168386D01*
X158504781Y-102350776D01*
X158441522Y-102545465D01*
X158409500Y-102747648D01*
X158009995Y-102747648D01*
X157977990Y-102545582D01*
X157914755Y-102350968D01*
X157821859Y-102168650D01*
X157789474Y-102124077D01*
X157789474Y-102124076D01*
X157192961Y-102720590D01*
X157175924Y-102657008D01*
X157110098Y-102542994D01*
X157017006Y-102449902D01*
X156902992Y-102384076D01*
X156839407Y-102367038D01*
X157435922Y-101770524D01*
X157435921Y-101770523D01*
X157391359Y-101738147D01*
X157391350Y-101738141D01*
X157209031Y-101645244D01*
X157014417Y-101582009D01*
X156812317Y-101550000D01*
X156607683Y-101550000D01*
X156405582Y-101582009D01*
X156210968Y-101645244D01*
X156028644Y-101738143D01*
X155984077Y-101770523D01*
X155984077Y-101770524D01*
X156580592Y-102367038D01*
X156517008Y-102384076D01*
X156402994Y-102449902D01*
X156309902Y-102542994D01*
X156244076Y-102657008D01*
X156227038Y-102720591D01*
X155627092Y-102120645D01*
X155616853Y-102122118D01*
X155597099Y-102113097D01*
X155575851Y-102108633D01*
X155565948Y-102098870D01*
X155553297Y-102093093D01*
X155541556Y-102074824D01*
X155526094Y-102059581D01*
X155522267Y-102044810D01*
X155515523Y-102034315D01*
X155510500Y-101999380D01*
X155510500Y-97728711D01*
X165929500Y-97728711D01*
X165929500Y-97971288D01*
X165961161Y-98211785D01*
X166023947Y-98446104D01*
X166103065Y-98637111D01*
X166116776Y-98670212D01*
X166238064Y-98880289D01*
X166238066Y-98880292D01*
X166238067Y-98880293D01*
X166385733Y-99072736D01*
X166385739Y-99072743D01*
X166557256Y-99244260D01*
X166557262Y-99244265D01*
X166749711Y-99391936D01*
X166959788Y-99513224D01*
X167183900Y-99606054D01*
X167418211Y-99668838D01*
X167598586Y-99692584D01*
X167658711Y-99700500D01*
X167658712Y-99700500D01*
X167901289Y-99700500D01*
X167949388Y-99694167D01*
X168141789Y-99668838D01*
X168376100Y-99606054D01*
X168600212Y-99513224D01*
X168810289Y-99391936D01*
X169002738Y-99244265D01*
X169174265Y-99072738D01*
X169321936Y-98880289D01*
X169443224Y-98670212D01*
X169536054Y-98446100D01*
X169598838Y-98211789D01*
X169630500Y-97971288D01*
X169630500Y-97728712D01*
X169630500Y-97728709D01*
X169625553Y-97691130D01*
X169608680Y-97562971D01*
X169598838Y-97488211D01*
X169536054Y-97253900D01*
X169443224Y-97029788D01*
X169321936Y-96819711D01*
X169184241Y-96640263D01*
X169174266Y-96627263D01*
X169174260Y-96627256D01*
X169002743Y-96455739D01*
X169002736Y-96455733D01*
X168810293Y-96308067D01*
X168810292Y-96308066D01*
X168810289Y-96308064D01*
X168600212Y-96186776D01*
X168579795Y-96178319D01*
X168376104Y-96093947D01*
X168258944Y-96062554D01*
X168141789Y-96031162D01*
X168141788Y-96031161D01*
X168141785Y-96031161D01*
X167901289Y-95999500D01*
X167901288Y-95999500D01*
X167658712Y-95999500D01*
X167658711Y-95999500D01*
X167418214Y-96031161D01*
X167183895Y-96093947D01*
X166959794Y-96186773D01*
X166959785Y-96186777D01*
X166749706Y-96308067D01*
X166557263Y-96455733D01*
X166557256Y-96455739D01*
X166385739Y-96627256D01*
X166385733Y-96627263D01*
X166238067Y-96819706D01*
X166116777Y-97029785D01*
X166116773Y-97029794D01*
X166023947Y-97253895D01*
X165961161Y-97488214D01*
X165929500Y-97728711D01*
X155510500Y-97728711D01*
X155510500Y-73020298D01*
X155510762Y-73012243D01*
X155515172Y-72944499D01*
X155525453Y-72786560D01*
X155527572Y-72770444D01*
X155566563Y-72574482D01*
X155570738Y-72558892D01*
X155634562Y-72370617D01*
X155640555Y-72356059D01*
X155728195Y-72176558D01*
X155735714Y-72163297D01*
X155778908Y-72096980D01*
X155842832Y-71998835D01*
X155851557Y-71987033D01*
X155963712Y-71852782D01*
X155972488Y-71843327D01*
X156022396Y-71794868D01*
X156029056Y-71788854D01*
X172012637Y-58378711D01*
X177649500Y-58378711D01*
X177649500Y-58621288D01*
X177681161Y-58861785D01*
X177743947Y-59096104D01*
X177836773Y-59320205D01*
X177836776Y-59320212D01*
X177958064Y-59530289D01*
X177958066Y-59530292D01*
X177958067Y-59530293D01*
X178105733Y-59722736D01*
X178105739Y-59722743D01*
X178277256Y-59894260D01*
X178277262Y-59894265D01*
X178469711Y-60041936D01*
X178679788Y-60163224D01*
X178903900Y-60256054D01*
X179138211Y-60318838D01*
X179318586Y-60342584D01*
X179378711Y-60350500D01*
X179378712Y-60350500D01*
X179621289Y-60350500D01*
X179669388Y-60344167D01*
X179861789Y-60318838D01*
X180096100Y-60256054D01*
X180320212Y-60163224D01*
X180530289Y-60041936D01*
X180722738Y-59894265D01*
X180894265Y-59722738D01*
X181041936Y-59530289D01*
X181163224Y-59320212D01*
X181256054Y-59096100D01*
X181318838Y-58861789D01*
X181350500Y-58621288D01*
X181350500Y-58378712D01*
X181318838Y-58138211D01*
X181256054Y-57903900D01*
X181163224Y-57679788D01*
X181041936Y-57469711D01*
X180894265Y-57277262D01*
X180894260Y-57277256D01*
X180722743Y-57105739D01*
X180722736Y-57105733D01*
X180530293Y-56958067D01*
X180530292Y-56958066D01*
X180530289Y-56958064D01*
X180320212Y-56836776D01*
X180320205Y-56836773D01*
X180096104Y-56743947D01*
X179861785Y-56681161D01*
X179621289Y-56649500D01*
X179621288Y-56649500D01*
X179378712Y-56649500D01*
X179378711Y-56649500D01*
X179138214Y-56681161D01*
X178903895Y-56743947D01*
X178679794Y-56836773D01*
X178679785Y-56836777D01*
X178469706Y-56958067D01*
X178277263Y-57105733D01*
X178277256Y-57105739D01*
X178105739Y-57277256D01*
X178105733Y-57277263D01*
X177958067Y-57469706D01*
X177836777Y-57679785D01*
X177836773Y-57679794D01*
X177743947Y-57903895D01*
X177681161Y-58138214D01*
X177649500Y-58378711D01*
X172012637Y-58378711D01*
X177483244Y-53788900D01*
X177490783Y-53783055D01*
X177634976Y-53679900D01*
X177650228Y-53670575D01*
X177791581Y-53597608D01*
X177807265Y-53590837D01*
X177960718Y-53536808D01*
X177976265Y-53532451D01*
X178126344Y-53500787D01*
X178140939Y-53498607D01*
X178216269Y-53491914D01*
X178226724Y-53490986D01*
X178237696Y-53490500D01*
X181794863Y-53490500D01*
X181804828Y-53490900D01*
G37*
%TD.AperFunction*%
%TD*%
M02*
