%TF.GenerationSoftware,KiCad,Pcbnew,10.0.3*%
%TF.CreationDate,2026-06-20T18:38:36-04:00*%
%TF.ProjectId,BTtamagotchi,42547461-6d61-4676-9f74-6368692e6b69,rev?*%
%TF.SameCoordinates,Original*%
%TF.FileFunction,Copper,L2,Bot*%
%TF.FilePolarity,Positive*%
%FSLAX46Y46*%
G04 Gerber Fmt 4.6, Leading zero omitted, Abs format (unit mm)*
G04 Created by KiCad (PCBNEW 10.0.3) date 2026-06-20 18:38:36*
%MOMM*%
%LPD*%
G01*
G04 APERTURE LIST*
G04 Aperture macros list*
%AMRoundRect*
0 Rectangle with rounded corners*
0 $1 Rounding radius*
0 $2 $3 $4 $5 $6 $7 $8 $9 X,Y pos of 4 corners*
0 Add a 4 corners polygon primitive as box body*
4,1,4,$2,$3,$4,$5,$6,$7,$8,$9,$2,$3,0*
0 Add four circle primitives for the rounded corners*
1,1,$1+$1,$2,$3*
1,1,$1+$1,$4,$5*
1,1,$1+$1,$6,$7*
1,1,$1+$1,$8,$9*
0 Add four rect primitives between the rounded corners*
20,1,$1+$1,$2,$3,$4,$5,0*
20,1,$1+$1,$4,$5,$6,$7,0*
20,1,$1+$1,$6,$7,$8,$9,0*
20,1,$1+$1,$8,$9,$2,$3,0*%
G04 Aperture macros list end*
%TA.AperFunction,ComponentPad*%
%ADD10C,1.600000*%
%TD*%
%TA.AperFunction,SMDPad,CuDef*%
%ADD11C,1.700000*%
%TD*%
%TA.AperFunction,ComponentPad*%
%ADD12RoundRect,0.275000X-0.275000X0.975000X-0.275000X-0.975000X0.275000X-0.975000X0.275000X0.975000X0*%
%TD*%
%TA.AperFunction,SMDPad,CuDef*%
%ADD13RoundRect,0.152400X0.609600X-1.063600X0.609600X1.063600X-0.609600X1.063600X-0.609600X-1.063600X0*%
%TD*%
%TA.AperFunction,ComponentPad*%
%ADD14C,1.524000*%
%TD*%
%TA.AperFunction,SMDPad,CuDef*%
%ADD15RoundRect,0.152400X-0.609600X1.063600X-0.609600X-1.063600X0.609600X-1.063600X0.609600X1.063600X0*%
%TD*%
%TA.AperFunction,ComponentPad*%
%ADD16C,2.700000*%
%TD*%
%TA.AperFunction,ComponentPad*%
%ADD17C,1.800000*%
%TD*%
%TA.AperFunction,ComponentPad*%
%ADD18R,1.700000X1.700000*%
%TD*%
%TA.AperFunction,ComponentPad*%
%ADD19C,1.700000*%
%TD*%
%TA.AperFunction,ComponentPad*%
%ADD20R,2.500000X2.500000*%
%TD*%
%TA.AperFunction,ComponentPad*%
%ADD21C,2.500000*%
%TD*%
%TA.AperFunction,ViaPad*%
%ADD22C,0.600000*%
%TD*%
%TA.AperFunction,Conductor*%
%ADD23C,0.200000*%
%TD*%
G04 APERTURE END LIST*
D10*
%TO.P,SW4,2,2_2*%
%TO.N,Net-(U1-GPIO5_A3_D3)*%
X199790000Y-107500000D03*
X199790000Y-102700000D03*
%TO.P,SW4,1,1_1*%
%TO.N,GND*%
X202790000Y-107500000D03*
X202790000Y-102700000D03*
%TD*%
%TO.P,SW3,2,2_2*%
%TO.N,Net-(U1-GPIO4_A2_D2)*%
X199800000Y-117710000D03*
X199800000Y-112910000D03*
%TO.P,SW3,1,1_1*%
%TO.N,GND*%
X202800000Y-117710000D03*
X202800000Y-112910000D03*
%TD*%
D11*
%TO.P,U1,22,MTCK_22*%
%TO.N,unconnected-(U1-MTCK-Pad22)*%
X197957500Y-81590000D03*
%TO.P,U1,21,MTMS_21*%
%TO.N,unconnected-(U1-MTMS-Pad21)*%
X197957499Y-84130000D03*
%TO.P,U1,20,GND_20*%
%TO.N,unconnected-(U1-GND-Pad20)*%
X200497500Y-81589999D03*
%TO.P,U1,19,CHIP_EN_19*%
%TO.N,unconnected-(U1-CHIP_EN-Pad19)*%
X200497500Y-84130000D03*
%TO.P,U1,18,MTDO_18*%
%TO.N,unconnected-(U1-MTDO-Pad18)*%
X203037500Y-81590001D03*
%TO.P,U1,17,MTDI_17*%
%TO.N,unconnected-(U1-MTDI-Pad17)*%
X203037500Y-84130000D03*
D12*
%TO.P,U1,16,GND_16*%
%TO.N,GND*%
X196692500Y-87305000D03*
%TO.P,U1,15,BAT_15*%
%TO.N,+BATT*%
X194787502Y-87305001D03*
D13*
%TO.P,U1,14,5V_14*%
%TO.N,+5V*%
X202021501Y-74405001D03*
D14*
X202021499Y-75240001D03*
%TO.P,U1,13,GND_13*%
%TO.N,GND*%
X199481502Y-75240001D03*
D13*
X199481500Y-74405001D03*
D14*
%TO.P,U1,12,3V3_12*%
%TO.N,+3V3*%
X196941500Y-75240000D03*
D13*
X196941499Y-74404999D03*
D14*
%TO.P,U1,11,GPIO10_D10_MOSI_11*%
%TO.N,unconnected-(U1-GPIO10_D10_MOSI-Pad11)*%
X194401501Y-75239999D03*
D13*
X194401500Y-74404999D03*
%TO.P,U1,10,GPIO9_D9_MISO_10*%
%TO.N,unconnected-(U1-GPIO9_D9_MISO-Pad10)*%
X191861501Y-74405000D03*
D14*
X191861499Y-75240001D03*
%TO.P,U1,9,GPIO8_D8_SCK_9*%
%TO.N,Net-(U1-GPIO8_D8_SCK)*%
X189321500Y-75239998D03*
D13*
X189321500Y-74405001D03*
D14*
%TO.P,U1,8,GPIO20_D7_RX_8*%
%TO.N,Net-(U1-GPIO20_D7_RX)*%
X186781501Y-75240001D03*
D13*
X186781498Y-74405001D03*
D14*
%TO.P,U1,7,GPIO21_D6_TX_7*%
%TO.N,unconnected-(U1-GPIO21_D6_TX-Pad7)_1*%
X186781501Y-90479999D03*
D15*
%TO.N,unconnected-(U1-GPIO21_D6_TX-Pad7)*%
X186781499Y-91314999D03*
%TO.P,U1,6,GPIO7_D5_SCL_6*%
%TO.N,Net-(U1-GPIO7_D5_SCL)*%
X189321500Y-91314999D03*
D14*
X189321498Y-90479999D03*
D15*
%TO.P,U1,5,GPIO6_D4_SDA_5*%
%TO.N,Net-(U1-GPIO6_D4_SDA)*%
X191861501Y-91315001D03*
D14*
X191861500Y-90480000D03*
D15*
%TO.P,U1,4,GPIO5_A3_D3_4*%
%TO.N,Net-(U1-GPIO5_A3_D3)*%
X194401500Y-91315001D03*
D14*
X194401499Y-90480001D03*
%TO.P,U1,3,GPIO4_A2_D2_3*%
%TO.N,Net-(U1-GPIO4_A2_D2)*%
X196941501Y-90479999D03*
D15*
X196941499Y-91315000D03*
%TO.P,U1,2,GPIO3_A1_D1_2*%
%TO.N,Net-(U1-GPIO3_A1_D1)*%
X199481500Y-91314999D03*
D14*
X199481500Y-90480002D03*
D15*
%TO.P,U1,1,GPIO2_A0_D0_1*%
%TO.N,Net-(U1-GPIO2_A0_D0)*%
X202021502Y-91314999D03*
D14*
X202021499Y-90479999D03*
%TD*%
D10*
%TO.P,SW1,1,1_1*%
%TO.N,GND*%
X156730000Y-117760000D03*
X156730000Y-112960000D03*
%TO.P,SW1,2,2_2*%
%TO.N,Net-(U1-GPIO2_A0_D0)*%
X159730000Y-117760000D03*
X159730000Y-112960000D03*
%TD*%
%TO.P,SW2,1,1_1*%
%TO.N,GND*%
X156710000Y-107650000D03*
X156710000Y-102850000D03*
%TO.P,SW2,2,2_2*%
%TO.N,Net-(U1-GPIO3_A1_D1)*%
X159710000Y-107650000D03*
X159710000Y-102850000D03*
%TD*%
D16*
%TO.P,U2,*%
%TO.N,*%
X167780000Y-97850000D03*
X167780000Y-121650000D03*
X191080000Y-97850000D03*
X191080000Y-121650000D03*
D17*
%TO.P,U2,1,GND_1*%
%TO.N,GND*%
X175680000Y-97790000D03*
%TO.P,U2,2,VCC_2*%
%TO.N,+3V3*%
X178180000Y-97790000D03*
%TO.P,U2,3,SCL_3*%
%TO.N,Net-(U1-GPIO7_D5_SCL)*%
X180680000Y-97790000D03*
%TO.P,U2,4,SDA_4*%
%TO.N,Net-(U1-GPIO6_D4_SDA)*%
X183180000Y-97790000D03*
%TD*%
D18*
%TO.P,BT1,1,+_1*%
%TO.N,+BATT*%
X177950000Y-122050000D03*
D19*
%TO.P,BT1,2,-_2*%
%TO.N,GND*%
X180490000Y-122050000D03*
%TD*%
D20*
%TO.P,SPK1,1,+_1*%
%TO.N,Net-(SPK1-+)*%
X170930000Y-71070000D03*
D21*
%TO.P,SPK1,2,-_2*%
%TO.N,Net-(SPK1--)*%
X170930000Y-81070000D03*
%TD*%
D22*
%TO.N,Net-(U1-GPIO20_D7_RX)*%
X173719485Y-77630515D03*
%TO.N,GND*%
X173260000Y-74530000D03*
X168714265Y-76784265D03*
%TO.N,Net-(U1-GPIO4_A2_D2)*%
X197210000Y-97410000D03*
%TO.N,+BATT*%
X193124009Y-92624009D03*
%TD*%
%TO.N,Net-(U1-GPIO20_D7_RX)*%
D23*
X186781501Y-76238499D02*
X186781501Y-75240001D01*
X185389485Y-77630515D02*
X186781501Y-76238499D01*
X173719485Y-77630515D02*
X185389485Y-77630515D01*
%TO.N,GND*%
X172870000Y-74140000D02*
X173260000Y-74530000D01*
X168830000Y-74140000D02*
X172870000Y-74140000D01*
X168270000Y-74700000D02*
X168830000Y-74140000D01*
X168270000Y-76340000D02*
X168270000Y-74700000D01*
X168714265Y-76784265D02*
X168270000Y-76340000D01*
X184280000Y-89190000D02*
X196020000Y-89190000D01*
X175680000Y-97790000D02*
X184280000Y-89190000D01*
%TO.N,Net-(U1-GPIO4_A2_D2)*%
X197210000Y-97200000D02*
X196941501Y-96931501D01*
X197210000Y-97410000D02*
X197210000Y-97200000D01*
X196941501Y-96931501D02*
X196941501Y-90479999D01*
%TO.N,+BATT*%
X177950000Y-107798017D02*
X193124009Y-92624009D01*
X177950000Y-122050000D02*
X177950000Y-107798017D01*
%TO.N,GND*%
X196020000Y-89190000D02*
X197153397Y-89190000D01*
X197153397Y-89190000D02*
X198419500Y-90456103D01*
X198419500Y-90456103D02*
X198419500Y-98329500D01*
X198419500Y-98329500D02*
X202790000Y-102700000D01*
X196020000Y-89190000D02*
X196057500Y-89190000D01*
%TO.N,Net-(U1-GPIO5_A3_D3)*%
X194401499Y-97311499D02*
X199790000Y-102700000D01*
X194401499Y-90480001D02*
X194401499Y-97311499D01*
%TO.N,GND*%
X202790000Y-107500000D02*
X202790000Y-102700000D01*
X202790000Y-107500000D02*
X202790000Y-112900000D01*
X202790000Y-112900000D02*
X202800000Y-112910000D01*
%TO.N,Net-(U1-GPIO5_A3_D3)*%
X199790000Y-107500000D02*
X199790000Y-102700000D01*
%TO.N,GND*%
X202800000Y-117710000D02*
X202800000Y-112910000D01*
%TO.N,Net-(U1-GPIO4_A2_D2)*%
X199800000Y-117710000D02*
X199800000Y-112910000D01*
%TO.N,GND*%
X196692500Y-88555000D02*
X196692500Y-87305000D01*
X196057500Y-89190000D02*
X196692500Y-88555000D01*
%TO.N,Net-(U1-GPIO6_D4_SDA)*%
X185163713Y-97790000D02*
X191861500Y-91092213D01*
X183180000Y-97790000D02*
X185163713Y-97790000D01*
X191861500Y-91092213D02*
X191861500Y-90480000D01*
%TO.N,Net-(U1-GPIO7_D5_SCL)*%
X185639001Y-92830999D02*
X187582713Y-92830999D01*
X187582713Y-92830999D02*
X189321498Y-91092214D01*
X189321498Y-91092214D02*
X189321498Y-90479999D01*
X180680000Y-97790000D02*
X185639001Y-92830999D01*
%TD*%
%TA.AperFunction,Conductor*%
%TO.N,GND*%
G36*
X195757329Y-88756165D02*
G01*
X195783689Y-88758051D01*
X195792742Y-88763869D01*
X195799782Y-88765401D01*
X195828036Y-88786552D01*
X195931237Y-88889753D01*
X196079113Y-88982669D01*
X196243960Y-89040351D01*
X196373969Y-89054999D01*
X196373973Y-89055000D01*
X196458754Y-89055000D01*
X196525793Y-89074685D01*
X196571548Y-89127489D01*
X196581492Y-89196647D01*
X196552467Y-89260203D01*
X196497072Y-89296931D01*
X196456871Y-89309992D01*
X196456868Y-89309993D01*
X196279806Y-89400212D01*
X196119034Y-89517020D01*
X195978519Y-89657535D01*
X195920742Y-89737057D01*
X195915463Y-89743817D01*
X195911949Y-89748010D01*
X195811907Y-89848053D01*
X195773063Y-89913733D01*
X195766537Y-89921521D01*
X195745575Y-89935485D01*
X195727161Y-89952679D01*
X195716991Y-89954528D01*
X195708390Y-89960259D01*
X195683202Y-89960674D01*
X195658420Y-89965182D01*
X195648865Y-89961240D01*
X195638529Y-89961411D01*
X195617113Y-89948141D01*
X195593830Y-89938536D01*
X195584808Y-89928123D01*
X195579137Y-89924610D01*
X195575924Y-89917871D01*
X195564767Y-89904995D01*
X195531094Y-89848057D01*
X195531093Y-89848055D01*
X195531092Y-89848054D01*
X195531089Y-89848051D01*
X195531087Y-89848048D01*
X195434893Y-89751854D01*
X195422256Y-89737058D01*
X195364485Y-89657543D01*
X195364481Y-89657538D01*
X195223965Y-89517022D01*
X195223964Y-89517021D01*
X195223963Y-89517020D01*
X195063193Y-89400214D01*
X195063189Y-89400212D01*
X194886131Y-89309995D01*
X194886128Y-89309994D01*
X194847464Y-89297432D01*
X194789788Y-89257995D01*
X194762590Y-89193636D01*
X194774505Y-89124790D01*
X194821749Y-89073314D01*
X194885782Y-89055501D01*
X195106057Y-89055501D01*
X195106058Y-89055500D01*
X195236159Y-89040842D01*
X195401108Y-88983123D01*
X195549078Y-88890148D01*
X195652674Y-88786552D01*
X195660619Y-88782213D01*
X195666045Y-88774966D01*
X195690804Y-88765731D01*
X195713997Y-88753067D01*
X195723026Y-88753712D01*
X195731509Y-88750549D01*
X195757329Y-88756165D01*
G37*
%TD.AperFunction*%
%TA.AperFunction,Conductor*%
G36*
X181804828Y-53490900D02*
G01*
X181893290Y-53498034D01*
X181907172Y-53499949D01*
X182061241Y-53530163D01*
X182076786Y-53534274D01*
X182224969Y-53583948D01*
X182241180Y-53590693D01*
X182368049Y-53654386D01*
X182384341Y-53664198D01*
X182509391Y-53753246D01*
X182517207Y-53759295D01*
X203703368Y-71550879D01*
X203709072Y-71555977D01*
X203879502Y-71718037D01*
X203890147Y-71729524D01*
X204030808Y-71901987D01*
X204039562Y-71914153D01*
X204166128Y-72114583D01*
X204172980Y-72126942D01*
X204283866Y-72356957D01*
X204288955Y-72369131D01*
X204380976Y-72627011D01*
X204384526Y-72638768D01*
X204453369Y-72915676D01*
X204455621Y-72926938D01*
X204496641Y-73196501D01*
X204497788Y-73207071D01*
X204509236Y-73382285D01*
X204509500Y-73390370D01*
X204509500Y-80987734D01*
X204489815Y-81054773D01*
X204437011Y-81100528D01*
X204367853Y-81110472D01*
X204304297Y-81081447D01*
X204275015Y-81044029D01*
X204246331Y-80987734D01*
X204192551Y-80882185D01*
X204184523Y-80871135D01*
X204067609Y-80710214D01*
X203917286Y-80559891D01*
X203745320Y-80434952D01*
X203555914Y-80338445D01*
X203555913Y-80338444D01*
X203555912Y-80338444D01*
X203353743Y-80272755D01*
X203353741Y-80272754D01*
X203353740Y-80272754D01*
X203192457Y-80247209D01*
X203143787Y-80239501D01*
X202931213Y-80239501D01*
X202882542Y-80247209D01*
X202721260Y-80272754D01*
X202519085Y-80338445D01*
X202329679Y-80434952D01*
X202157713Y-80559891D01*
X202007390Y-80710214D01*
X201882448Y-80882184D01*
X201877982Y-80890950D01*
X201830006Y-80941743D01*
X201762184Y-80958536D01*
X201696050Y-80935996D01*
X201657014Y-80890943D01*
X201652551Y-80882183D01*
X201652549Y-80882180D01*
X201652548Y-80882178D01*
X201527609Y-80710212D01*
X201377286Y-80559889D01*
X201205320Y-80434950D01*
X201015914Y-80338443D01*
X201015913Y-80338442D01*
X201015912Y-80338442D01*
X200813743Y-80272753D01*
X200813741Y-80272752D01*
X200813740Y-80272752D01*
X200652457Y-80247207D01*
X200603787Y-80239499D01*
X200391213Y-80239499D01*
X200342542Y-80247207D01*
X200181260Y-80272752D01*
X199979085Y-80338443D01*
X199789679Y-80434950D01*
X199617713Y-80559889D01*
X199467390Y-80710212D01*
X199342450Y-80882180D01*
X199337980Y-80890952D01*
X199290002Y-80941744D01*
X199222179Y-80958535D01*
X199156046Y-80935992D01*
X199117013Y-80890942D01*
X199112551Y-80882184D01*
X199112549Y-80882181D01*
X199112548Y-80882179D01*
X198987609Y-80710213D01*
X198837286Y-80559890D01*
X198665320Y-80434951D01*
X198475914Y-80338444D01*
X198475913Y-80338443D01*
X198475912Y-80338443D01*
X198273743Y-80272754D01*
X198273741Y-80272753D01*
X198273740Y-80272753D01*
X198112457Y-80247208D01*
X198063787Y-80239500D01*
X197851213Y-80239500D01*
X197802542Y-80247208D01*
X197641260Y-80272753D01*
X197439085Y-80338444D01*
X197249679Y-80434951D01*
X197077713Y-80559890D01*
X196927390Y-80710213D01*
X196802451Y-80882179D01*
X196705944Y-81071585D01*
X196640253Y-81273760D01*
X196607000Y-81483713D01*
X196607000Y-81696286D01*
X196630694Y-81845888D01*
X196640254Y-81906243D01*
X196640254Y-81906244D01*
X196705944Y-82108414D01*
X196802451Y-82297820D01*
X196927390Y-82469786D01*
X197077713Y-82620109D01*
X197249679Y-82745048D01*
X197249681Y-82745049D01*
X197249684Y-82745051D01*
X197258442Y-82749513D01*
X197309239Y-82797487D01*
X197326035Y-82865307D01*
X197303499Y-82931443D01*
X197258452Y-82970480D01*
X197249680Y-82974950D01*
X197077712Y-83099890D01*
X196927389Y-83250213D01*
X196802450Y-83422179D01*
X196705943Y-83611585D01*
X196640252Y-83813760D01*
X196606999Y-84023713D01*
X196606999Y-84236287D01*
X196640253Y-84446243D01*
X196687498Y-84591649D01*
X196705943Y-84648414D01*
X196802450Y-84837820D01*
X196927389Y-85009786D01*
X197077712Y-85160109D01*
X197249678Y-85285048D01*
X197249680Y-85285049D01*
X197249683Y-85285051D01*
X197439087Y-85381557D01*
X197641256Y-85447246D01*
X197851212Y-85480500D01*
X197851213Y-85480500D01*
X198063785Y-85480500D01*
X198063786Y-85480500D01*
X198273742Y-85447246D01*
X198475911Y-85381557D01*
X198665315Y-85285051D01*
X198687288Y-85269086D01*
X198837285Y-85160109D01*
X198837287Y-85160106D01*
X198837291Y-85160104D01*
X198987603Y-85009792D01*
X198987605Y-85009788D01*
X198987608Y-85009786D01*
X199112547Y-84837821D01*
X199112550Y-84837816D01*
X199117012Y-84829056D01*
X199164983Y-84778260D01*
X199232803Y-84761462D01*
X199298939Y-84783996D01*
X199337983Y-84829052D01*
X199342449Y-84837817D01*
X199467390Y-85009786D01*
X199617713Y-85160109D01*
X199789679Y-85285048D01*
X199789681Y-85285049D01*
X199789684Y-85285051D01*
X199979088Y-85381557D01*
X200181257Y-85447246D01*
X200391213Y-85480500D01*
X200391214Y-85480500D01*
X200603786Y-85480500D01*
X200603787Y-85480500D01*
X200813743Y-85447246D01*
X201015912Y-85381557D01*
X201205316Y-85285051D01*
X201227289Y-85269086D01*
X201377286Y-85160109D01*
X201377288Y-85160106D01*
X201377292Y-85160104D01*
X201527604Y-85009792D01*
X201527606Y-85009788D01*
X201527609Y-85009786D01*
X201652548Y-84837820D01*
X201652550Y-84837817D01*
X201652551Y-84837816D01*
X201657014Y-84829054D01*
X201704988Y-84778259D01*
X201772808Y-84761463D01*
X201838944Y-84783999D01*
X201877984Y-84829054D01*
X201882091Y-84837115D01*
X201882451Y-84837820D01*
X202007390Y-85009786D01*
X202157713Y-85160109D01*
X202329679Y-85285048D01*
X202329681Y-85285049D01*
X202329684Y-85285051D01*
X202519088Y-85381557D01*
X202721257Y-85447246D01*
X202931213Y-85480500D01*
X202931214Y-85480500D01*
X203143786Y-85480500D01*
X203143787Y-85480500D01*
X203353743Y-85447246D01*
X203555912Y-85381557D01*
X203745316Y-85285051D01*
X203767289Y-85269086D01*
X203917286Y-85160109D01*
X203917288Y-85160106D01*
X203917292Y-85160104D01*
X204067604Y-85009792D01*
X204067606Y-85009788D01*
X204067609Y-85009786D01*
X204192548Y-84837820D01*
X204192550Y-84837817D01*
X204192551Y-84837816D01*
X204275015Y-84675970D01*
X204322990Y-84625175D01*
X204390811Y-84608380D01*
X204456945Y-84630917D01*
X204500397Y-84685632D01*
X204509500Y-84732266D01*
X204509500Y-125011944D01*
X204509293Y-125019106D01*
X204493413Y-125293575D01*
X204491638Y-125308494D01*
X204449840Y-125539462D01*
X204446098Y-125554622D01*
X204380034Y-125764440D01*
X204374294Y-125779271D01*
X204285037Y-125972169D01*
X204277464Y-125986117D01*
X204164756Y-126165308D01*
X204155669Y-126177925D01*
X204018822Y-126344772D01*
X204008620Y-126355779D01*
X203848114Y-126509177D01*
X203837183Y-126518475D01*
X203657955Y-126653867D01*
X203646580Y-126661511D01*
X203466255Y-126768718D01*
X203454547Y-126774859D01*
X203324234Y-126834578D01*
X203315050Y-126838349D01*
X183732869Y-133978206D01*
X183731164Y-133978814D01*
X183584024Y-134030041D01*
X183580532Y-134031199D01*
X183025739Y-134206079D01*
X183020492Y-134207606D01*
X182447747Y-134360757D01*
X182441254Y-134362308D01*
X181949263Y-134465857D01*
X181941033Y-134467301D01*
X181552661Y-134522050D01*
X181542006Y-134523085D01*
X181239894Y-134539321D01*
X181233240Y-134539500D01*
X178225299Y-134539500D01*
X178219228Y-134539351D01*
X178194606Y-134538144D01*
X177909616Y-134524173D01*
X177902066Y-134523571D01*
X177458007Y-134474491D01*
X177450275Y-134473389D01*
X176980953Y-134391340D01*
X176972922Y-134389661D01*
X176517902Y-134278671D01*
X176509503Y-134276306D01*
X176074495Y-134137135D01*
X176069766Y-134135517D01*
X171186289Y-132353226D01*
X166296718Y-130568711D01*
X177629500Y-130568711D01*
X177629500Y-130811288D01*
X177661161Y-131051785D01*
X177723947Y-131286104D01*
X177816773Y-131510205D01*
X177816776Y-131510212D01*
X177938064Y-131720289D01*
X177938066Y-131720292D01*
X177938067Y-131720293D01*
X178085733Y-131912736D01*
X178085739Y-131912743D01*
X178257256Y-132084260D01*
X178257262Y-132084265D01*
X178449711Y-132231936D01*
X178659788Y-132353224D01*
X178883900Y-132446054D01*
X179118211Y-132508838D01*
X179298586Y-132532584D01*
X179358711Y-132540500D01*
X179358712Y-132540500D01*
X179601289Y-132540500D01*
X179649388Y-132534167D01*
X179841789Y-132508838D01*
X180076100Y-132446054D01*
X180300212Y-132353224D01*
X180510289Y-132231936D01*
X180702738Y-132084265D01*
X180874265Y-131912738D01*
X181021936Y-131720289D01*
X181143224Y-131510212D01*
X181236054Y-131286100D01*
X181298838Y-131051789D01*
X181330500Y-130811288D01*
X181330500Y-130568712D01*
X181298838Y-130328211D01*
X181236054Y-130093900D01*
X181143224Y-129869788D01*
X181021936Y-129659711D01*
X180874265Y-129467262D01*
X180874260Y-129467256D01*
X180702743Y-129295739D01*
X180702736Y-129295733D01*
X180510293Y-129148067D01*
X180510292Y-129148066D01*
X180510289Y-129148064D01*
X180300212Y-129026776D01*
X180300205Y-129026773D01*
X180076104Y-128933947D01*
X179841785Y-128871161D01*
X179601289Y-128839500D01*
X179601288Y-128839500D01*
X179358712Y-128839500D01*
X179358711Y-128839500D01*
X179118214Y-128871161D01*
X178883895Y-128933947D01*
X178659794Y-129026773D01*
X178659785Y-129026777D01*
X178449706Y-129148067D01*
X178257263Y-129295733D01*
X178257256Y-129295739D01*
X178085739Y-129467256D01*
X178085733Y-129467263D01*
X177938067Y-129659706D01*
X177816777Y-129869785D01*
X177816773Y-129869794D01*
X177723947Y-130093895D01*
X177661161Y-130328214D01*
X177629500Y-130568711D01*
X166296718Y-130568711D01*
X156918576Y-127146031D01*
X156911905Y-127143374D01*
X156652707Y-127031377D01*
X156639586Y-127024759D01*
X156428257Y-126901945D01*
X156415598Y-126893510D01*
X156231533Y-126753816D01*
X156219838Y-126743733D01*
X156101528Y-126628135D01*
X156059022Y-126586602D01*
X156048713Y-126575197D01*
X155908494Y-126399260D01*
X155899858Y-126386961D01*
X155779284Y-126190957D01*
X155772421Y-126178184D01*
X155672330Y-125962445D01*
X155667222Y-125949598D01*
X155590091Y-125718777D01*
X155586581Y-125706049D01*
X155535935Y-125475009D01*
X155533863Y-125462556D01*
X155527590Y-125407735D01*
X155512012Y-125271595D01*
X155511298Y-125262168D01*
X155510584Y-125242956D01*
X155510500Y-125238397D01*
X155510500Y-121528711D01*
X165929500Y-121528711D01*
X165929500Y-121771288D01*
X165961161Y-122011785D01*
X166023947Y-122246104D01*
X166073664Y-122366130D01*
X166116776Y-122470212D01*
X166238064Y-122680289D01*
X166238066Y-122680292D01*
X166238067Y-122680293D01*
X166385733Y-122872736D01*
X166385739Y-122872743D01*
X166557256Y-123044260D01*
X166557262Y-123044265D01*
X166749711Y-123191936D01*
X166959788Y-123313224D01*
X167183900Y-123406054D01*
X167418211Y-123468838D01*
X167598586Y-123492584D01*
X167658711Y-123500500D01*
X167658712Y-123500500D01*
X167901289Y-123500500D01*
X167949388Y-123494167D01*
X168141789Y-123468838D01*
X168376100Y-123406054D01*
X168600212Y-123313224D01*
X168810289Y-123191936D01*
X169002738Y-123044265D01*
X169174265Y-122872738D01*
X169321936Y-122680289D01*
X169443224Y-122470212D01*
X169536054Y-122246100D01*
X169598838Y-122011789D01*
X169630500Y-121771288D01*
X169630500Y-121528712D01*
X169598838Y-121288211D01*
X169536054Y-121053900D01*
X169443224Y-120829788D01*
X169321936Y-120619711D01*
X169174265Y-120427262D01*
X169174260Y-120427256D01*
X169002743Y-120255739D01*
X169002736Y-120255733D01*
X168810293Y-120108067D01*
X168810292Y-120108066D01*
X168810289Y-120108064D01*
X168600212Y-119986776D01*
X168600205Y-119986773D01*
X168376104Y-119893947D01*
X168141785Y-119831161D01*
X167901289Y-119799500D01*
X167901288Y-119799500D01*
X167658712Y-119799500D01*
X167658711Y-119799500D01*
X167418214Y-119831161D01*
X167183895Y-119893947D01*
X166959794Y-119986773D01*
X166959785Y-119986777D01*
X166749706Y-120108067D01*
X166557263Y-120255733D01*
X166557256Y-120255739D01*
X166385739Y-120427256D01*
X166385733Y-120427263D01*
X166238067Y-120619706D01*
X166116777Y-120829785D01*
X166116773Y-120829794D01*
X166023947Y-121053895D01*
X165961161Y-121288214D01*
X165929500Y-121528711D01*
X155510500Y-121528711D01*
X155510500Y-118609044D01*
X155530185Y-118542005D01*
X155582989Y-118496250D01*
X155644230Y-118485426D01*
X155650525Y-118485921D01*
X156247038Y-117889408D01*
X156264076Y-117952992D01*
X156329902Y-118067006D01*
X156422994Y-118160098D01*
X156537008Y-118225924D01*
X156600590Y-118242961D01*
X156004076Y-118839474D01*
X156048650Y-118871859D01*
X156230968Y-118964755D01*
X156425582Y-119027990D01*
X156627683Y-119060000D01*
X156832317Y-119060000D01*
X157034417Y-119027990D01*
X157229031Y-118964755D01*
X157411349Y-118871859D01*
X157455921Y-118839474D01*
X156859408Y-118242961D01*
X156922992Y-118225924D01*
X157037006Y-118160098D01*
X157130098Y-118067006D01*
X157195924Y-117952992D01*
X157212961Y-117889408D01*
X157809474Y-118485921D01*
X157841859Y-118441349D01*
X157934755Y-118259031D01*
X157997990Y-118064417D01*
X158030000Y-117862317D01*
X158030000Y-117657682D01*
X158029995Y-117657648D01*
X158429500Y-117657648D01*
X158429500Y-117862351D01*
X158461522Y-118064534D01*
X158524781Y-118259223D01*
X158588691Y-118384653D01*
X158614814Y-118435921D01*
X158617715Y-118441613D01*
X158738028Y-118607213D01*
X158882786Y-118751971D01*
X158978981Y-118821859D01*
X159048390Y-118872287D01*
X159132647Y-118915218D01*
X159230776Y-118965218D01*
X159230778Y-118965218D01*
X159230781Y-118965220D01*
X159335137Y-118999127D01*
X159425465Y-119028477D01*
X159526557Y-119044488D01*
X159627648Y-119060500D01*
X159627649Y-119060500D01*
X159832351Y-119060500D01*
X159832352Y-119060500D01*
X160034534Y-119028477D01*
X160229219Y-118965220D01*
X160411610Y-118872287D01*
X160504590Y-118804732D01*
X160577213Y-118751971D01*
X160577215Y-118751968D01*
X160577219Y-118751966D01*
X160721966Y-118607219D01*
X160721968Y-118607215D01*
X160721971Y-118607213D01*
X160810453Y-118485426D01*
X160842287Y-118441610D01*
X160935220Y-118259219D01*
X160998477Y-118064534D01*
X161030500Y-117862352D01*
X161030500Y-117657648D01*
X161016144Y-117567008D01*
X160998477Y-117455465D01*
X160946038Y-117294076D01*
X160935220Y-117260781D01*
X160935218Y-117260778D01*
X160935218Y-117260776D01*
X160842419Y-117078650D01*
X160842287Y-117078390D01*
X160810092Y-117034077D01*
X160721971Y-116912786D01*
X160577213Y-116768028D01*
X160411613Y-116647715D01*
X160411612Y-116647714D01*
X160411610Y-116647713D01*
X160354653Y-116618691D01*
X160229223Y-116554781D01*
X160034534Y-116491522D01*
X159859995Y-116463878D01*
X159832352Y-116459500D01*
X159627648Y-116459500D01*
X159603329Y-116463351D01*
X159425465Y-116491522D01*
X159230776Y-116554781D01*
X159048386Y-116647715D01*
X158882786Y-116768028D01*
X158738028Y-116912786D01*
X158617715Y-117078386D01*
X158524781Y-117260776D01*
X158461522Y-117455465D01*
X158429500Y-117657648D01*
X158029995Y-117657648D01*
X157997990Y-117455582D01*
X157934755Y-117260968D01*
X157841859Y-117078650D01*
X157809474Y-117034077D01*
X157809474Y-117034076D01*
X157212961Y-117630590D01*
X157195924Y-117567008D01*
X157130098Y-117452994D01*
X157037006Y-117359902D01*
X156922992Y-117294076D01*
X156859407Y-117277038D01*
X157455922Y-116680524D01*
X157455921Y-116680523D01*
X157411359Y-116648147D01*
X157411350Y-116648141D01*
X157229031Y-116555244D01*
X157034417Y-116492009D01*
X156832317Y-116460000D01*
X156627683Y-116460000D01*
X156425582Y-116492009D01*
X156230968Y-116555244D01*
X156048644Y-116648143D01*
X156004077Y-116680523D01*
X156004077Y-116680524D01*
X156600592Y-117277038D01*
X156537008Y-117294076D01*
X156422994Y-117359902D01*
X156329902Y-117452994D01*
X156264076Y-117567008D01*
X156247038Y-117630591D01*
X155650523Y-117034076D01*
X155644228Y-117034572D01*
X155630618Y-117031712D01*
X155616853Y-117033692D01*
X155597099Y-117024671D01*
X155575851Y-117020207D01*
X155565947Y-117010444D01*
X155553297Y-117004667D01*
X155541557Y-116986400D01*
X155526094Y-116971156D01*
X155522267Y-116956383D01*
X155515523Y-116945889D01*
X155510500Y-116910954D01*
X155510500Y-113809044D01*
X155530185Y-113742005D01*
X155582989Y-113696250D01*
X155644230Y-113685426D01*
X155650525Y-113685921D01*
X156247038Y-113089408D01*
X156264076Y-113152992D01*
X156329902Y-113267006D01*
X156422994Y-113360098D01*
X156537008Y-113425924D01*
X156600590Y-113442961D01*
X156004076Y-114039474D01*
X156048650Y-114071859D01*
X156230968Y-114164755D01*
X156425582Y-114227990D01*
X156627683Y-114260000D01*
X156832317Y-114260000D01*
X157034417Y-114227990D01*
X157229031Y-114164755D01*
X157411349Y-114071859D01*
X157455921Y-114039474D01*
X156859408Y-113442961D01*
X156922992Y-113425924D01*
X157037006Y-113360098D01*
X157130098Y-113267006D01*
X157195924Y-113152992D01*
X157212961Y-113089408D01*
X157809474Y-113685921D01*
X157841859Y-113641349D01*
X157934755Y-113459031D01*
X157997990Y-113264417D01*
X158030000Y-113062317D01*
X158030000Y-112857682D01*
X158029995Y-112857648D01*
X158429500Y-112857648D01*
X158429500Y-113062351D01*
X158461522Y-113264534D01*
X158524781Y-113459223D01*
X158588691Y-113584653D01*
X158614814Y-113635921D01*
X158617715Y-113641613D01*
X158738028Y-113807213D01*
X158882786Y-113951971D01*
X158988968Y-114029115D01*
X159048390Y-114072287D01*
X159164607Y-114131503D01*
X159230776Y-114165218D01*
X159230778Y-114165218D01*
X159230781Y-114165220D01*
X159335137Y-114199127D01*
X159425465Y-114228477D01*
X159526557Y-114244488D01*
X159627648Y-114260500D01*
X159627649Y-114260500D01*
X159832351Y-114260500D01*
X159832352Y-114260500D01*
X160034534Y-114228477D01*
X160229219Y-114165220D01*
X160411610Y-114072287D01*
X160504590Y-114004732D01*
X160577213Y-113951971D01*
X160577215Y-113951968D01*
X160577219Y-113951966D01*
X160721966Y-113807219D01*
X160721968Y-113807215D01*
X160721971Y-113807213D01*
X160810453Y-113685426D01*
X160842287Y-113641610D01*
X160935220Y-113459219D01*
X160998477Y-113264534D01*
X161030500Y-113062352D01*
X161030500Y-112857648D01*
X161016144Y-112767008D01*
X160998477Y-112655465D01*
X160946038Y-112494076D01*
X160935220Y-112460781D01*
X160935218Y-112460778D01*
X160935218Y-112460776D01*
X160842419Y-112278650D01*
X160842287Y-112278390D01*
X160810092Y-112234077D01*
X160721971Y-112112786D01*
X160577213Y-111968028D01*
X160411613Y-111847715D01*
X160411612Y-111847714D01*
X160411610Y-111847713D01*
X160354653Y-111818691D01*
X160229223Y-111754781D01*
X160034534Y-111691522D01*
X159859995Y-111663878D01*
X159832352Y-111659500D01*
X159627648Y-111659500D01*
X159603329Y-111663351D01*
X159425465Y-111691522D01*
X159230776Y-111754781D01*
X159048386Y-111847715D01*
X158882786Y-111968028D01*
X158738028Y-112112786D01*
X158617715Y-112278386D01*
X158524781Y-112460776D01*
X158461522Y-112655465D01*
X158429500Y-112857648D01*
X158029995Y-112857648D01*
X157997990Y-112655582D01*
X157934755Y-112460968D01*
X157841859Y-112278650D01*
X157809474Y-112234077D01*
X157809474Y-112234076D01*
X157212961Y-112830590D01*
X157195924Y-112767008D01*
X157130098Y-112652994D01*
X157037006Y-112559902D01*
X156922992Y-112494076D01*
X156859407Y-112477038D01*
X157455922Y-111880524D01*
X157455921Y-111880523D01*
X157411359Y-111848147D01*
X157411350Y-111848141D01*
X157229031Y-111755244D01*
X157034417Y-111692009D01*
X156832317Y-111660000D01*
X156627683Y-111660000D01*
X156425582Y-111692009D01*
X156230968Y-111755244D01*
X156048644Y-111848143D01*
X156004077Y-111880523D01*
X156004077Y-111880524D01*
X156600592Y-112477038D01*
X156537008Y-112494076D01*
X156422994Y-112559902D01*
X156329902Y-112652994D01*
X156264076Y-112767008D01*
X156247038Y-112830591D01*
X155650523Y-112234076D01*
X155644228Y-112234572D01*
X155630618Y-112231712D01*
X155616853Y-112233692D01*
X155597099Y-112224671D01*
X155575851Y-112220207D01*
X155565947Y-112210444D01*
X155553297Y-112204667D01*
X155541557Y-112186400D01*
X155526094Y-112171156D01*
X155522267Y-112156383D01*
X155515523Y-112145889D01*
X155510500Y-112110954D01*
X155510500Y-108500618D01*
X155530185Y-108433579D01*
X155582989Y-108387824D01*
X155626273Y-108380173D01*
X156227038Y-107779408D01*
X156244076Y-107842992D01*
X156309902Y-107957006D01*
X156402994Y-108050098D01*
X156517008Y-108115924D01*
X156580590Y-108132961D01*
X155984076Y-108729474D01*
X156028650Y-108761859D01*
X156210968Y-108854755D01*
X156405582Y-108917990D01*
X156607683Y-108950000D01*
X156812317Y-108950000D01*
X157014417Y-108917990D01*
X157209031Y-108854755D01*
X157391349Y-108761859D01*
X157435921Y-108729474D01*
X156839408Y-108132961D01*
X156902992Y-108115924D01*
X157017006Y-108050098D01*
X157110098Y-107957006D01*
X157175924Y-107842992D01*
X157192961Y-107779409D01*
X157789474Y-108375922D01*
X157789474Y-108375921D01*
X157821859Y-108331349D01*
X157914755Y-108149031D01*
X157977990Y-107954417D01*
X158010000Y-107752317D01*
X158010000Y-107547682D01*
X158009995Y-107547648D01*
X158409500Y-107547648D01*
X158409500Y-107752351D01*
X158441522Y-107954534D01*
X158504781Y-108149223D01*
X158597715Y-108331613D01*
X158718028Y-108497213D01*
X158862786Y-108641971D01*
X158949843Y-108705220D01*
X159028390Y-108762287D01*
X159144607Y-108821503D01*
X159210776Y-108855218D01*
X159210778Y-108855218D01*
X159210781Y-108855220D01*
X159315137Y-108889127D01*
X159405465Y-108918477D01*
X159506557Y-108934488D01*
X159607648Y-108950500D01*
X159607649Y-108950500D01*
X159812351Y-108950500D01*
X159812352Y-108950500D01*
X160014534Y-108918477D01*
X160209219Y-108855220D01*
X160391610Y-108762287D01*
X160484590Y-108694732D01*
X160557213Y-108641971D01*
X160557215Y-108641968D01*
X160557219Y-108641966D01*
X160701966Y-108497219D01*
X160701968Y-108497215D01*
X160701971Y-108497213D01*
X160787004Y-108380173D01*
X160822287Y-108331610D01*
X160915220Y-108149219D01*
X160978477Y-107954534D01*
X161010500Y-107752352D01*
X161010500Y-107547648D01*
X160986742Y-107397648D01*
X160978477Y-107345465D01*
X160929739Y-107195466D01*
X160915220Y-107150781D01*
X160915218Y-107150778D01*
X160915218Y-107150776D01*
X160881503Y-107084607D01*
X160822287Y-106968390D01*
X160790092Y-106924077D01*
X160701971Y-106802786D01*
X160557213Y-106658028D01*
X160391613Y-106537715D01*
X160391612Y-106537714D01*
X160391610Y-106537713D01*
X160333350Y-106508028D01*
X160209223Y-106444781D01*
X160014534Y-106381522D01*
X159839995Y-106353878D01*
X159812352Y-106349500D01*
X159607648Y-106349500D01*
X159583329Y-106353351D01*
X159405465Y-106381522D01*
X159210776Y-106444781D01*
X159028386Y-106537715D01*
X158862786Y-106658028D01*
X158718028Y-106802786D01*
X158597715Y-106968386D01*
X158504781Y-107150776D01*
X158441522Y-107345465D01*
X158409500Y-107547648D01*
X158009995Y-107547648D01*
X157977990Y-107345582D01*
X157914755Y-107150968D01*
X157821859Y-106968650D01*
X157789474Y-106924077D01*
X157789474Y-106924076D01*
X157192961Y-107520590D01*
X157175924Y-107457008D01*
X157110098Y-107342994D01*
X157017006Y-107249902D01*
X156902992Y-107184076D01*
X156839407Y-107167038D01*
X157435922Y-106570524D01*
X157435921Y-106570523D01*
X157391359Y-106538147D01*
X157391350Y-106538141D01*
X157209031Y-106445244D01*
X157014417Y-106382009D01*
X156812317Y-106350000D01*
X156607683Y-106350000D01*
X156405582Y-106382009D01*
X156210968Y-106445244D01*
X156028644Y-106538143D01*
X155984077Y-106570523D01*
X155984077Y-106570524D01*
X156580592Y-107167038D01*
X156517008Y-107184076D01*
X156402994Y-107249902D01*
X156309902Y-107342994D01*
X156244076Y-107457008D01*
X156227038Y-107520591D01*
X155627092Y-106920645D01*
X155616853Y-106922118D01*
X155597099Y-106913097D01*
X155575851Y-106908633D01*
X155565948Y-106898870D01*
X155553297Y-106893093D01*
X155541556Y-106874824D01*
X155526094Y-106859581D01*
X155522267Y-106844810D01*
X155515523Y-106834315D01*
X155510500Y-106799380D01*
X155510500Y-103700618D01*
X155530185Y-103633579D01*
X155582989Y-103587824D01*
X155626273Y-103580173D01*
X156227038Y-102979408D01*
X156244076Y-103042992D01*
X156309902Y-103157006D01*
X156402994Y-103250098D01*
X156517008Y-103315924D01*
X156580590Y-103332961D01*
X155984076Y-103929474D01*
X156028650Y-103961859D01*
X156210968Y-104054755D01*
X156405582Y-104117990D01*
X156607683Y-104150000D01*
X156812317Y-104150000D01*
X157014417Y-104117990D01*
X157209031Y-104054755D01*
X157391349Y-103961859D01*
X157435921Y-103929474D01*
X156839408Y-103332961D01*
X156902992Y-103315924D01*
X157017006Y-103250098D01*
X157110098Y-103157006D01*
X157175924Y-103042992D01*
X157192961Y-102979409D01*
X157789474Y-103575922D01*
X157789474Y-103575921D01*
X157821859Y-103531349D01*
X157914755Y-103349031D01*
X157977990Y-103154417D01*
X158010000Y-102952317D01*
X158010000Y-102747682D01*
X158009995Y-102747648D01*
X158409500Y-102747648D01*
X158409500Y-102952351D01*
X158441522Y-103154534D01*
X158504781Y-103349223D01*
X158597715Y-103531613D01*
X158718028Y-103697213D01*
X158862786Y-103841971D01*
X158949203Y-103904755D01*
X159028390Y-103962287D01*
X159144607Y-104021503D01*
X159210776Y-104055218D01*
X159210778Y-104055218D01*
X159210781Y-104055220D01*
X159315137Y-104089127D01*
X159405465Y-104118477D01*
X159506557Y-104134488D01*
X159607648Y-104150500D01*
X159607649Y-104150500D01*
X159812351Y-104150500D01*
X159812352Y-104150500D01*
X160014534Y-104118477D01*
X160209219Y-104055220D01*
X160391610Y-103962287D01*
X160484590Y-103894732D01*
X160557213Y-103841971D01*
X160557215Y-103841968D01*
X160557219Y-103841966D01*
X160701966Y-103697219D01*
X160701968Y-103697215D01*
X160701971Y-103697213D01*
X160787004Y-103580173D01*
X160822287Y-103531610D01*
X160915220Y-103349219D01*
X160978477Y-103154534D01*
X161010500Y-102952352D01*
X161010500Y-102747648D01*
X160986742Y-102597648D01*
X160978477Y-102545465D01*
X160929777Y-102395582D01*
X160915220Y-102350781D01*
X160915218Y-102350778D01*
X160915218Y-102350776D01*
X160866497Y-102255157D01*
X160822287Y-102168390D01*
X160790092Y-102124077D01*
X160701971Y-102002786D01*
X160557213Y-101858028D01*
X160391613Y-101737715D01*
X160391612Y-101737714D01*
X160391610Y-101737713D01*
X160333350Y-101708028D01*
X160209223Y-101644781D01*
X160014534Y-101581522D01*
X159839995Y-101553878D01*
X159812352Y-101549500D01*
X159607648Y-101549500D01*
X159583329Y-101553351D01*
X159405465Y-101581522D01*
X159210776Y-101644781D01*
X159028386Y-101737715D01*
X158862786Y-101858028D01*
X158718028Y-102002786D01*
X158597715Y-102168386D01*
X158504781Y-102350776D01*
X158441522Y-102545465D01*
X158409500Y-102747648D01*
X158009995Y-102747648D01*
X157977990Y-102545582D01*
X157914755Y-102350968D01*
X157821859Y-102168650D01*
X157789474Y-102124077D01*
X157789474Y-102124076D01*
X157192961Y-102720590D01*
X157175924Y-102657008D01*
X157110098Y-102542994D01*
X157017006Y-102449902D01*
X156902992Y-102384076D01*
X156839407Y-102367038D01*
X157435922Y-101770524D01*
X157435921Y-101770523D01*
X157391359Y-101738147D01*
X157391350Y-101738141D01*
X157209031Y-101645244D01*
X157014417Y-101582009D01*
X156812317Y-101550000D01*
X156607683Y-101550000D01*
X156405582Y-101582009D01*
X156210968Y-101645244D01*
X156028644Y-101738143D01*
X155984077Y-101770523D01*
X155984077Y-101770524D01*
X156580592Y-102367038D01*
X156517008Y-102384076D01*
X156402994Y-102449902D01*
X156309902Y-102542994D01*
X156244076Y-102657008D01*
X156227038Y-102720591D01*
X155627092Y-102120645D01*
X155616853Y-102122118D01*
X155597099Y-102113097D01*
X155575851Y-102108633D01*
X155565948Y-102098870D01*
X155553297Y-102093093D01*
X155541556Y-102074824D01*
X155526094Y-102059581D01*
X155522267Y-102044810D01*
X155515523Y-102034315D01*
X155510500Y-101999380D01*
X155510500Y-97728711D01*
X165929500Y-97728711D01*
X165929500Y-97971288D01*
X165961161Y-98211785D01*
X166023947Y-98446104D01*
X166065991Y-98547606D01*
X166116776Y-98670212D01*
X166238064Y-98880289D01*
X166238066Y-98880292D01*
X166238067Y-98880293D01*
X166385733Y-99072736D01*
X166385739Y-99072743D01*
X166557256Y-99244260D01*
X166557262Y-99244265D01*
X166749711Y-99391936D01*
X166959788Y-99513224D01*
X167183900Y-99606054D01*
X167418211Y-99668838D01*
X167598586Y-99692584D01*
X167658711Y-99700500D01*
X167658712Y-99700500D01*
X167901289Y-99700500D01*
X167949388Y-99694167D01*
X168141789Y-99668838D01*
X168376100Y-99606054D01*
X168600212Y-99513224D01*
X168810289Y-99391936D01*
X169002738Y-99244265D01*
X169174265Y-99072738D01*
X169321936Y-98880289D01*
X169443224Y-98670212D01*
X169536054Y-98446100D01*
X169598838Y-98211789D01*
X169630500Y-97971288D01*
X169630500Y-97728712D01*
X169630500Y-97728709D01*
X169625553Y-97691130D01*
X169624064Y-97679818D01*
X174280000Y-97679818D01*
X174280000Y-97900181D01*
X174314473Y-98117835D01*
X174382567Y-98327410D01*
X174482611Y-98523756D01*
X174528932Y-98587513D01*
X175176630Y-97939815D01*
X175190785Y-97992640D01*
X175259901Y-98112353D01*
X175357647Y-98210099D01*
X175477360Y-98279215D01*
X175530183Y-98293369D01*
X174882485Y-98941065D01*
X174882485Y-98941066D01*
X174946243Y-98987388D01*
X175142589Y-99087432D01*
X175352164Y-99155526D01*
X175569819Y-99190000D01*
X175790181Y-99190000D01*
X176007835Y-99155526D01*
X176217410Y-99087432D01*
X176413760Y-98987386D01*
X176477513Y-98941066D01*
X176477514Y-98941066D01*
X175829816Y-98293369D01*
X175882640Y-98279215D01*
X176002353Y-98210099D01*
X176100099Y-98112353D01*
X176169215Y-97992640D01*
X176183369Y-97939817D01*
X176831066Y-98587514D01*
X176832547Y-98587397D01*
X176884700Y-98547180D01*
X176954314Y-98541200D01*
X177016109Y-98573806D01*
X177030008Y-98589846D01*
X177111752Y-98702359D01*
X177267636Y-98858243D01*
X177267641Y-98858247D01*
X177381632Y-98941065D01*
X177445978Y-98987815D01*
X177574375Y-99053237D01*
X177642393Y-99087895D01*
X177642396Y-99087896D01*
X177747221Y-99121955D01*
X177852049Y-99156015D01*
X178069778Y-99190500D01*
X178069779Y-99190500D01*
X178290221Y-99190500D01*
X178290222Y-99190500D01*
X178507951Y-99156015D01*
X178717606Y-99087895D01*
X178914022Y-98987815D01*
X179092365Y-98858242D01*
X179248242Y-98702365D01*
X179329682Y-98590270D01*
X179385011Y-98547606D01*
X179454624Y-98541627D01*
X179516420Y-98574232D01*
X179530313Y-98590265D01*
X179588393Y-98670205D01*
X179611758Y-98702365D01*
X179767636Y-98858243D01*
X179767641Y-98858247D01*
X179881632Y-98941065D01*
X179945978Y-98987815D01*
X180074375Y-99053237D01*
X180142393Y-99087895D01*
X180142396Y-99087896D01*
X180247221Y-99121955D01*
X180352049Y-99156015D01*
X180569778Y-99190500D01*
X180569779Y-99190500D01*
X180790221Y-99190500D01*
X180790222Y-99190500D01*
X181007951Y-99156015D01*
X181217606Y-99087895D01*
X181414022Y-98987815D01*
X181592365Y-98858242D01*
X181748242Y-98702365D01*
X181829682Y-98590270D01*
X181885011Y-98547606D01*
X181954624Y-98541627D01*
X182016420Y-98574232D01*
X182030313Y-98590265D01*
X182088393Y-98670205D01*
X182111758Y-98702365D01*
X182267636Y-98858243D01*
X182267641Y-98858247D01*
X182381632Y-98941065D01*
X182445978Y-98987815D01*
X182574375Y-99053237D01*
X182642393Y-99087895D01*
X182642396Y-99087896D01*
X182747221Y-99121955D01*
X182852049Y-99156015D01*
X183069778Y-99190500D01*
X183069779Y-99190500D01*
X183290221Y-99190500D01*
X183290222Y-99190500D01*
X183507951Y-99156015D01*
X183717606Y-99087895D01*
X183914022Y-98987815D01*
X184092365Y-98858242D01*
X184248242Y-98702365D01*
X184377815Y-98524022D01*
X184411352Y-98458204D01*
X184459326Y-98407409D01*
X184521836Y-98390500D01*
X185077044Y-98390500D01*
X185077060Y-98390501D01*
X185084656Y-98390501D01*
X185242767Y-98390501D01*
X185242770Y-98390501D01*
X185395498Y-98349577D01*
X185445617Y-98320639D01*
X185532429Y-98270520D01*
X185644233Y-98158716D01*
X185644233Y-98158714D01*
X185654441Y-98148507D01*
X185654443Y-98148504D01*
X190815606Y-92987340D01*
X190876927Y-92953857D01*
X190946619Y-92958841D01*
X190966407Y-92968292D01*
X190990538Y-92982563D01*
X190990540Y-92982563D01*
X190990542Y-92982565D01*
X190990544Y-92982565D01*
X190990545Y-92982566D01*
X191148948Y-93028587D01*
X191148951Y-93028587D01*
X191148953Y-93028588D01*
X191185967Y-93031501D01*
X191567919Y-93031501D01*
X191634958Y-93051186D01*
X191680713Y-93103990D01*
X191690657Y-93173148D01*
X191661632Y-93236704D01*
X191655600Y-93243182D01*
X177581286Y-107317495D01*
X177469481Y-107429299D01*
X177469479Y-107429302D01*
X177419361Y-107516111D01*
X177419359Y-107516113D01*
X177390425Y-107566226D01*
X177390424Y-107566227D01*
X177374544Y-107625489D01*
X177349499Y-107718960D01*
X177349499Y-107718962D01*
X177349499Y-107887063D01*
X177349500Y-107887076D01*
X177349500Y-120575500D01*
X177329815Y-120642539D01*
X177277011Y-120688294D01*
X177225501Y-120699500D01*
X177052130Y-120699500D01*
X177052123Y-120699501D01*
X176992516Y-120705908D01*
X176857671Y-120756202D01*
X176857664Y-120756206D01*
X176742455Y-120842452D01*
X176742452Y-120842455D01*
X176656206Y-120957664D01*
X176656202Y-120957671D01*
X176605908Y-121092517D01*
X176599501Y-121152116D01*
X176599500Y-121152135D01*
X176599500Y-122947870D01*
X176599501Y-122947876D01*
X176605908Y-123007483D01*
X176656202Y-123142328D01*
X176656206Y-123142335D01*
X176742452Y-123257544D01*
X176742455Y-123257547D01*
X176857664Y-123343793D01*
X176857671Y-123343797D01*
X176992517Y-123394091D01*
X176992516Y-123394091D01*
X176999444Y-123394835D01*
X177052127Y-123400500D01*
X178847872Y-123400499D01*
X178907483Y-123394091D01*
X179042331Y-123343796D01*
X179157546Y-123257546D01*
X179243796Y-123142331D01*
X179294091Y-123007483D01*
X179300500Y-122947873D01*
X179300499Y-122923979D01*
X179303330Y-122910963D01*
X179313940Y-122891525D01*
X179320179Y-122870275D01*
X179336803Y-122849643D01*
X179336808Y-122849636D01*
X179336811Y-122849634D01*
X179336818Y-122849626D01*
X180007037Y-122179408D01*
X180024075Y-122242993D01*
X180089901Y-122357007D01*
X180182993Y-122450099D01*
X180297007Y-122515925D01*
X180360590Y-122532962D01*
X179728282Y-123165269D01*
X179728282Y-123165270D01*
X179782449Y-123204624D01*
X179971782Y-123301095D01*
X180173870Y-123366757D01*
X180383754Y-123400000D01*
X180596246Y-123400000D01*
X180806127Y-123366757D01*
X180806130Y-123366757D01*
X181008217Y-123301095D01*
X181197554Y-123204622D01*
X181251716Y-123165270D01*
X181251717Y-123165270D01*
X180619408Y-122532962D01*
X180682993Y-122515925D01*
X180797007Y-122450099D01*
X180890099Y-122357007D01*
X180955925Y-122242993D01*
X180972962Y-122179408D01*
X181605270Y-122811717D01*
X181605270Y-122811716D01*
X181644622Y-122757554D01*
X181741095Y-122568217D01*
X181806757Y-122366130D01*
X181806757Y-122366127D01*
X181840000Y-122156246D01*
X181840000Y-121943753D01*
X181806757Y-121733872D01*
X181806757Y-121733869D01*
X181751229Y-121562971D01*
X181751228Y-121562969D01*
X181741096Y-121531784D01*
X181739530Y-121528711D01*
X189229500Y-121528711D01*
X189229500Y-121771288D01*
X189261161Y-122011785D01*
X189323947Y-122246104D01*
X189373664Y-122366130D01*
X189416776Y-122470212D01*
X189538064Y-122680289D01*
X189538066Y-122680292D01*
X189538067Y-122680293D01*
X189685733Y-122872736D01*
X189685739Y-122872743D01*
X189857256Y-123044260D01*
X189857262Y-123044265D01*
X190049711Y-123191936D01*
X190259788Y-123313224D01*
X190483900Y-123406054D01*
X190718211Y-123468838D01*
X190898586Y-123492584D01*
X190958711Y-123500500D01*
X190958712Y-123500500D01*
X191201289Y-123500500D01*
X191249388Y-123494167D01*
X191441789Y-123468838D01*
X191676100Y-123406054D01*
X191900212Y-123313224D01*
X192110289Y-123191936D01*
X192302738Y-123044265D01*
X192474265Y-122872738D01*
X192621936Y-122680289D01*
X192743224Y-122470212D01*
X192836054Y-122246100D01*
X192898838Y-122011789D01*
X192930500Y-121771288D01*
X192930500Y-121528712D01*
X192898838Y-121288211D01*
X192836054Y-121053900D01*
X192743224Y-120829788D01*
X192621936Y-120619711D01*
X192474265Y-120427262D01*
X192474260Y-120427256D01*
X192302743Y-120255739D01*
X192302736Y-120255733D01*
X192110293Y-120108067D01*
X192110292Y-120108066D01*
X192110289Y-120108064D01*
X191900212Y-119986776D01*
X191900205Y-119986773D01*
X191676104Y-119893947D01*
X191441785Y-119831161D01*
X191201289Y-119799500D01*
X191201288Y-119799500D01*
X190958712Y-119799500D01*
X190958711Y-119799500D01*
X190718214Y-119831161D01*
X190483895Y-119893947D01*
X190259794Y-119986773D01*
X190259785Y-119986777D01*
X190049706Y-120108067D01*
X189857263Y-120255733D01*
X189857256Y-120255739D01*
X189685739Y-120427256D01*
X189685733Y-120427263D01*
X189538067Y-120619706D01*
X189416777Y-120829785D01*
X189416773Y-120829794D01*
X189323947Y-121053895D01*
X189261161Y-121288214D01*
X189229500Y-121528711D01*
X181739530Y-121528711D01*
X181644624Y-121342449D01*
X181605270Y-121288282D01*
X181605269Y-121288282D01*
X180972962Y-121920590D01*
X180955925Y-121857007D01*
X180890099Y-121742993D01*
X180797007Y-121649901D01*
X180682993Y-121584075D01*
X180619409Y-121567037D01*
X181251716Y-120934728D01*
X181197550Y-120895375D01*
X181008217Y-120798904D01*
X180806129Y-120733242D01*
X180596246Y-120700000D01*
X180383754Y-120700000D01*
X180173872Y-120733242D01*
X180173869Y-120733242D01*
X179971782Y-120798904D01*
X179782439Y-120895380D01*
X179728282Y-120934727D01*
X179728282Y-120934728D01*
X180360591Y-121567037D01*
X180297007Y-121584075D01*
X180182993Y-121649901D01*
X180089901Y-121742993D01*
X180024075Y-121857007D01*
X180007037Y-121920591D01*
X179336818Y-121250372D01*
X179303333Y-121189049D01*
X179303330Y-121189036D01*
X179300499Y-121176015D01*
X179300499Y-121152128D01*
X179294091Y-121092517D01*
X179265926Y-121017002D01*
X179243798Y-120957673D01*
X179243793Y-120957664D01*
X179157547Y-120842455D01*
X179157544Y-120842452D01*
X179042335Y-120756206D01*
X179042328Y-120756202D01*
X178907482Y-120705908D01*
X178907483Y-120705908D01*
X178847883Y-120699501D01*
X178847881Y-120699500D01*
X178847873Y-120699500D01*
X178847865Y-120699500D01*
X178674500Y-120699500D01*
X178607461Y-120679815D01*
X178561706Y-120627011D01*
X178550500Y-120575500D01*
X178550500Y-112807648D01*
X198499500Y-112807648D01*
X198499500Y-113012351D01*
X198531522Y-113214534D01*
X198594781Y-113409223D01*
X198658691Y-113534653D01*
X198687585Y-113591359D01*
X198687715Y-113591613D01*
X198808028Y-113757213D01*
X198808034Y-113757219D01*
X198952781Y-113901966D01*
X199118390Y-114022287D01*
X199131793Y-114029116D01*
X199182589Y-114077088D01*
X199199500Y-114139601D01*
X199199500Y-116480397D01*
X199179815Y-116547436D01*
X199131800Y-116590879D01*
X199118389Y-116597712D01*
X198952786Y-116718028D01*
X198808028Y-116862786D01*
X198687715Y-117028386D01*
X198594781Y-117210776D01*
X198531522Y-117405465D01*
X198499500Y-117607648D01*
X198499500Y-117812351D01*
X198531522Y-118014534D01*
X198594781Y-118209223D01*
X198658691Y-118334653D01*
X198687585Y-118391359D01*
X198687715Y-118391613D01*
X198808028Y-118557213D01*
X198952786Y-118701971D01*
X199073226Y-118789474D01*
X199118390Y-118822287D01*
X199234607Y-118881503D01*
X199300776Y-118915218D01*
X199300778Y-118915218D01*
X199300781Y-118915220D01*
X199405137Y-118949127D01*
X199495465Y-118978477D01*
X199596557Y-118994488D01*
X199697648Y-119010500D01*
X199697649Y-119010500D01*
X199902351Y-119010500D01*
X199902352Y-119010500D01*
X200104534Y-118978477D01*
X200299219Y-118915220D01*
X200481610Y-118822287D01*
X200574590Y-118754732D01*
X200647213Y-118701971D01*
X200647215Y-118701968D01*
X200647219Y-118701966D01*
X200791966Y-118557219D01*
X200791968Y-118557215D01*
X200791971Y-118557213D01*
X200875960Y-118441610D01*
X200912287Y-118391610D01*
X201005220Y-118209219D01*
X201068477Y-118014534D01*
X201100500Y-117812352D01*
X201100500Y-117607682D01*
X201500000Y-117607682D01*
X201500000Y-117812317D01*
X201532009Y-118014417D01*
X201595244Y-118209031D01*
X201688141Y-118391350D01*
X201688147Y-118391359D01*
X201720523Y-118435921D01*
X201720524Y-118435922D01*
X202317038Y-117839408D01*
X202334076Y-117902992D01*
X202399902Y-118017006D01*
X202492994Y-118110098D01*
X202607008Y-118175924D01*
X202670590Y-118192961D01*
X202074076Y-118789474D01*
X202118650Y-118821859D01*
X202300968Y-118914755D01*
X202495582Y-118977990D01*
X202697683Y-119010000D01*
X202902317Y-119010000D01*
X203104417Y-118977990D01*
X203299031Y-118914755D01*
X203481349Y-118821859D01*
X203525921Y-118789474D01*
X202929408Y-118192961D01*
X202992992Y-118175924D01*
X203107006Y-118110098D01*
X203200098Y-118017006D01*
X203265924Y-117902992D01*
X203282961Y-117839408D01*
X203879474Y-118435921D01*
X203911859Y-118391349D01*
X204004755Y-118209031D01*
X204067990Y-118014417D01*
X204100000Y-117812317D01*
X204100000Y-117607682D01*
X204067990Y-117405582D01*
X204004755Y-117210968D01*
X203911859Y-117028650D01*
X203879474Y-116984077D01*
X203879474Y-116984076D01*
X203282961Y-117580590D01*
X203265924Y-117517008D01*
X203200098Y-117402994D01*
X203107006Y-117309902D01*
X202992992Y-117244076D01*
X202929407Y-117227038D01*
X203525922Y-116630524D01*
X203525921Y-116630523D01*
X203481359Y-116598147D01*
X203481350Y-116598141D01*
X203299031Y-116505244D01*
X203104417Y-116442009D01*
X202902317Y-116410000D01*
X202697683Y-116410000D01*
X202495582Y-116442009D01*
X202300968Y-116505244D01*
X202118644Y-116598143D01*
X202074077Y-116630523D01*
X202074077Y-116630524D01*
X202670592Y-117227038D01*
X202607008Y-117244076D01*
X202492994Y-117309902D01*
X202399902Y-117402994D01*
X202334076Y-117517008D01*
X202317038Y-117580591D01*
X201720524Y-116984077D01*
X201720523Y-116984077D01*
X201688143Y-117028644D01*
X201595244Y-117210968D01*
X201532009Y-117405582D01*
X201500000Y-117607682D01*
X201100500Y-117607682D01*
X201100500Y-117607648D01*
X201068632Y-117406446D01*
X201068477Y-117405465D01*
X201021464Y-117260776D01*
X201005220Y-117210781D01*
X201005218Y-117210778D01*
X201005218Y-117210776D01*
X200971503Y-117144607D01*
X200912287Y-117028390D01*
X200880092Y-116984077D01*
X200791971Y-116862786D01*
X200647213Y-116718028D01*
X200481610Y-116597712D01*
X200468200Y-116590879D01*
X200417406Y-116542903D01*
X200400500Y-116480397D01*
X200400500Y-114139601D01*
X200420185Y-114072562D01*
X200468206Y-114029116D01*
X200481610Y-114022287D01*
X200647219Y-113901966D01*
X200791966Y-113757219D01*
X200791968Y-113757215D01*
X200791971Y-113757213D01*
X200875960Y-113641610D01*
X200912287Y-113591610D01*
X201005220Y-113409219D01*
X201068477Y-113214534D01*
X201100500Y-113012352D01*
X201100500Y-112807682D01*
X201500000Y-112807682D01*
X201500000Y-113012317D01*
X201532009Y-113214417D01*
X201595244Y-113409031D01*
X201688141Y-113591350D01*
X201688147Y-113591359D01*
X201720523Y-113635921D01*
X201720524Y-113635922D01*
X202317038Y-113039408D01*
X202334076Y-113102992D01*
X202399902Y-113217006D01*
X202492994Y-113310098D01*
X202607008Y-113375924D01*
X202670590Y-113392961D01*
X202074076Y-113989474D01*
X202118650Y-114021859D01*
X202300968Y-114114755D01*
X202495582Y-114177990D01*
X202697683Y-114210000D01*
X202902317Y-114210000D01*
X203104417Y-114177990D01*
X203299031Y-114114755D01*
X203481349Y-114021859D01*
X203525921Y-113989474D01*
X202929408Y-113392961D01*
X202992992Y-113375924D01*
X203107006Y-113310098D01*
X203200098Y-113217006D01*
X203265924Y-113102992D01*
X203282961Y-113039408D01*
X203879474Y-113635921D01*
X203911859Y-113591349D01*
X204004755Y-113409031D01*
X204067990Y-113214417D01*
X204100000Y-113012317D01*
X204100000Y-112807682D01*
X204067990Y-112605582D01*
X204004755Y-112410968D01*
X203911859Y-112228650D01*
X203879474Y-112184077D01*
X203879474Y-112184076D01*
X203282961Y-112780590D01*
X203265924Y-112717008D01*
X203200098Y-112602994D01*
X203107006Y-112509902D01*
X202992992Y-112444076D01*
X202929407Y-112427038D01*
X203525922Y-111830524D01*
X203525921Y-111830523D01*
X203481359Y-111798147D01*
X203481350Y-111798141D01*
X203299031Y-111705244D01*
X203104417Y-111642009D01*
X202902317Y-111610000D01*
X202697683Y-111610000D01*
X202495582Y-111642009D01*
X202300968Y-111705244D01*
X202118644Y-111798143D01*
X202074077Y-111830523D01*
X202074077Y-111830524D01*
X202670592Y-112427038D01*
X202607008Y-112444076D01*
X202492994Y-112509902D01*
X202399902Y-112602994D01*
X202334076Y-112717008D01*
X202317038Y-112780591D01*
X201720524Y-112184077D01*
X201720523Y-112184077D01*
X201688143Y-112228644D01*
X201595244Y-112410968D01*
X201532009Y-112605582D01*
X201500000Y-112807682D01*
X201100500Y-112807682D01*
X201100500Y-112807648D01*
X201068632Y-112606446D01*
X201068477Y-112605465D01*
X201021464Y-112460776D01*
X201005220Y-112410781D01*
X201005218Y-112410778D01*
X201005218Y-112410776D01*
X200971503Y-112344607D01*
X200912287Y-112228390D01*
X200880092Y-112184077D01*
X200791971Y-112062786D01*
X200647213Y-111918028D01*
X200481613Y-111797715D01*
X200481612Y-111797714D01*
X200481610Y-111797713D01*
X200398260Y-111755244D01*
X200299223Y-111704781D01*
X200104534Y-111641522D01*
X199929995Y-111613878D01*
X199902352Y-111609500D01*
X199697648Y-111609500D01*
X199673329Y-111613351D01*
X199495465Y-111641522D01*
X199300776Y-111704781D01*
X199118386Y-111797715D01*
X198952786Y-111918028D01*
X198808028Y-112062786D01*
X198687715Y-112228386D01*
X198594781Y-112410776D01*
X198531522Y-112605465D01*
X198499500Y-112807648D01*
X178550500Y-112807648D01*
X178550500Y-108098114D01*
X178570185Y-108031075D01*
X178586819Y-108010433D01*
X183897253Y-102699999D01*
X189025927Y-97571325D01*
X189087248Y-97537842D01*
X189156940Y-97542826D01*
X189212873Y-97584698D01*
X189237290Y-97650162D01*
X189236545Y-97675192D01*
X189229500Y-97728709D01*
X189229500Y-97971288D01*
X189261161Y-98211785D01*
X189323947Y-98446104D01*
X189365991Y-98547606D01*
X189416776Y-98670212D01*
X189538064Y-98880289D01*
X189538066Y-98880292D01*
X189538067Y-98880293D01*
X189685733Y-99072736D01*
X189685739Y-99072743D01*
X189857256Y-99244260D01*
X189857262Y-99244265D01*
X190049711Y-99391936D01*
X190259788Y-99513224D01*
X190483900Y-99606054D01*
X190718211Y-99668838D01*
X190898586Y-99692584D01*
X190958711Y-99700500D01*
X190958712Y-99700500D01*
X191201289Y-99700500D01*
X191249388Y-99694167D01*
X191441789Y-99668838D01*
X191676100Y-99606054D01*
X191900212Y-99513224D01*
X192110289Y-99391936D01*
X192302738Y-99244265D01*
X192474265Y-99072738D01*
X192621936Y-98880289D01*
X192743224Y-98670212D01*
X192836054Y-98446100D01*
X192898838Y-98211789D01*
X192930500Y-97971288D01*
X192930500Y-97728712D01*
X192924115Y-97680216D01*
X192919280Y-97643489D01*
X192898838Y-97488211D01*
X192836054Y-97253900D01*
X192743224Y-97029788D01*
X192621936Y-96819711D01*
X192515549Y-96681064D01*
X192474266Y-96627263D01*
X192474260Y-96627256D01*
X192302743Y-96455739D01*
X192302736Y-96455733D01*
X192110293Y-96308067D01*
X192110292Y-96308066D01*
X192110289Y-96308064D01*
X191900212Y-96186776D01*
X191878588Y-96177819D01*
X191676104Y-96093947D01*
X191441785Y-96031161D01*
X191201289Y-95999500D01*
X191201288Y-95999500D01*
X190958712Y-95999500D01*
X190958710Y-95999500D01*
X190905192Y-96006545D01*
X190836156Y-95995779D01*
X190783901Y-95949398D01*
X190765017Y-95882129D01*
X190785499Y-95815329D01*
X190801322Y-95795931D01*
X193138673Y-93458580D01*
X193199994Y-93425097D01*
X193202161Y-93424646D01*
X193202850Y-93424509D01*
X193202851Y-93424509D01*
X193357506Y-93393746D01*
X193503188Y-93333403D01*
X193535941Y-93311518D01*
X193608108Y-93263298D01*
X193674785Y-93242420D01*
X193742166Y-93260904D01*
X193788856Y-93312883D01*
X193800999Y-93366400D01*
X193800999Y-97224829D01*
X193800998Y-97224847D01*
X193800998Y-97390553D01*
X193800997Y-97390553D01*
X193841922Y-97543284D01*
X193870857Y-97593399D01*
X193870858Y-97593403D01*
X193870859Y-97593403D01*
X193920978Y-97680213D01*
X193920980Y-97680216D01*
X194039848Y-97799084D01*
X194039854Y-97799089D01*
X198495922Y-102255157D01*
X198529407Y-102316480D01*
X198526173Y-102381155D01*
X198521522Y-102395468D01*
X198489500Y-102597648D01*
X198489500Y-102802351D01*
X198521522Y-103004534D01*
X198584781Y-103199223D01*
X198610704Y-103250098D01*
X198677585Y-103381359D01*
X198677715Y-103381613D01*
X198798028Y-103547213D01*
X198798034Y-103547219D01*
X198942781Y-103691966D01*
X199108390Y-103812287D01*
X199121793Y-103819116D01*
X199172589Y-103867088D01*
X199189500Y-103929601D01*
X199189500Y-106270397D01*
X199169815Y-106337436D01*
X199121800Y-106380879D01*
X199108389Y-106387712D01*
X198942786Y-106508028D01*
X198798028Y-106652786D01*
X198677715Y-106818386D01*
X198584781Y-107000776D01*
X198521522Y-107195465D01*
X198489500Y-107397648D01*
X198489500Y-107602351D01*
X198521522Y-107804534D01*
X198584781Y-107999223D01*
X198644244Y-108115924D01*
X198677585Y-108181359D01*
X198677715Y-108181613D01*
X198798028Y-108347213D01*
X198942786Y-108491971D01*
X199063226Y-108579474D01*
X199108390Y-108612287D01*
X199224607Y-108671503D01*
X199290776Y-108705218D01*
X199290778Y-108705218D01*
X199290781Y-108705220D01*
X199365427Y-108729474D01*
X199485465Y-108768477D01*
X199586557Y-108784488D01*
X199687648Y-108800500D01*
X199687649Y-108800500D01*
X199892351Y-108800500D01*
X199892352Y-108800500D01*
X200094534Y-108768477D01*
X200289219Y-108705220D01*
X200471610Y-108612287D01*
X200564590Y-108544732D01*
X200637213Y-108491971D01*
X200637215Y-108491968D01*
X200637219Y-108491966D01*
X200781966Y-108347219D01*
X200781968Y-108347215D01*
X200781971Y-108347213D01*
X200834732Y-108274590D01*
X200902287Y-108181610D01*
X200995220Y-107999219D01*
X201058477Y-107804534D01*
X201090500Y-107602352D01*
X201090500Y-107397682D01*
X201490000Y-107397682D01*
X201490000Y-107602317D01*
X201522009Y-107804417D01*
X201585244Y-107999031D01*
X201678141Y-108181350D01*
X201678147Y-108181359D01*
X201710523Y-108225921D01*
X201710524Y-108225922D01*
X202307038Y-107629408D01*
X202324076Y-107692992D01*
X202389902Y-107807006D01*
X202482994Y-107900098D01*
X202597008Y-107965924D01*
X202660590Y-107982961D01*
X202064076Y-108579474D01*
X202108650Y-108611859D01*
X202290968Y-108704755D01*
X202485582Y-108767990D01*
X202687683Y-108800000D01*
X202892317Y-108800000D01*
X203094417Y-108767990D01*
X203289031Y-108704755D01*
X203471349Y-108611859D01*
X203515921Y-108579474D01*
X202919408Y-107982961D01*
X202982992Y-107965924D01*
X203097006Y-107900098D01*
X203190098Y-107807006D01*
X203255924Y-107692992D01*
X203272961Y-107629408D01*
X203869474Y-108225921D01*
X203901859Y-108181349D01*
X203994755Y-107999031D01*
X204057990Y-107804417D01*
X204090000Y-107602317D01*
X204090000Y-107397682D01*
X204057990Y-107195582D01*
X203994755Y-107000968D01*
X203901859Y-106818650D01*
X203869474Y-106774077D01*
X203869474Y-106774076D01*
X203272961Y-107370590D01*
X203255924Y-107307008D01*
X203190098Y-107192994D01*
X203097006Y-107099902D01*
X202982992Y-107034076D01*
X202919407Y-107017038D01*
X203515922Y-106420524D01*
X203515921Y-106420523D01*
X203471359Y-106388147D01*
X203471350Y-106388141D01*
X203289031Y-106295244D01*
X203094417Y-106232009D01*
X202892317Y-106200000D01*
X202687683Y-106200000D01*
X202485582Y-106232009D01*
X202290968Y-106295244D01*
X202108644Y-106388143D01*
X202064077Y-106420523D01*
X202064077Y-106420524D01*
X202660592Y-107017038D01*
X202597008Y-107034076D01*
X202482994Y-107099902D01*
X202389902Y-107192994D01*
X202324076Y-107307008D01*
X202307038Y-107370591D01*
X201710524Y-106774077D01*
X201710523Y-106774077D01*
X201678143Y-106818644D01*
X201585244Y-107000968D01*
X201522009Y-107195582D01*
X201490000Y-107397682D01*
X201090500Y-107397682D01*
X201090500Y-107397648D01*
X201067099Y-107249902D01*
X201058477Y-107195465D01*
X201006038Y-107034076D01*
X200995220Y-107000781D01*
X200995218Y-107000778D01*
X200995218Y-107000776D01*
X200955139Y-106922118D01*
X200902287Y-106818390D01*
X200890950Y-106802786D01*
X200781971Y-106652786D01*
X200637213Y-106508028D01*
X200471610Y-106387712D01*
X200458200Y-106380879D01*
X200407406Y-106332903D01*
X200390500Y-106270397D01*
X200390500Y-103929601D01*
X200410185Y-103862562D01*
X200458206Y-103819116D01*
X200471610Y-103812287D01*
X200637219Y-103691966D01*
X200781966Y-103547219D01*
X200781968Y-103547215D01*
X200781971Y-103547213D01*
X200834732Y-103474590D01*
X200902287Y-103381610D01*
X200995220Y-103199219D01*
X201058477Y-103004534D01*
X201090500Y-102802352D01*
X201090500Y-102597682D01*
X201490000Y-102597682D01*
X201490000Y-102802317D01*
X201522009Y-103004417D01*
X201585244Y-103199031D01*
X201678141Y-103381350D01*
X201678147Y-103381359D01*
X201710523Y-103425921D01*
X201710524Y-103425922D01*
X202307038Y-102829408D01*
X202324076Y-102892992D01*
X202389902Y-103007006D01*
X202482994Y-103100098D01*
X202597008Y-103165924D01*
X202660590Y-103182961D01*
X202064076Y-103779474D01*
X202108650Y-103811859D01*
X202290968Y-103904755D01*
X202485582Y-103967990D01*
X202687683Y-104000000D01*
X202892317Y-104000000D01*
X203094417Y-103967990D01*
X203289031Y-103904755D01*
X203471349Y-103811859D01*
X203515921Y-103779474D01*
X202919408Y-103182961D01*
X202982992Y-103165924D01*
X203097006Y-103100098D01*
X203190098Y-103007006D01*
X203255924Y-102892992D01*
X203272961Y-102829408D01*
X203869474Y-103425921D01*
X203901859Y-103381349D01*
X203994755Y-103199031D01*
X204057990Y-103004417D01*
X204090000Y-102802317D01*
X204090000Y-102597682D01*
X204057990Y-102395582D01*
X203994755Y-102200968D01*
X203901859Y-102018650D01*
X203869474Y-101974077D01*
X203869474Y-101974076D01*
X203272961Y-102570590D01*
X203255924Y-102507008D01*
X203190098Y-102392994D01*
X203097006Y-102299902D01*
X202982992Y-102234076D01*
X202919407Y-102217038D01*
X203515922Y-101620524D01*
X203515921Y-101620523D01*
X203471359Y-101588147D01*
X203471350Y-101588141D01*
X203289031Y-101495244D01*
X203094417Y-101432009D01*
X202892317Y-101400000D01*
X202687683Y-101400000D01*
X202485582Y-101432009D01*
X202290968Y-101495244D01*
X202108644Y-101588143D01*
X202064077Y-101620523D01*
X202064077Y-101620524D01*
X202660592Y-102217038D01*
X202597008Y-102234076D01*
X202482994Y-102299902D01*
X202389902Y-102392994D01*
X202324076Y-102507008D01*
X202307038Y-102570591D01*
X201710524Y-101974077D01*
X201710523Y-101974077D01*
X201678143Y-102018644D01*
X201585244Y-102200968D01*
X201522009Y-102395582D01*
X201490000Y-102597682D01*
X201090500Y-102597682D01*
X201090500Y-102597648D01*
X201067099Y-102449902D01*
X201058477Y-102395465D01*
X201006038Y-102234076D01*
X200995220Y-102200781D01*
X200995218Y-102200778D01*
X200995218Y-102200776D01*
X200955139Y-102122118D01*
X200902287Y-102018390D01*
X200890950Y-102002786D01*
X200781971Y-101852786D01*
X200637213Y-101708028D01*
X200471613Y-101587715D01*
X200471612Y-101587714D01*
X200471610Y-101587713D01*
X200396613Y-101549500D01*
X200289223Y-101494781D01*
X200094534Y-101431522D01*
X199919995Y-101403878D01*
X199892352Y-101399500D01*
X199687648Y-101399500D01*
X199649599Y-101405526D01*
X199485468Y-101431522D01*
X199476717Y-101434365D01*
X199471154Y-101436173D01*
X199401313Y-101438167D01*
X199345157Y-101405922D01*
X195038318Y-97099083D01*
X195004833Y-97037760D01*
X195001999Y-97011402D01*
X195001999Y-93152031D01*
X195021684Y-93084992D01*
X195074488Y-93039237D01*
X195107965Y-93030565D01*
X195107812Y-93029727D01*
X195114045Y-93028588D01*
X195114048Y-93028588D01*
X195114050Y-93028587D01*
X195114052Y-93028587D01*
X195155823Y-93016450D01*
X195272459Y-92982565D01*
X195414447Y-92898593D01*
X195531092Y-92781948D01*
X195564771Y-92725001D01*
X195615835Y-92677322D01*
X195684576Y-92664817D01*
X195749166Y-92691462D01*
X195778230Y-92725003D01*
X195811907Y-92781947D01*
X195811908Y-92781948D01*
X195811911Y-92781952D01*
X195928546Y-92898587D01*
X195928550Y-92898590D01*
X195928552Y-92898592D01*
X196070540Y-92982564D01*
X196086986Y-92987342D01*
X196228946Y-93028586D01*
X196235187Y-93029726D01*
X196234860Y-93031513D01*
X196292012Y-93053291D01*
X196333486Y-93109519D01*
X196341001Y-93152030D01*
X196341001Y-96844831D01*
X196341000Y-96844849D01*
X196341000Y-97010555D01*
X196340999Y-97010555D01*
X196346431Y-97030827D01*
X196381924Y-97163286D01*
X196384716Y-97168123D01*
X196389554Y-97176503D01*
X196389557Y-97176506D01*
X196403935Y-97201411D01*
X196420405Y-97269312D01*
X196418164Y-97287597D01*
X196409500Y-97331157D01*
X196409500Y-97488846D01*
X196440261Y-97643489D01*
X196440264Y-97643501D01*
X196500602Y-97789172D01*
X196500609Y-97789185D01*
X196588210Y-97920288D01*
X196588213Y-97920292D01*
X196699707Y-98031786D01*
X196699711Y-98031789D01*
X196830814Y-98119390D01*
X196830827Y-98119397D01*
X196925746Y-98158713D01*
X196976503Y-98179737D01*
X197129142Y-98210099D01*
X197131153Y-98210499D01*
X197131156Y-98210500D01*
X197131158Y-98210500D01*
X197288844Y-98210500D01*
X197288845Y-98210499D01*
X197443497Y-98179737D01*
X197589179Y-98119394D01*
X197720289Y-98031789D01*
X197831789Y-97920289D01*
X197919394Y-97789179D01*
X197979737Y-97643497D01*
X198010500Y-97488842D01*
X198010500Y-97331158D01*
X198010500Y-97331157D01*
X198010500Y-97331155D01*
X198010499Y-97331153D01*
X197979738Y-97176506D01*
X197979735Y-97176498D01*
X197919397Y-97030827D01*
X197919390Y-97030814D01*
X197831789Y-96899711D01*
X197831786Y-96899707D01*
X197720292Y-96788213D01*
X197720288Y-96788210D01*
X197597110Y-96705904D01*
X197552305Y-96652291D01*
X197542001Y-96602802D01*
X197542001Y-93152029D01*
X197561686Y-93084990D01*
X197614490Y-93039235D01*
X197647964Y-93030567D01*
X197647811Y-93029726D01*
X197654044Y-93028587D01*
X197654047Y-93028587D01*
X197654049Y-93028586D01*
X197654051Y-93028586D01*
X197695822Y-93016449D01*
X197812458Y-92982564D01*
X197954446Y-92898592D01*
X198071091Y-92781947D01*
X198104768Y-92725001D01*
X198155835Y-92677320D01*
X198224577Y-92664816D01*
X198289166Y-92691461D01*
X198318230Y-92725002D01*
X198351903Y-92781940D01*
X198351912Y-92781951D01*
X198468547Y-92898586D01*
X198468556Y-92898593D01*
X198503617Y-92919328D01*
X198610541Y-92982563D01*
X198652316Y-92994700D01*
X198768947Y-93028585D01*
X198768950Y-93028585D01*
X198768952Y-93028586D01*
X198805966Y-93031499D01*
X198805974Y-93031499D01*
X200157026Y-93031499D01*
X200157034Y-93031499D01*
X200194048Y-93028586D01*
X200194050Y-93028585D01*
X200194052Y-93028585D01*
X200235823Y-93016448D01*
X200352459Y-92982563D01*
X200494447Y-92898591D01*
X200611092Y-92781946D01*
X200644769Y-92725000D01*
X200695838Y-92677318D01*
X200764579Y-92664814D01*
X200829169Y-92691459D01*
X200858231Y-92724999D01*
X200858236Y-92725006D01*
X200891908Y-92781943D01*
X200891914Y-92781951D01*
X201008549Y-92898586D01*
X201008558Y-92898593D01*
X201043619Y-92919328D01*
X201150543Y-92982563D01*
X201192318Y-92994700D01*
X201308949Y-93028585D01*
X201308952Y-93028585D01*
X201308954Y-93028586D01*
X201345968Y-93031499D01*
X201345976Y-93031499D01*
X202697028Y-93031499D01*
X202697036Y-93031499D01*
X202734050Y-93028586D01*
X202734052Y-93028585D01*
X202734054Y-93028585D01*
X202775825Y-93016448D01*
X202892461Y-92982563D01*
X203034449Y-92898591D01*
X203151094Y-92781946D01*
X203235066Y-92639958D01*
X203281089Y-92481547D01*
X203284002Y-92444533D01*
X203284002Y-90185465D01*
X203281089Y-90148451D01*
X203235066Y-89990040D01*
X203151094Y-89848052D01*
X203054881Y-89751839D01*
X203042249Y-89737048D01*
X202984483Y-89657538D01*
X202843965Y-89517020D01*
X202843964Y-89517019D01*
X202843963Y-89517018D01*
X202683193Y-89400212D01*
X202506131Y-89309993D01*
X202506128Y-89309992D01*
X202317136Y-89248586D01*
X202218997Y-89233042D01*
X202120860Y-89217499D01*
X201922138Y-89217499D01*
X201856713Y-89227861D01*
X201725861Y-89248586D01*
X201536869Y-89309992D01*
X201536866Y-89309993D01*
X201359804Y-89400212D01*
X201199032Y-89517020D01*
X201058517Y-89657535D01*
X201000730Y-89737071D01*
X200995452Y-89743830D01*
X200991938Y-89748022D01*
X200891910Y-89848052D01*
X200853064Y-89913735D01*
X200846540Y-89921521D01*
X200825578Y-89935486D01*
X200807164Y-89952680D01*
X200796994Y-89954529D01*
X200788393Y-89960260D01*
X200763205Y-89960675D01*
X200738422Y-89965183D01*
X200728868Y-89961241D01*
X200718533Y-89961412D01*
X200697117Y-89948143D01*
X200673833Y-89938537D01*
X200664811Y-89928126D01*
X200659140Y-89924612D01*
X200655926Y-89917872D01*
X200644769Y-89904996D01*
X200611094Y-89848055D01*
X200611093Y-89848053D01*
X200611092Y-89848052D01*
X200514882Y-89751842D01*
X200502250Y-89737051D01*
X200444484Y-89657541D01*
X200303966Y-89517023D01*
X200303965Y-89517022D01*
X200303964Y-89517021D01*
X200143194Y-89400215D01*
X200143188Y-89400212D01*
X199966132Y-89309996D01*
X199966129Y-89309995D01*
X199777137Y-89248589D01*
X199678998Y-89233045D01*
X199580861Y-89217502D01*
X199382139Y-89217502D01*
X199316714Y-89227864D01*
X199185862Y-89248589D01*
X198996870Y-89309995D01*
X198996867Y-89309996D01*
X198819805Y-89400215D01*
X198659033Y-89517023D01*
X198518518Y-89657538D01*
X198460747Y-89737052D01*
X198455468Y-89743813D01*
X198451959Y-89747999D01*
X198351908Y-89848052D01*
X198313062Y-89913735D01*
X198306537Y-89921522D01*
X198285572Y-89935487D01*
X198267161Y-89952679D01*
X198256990Y-89954528D01*
X198248389Y-89960259D01*
X198223202Y-89960674D01*
X198198419Y-89965182D01*
X198188865Y-89961240D01*
X198178529Y-89961411D01*
X198157114Y-89948141D01*
X198133830Y-89938536D01*
X198124807Y-89928123D01*
X198119137Y-89924610D01*
X198115925Y-89917873D01*
X198104767Y-89904996D01*
X198071091Y-89848053D01*
X197974896Y-89751858D01*
X197962267Y-89737070D01*
X197962266Y-89737069D01*
X197948734Y-89718444D01*
X197904485Y-89657538D01*
X197763967Y-89517020D01*
X197763966Y-89517019D01*
X197763965Y-89517018D01*
X197603195Y-89400212D01*
X197426133Y-89309993D01*
X197426130Y-89309992D01*
X197237137Y-89248585D01*
X197237059Y-89248567D01*
X197237032Y-89248551D01*
X197232503Y-89247080D01*
X197232812Y-89246128D01*
X197176468Y-89213773D01*
X197144307Y-89151746D01*
X197150786Y-89082177D01*
X197193848Y-89027155D01*
X197225058Y-89010952D01*
X197305885Y-88982670D01*
X197453762Y-88889753D01*
X197577256Y-88766259D01*
X197663287Y-88629340D01*
X196776594Y-87742647D01*
X196864071Y-87719208D01*
X196965430Y-87660689D01*
X197048189Y-87577930D01*
X197106708Y-87476571D01*
X197130147Y-87389094D01*
X197742499Y-88001447D01*
X197742500Y-88001446D01*
X197742500Y-86608553D01*
X197742499Y-86608552D01*
X197130147Y-87220904D01*
X197106708Y-87133429D01*
X197048189Y-87032070D01*
X196965430Y-86949311D01*
X196864071Y-86890792D01*
X196776593Y-86867352D01*
X197663286Y-85980659D01*
X197577253Y-85843737D01*
X197453762Y-85720246D01*
X197305886Y-85627330D01*
X197141039Y-85569648D01*
X197011030Y-85555000D01*
X196373969Y-85555000D01*
X196243960Y-85569648D01*
X196079113Y-85627330D01*
X195931237Y-85720246D01*
X195828035Y-85823449D01*
X195766712Y-85856934D01*
X195697020Y-85851950D01*
X195652673Y-85823449D01*
X195549078Y-85719854D01*
X195401108Y-85626879D01*
X195401107Y-85626878D01*
X195401106Y-85626878D01*
X195236160Y-85569160D01*
X195236150Y-85569158D01*
X195106060Y-85554501D01*
X195106054Y-85554501D01*
X194468950Y-85554501D01*
X194468943Y-85554501D01*
X194338853Y-85569158D01*
X194338843Y-85569160D01*
X194173897Y-85626878D01*
X194025925Y-85719854D01*
X193902355Y-85843424D01*
X193809379Y-85991396D01*
X193751661Y-86156342D01*
X193751659Y-86156352D01*
X193737002Y-86286442D01*
X193737002Y-88323559D01*
X193751659Y-88453649D01*
X193751661Y-88453658D01*
X193809380Y-88618607D01*
X193902355Y-88766577D01*
X194025926Y-88890148D01*
X194173896Y-88983123D01*
X194210469Y-88995920D01*
X194267243Y-89036641D01*
X194292991Y-89101594D01*
X194279535Y-89170155D01*
X194231148Y-89220558D01*
X194188911Y-89235434D01*
X194105861Y-89248587D01*
X193916869Y-89309994D01*
X193916866Y-89309995D01*
X193739804Y-89400214D01*
X193579032Y-89517022D01*
X193438517Y-89657537D01*
X193380735Y-89737066D01*
X193375456Y-89743826D01*
X193371942Y-89748018D01*
X193271908Y-89848054D01*
X193233066Y-89913730D01*
X193226538Y-89921521D01*
X193205575Y-89935486D01*
X193187162Y-89952679D01*
X193176992Y-89954528D01*
X193168391Y-89960259D01*
X193143203Y-89960674D01*
X193118420Y-89965182D01*
X193108866Y-89961240D01*
X193098531Y-89961411D01*
X193077117Y-89948142D01*
X193053831Y-89938536D01*
X193044808Y-89928123D01*
X193039138Y-89924610D01*
X193035925Y-89917871D01*
X193024768Y-89904995D01*
X192991095Y-89848057D01*
X192991094Y-89848055D01*
X192991093Y-89848054D01*
X192894887Y-89751848D01*
X192882258Y-89737060D01*
X192882251Y-89737051D01*
X192868697Y-89718395D01*
X192824484Y-89657539D01*
X192683966Y-89517021D01*
X192683965Y-89517020D01*
X192683964Y-89517019D01*
X192523194Y-89400213D01*
X192523192Y-89400212D01*
X192346132Y-89309994D01*
X192346129Y-89309993D01*
X192157137Y-89248587D01*
X191980168Y-89220558D01*
X191960861Y-89217500D01*
X191762139Y-89217500D01*
X191742832Y-89220558D01*
X191565862Y-89248587D01*
X191376870Y-89309993D01*
X191376867Y-89309994D01*
X191199805Y-89400213D01*
X191039033Y-89517021D01*
X190898518Y-89657536D01*
X190840733Y-89737069D01*
X190835455Y-89743829D01*
X190831946Y-89748015D01*
X190731909Y-89848054D01*
X190693063Y-89913738D01*
X190686540Y-89921522D01*
X190665576Y-89935488D01*
X190647163Y-89952680D01*
X190636993Y-89954529D01*
X190628392Y-89960260D01*
X190603204Y-89960675D01*
X190578422Y-89965183D01*
X190568867Y-89961241D01*
X190558532Y-89961412D01*
X190537117Y-89948143D01*
X190513832Y-89938537D01*
X190504809Y-89928124D01*
X190499139Y-89924611D01*
X190495926Y-89917872D01*
X190484769Y-89904996D01*
X190451094Y-89848055D01*
X190451093Y-89848053D01*
X190451092Y-89848052D01*
X190451090Y-89848050D01*
X190451087Y-89848046D01*
X190354889Y-89751848D01*
X190342252Y-89737052D01*
X190284484Y-89657541D01*
X190284480Y-89657536D01*
X190143964Y-89517020D01*
X190143963Y-89517019D01*
X190143962Y-89517018D01*
X189983192Y-89400212D01*
X189806130Y-89309993D01*
X189806127Y-89309992D01*
X189617135Y-89248586D01*
X189518996Y-89233042D01*
X189420859Y-89217499D01*
X189222137Y-89217499D01*
X189156712Y-89227861D01*
X189025860Y-89248586D01*
X188836868Y-89309992D01*
X188836865Y-89309993D01*
X188659803Y-89400212D01*
X188499031Y-89517020D01*
X188358516Y-89657535D01*
X188300731Y-89737068D01*
X188295453Y-89743828D01*
X188291944Y-89748014D01*
X188191908Y-89848052D01*
X188153062Y-89913735D01*
X188146538Y-89921521D01*
X188125572Y-89935487D01*
X188107161Y-89952679D01*
X188096991Y-89954528D01*
X188088390Y-89960259D01*
X188063202Y-89960674D01*
X188038419Y-89965182D01*
X188028865Y-89961240D01*
X188018530Y-89961411D01*
X187997116Y-89948142D01*
X187973830Y-89938536D01*
X187964807Y-89928123D01*
X187959137Y-89924610D01*
X187955924Y-89917871D01*
X187944767Y-89904995D01*
X187911092Y-89848054D01*
X187911091Y-89848052D01*
X187911089Y-89848050D01*
X187911086Y-89848046D01*
X187814903Y-89751863D01*
X187802266Y-89737067D01*
X187744487Y-89657541D01*
X187744483Y-89657536D01*
X187603967Y-89517020D01*
X187603966Y-89517019D01*
X187603965Y-89517018D01*
X187443195Y-89400212D01*
X187266133Y-89309993D01*
X187266130Y-89309992D01*
X187077138Y-89248586D01*
X186978999Y-89233042D01*
X186880862Y-89217499D01*
X186682140Y-89217499D01*
X186616715Y-89227861D01*
X186485863Y-89248586D01*
X186296871Y-89309992D01*
X186296868Y-89309993D01*
X186119806Y-89400212D01*
X185959034Y-89517020D01*
X185818519Y-89657535D01*
X185760745Y-89737053D01*
X185748110Y-89751846D01*
X185651912Y-89848045D01*
X185651904Y-89848055D01*
X185567934Y-89990041D01*
X185567933Y-89990044D01*
X185521912Y-90148446D01*
X185521911Y-90148452D01*
X185518999Y-90185457D01*
X185518999Y-92146321D01*
X185499314Y-92213360D01*
X185446510Y-92259115D01*
X185427096Y-92266095D01*
X185407218Y-92271421D01*
X185407210Y-92271425D01*
X185270291Y-92350474D01*
X185270283Y-92350480D01*
X185158479Y-92462285D01*
X181204202Y-96416561D01*
X181142879Y-96450046D01*
X181078203Y-96446811D01*
X181053584Y-96438812D01*
X181007952Y-96423985D01*
X180899086Y-96406742D01*
X180790222Y-96389500D01*
X180569778Y-96389500D01*
X180497201Y-96400995D01*
X180352047Y-96423985D01*
X180142396Y-96492103D01*
X180142393Y-96492104D01*
X179945974Y-96592187D01*
X179767641Y-96721752D01*
X179767636Y-96721756D01*
X179611756Y-96877636D01*
X179611752Y-96877641D01*
X179530318Y-96989727D01*
X179474989Y-97032393D01*
X179405375Y-97038372D01*
X179343580Y-97005767D01*
X179329682Y-96989727D01*
X179248247Y-96877641D01*
X179248243Y-96877636D01*
X179092363Y-96721756D01*
X179092358Y-96721752D01*
X178914025Y-96592187D01*
X178914024Y-96592186D01*
X178914022Y-96592185D01*
X178851096Y-96560122D01*
X178717606Y-96492104D01*
X178717603Y-96492103D01*
X178507952Y-96423985D01*
X178399086Y-96406742D01*
X178290222Y-96389500D01*
X178069778Y-96389500D01*
X177997201Y-96400995D01*
X177852047Y-96423985D01*
X177642396Y-96492103D01*
X177642393Y-96492104D01*
X177445974Y-96592187D01*
X177267641Y-96721752D01*
X177267636Y-96721756D01*
X177111756Y-96877636D01*
X177030008Y-96990153D01*
X176974678Y-97032818D01*
X176905064Y-97038797D01*
X176843269Y-97006191D01*
X176831416Y-96992513D01*
X176831065Y-96992485D01*
X176183369Y-97640182D01*
X176169215Y-97587360D01*
X176100099Y-97467647D01*
X176002353Y-97369901D01*
X175882640Y-97300785D01*
X175829814Y-97286630D01*
X176477513Y-96638932D01*
X176413756Y-96592611D01*
X176217410Y-96492567D01*
X176007835Y-96424473D01*
X175790181Y-96390000D01*
X175569819Y-96390000D01*
X175352164Y-96424473D01*
X175142589Y-96492567D01*
X174946233Y-96592616D01*
X174882485Y-96638931D01*
X174882485Y-96638932D01*
X175530183Y-97286630D01*
X175477360Y-97300785D01*
X175357647Y-97369901D01*
X175259901Y-97467647D01*
X175190785Y-97587360D01*
X175176630Y-97640183D01*
X174528932Y-96992485D01*
X174528931Y-96992485D01*
X174482616Y-97056233D01*
X174382567Y-97252589D01*
X174314473Y-97462164D01*
X174280000Y-97679818D01*
X169624064Y-97679818D01*
X169605372Y-97537842D01*
X169598838Y-97488211D01*
X169536054Y-97253900D01*
X169443224Y-97029788D01*
X169321936Y-96819711D01*
X169246774Y-96721758D01*
X169174266Y-96627263D01*
X169174260Y-96627256D01*
X169002743Y-96455739D01*
X169002736Y-96455733D01*
X168810293Y-96308067D01*
X168810292Y-96308066D01*
X168810289Y-96308064D01*
X168600212Y-96186776D01*
X168578588Y-96177819D01*
X168376104Y-96093947D01*
X168141785Y-96031161D01*
X167901289Y-95999500D01*
X167901288Y-95999500D01*
X167658712Y-95999500D01*
X167658711Y-95999500D01*
X167418214Y-96031161D01*
X167183895Y-96093947D01*
X166959794Y-96186773D01*
X166959785Y-96186777D01*
X166749706Y-96308067D01*
X166557263Y-96455733D01*
X166557256Y-96455739D01*
X166385739Y-96627256D01*
X166385733Y-96627263D01*
X166238067Y-96819706D01*
X166116777Y-97029785D01*
X166116773Y-97029794D01*
X166023947Y-97253895D01*
X165961161Y-97488214D01*
X165929500Y-97728711D01*
X155510500Y-97728711D01*
X155510500Y-80955258D01*
X169179500Y-80955258D01*
X169179500Y-81184741D01*
X169204446Y-81374215D01*
X169209452Y-81412238D01*
X169228604Y-81483714D01*
X169268842Y-81633887D01*
X169356650Y-81845876D01*
X169356657Y-81845890D01*
X169471392Y-82044617D01*
X169611081Y-82226661D01*
X169611089Y-82226670D01*
X169773330Y-82388911D01*
X169773338Y-82388918D01*
X169955382Y-82528607D01*
X169955385Y-82528608D01*
X169955388Y-82528611D01*
X170154112Y-82643344D01*
X170154117Y-82643346D01*
X170154123Y-82643349D01*
X170245480Y-82681190D01*
X170366113Y-82731158D01*
X170587762Y-82790548D01*
X170815266Y-82820500D01*
X170815273Y-82820500D01*
X171044727Y-82820500D01*
X171044734Y-82820500D01*
X171272238Y-82790548D01*
X171493887Y-82731158D01*
X171705888Y-82643344D01*
X171904612Y-82528611D01*
X172086661Y-82388919D01*
X172086665Y-82388914D01*
X172086670Y-82388911D01*
X172248911Y-82226670D01*
X172248914Y-82226665D01*
X172248919Y-82226661D01*
X172388611Y-82044612D01*
X172503344Y-81845888D01*
X172591158Y-81633887D01*
X172650548Y-81412238D01*
X172680500Y-81184734D01*
X172680500Y-80955266D01*
X172650548Y-80727762D01*
X172591158Y-80506113D01*
X172541190Y-80385480D01*
X172503349Y-80294123D01*
X172503346Y-80294117D01*
X172503344Y-80294112D01*
X172388611Y-80095388D01*
X172388608Y-80095385D01*
X172388607Y-80095382D01*
X172248918Y-79913338D01*
X172248911Y-79913330D01*
X172086670Y-79751089D01*
X172086661Y-79751081D01*
X171904617Y-79611392D01*
X171705890Y-79496657D01*
X171705876Y-79496650D01*
X171493887Y-79408842D01*
X171272238Y-79349452D01*
X171234215Y-79344446D01*
X171044741Y-79319500D01*
X171044734Y-79319500D01*
X170815266Y-79319500D01*
X170815258Y-79319500D01*
X170598715Y-79348009D01*
X170587762Y-79349452D01*
X170494076Y-79374554D01*
X170366112Y-79408842D01*
X170154123Y-79496650D01*
X170154109Y-79496657D01*
X169955382Y-79611392D01*
X169773338Y-79751081D01*
X169611081Y-79913338D01*
X169471392Y-80095382D01*
X169356657Y-80294109D01*
X169356650Y-80294123D01*
X169268842Y-80506112D01*
X169268842Y-80506113D01*
X169214155Y-80710212D01*
X169209453Y-80727759D01*
X169209451Y-80727770D01*
X169179500Y-80955258D01*
X155510500Y-80955258D01*
X155510500Y-77551668D01*
X172918985Y-77551668D01*
X172918985Y-77709361D01*
X172949746Y-77864004D01*
X172949749Y-77864016D01*
X173010087Y-78009687D01*
X173010094Y-78009700D01*
X173097695Y-78140803D01*
X173097698Y-78140807D01*
X173209192Y-78252301D01*
X173209196Y-78252304D01*
X173340299Y-78339905D01*
X173340312Y-78339912D01*
X173485983Y-78400250D01*
X173485988Y-78400252D01*
X173640638Y-78431014D01*
X173640641Y-78431015D01*
X173640643Y-78431015D01*
X173798329Y-78431015D01*
X173798330Y-78431014D01*
X173952982Y-78400252D01*
X174098664Y-78339909D01*
X174098670Y-78339905D01*
X174230360Y-78251913D01*
X174297038Y-78231035D01*
X174299251Y-78231015D01*
X185302816Y-78231015D01*
X185302832Y-78231016D01*
X185310428Y-78231016D01*
X185468539Y-78231016D01*
X185468542Y-78231016D01*
X185621270Y-78190092D01*
X185671389Y-78161154D01*
X185758201Y-78111035D01*
X185870005Y-77999231D01*
X185870005Y-77999229D01*
X185880213Y-77989022D01*
X185880215Y-77989019D01*
X187140007Y-76729227D01*
X187140012Y-76729223D01*
X187150215Y-76719019D01*
X187150217Y-76719019D01*
X187262021Y-76607215D01*
X187322479Y-76502498D01*
X187341078Y-76470284D01*
X187359040Y-76403246D01*
X187361387Y-76397147D01*
X187378792Y-76374386D01*
X187393707Y-76349917D01*
X187401757Y-76344356D01*
X187403830Y-76341646D01*
X187407711Y-76340243D01*
X187420820Y-76331188D01*
X187443195Y-76319788D01*
X187603965Y-76202982D01*
X187744482Y-76062465D01*
X187802271Y-75982923D01*
X187807548Y-75976166D01*
X187811051Y-75971985D01*
X187911090Y-75871948D01*
X187949937Y-75806261D01*
X187956461Y-75798477D01*
X187977423Y-75784511D01*
X187995836Y-75767320D01*
X188006005Y-75765470D01*
X188014608Y-75759739D01*
X188039796Y-75759323D01*
X188064577Y-75754816D01*
X188074131Y-75758757D01*
X188084468Y-75758587D01*
X188105881Y-75771855D01*
X188129167Y-75781461D01*
X188138189Y-75791874D01*
X188143861Y-75795388D01*
X188147073Y-75802126D01*
X188158231Y-75815003D01*
X188191905Y-75871944D01*
X188191908Y-75871948D01*
X188288116Y-75968156D01*
X188300745Y-75982943D01*
X188358519Y-76062462D01*
X188499036Y-76202979D01*
X188659806Y-76319785D01*
X188718943Y-76349917D01*
X188836867Y-76410003D01*
X188836870Y-76410004D01*
X188931366Y-76440707D01*
X189025864Y-76471411D01*
X189222139Y-76502498D01*
X189222140Y-76502498D01*
X189420860Y-76502498D01*
X189420861Y-76502498D01*
X189617136Y-76471411D01*
X189806132Y-76410003D01*
X189983194Y-76319785D01*
X190143964Y-76202979D01*
X190284481Y-76062462D01*
X190342258Y-75982938D01*
X190347531Y-75976184D01*
X190351029Y-75972009D01*
X190451092Y-75871948D01*
X190489941Y-75806257D01*
X190496462Y-75798477D01*
X190517425Y-75784511D01*
X190535836Y-75767321D01*
X190546005Y-75765471D01*
X190554610Y-75759739D01*
X190579798Y-75759324D01*
X190604578Y-75754817D01*
X190614134Y-75758759D01*
X190624471Y-75758589D01*
X190645883Y-75771856D01*
X190669167Y-75781462D01*
X190678189Y-75791874D01*
X190683863Y-75795390D01*
X190687076Y-75802130D01*
X190698231Y-75815003D01*
X190731904Y-75871941D01*
X190731908Y-75871946D01*
X190731909Y-75871947D01*
X190828099Y-75968137D01*
X190840731Y-75982928D01*
X190898518Y-76062465D01*
X191039035Y-76202982D01*
X191199805Y-76319788D01*
X191286648Y-76364036D01*
X191376866Y-76410006D01*
X191376869Y-76410007D01*
X191471365Y-76440710D01*
X191565863Y-76471414D01*
X191762138Y-76502501D01*
X191762139Y-76502501D01*
X191960859Y-76502501D01*
X191960860Y-76502501D01*
X192157135Y-76471414D01*
X192346131Y-76410006D01*
X192523193Y-76319788D01*
X192683963Y-76202982D01*
X192824480Y-76062465D01*
X192882264Y-75982931D01*
X192887536Y-75976179D01*
X192891034Y-75972004D01*
X192991093Y-75871947D01*
X193029943Y-75806255D01*
X193036462Y-75798477D01*
X193057425Y-75784511D01*
X193075836Y-75767321D01*
X193086006Y-75765470D01*
X193094610Y-75759739D01*
X193119793Y-75759324D01*
X193144577Y-75754816D01*
X193154135Y-75758759D01*
X193164470Y-75758589D01*
X193185877Y-75771853D01*
X193209167Y-75781461D01*
X193218191Y-75791876D01*
X193223863Y-75795390D01*
X193227075Y-75802127D01*
X193238231Y-75815002D01*
X193271908Y-75871946D01*
X193368111Y-75968149D01*
X193380743Y-75982940D01*
X193438520Y-76062463D01*
X193579037Y-76202980D01*
X193739807Y-76319786D01*
X193798942Y-76349917D01*
X193916868Y-76410004D01*
X193916871Y-76410005D01*
X194011367Y-76440708D01*
X194105865Y-76471412D01*
X194302140Y-76502499D01*
X194302141Y-76502499D01*
X194500861Y-76502499D01*
X194500862Y-76502499D01*
X194697137Y-76471412D01*
X194886133Y-76410004D01*
X195063195Y-76319786D01*
X195223965Y-76202980D01*
X195364482Y-76062463D01*
X195422266Y-75982928D01*
X195427543Y-75976170D01*
X195431041Y-75971995D01*
X195531092Y-75871946D01*
X195569940Y-75806258D01*
X195576461Y-75798477D01*
X195597424Y-75784511D01*
X195615835Y-75767321D01*
X195626006Y-75765470D01*
X195634609Y-75759740D01*
X195659795Y-75759324D01*
X195684577Y-75754817D01*
X195694131Y-75758758D01*
X195704469Y-75758588D01*
X195725884Y-75771857D01*
X195749166Y-75781462D01*
X195758188Y-75791874D01*
X195763861Y-75795389D01*
X195767073Y-75802127D01*
X195778230Y-75815002D01*
X195811907Y-75871946D01*
X195908108Y-75968147D01*
X195920737Y-75982934D01*
X195978519Y-76062464D01*
X196119036Y-76202981D01*
X196279806Y-76319787D01*
X196366649Y-76364035D01*
X196456867Y-76410005D01*
X196456870Y-76410006D01*
X196551366Y-76440709D01*
X196645864Y-76471413D01*
X196842139Y-76502500D01*
X196842140Y-76502500D01*
X197040860Y-76502500D01*
X197040861Y-76502500D01*
X197237136Y-76471413D01*
X197426132Y-76410005D01*
X197603194Y-76319787D01*
X197763964Y-76202981D01*
X197904481Y-76062464D01*
X197962268Y-75982925D01*
X197967513Y-75976205D01*
X197971024Y-75972011D01*
X198071091Y-75871946D01*
X198110217Y-75805787D01*
X198116719Y-75798023D01*
X198137698Y-75784034D01*
X198156125Y-75766829D01*
X198166269Y-75764983D01*
X198174851Y-75759262D01*
X198200064Y-75758836D01*
X198224867Y-75754325D01*
X198234398Y-75758257D01*
X198244711Y-75758083D01*
X198266150Y-75771355D01*
X198289457Y-75780970D01*
X198298454Y-75791354D01*
X198304118Y-75794860D01*
X198307336Y-75801604D01*
X198318521Y-75814512D01*
X198352303Y-75871635D01*
X198352307Y-75871640D01*
X198424308Y-75943640D01*
X199043854Y-75324094D01*
X199067294Y-75411572D01*
X199125813Y-75512931D01*
X199208572Y-75595690D01*
X199309931Y-75654209D01*
X199397407Y-75677648D01*
X198782785Y-76292269D01*
X198782785Y-76292270D01*
X198820069Y-76319359D01*
X198997064Y-76409543D01*
X199185979Y-76470925D01*
X199382181Y-76502001D01*
X199580823Y-76502001D01*
X199777022Y-76470925D01*
X199777025Y-76470925D01*
X199965939Y-76409543D01*
X200142927Y-76319363D01*
X200180218Y-76292269D01*
X199565597Y-75677648D01*
X199653073Y-75654209D01*
X199754432Y-75595690D01*
X199837191Y-75512931D01*
X199895710Y-75411572D01*
X199919149Y-75324095D01*
X200538692Y-75943639D01*
X200610697Y-75871634D01*
X200644478Y-75814513D01*
X200695547Y-75766830D01*
X200764288Y-75754326D01*
X200828878Y-75780971D01*
X200846280Y-75798025D01*
X200852784Y-75805793D01*
X200891909Y-75871948D01*
X200991968Y-75972007D01*
X200995485Y-75976207D01*
X200996001Y-75977391D01*
X201000733Y-75982931D01*
X201058518Y-76062465D01*
X201199035Y-76202982D01*
X201359805Y-76319788D01*
X201446648Y-76364036D01*
X201536866Y-76410006D01*
X201536869Y-76410007D01*
X201631365Y-76440710D01*
X201725863Y-76471414D01*
X201922138Y-76502501D01*
X201922139Y-76502501D01*
X202120859Y-76502501D01*
X202120860Y-76502501D01*
X202317135Y-76471414D01*
X202506131Y-76410006D01*
X202683193Y-76319788D01*
X202843963Y-76202982D01*
X202984480Y-76062465D01*
X203042255Y-75982943D01*
X203054887Y-75968153D01*
X203151093Y-75871948D01*
X203235065Y-75729960D01*
X203281088Y-75571549D01*
X203284001Y-75534535D01*
X203284001Y-73275467D01*
X203281088Y-73238453D01*
X203281087Y-73238451D01*
X203281087Y-73238448D01*
X203235066Y-73080046D01*
X203235065Y-73080043D01*
X203235065Y-73080042D01*
X203151272Y-72938357D01*
X203151095Y-72938057D01*
X203151094Y-72938055D01*
X203151093Y-72938054D01*
X203151091Y-72938052D01*
X203151088Y-72938048D01*
X203034453Y-72821413D01*
X203034444Y-72821406D01*
X202924219Y-72756219D01*
X202892460Y-72737437D01*
X202892459Y-72737436D01*
X202892458Y-72737436D01*
X202892455Y-72737435D01*
X202734053Y-72691414D01*
X202734047Y-72691413D01*
X202697042Y-72688501D01*
X202697035Y-72688501D01*
X201345967Y-72688501D01*
X201345959Y-72688501D01*
X201308954Y-72691413D01*
X201308948Y-72691414D01*
X201150546Y-72737435D01*
X201150543Y-72737436D01*
X201008557Y-72821406D01*
X201008548Y-72821413D01*
X200891913Y-72938048D01*
X200891910Y-72938053D01*
X200891909Y-72938054D01*
X200857943Y-72995488D01*
X200857942Y-72995489D01*
X200806872Y-73043172D01*
X200738131Y-73055675D01*
X200673541Y-73029029D01*
X200644478Y-72995488D01*
X200610696Y-72938366D01*
X200610689Y-72938357D01*
X200494143Y-72821811D01*
X200494134Y-72821804D01*
X200352256Y-72737898D01*
X200352253Y-72737897D01*
X200193973Y-72691912D01*
X200193967Y-72691911D01*
X200156981Y-72689001D01*
X198806030Y-72689001D01*
X198806008Y-72689002D01*
X198769033Y-72691911D01*
X198610742Y-72737898D01*
X198468865Y-72821804D01*
X198468856Y-72821811D01*
X198352310Y-72938357D01*
X198352301Y-72938368D01*
X198318521Y-72995488D01*
X198267452Y-73043171D01*
X198198710Y-73055674D01*
X198134121Y-73029028D01*
X198105058Y-72995487D01*
X198104766Y-72994994D01*
X198071277Y-72938366D01*
X198071093Y-72938055D01*
X198071092Y-72938053D01*
X198071091Y-72938052D01*
X198071089Y-72938050D01*
X198071086Y-72938046D01*
X197954451Y-72821411D01*
X197954442Y-72821404D01*
X197812461Y-72737437D01*
X197812458Y-72737435D01*
X197812457Y-72737434D01*
X197812456Y-72737434D01*
X197812453Y-72737433D01*
X197654051Y-72691412D01*
X197654045Y-72691411D01*
X197617040Y-72688499D01*
X197617033Y-72688499D01*
X196265965Y-72688499D01*
X196265957Y-72688499D01*
X196228952Y-72691411D01*
X196228946Y-72691412D01*
X196070544Y-72737433D01*
X196070541Y-72737434D01*
X195928555Y-72821404D01*
X195928546Y-72821411D01*
X195811911Y-72938046D01*
X195811902Y-72938057D01*
X195778230Y-72994994D01*
X195727161Y-73042677D01*
X195658419Y-73055180D01*
X195593830Y-73028534D01*
X195564767Y-72994993D01*
X195531094Y-72938055D01*
X195531093Y-72938053D01*
X195531092Y-72938052D01*
X195531090Y-72938050D01*
X195531087Y-72938046D01*
X195414452Y-72821411D01*
X195414443Y-72821404D01*
X195272462Y-72737437D01*
X195272459Y-72737435D01*
X195272458Y-72737434D01*
X195272457Y-72737434D01*
X195272454Y-72737433D01*
X195114052Y-72691412D01*
X195114046Y-72691411D01*
X195077041Y-72688499D01*
X195077034Y-72688499D01*
X193725966Y-72688499D01*
X193725958Y-72688499D01*
X193688953Y-72691411D01*
X193688947Y-72691412D01*
X193530545Y-72737433D01*
X193530542Y-72737434D01*
X193388556Y-72821404D01*
X193388547Y-72821411D01*
X193271912Y-72938046D01*
X193271908Y-72938052D01*
X193238233Y-72994994D01*
X193238232Y-72994995D01*
X193187162Y-73042678D01*
X193118421Y-73055181D01*
X193053831Y-73028535D01*
X193024768Y-72994994D01*
X192991095Y-72938056D01*
X192991094Y-72938054D01*
X192991093Y-72938053D01*
X192991091Y-72938051D01*
X192991088Y-72938047D01*
X192874453Y-72821412D01*
X192874444Y-72821405D01*
X192733241Y-72737898D01*
X192732460Y-72737436D01*
X192732459Y-72737435D01*
X192732458Y-72737435D01*
X192732455Y-72737434D01*
X192574053Y-72691413D01*
X192574047Y-72691412D01*
X192537042Y-72688500D01*
X192537035Y-72688500D01*
X191185967Y-72688500D01*
X191185959Y-72688500D01*
X191148954Y-72691412D01*
X191148948Y-72691413D01*
X190990546Y-72737434D01*
X190990543Y-72737435D01*
X190848557Y-72821405D01*
X190848548Y-72821412D01*
X190731913Y-72938047D01*
X190731904Y-72938058D01*
X190698231Y-72994997D01*
X190647162Y-73042680D01*
X190578420Y-73055183D01*
X190513831Y-73028537D01*
X190484768Y-72994997D01*
X190478105Y-72983731D01*
X190451092Y-72938054D01*
X190451089Y-72938051D01*
X190451087Y-72938048D01*
X190334452Y-72821413D01*
X190334443Y-72821406D01*
X190224218Y-72756219D01*
X190192459Y-72737437D01*
X190192458Y-72737436D01*
X190192457Y-72737436D01*
X190192454Y-72737435D01*
X190034052Y-72691414D01*
X190034046Y-72691413D01*
X189997041Y-72688501D01*
X189997034Y-72688501D01*
X188645966Y-72688501D01*
X188645958Y-72688501D01*
X188608953Y-72691413D01*
X188608947Y-72691414D01*
X188450545Y-72737435D01*
X188450542Y-72737436D01*
X188308556Y-72821406D01*
X188308547Y-72821413D01*
X188191912Y-72938048D01*
X188191905Y-72938057D01*
X188158231Y-72994998D01*
X188107162Y-73042682D01*
X188038420Y-73055185D01*
X187973831Y-73028539D01*
X187944767Y-72994998D01*
X187911092Y-72938057D01*
X187911091Y-72938055D01*
X187911090Y-72938054D01*
X187911088Y-72938052D01*
X187911085Y-72938048D01*
X187794450Y-72821413D01*
X187794441Y-72821406D01*
X187684216Y-72756219D01*
X187652457Y-72737437D01*
X187652456Y-72737436D01*
X187652455Y-72737436D01*
X187652452Y-72737435D01*
X187494050Y-72691414D01*
X187494044Y-72691413D01*
X187457039Y-72688501D01*
X187457032Y-72688501D01*
X186105964Y-72688501D01*
X186105956Y-72688501D01*
X186068951Y-72691413D01*
X186068945Y-72691414D01*
X185910543Y-72737435D01*
X185910540Y-72737436D01*
X185768554Y-72821406D01*
X185768545Y-72821413D01*
X185651910Y-72938048D01*
X185651903Y-72938057D01*
X185567933Y-73080043D01*
X185567932Y-73080046D01*
X185521911Y-73238448D01*
X185521910Y-73238454D01*
X185518998Y-73275459D01*
X185518998Y-75534542D01*
X185521910Y-75571547D01*
X185521911Y-75571553D01*
X185567932Y-75729955D01*
X185567933Y-75729958D01*
X185567934Y-75729960D01*
X185584566Y-75758083D01*
X185651903Y-75871944D01*
X185651904Y-75871945D01*
X185651906Y-75871948D01*
X185748123Y-75968165D01*
X185755273Y-75975954D01*
X185758134Y-75979352D01*
X185818520Y-76062465D01*
X185879477Y-76123422D01*
X185882889Y-76127473D01*
X185894907Y-76154797D01*
X185909213Y-76180996D01*
X185908823Y-76186437D01*
X185911020Y-76191430D01*
X185906358Y-76220911D01*
X185904229Y-76250688D01*
X185900808Y-76256009D01*
X185900108Y-76260442D01*
X185892409Y-76269078D01*
X185875728Y-76295035D01*
X185177069Y-76993696D01*
X185115746Y-77027181D01*
X185089388Y-77030015D01*
X174299251Y-77030015D01*
X174232212Y-77010330D01*
X174230360Y-77009117D01*
X174098670Y-76921124D01*
X174098657Y-76921117D01*
X173952986Y-76860779D01*
X173952974Y-76860776D01*
X173798330Y-76830015D01*
X173798327Y-76830015D01*
X173640643Y-76830015D01*
X173640640Y-76830015D01*
X173485995Y-76860776D01*
X173485983Y-76860779D01*
X173340312Y-76921117D01*
X173340299Y-76921124D01*
X173209196Y-77008725D01*
X173209192Y-77008728D01*
X173097698Y-77120222D01*
X173097695Y-77120226D01*
X173010094Y-77251329D01*
X173010087Y-77251342D01*
X172949749Y-77397013D01*
X172949746Y-77397025D01*
X172918985Y-77551668D01*
X155510500Y-77551668D01*
X155510500Y-73020298D01*
X155510762Y-73012243D01*
X155515591Y-72938057D01*
X155525453Y-72786560D01*
X155527572Y-72770444D01*
X155566563Y-72574482D01*
X155570738Y-72558892D01*
X155634562Y-72370617D01*
X155640555Y-72356059D01*
X155728195Y-72176558D01*
X155735714Y-72163297D01*
X155767443Y-72114583D01*
X155842832Y-71998835D01*
X155851557Y-71987033D01*
X155963712Y-71852782D01*
X155972488Y-71843327D01*
X156022396Y-71794868D01*
X156029056Y-71788854D01*
X158432788Y-69772135D01*
X169179500Y-69772135D01*
X169179500Y-72367870D01*
X169179501Y-72367876D01*
X169185908Y-72427483D01*
X169236202Y-72562328D01*
X169236206Y-72562335D01*
X169322452Y-72677544D01*
X169322455Y-72677547D01*
X169437664Y-72763793D01*
X169437671Y-72763797D01*
X169572517Y-72814091D01*
X169572516Y-72814091D01*
X169579444Y-72814835D01*
X169632127Y-72820500D01*
X172227872Y-72820499D01*
X172287483Y-72814091D01*
X172422331Y-72763796D01*
X172537546Y-72677546D01*
X172623796Y-72562331D01*
X172674091Y-72427483D01*
X172680500Y-72367873D01*
X172680499Y-69772128D01*
X172674091Y-69712517D01*
X172623796Y-69577669D01*
X172623795Y-69577668D01*
X172623793Y-69577664D01*
X172537547Y-69462455D01*
X172537544Y-69462452D01*
X172422335Y-69376206D01*
X172422328Y-69376202D01*
X172287482Y-69325908D01*
X172287483Y-69325908D01*
X172227883Y-69319501D01*
X172227881Y-69319500D01*
X172227873Y-69319500D01*
X172227864Y-69319500D01*
X169632129Y-69319500D01*
X169632123Y-69319501D01*
X169572516Y-69325908D01*
X169437671Y-69376202D01*
X169437664Y-69376206D01*
X169322455Y-69462452D01*
X169322452Y-69462455D01*
X169236206Y-69577664D01*
X169236202Y-69577671D01*
X169185908Y-69712517D01*
X169179501Y-69772116D01*
X169179501Y-69772123D01*
X169179500Y-69772135D01*
X158432788Y-69772135D01*
X172012637Y-58378711D01*
X177649500Y-58378711D01*
X177649500Y-58621288D01*
X177681161Y-58861785D01*
X177743947Y-59096104D01*
X177836773Y-59320205D01*
X177836776Y-59320212D01*
X177958064Y-59530289D01*
X177958066Y-59530292D01*
X177958067Y-59530293D01*
X178105733Y-59722736D01*
X178105739Y-59722743D01*
X178277256Y-59894260D01*
X178277262Y-59894265D01*
X178469711Y-60041936D01*
X178679788Y-60163224D01*
X178903900Y-60256054D01*
X179138211Y-60318838D01*
X179318586Y-60342584D01*
X179378711Y-60350500D01*
X179378712Y-60350500D01*
X179621289Y-60350500D01*
X179669388Y-60344167D01*
X179861789Y-60318838D01*
X180096100Y-60256054D01*
X180320212Y-60163224D01*
X180530289Y-60041936D01*
X180722738Y-59894265D01*
X180894265Y-59722738D01*
X181041936Y-59530289D01*
X181163224Y-59320212D01*
X181256054Y-59096100D01*
X181318838Y-58861789D01*
X181350500Y-58621288D01*
X181350500Y-58378712D01*
X181318838Y-58138211D01*
X181256054Y-57903900D01*
X181163224Y-57679788D01*
X181041936Y-57469711D01*
X180894265Y-57277262D01*
X180894260Y-57277256D01*
X180722743Y-57105739D01*
X180722736Y-57105733D01*
X180530293Y-56958067D01*
X180530292Y-56958066D01*
X180530289Y-56958064D01*
X180320212Y-56836776D01*
X180320205Y-56836773D01*
X180096104Y-56743947D01*
X179861785Y-56681161D01*
X179621289Y-56649500D01*
X179621288Y-56649500D01*
X179378712Y-56649500D01*
X179378711Y-56649500D01*
X179138214Y-56681161D01*
X178903895Y-56743947D01*
X178679794Y-56836773D01*
X178679785Y-56836777D01*
X178469706Y-56958067D01*
X178277263Y-57105733D01*
X178277256Y-57105739D01*
X178105739Y-57277256D01*
X178105733Y-57277263D01*
X177958067Y-57469706D01*
X177836777Y-57679785D01*
X177836773Y-57679794D01*
X177743947Y-57903895D01*
X177681161Y-58138214D01*
X177649500Y-58378711D01*
X172012637Y-58378711D01*
X177483244Y-53788900D01*
X177490783Y-53783055D01*
X177634976Y-53679900D01*
X177650228Y-53670575D01*
X177791581Y-53597608D01*
X177807265Y-53590837D01*
X177960718Y-53536808D01*
X177976265Y-53532451D01*
X178126344Y-53500787D01*
X178140939Y-53498607D01*
X178216269Y-53491914D01*
X178226724Y-53490986D01*
X178237696Y-53490500D01*
X181794863Y-53490500D01*
X181804828Y-53490900D01*
G37*
%TD.AperFunction*%
%TD*%
M02*
