%TF.GenerationSoftware,KiCad,Pcbnew,10.0.3*%
%TF.CreationDate,2026-06-20T18:38:36-04:00*%
%TF.ProjectId,BTtamagotchi,42547461-6d61-4676-9f74-6368692e6b69,rev?*%
%TF.SameCoordinates,Original*%
%TF.FileFunction,Profile,NP*%
%FSLAX46Y46*%
G04 Gerber Fmt 4.6, Leading zero omitted, Abs format (unit mm)*
G04 Created by KiCad (PCBNEW 10.0.3) date 2026-06-20 18:38:36*
%MOMM*%
%LPD*%
G01*
G04 APERTURE LIST*
%TA.AperFunction,Profile*%
%ADD10C,0.167500*%
%TD*%
%ADD11C,0.167500*%
G04 APERTURE END LIST*
D10*
X205010000Y-73370000D02*
X205010000Y-125030000D01*
D11*
X181250000Y-135040000D02*
X181264729Y-135039960D01*
X181279648Y-135039840D01*
X181294758Y-135039638D01*
X181310062Y-135039354D01*
X181325559Y-135038986D01*
X181341254Y-135038534D01*
X181357145Y-135037996D01*
X181373236Y-135037371D01*
X181389529Y-135036659D01*
X181406023Y-135035857D01*
X181422722Y-135034966D01*
X181439626Y-135033984D01*
X181456737Y-135032910D01*
X181474056Y-135031743D01*
X181491586Y-135030481D01*
X181509328Y-135029125D01*
X181527282Y-135027672D01*
X181545451Y-135026121D01*
X181563837Y-135024472D01*
X181582439Y-135022723D01*
X181601261Y-135020873D01*
X181620302Y-135018922D01*
X181639566Y-135016868D01*
X181659052Y-135014709D01*
X181678763Y-135012446D01*
X181698699Y-135010076D01*
X181718863Y-135007599D01*
X181739255Y-135005013D01*
X181759876Y-135002318D01*
X181780727Y-134999512D01*
X181801811Y-134996595D01*
X181823127Y-134993565D01*
X181844678Y-134990421D01*
X181866463Y-134987162D01*
X181888485Y-134983787D01*
X181910744Y-134980295D01*
X181933241Y-134976685D01*
X181955976Y-134972956D01*
X181978952Y-134969107D01*
X182002167Y-134965137D01*
X182025624Y-134961045D01*
X182049323Y-134956830D01*
X182073264Y-134952490D01*
X182097449Y-134948026D01*
X182121876Y-134943436D01*
X182146547Y-134938719D01*
X182171462Y-134933874D01*
X182196622Y-134928900D01*
X182222025Y-134923798D01*
X182247673Y-134918564D01*
X182273565Y-134913200D01*
X182299701Y-134907704D01*
X182326081Y-134902076D01*
X182352703Y-134896314D01*
X182379569Y-134890419D01*
X182406675Y-134884389D01*
X182434023Y-134878224D01*
X182461611Y-134871923D01*
X182489437Y-134865486D01*
X182517500Y-134858913D01*
X182545799Y-134852204D01*
X182574331Y-134845357D01*
X182603095Y-134838373D01*
X182632088Y-134831252D01*
X182661308Y-134823993D01*
X182690752Y-134816597D01*
X182720416Y-134809064D01*
X182750298Y-134801394D01*
X182780392Y-134793587D01*
X182810696Y-134785644D01*
X182841204Y-134777566D01*
X182871911Y-134769353D01*
X182902812Y-134761006D01*
X182933900Y-134752527D01*
X182965169Y-134743916D01*
X182996611Y-134735176D01*
X183028218Y-134726308D01*
X183059982Y-134717314D01*
X183091892Y-134708197D01*
X183123938Y-134698959D01*
X183156108Y-134689603D01*
X183188389Y-134680133D01*
X183220768Y-134670552D01*
X183253227Y-134660865D01*
X183285751Y-134651077D01*
X183318319Y-134641194D01*
X183350910Y-134631222D01*
X183383501Y-134621168D01*
X183416065Y-134611041D01*
X183448571Y-134600850D01*
X183480985Y-134590606D01*
X183513271Y-134580321D01*
X183545382Y-134570011D01*
X183577269Y-134559691D01*
X183608873Y-134549382D01*
X183640126Y-134539107D01*
X183670945Y-134528893D01*
X183701233Y-134518776D01*
X183730869Y-134508797D01*
X183759703Y-134499009D01*
X183787543Y-134489480D01*
X183814129Y-134480304D01*
X183839097Y-134471610D01*
X183861897Y-134463600D01*
X183881582Y-134456616D01*
X183896120Y-134451404D01*
X183900000Y-134450000D01*
X175910000Y-134610000D02*
X175931216Y-134617624D01*
X175952518Y-134625194D01*
X175973906Y-134632710D01*
X175995379Y-134640172D01*
X176016938Y-134647579D01*
X176038582Y-134654931D01*
X176060311Y-134662227D01*
X176082125Y-134669468D01*
X176104023Y-134676653D01*
X176126005Y-134683782D01*
X176148070Y-134690854D01*
X176170219Y-134697869D01*
X176192450Y-134704826D01*
X176214764Y-134711726D01*
X176237160Y-134718568D01*
X176259638Y-134725352D01*
X176282196Y-134732077D01*
X176304835Y-134738742D01*
X176327554Y-134745349D01*
X176350353Y-134751895D01*
X176373230Y-134758381D01*
X176396186Y-134764807D01*
X176419219Y-134771171D01*
X176442329Y-134777475D01*
X176465515Y-134783716D01*
X176488776Y-134789896D01*
X176512112Y-134796012D01*
X176535522Y-134802066D01*
X176559005Y-134808057D01*
X176582560Y-134813984D01*
X176606186Y-134819846D01*
X176629882Y-134825644D01*
X176653647Y-134831377D01*
X176677480Y-134837045D01*
X176701379Y-134842647D01*
X176725345Y-134848182D01*
X176749374Y-134853651D01*
X176773467Y-134859053D01*
X176797621Y-134864386D01*
X176821836Y-134869652D01*
X176846109Y-134874849D01*
X176870440Y-134879978D01*
X176894825Y-134885036D01*
X176919265Y-134890025D01*
X176943757Y-134894943D01*
X176968299Y-134899790D01*
X176992889Y-134904566D01*
X177017524Y-134909270D01*
X177042204Y-134913902D01*
X177066925Y-134918460D01*
X177091686Y-134922945D01*
X177116483Y-134927356D01*
X177141314Y-134931693D01*
X177166177Y-134935954D01*
X177191067Y-134940140D01*
X177215983Y-134944250D01*
X177240921Y-134948283D01*
X177265878Y-134952239D01*
X177290849Y-134956117D01*
X177315832Y-134959916D01*
X177340822Y-134963637D01*
X177365815Y-134967278D01*
X177390807Y-134970839D01*
X177415792Y-134974319D01*
X177440767Y-134977718D01*
X177465725Y-134981034D01*
X177490661Y-134984269D01*
X177515569Y-134987420D01*
X177540443Y-134990487D01*
X177565276Y-134993469D01*
X177590061Y-134996366D01*
X177614790Y-134999178D01*
X177639454Y-135001903D01*
X177664046Y-135004540D01*
X177688555Y-135007090D01*
X177712972Y-135009551D01*
X177737284Y-135011923D01*
X177761481Y-135014204D01*
X177785550Y-135016395D01*
X177809475Y-135018494D01*
X177833243Y-135020500D01*
X177856835Y-135022414D01*
X177880234Y-135024233D01*
X177903418Y-135025958D01*
X177926365Y-135027587D01*
X177949050Y-135029119D01*
X177971443Y-135030555D01*
X177993512Y-135031892D01*
X178015219Y-135033130D01*
X178036522Y-135034268D01*
X178057369Y-135035306D01*
X178077702Y-135036241D01*
X178097448Y-135037075D01*
X178116517Y-135037804D01*
X178134798Y-135038430D01*
X178152143Y-135038950D01*
X178168349Y-135039365D01*
X178183116Y-135039674D01*
X178195953Y-135039879D01*
X178205886Y-135039981D01*
X178210000Y-135040000D01*
X205010000Y-125030000D02*
X205009990Y-125037729D01*
X205009960Y-125045442D01*
X205009910Y-125053146D01*
X205009840Y-125060835D01*
X205009751Y-125068515D01*
X205009641Y-125076179D01*
X205009512Y-125083835D01*
X205009363Y-125091475D01*
X205009195Y-125099106D01*
X205009006Y-125106722D01*
X205008570Y-125121921D01*
X205008056Y-125137073D01*
X205007464Y-125152177D01*
X205006793Y-125167233D01*
X205006045Y-125182242D01*
X205005219Y-125197204D01*
X205004316Y-125212120D01*
X205003336Y-125226988D01*
X205002278Y-125241811D01*
X205001144Y-125256587D01*
X204999934Y-125271317D01*
X204998647Y-125286001D01*
X204997285Y-125300640D01*
X204995846Y-125315233D01*
X204994331Y-125329782D01*
X204992741Y-125344285D01*
X204991076Y-125358743D01*
X204989336Y-125373157D01*
X204987520Y-125387526D01*
X204985630Y-125401852D01*
X204983665Y-125416133D01*
X204981625Y-125430370D01*
X204979511Y-125444564D01*
X204977323Y-125458714D01*
X204975061Y-125472821D01*
X204972725Y-125486885D01*
X204970315Y-125500906D01*
X204967831Y-125514885D01*
X204965274Y-125528820D01*
X204962644Y-125542714D01*
X204959941Y-125556565D01*
X204957164Y-125570374D01*
X204954315Y-125584142D01*
X204951392Y-125597867D01*
X204948397Y-125611551D01*
X204945329Y-125625194D01*
X204942189Y-125638796D01*
X204938976Y-125652356D01*
X204935691Y-125665876D01*
X204932334Y-125679355D01*
X204928905Y-125692793D01*
X204925403Y-125706191D01*
X204921830Y-125719549D01*
X204918185Y-125732867D01*
X204914468Y-125746145D01*
X204910679Y-125759382D01*
X204906819Y-125772581D01*
X204902887Y-125785739D01*
X204898884Y-125798859D01*
X204894809Y-125811939D01*
X204890663Y-125824979D01*
X204886446Y-125837981D01*
X204882157Y-125850944D01*
X204877797Y-125863868D01*
X204873366Y-125876754D01*
X204868864Y-125889601D01*
X204864291Y-125902409D01*
X204859647Y-125915179D01*
X204854932Y-125927911D01*
X204850145Y-125940605D01*
X204845288Y-125953261D01*
X204840360Y-125965879D01*
X204835362Y-125978459D01*
X204830292Y-125991002D01*
X204825151Y-126003507D01*
X204819940Y-126015974D01*
X204814658Y-126028404D01*
X204809305Y-126040796D01*
X204803882Y-126053151D01*
X204798387Y-126065469D01*
X204792822Y-126077750D01*
X204787186Y-126089994D01*
X204781480Y-126102200D01*
X204775702Y-126114370D01*
X204769854Y-126126502D01*
X204763935Y-126138598D01*
X204757946Y-126150657D01*
X204751886Y-126162679D01*
X204745754Y-126174664D01*
X204739553Y-126186612D01*
X204733280Y-126198524D01*
X204726936Y-126210399D01*
X204720522Y-126222237D01*
X204714037Y-126234039D01*
X204707481Y-126245804D01*
X204700855Y-126257532D01*
X204694157Y-126269224D01*
X204687388Y-126280879D01*
X204680549Y-126292497D01*
X204673639Y-126304078D01*
X204666658Y-126315623D01*
X204659606Y-126327131D01*
X204652482Y-126338602D01*
X204645288Y-126350037D01*
X204638023Y-126361434D01*
X204630687Y-126372795D01*
X204623280Y-126384119D01*
X204615802Y-126395405D01*
X204608253Y-126406655D01*
X204600633Y-126417867D01*
X204592942Y-126429042D01*
X204585180Y-126440180D01*
X204577346Y-126451280D01*
X204569442Y-126462343D01*
X204561467Y-126473368D01*
X204553420Y-126484355D01*
X204545303Y-126495305D01*
X204537114Y-126506216D01*
X204528855Y-126517090D01*
X204520524Y-126527925D01*
X204512123Y-126538722D01*
X204503650Y-126549480D01*
X204495107Y-126560199D01*
X204486493Y-126570880D01*
X204477808Y-126581521D01*
X204469052Y-126592123D01*
X204460225Y-126602686D01*
X204451328Y-126613209D01*
X204442361Y-126623692D01*
X204433322Y-126634135D01*
X204424214Y-126644538D01*
X204415035Y-126654900D01*
X204405786Y-126665221D01*
X204396467Y-126675501D01*
X204387077Y-126685740D01*
X204377618Y-126695937D01*
X204368090Y-126706093D01*
X204358491Y-126716206D01*
X204348824Y-126726276D01*
X204339087Y-126736304D01*
X204329282Y-126746288D01*
X204319407Y-126756229D01*
X204309464Y-126766126D01*
X204299453Y-126775979D01*
X204289374Y-126785786D01*
X204279227Y-126795549D01*
X204269013Y-126805266D01*
X204258731Y-126814938D01*
X204248383Y-126824562D01*
X204237969Y-126834140D01*
X204227488Y-126843671D01*
X204216942Y-126853154D01*
X204206331Y-126862588D01*
X204195655Y-126871974D01*
X204184915Y-126881310D01*
X204174112Y-126890596D01*
X204163246Y-126899831D01*
X204152317Y-126909016D01*
X204141326Y-126918148D01*
X204130274Y-126927228D01*
X204119162Y-126936254D01*
X204107991Y-126945227D01*
X204096761Y-126954145D01*
X204085472Y-126963008D01*
X204074127Y-126971814D01*
X204062726Y-126980564D01*
X204051270Y-126989255D01*
X204039760Y-126997888D01*
X204028198Y-127006462D01*
X204016584Y-127014974D01*
X204004920Y-127023425D01*
X203993208Y-127031814D01*
X203981448Y-127040139D01*
X203969643Y-127048399D01*
X203957794Y-127056593D01*
X203945903Y-127064719D01*
X203933972Y-127072778D01*
X203922003Y-127080766D01*
X203909998Y-127088684D01*
X203897959Y-127096528D01*
X203885890Y-127104299D01*
X203873792Y-127111994D01*
X203861669Y-127119611D01*
X203849524Y-127127149D01*
X203837360Y-127134607D01*
X203825180Y-127141981D01*
X203812989Y-127149270D01*
X203800790Y-127156471D01*
X203788589Y-127163583D01*
X203776389Y-127170603D01*
X203764197Y-127177528D01*
X203752017Y-127184356D01*
X203739857Y-127191082D01*
X203727723Y-127197705D01*
X203715622Y-127204221D01*
X203703562Y-127210625D01*
X203691554Y-127216914D01*
X203679606Y-127223083D01*
X203667730Y-127229127D01*
X203655939Y-127235041D01*
X203644246Y-127240818D01*
X203632669Y-127246453D01*
X203621224Y-127251937D01*
X203609934Y-127257262D01*
X203598822Y-127262418D01*
X203587919Y-127267393D01*
X203577258Y-127272174D01*
X203566883Y-127276745D01*
X203556846Y-127281085D01*
X203547216Y-127285168D01*
X203538085Y-127288962D01*
X203529581Y-127292419D01*
X203521903Y-127295467D01*
X203515397Y-127297983D01*
X203510840Y-127299693D01*
X203510000Y-127300000D01*
X156730000Y-127610000D02*
X156722619Y-127607286D01*
X156715259Y-127604558D01*
X156707914Y-127601815D01*
X156700589Y-127599058D01*
X156685990Y-127593498D01*
X156671460Y-127587880D01*
X156657001Y-127582203D01*
X156642611Y-127576468D01*
X156628291Y-127570675D01*
X156614039Y-127564823D01*
X156599857Y-127558914D01*
X156585743Y-127552946D01*
X156571698Y-127546921D01*
X156557720Y-127540838D01*
X156543811Y-127534698D01*
X156529969Y-127528501D01*
X156516194Y-127522246D01*
X156502487Y-127515933D01*
X156488846Y-127509564D01*
X156475272Y-127503138D01*
X156461764Y-127496655D01*
X156448323Y-127490115D01*
X156434947Y-127483519D01*
X156421637Y-127476866D01*
X156408393Y-127470156D01*
X156395213Y-127463390D01*
X156382099Y-127456568D01*
X156369049Y-127449689D01*
X156356064Y-127442754D01*
X156343144Y-127435763D01*
X156330287Y-127428716D01*
X156317494Y-127421613D01*
X156304765Y-127414454D01*
X156292100Y-127407240D01*
X156279497Y-127399969D01*
X156266958Y-127392643D01*
X156254482Y-127385261D01*
X156242068Y-127377823D01*
X156229717Y-127370330D01*
X156217428Y-127362781D01*
X156205202Y-127355177D01*
X156193037Y-127347517D01*
X156180934Y-127339802D01*
X156168892Y-127332032D01*
X156156912Y-127324206D01*
X156144993Y-127316325D01*
X156133136Y-127308388D01*
X156121339Y-127300397D01*
X156109602Y-127292350D01*
X156097927Y-127284248D01*
X156086311Y-127276090D01*
X156074756Y-127267878D01*
X156063262Y-127259610D01*
X156051827Y-127251287D01*
X156040451Y-127242909D01*
X156029136Y-127234476D01*
X156017880Y-127225987D01*
X156006683Y-127217444D01*
X155995546Y-127208845D01*
X155984468Y-127200191D01*
X155973449Y-127191482D01*
X155962489Y-127182718D01*
X155951587Y-127173899D01*
X155940744Y-127165024D01*
X155929960Y-127156095D01*
X155919234Y-127147110D01*
X155908567Y-127138070D01*
X155897957Y-127128975D01*
X155887406Y-127119824D01*
X155876913Y-127110619D01*
X155866478Y-127101358D01*
X155856101Y-127092041D01*
X155845781Y-127082670D01*
X155835520Y-127073243D01*
X155825316Y-127063760D01*
X155815169Y-127054222D01*
X155805080Y-127044629D01*
X155795049Y-127034981D01*
X155785075Y-127025277D01*
X155775158Y-127015517D01*
X155765298Y-127005702D01*
X155755496Y-126995831D01*
X155745751Y-126985905D01*
X155736063Y-126975923D01*
X155726432Y-126965885D01*
X155716859Y-126955792D01*
X155707342Y-126945643D01*
X155697883Y-126935438D01*
X155688480Y-126925178D01*
X155679135Y-126914861D01*
X155669847Y-126904489D01*
X155660615Y-126894061D01*
X155651441Y-126883577D01*
X155642324Y-126873037D01*
X155633263Y-126862441D01*
X155624260Y-126851790D01*
X155615314Y-126841082D01*
X155606425Y-126830318D01*
X155597593Y-126819498D01*
X155588818Y-126808622D01*
X155580100Y-126797689D01*
X155571440Y-126786701D01*
X155562837Y-126775657D01*
X155554291Y-126764556D01*
X155545803Y-126753399D01*
X155537372Y-126742186D01*
X155528998Y-126730917D01*
X155520682Y-126719592D01*
X155512424Y-126708210D01*
X155504224Y-126696772D01*
X155496081Y-126685278D01*
X155487996Y-126673728D01*
X155479969Y-126662122D01*
X155472001Y-126650460D01*
X155464090Y-126638741D01*
X155456238Y-126626966D01*
X155448444Y-126615136D01*
X155440709Y-126603249D01*
X155433032Y-126591306D01*
X155425414Y-126579308D01*
X155417855Y-126567253D01*
X155410355Y-126555143D01*
X155402915Y-126542977D01*
X155395533Y-126530755D01*
X155388212Y-126518478D01*
X155380950Y-126506145D01*
X155373747Y-126493757D01*
X155366605Y-126481314D01*
X155359523Y-126468815D01*
X155352501Y-126456262D01*
X155345540Y-126443653D01*
X155338640Y-126430990D01*
X155331800Y-126418272D01*
X155325022Y-126405500D01*
X155318305Y-126392673D01*
X155311650Y-126379792D01*
X155305056Y-126366858D01*
X155298525Y-126353870D01*
X155292055Y-126340828D01*
X155285649Y-126327733D01*
X155279305Y-126314586D01*
X155273024Y-126301386D01*
X155266806Y-126288133D01*
X155260652Y-126274829D01*
X155254561Y-126261473D01*
X155248535Y-126248065D01*
X155242573Y-126234607D01*
X155236675Y-126221098D01*
X155230843Y-126207539D01*
X155225076Y-126193930D01*
X155219374Y-126180272D01*
X155213738Y-126166566D01*
X155208169Y-126152811D01*
X155202666Y-126139008D01*
X155197229Y-126125159D01*
X155191860Y-126111263D01*
X155186559Y-126097322D01*
X155181325Y-126083335D01*
X155176160Y-126069304D01*
X155171063Y-126055229D01*
X155166035Y-126041111D01*
X155161076Y-126026952D01*
X155156188Y-126012751D01*
X155151369Y-125998510D01*
X155146621Y-125984230D01*
X155141944Y-125969912D01*
X155137339Y-125955556D01*
X155132805Y-125941165D01*
X155128344Y-125926739D01*
X155123955Y-125912280D01*
X155119640Y-125897789D01*
X155115398Y-125883267D01*
X155111230Y-125868716D01*
X155107137Y-125854138D01*
X155103119Y-125839533D01*
X155099177Y-125824905D01*
X155095310Y-125810255D01*
X155091520Y-125795584D01*
X155087808Y-125780896D01*
X155084173Y-125766192D01*
X155080616Y-125751474D01*
X155077138Y-125736746D01*
X155073740Y-125722009D01*
X155070421Y-125707267D01*
X155067183Y-125692523D01*
X155064025Y-125677780D01*
X155060950Y-125663042D01*
X155057957Y-125648311D01*
X155055047Y-125633593D01*
X155052220Y-125618891D01*
X155049478Y-125604210D01*
X155046821Y-125589555D01*
X155044249Y-125574931D01*
X155041764Y-125560344D01*
X155039365Y-125545799D01*
X155037055Y-125531304D01*
X155034832Y-125516866D01*
X155032700Y-125502492D01*
X155030657Y-125488192D01*
X155028705Y-125473974D01*
X155026844Y-125459850D01*
X155025076Y-125445829D01*
X155023401Y-125431926D01*
X155021821Y-125418155D01*
X155020335Y-125404531D01*
X155018945Y-125391073D01*
X155017652Y-125377800D01*
X155016457Y-125364738D01*
X155015360Y-125351913D01*
X155014363Y-125339357D01*
X155013467Y-125327110D01*
X155012672Y-125315219D01*
X155011980Y-125303741D01*
X155011390Y-125292752D01*
X155010906Y-125282351D01*
X155010526Y-125272679D01*
X155010250Y-125263947D01*
X155010079Y-125256522D01*
X155010006Y-125251204D01*
X155010000Y-125250000D01*
X204040000Y-71180000D02*
X204050288Y-71188643D01*
X204060528Y-71197350D01*
X204070721Y-71206121D01*
X204080866Y-71214957D01*
X204090964Y-71223858D01*
X204101014Y-71232823D01*
X204111018Y-71241853D01*
X204120974Y-71250948D01*
X204130883Y-71260108D01*
X204140745Y-71269333D01*
X204150560Y-71278624D01*
X204160328Y-71287979D01*
X204170049Y-71297401D01*
X204179722Y-71306888D01*
X204189350Y-71316440D01*
X204198930Y-71326059D01*
X204208463Y-71335744D01*
X204217949Y-71345494D01*
X204227389Y-71355312D01*
X204236781Y-71365195D01*
X204246127Y-71375145D01*
X204255426Y-71385162D01*
X204264678Y-71395245D01*
X204273883Y-71405396D01*
X204283042Y-71415613D01*
X204292153Y-71425898D01*
X204301218Y-71436250D01*
X204310235Y-71446669D01*
X204319206Y-71457157D01*
X204328129Y-71467712D01*
X204337006Y-71478334D01*
X204345835Y-71489025D01*
X204354617Y-71499784D01*
X204363352Y-71510612D01*
X204372039Y-71521507D01*
X204380679Y-71532472D01*
X204389272Y-71543505D01*
X204397817Y-71554607D01*
X204406315Y-71565778D01*
X204414765Y-71577018D01*
X204423167Y-71588327D01*
X204431522Y-71599705D01*
X204439828Y-71611153D01*
X204448087Y-71622671D01*
X204456297Y-71634258D01*
X204464459Y-71645916D01*
X204472572Y-71657643D01*
X204480637Y-71669440D01*
X204488654Y-71681307D01*
X204496621Y-71693245D01*
X204504540Y-71705253D01*
X204512410Y-71717332D01*
X204520230Y-71729481D01*
X204528002Y-71741701D01*
X204535723Y-71753991D01*
X204543395Y-71766353D01*
X204551017Y-71778785D01*
X204558590Y-71791289D01*
X204566112Y-71803863D01*
X204573583Y-71816509D01*
X204581004Y-71829226D01*
X204588375Y-71842014D01*
X204595694Y-71854873D01*
X204602963Y-71867804D01*
X204610180Y-71880806D01*
X204617345Y-71893880D01*
X204624459Y-71907024D01*
X204631520Y-71920241D01*
X204638530Y-71933528D01*
X204645487Y-71946887D01*
X204652391Y-71960318D01*
X204659243Y-71973820D01*
X204666041Y-71987393D01*
X204672786Y-72001037D01*
X204679477Y-72014752D01*
X204686114Y-72028539D01*
X204692697Y-72042397D01*
X204699225Y-72056325D01*
X204705699Y-72070324D01*
X204712117Y-72084394D01*
X204718480Y-72098535D01*
X204724788Y-72112746D01*
X204731039Y-72127027D01*
X204737234Y-72141378D01*
X204743373Y-72155799D01*
X204749455Y-72170289D01*
X204755479Y-72184849D01*
X204761446Y-72199478D01*
X204767355Y-72214176D01*
X204773205Y-72228942D01*
X204778997Y-72243776D01*
X204784730Y-72258677D01*
X204790404Y-72273647D01*
X204796017Y-72288683D01*
X204801571Y-72303785D01*
X204807064Y-72318954D01*
X204812497Y-72334188D01*
X204817868Y-72349487D01*
X204823177Y-72364850D01*
X204828424Y-72380278D01*
X204833609Y-72395768D01*
X204838731Y-72411321D01*
X204843789Y-72426935D01*
X204848784Y-72442611D01*
X204853714Y-72458347D01*
X204858580Y-72474142D01*
X204863380Y-72489995D01*
X204868115Y-72505906D01*
X204872784Y-72521873D01*
X204877386Y-72537895D01*
X204881921Y-72553972D01*
X204886388Y-72570101D01*
X204890788Y-72586282D01*
X204895118Y-72602513D01*
X204899380Y-72618793D01*
X204903572Y-72635121D01*
X204907694Y-72651494D01*
X204911745Y-72667911D01*
X204915725Y-72684370D01*
X204919633Y-72700869D01*
X204923469Y-72717406D01*
X204927231Y-72733980D01*
X204930920Y-72750587D01*
X204934535Y-72767225D01*
X204938075Y-72783892D01*
X204941540Y-72800584D01*
X204944928Y-72817300D01*
X204948240Y-72834036D01*
X204951475Y-72850787D01*
X204954631Y-72867552D01*
X204957709Y-72884326D01*
X204960708Y-72901106D01*
X204963626Y-72917885D01*
X204966464Y-72934661D01*
X204969220Y-72951428D01*
X204971894Y-72968181D01*
X204974486Y-72984914D01*
X204976993Y-73001620D01*
X204979416Y-73018294D01*
X204981754Y-73034927D01*
X204984005Y-73051512D01*
X204986170Y-73068041D01*
X204988247Y-73084503D01*
X204990236Y-73100888D01*
X204992135Y-73117186D01*
X204993944Y-73133383D01*
X204995661Y-73149467D01*
X204997287Y-73165420D01*
X204998819Y-73181227D01*
X205000258Y-73196868D01*
X205001601Y-73212320D01*
X205002849Y-73227559D01*
X205004000Y-73242554D01*
X205005052Y-73257273D01*
X205006006Y-73271676D01*
X205006860Y-73285712D01*
X205007612Y-73299324D01*
X205008263Y-73312435D01*
X205008810Y-73324951D01*
X205009254Y-73336738D01*
X205009593Y-73347607D01*
X205009828Y-73357258D01*
X205009960Y-73365137D01*
X205010000Y-73370000D01*
X155010000Y-73000000D02*
X155010040Y-72986609D01*
X155010159Y-72973236D01*
X155010359Y-72959881D01*
X155010637Y-72946545D01*
X155010995Y-72933227D01*
X155011433Y-72919927D01*
X155011949Y-72906644D01*
X155012545Y-72893380D01*
X155013219Y-72880134D01*
X155013973Y-72866905D01*
X155014805Y-72853694D01*
X155015716Y-72840501D01*
X155016706Y-72827326D01*
X155017775Y-72814168D01*
X155018922Y-72801027D01*
X155020147Y-72787905D01*
X155021451Y-72774799D01*
X155022834Y-72761712D01*
X155024294Y-72748641D01*
X155025833Y-72735588D01*
X155027451Y-72722553D01*
X155029146Y-72709535D01*
X155030919Y-72696534D01*
X155032771Y-72683551D01*
X155034700Y-72670585D01*
X155036708Y-72657636D01*
X155038794Y-72644705D01*
X155040957Y-72631791D01*
X155043198Y-72618895D01*
X155045518Y-72606016D01*
X155047915Y-72593155D01*
X155050390Y-72580311D01*
X155052942Y-72567484D01*
X155055573Y-72554675D01*
X155058281Y-72541884D01*
X155061067Y-72529111D01*
X155063930Y-72516355D01*
X155066871Y-72503617D01*
X155069890Y-72490897D01*
X155072987Y-72478195D01*
X155076161Y-72465512D01*
X155079412Y-72452846D01*
X155082741Y-72440199D01*
X155086148Y-72427570D01*
X155089632Y-72414959D01*
X155093194Y-72402367D01*
X155096833Y-72389795D01*
X155100549Y-72377240D01*
X155104343Y-72364706D01*
X155108215Y-72352190D01*
X155112163Y-72339694D01*
X155116189Y-72327217D01*
X155120293Y-72314760D01*
X155124473Y-72302324D01*
X155128731Y-72289907D01*
X155133066Y-72277511D01*
X155137478Y-72265136D01*
X155141966Y-72252782D01*
X155146532Y-72240449D01*
X155151175Y-72228137D01*
X155155895Y-72215848D01*
X155160691Y-72203580D01*
X155165564Y-72191335D01*
X155170514Y-72179112D01*
X155175540Y-72166913D01*
X155180643Y-72154737D01*
X155185822Y-72142585D01*
X155191076Y-72130458D01*
X155196407Y-72118355D01*
X155201814Y-72106277D01*
X155207297Y-72094225D01*
X155212854Y-72082198D01*
X155218488Y-72070199D01*
X155224196Y-72058226D01*
X155229979Y-72046281D01*
X155235837Y-72034364D01*
X155241770Y-72022476D01*
X155247776Y-72010617D01*
X155253857Y-71998789D01*
X155260011Y-71986990D01*
X155266238Y-71975224D01*
X155272538Y-71963489D01*
X155278911Y-71951787D01*
X155285356Y-71940119D01*
X155291872Y-71928486D01*
X155298460Y-71916887D01*
X155305118Y-71905325D01*
X155311846Y-71893801D01*
X155318644Y-71882314D01*
X155325511Y-71870866D01*
X155332447Y-71859459D01*
X155339449Y-71848094D01*
X155346519Y-71836770D01*
X155353655Y-71825491D01*
X155360856Y-71814257D01*
X155368121Y-71803069D01*
X155375450Y-71791930D01*
X155382841Y-71780840D01*
X155390293Y-71769800D01*
X155397805Y-71758814D01*
X155405375Y-71747882D01*
X155413003Y-71737006D01*
X155420686Y-71726189D01*
X155428424Y-71715432D01*
X155436214Y-71704737D01*
X155444054Y-71694107D01*
X155451943Y-71683544D01*
X155459878Y-71673051D01*
X155467858Y-71662631D01*
X155475878Y-71652286D01*
X155483938Y-71642020D01*
X155492033Y-71631835D01*
X155500161Y-71621736D01*
X155508318Y-71611726D01*
X155516500Y-71601810D01*
X155524703Y-71591992D01*
X155532923Y-71582276D01*
X155541154Y-71572668D01*
X155549390Y-71563173D01*
X155557627Y-71553798D01*
X155565856Y-71544549D01*
X155574070Y-71535435D01*
X155582262Y-71526462D01*
X155590420Y-71517640D01*
X155598534Y-71508980D01*
X155606591Y-71500494D01*
X155614578Y-71492194D01*
X155622478Y-71484095D01*
X155630270Y-71476216D01*
X155637931Y-71468577D01*
X155645433Y-71461204D01*
X155652740Y-71454127D01*
X155659807Y-71447386D01*
X155666576Y-71441030D01*
X155672964Y-71435130D01*
X155678851Y-71429787D01*
X155684039Y-71425165D01*
X155688141Y-71421587D01*
X155690000Y-71420000D01*
X182820000Y-53360000D02*
X182811958Y-53353290D01*
X182803854Y-53346631D01*
X182795687Y-53340024D01*
X182787457Y-53333468D01*
X182779164Y-53326964D01*
X182770808Y-53320512D01*
X182762389Y-53314112D01*
X182753906Y-53307764D01*
X182745361Y-53301468D01*
X182736752Y-53295224D01*
X182728079Y-53289033D01*
X182719343Y-53282894D01*
X182710543Y-53276808D01*
X182701680Y-53270775D01*
X182692753Y-53264794D01*
X182683761Y-53258867D01*
X182674706Y-53252993D01*
X182665588Y-53247172D01*
X182656405Y-53241405D01*
X182647158Y-53235692D01*
X182637847Y-53230033D01*
X182628472Y-53224428D01*
X182619034Y-53218877D01*
X182609531Y-53213382D01*
X182599964Y-53207941D01*
X182590334Y-53202556D01*
X182580640Y-53197226D01*
X182570882Y-53191952D01*
X182561060Y-53186734D01*
X182551175Y-53181573D01*
X182541227Y-53176468D01*
X182531216Y-53171420D01*
X182521141Y-53166430D01*
X182511004Y-53161497D01*
X182500804Y-53156622D01*
X182490541Y-53151805D01*
X182480217Y-53147047D01*
X182469831Y-53142348D01*
X182459384Y-53137709D01*
X182448875Y-53133130D01*
X182438306Y-53128610D01*
X182427676Y-53124152D01*
X182416987Y-53119755D01*
X182406239Y-53115419D01*
X182395432Y-53111145D01*
X182384567Y-53106933D01*
X182373645Y-53102785D01*
X182362666Y-53098700D01*
X182351631Y-53094678D01*
X182340541Y-53090722D01*
X182329397Y-53086830D01*
X182318200Y-53083003D01*
X182306951Y-53079243D01*
X182295650Y-53075549D01*
X182284300Y-53071922D01*
X182272902Y-53068363D01*
X182261456Y-53064873D01*
X182249965Y-53061451D01*
X182238430Y-53058098D01*
X182226852Y-53054816D01*
X182215234Y-53051605D01*
X182203578Y-53048465D01*
X182191885Y-53045397D01*
X182180159Y-53042402D01*
X182168401Y-53039481D01*
X182156615Y-53036634D01*
X182144803Y-53033862D01*
X182132969Y-53031165D01*
X182121115Y-53028546D01*
X182109246Y-53026003D01*
X182097366Y-53023539D01*
X182085479Y-53021153D01*
X182073590Y-53018848D01*
X182061704Y-53016623D01*
X182049827Y-53014479D01*
X182037965Y-53012418D01*
X182026125Y-53010441D01*
X182014315Y-53008548D01*
X182002543Y-53006740D01*
X181990819Y-53005018D01*
X181979153Y-53003384D01*
X181967556Y-53001838D01*
X181956043Y-53000381D01*
X181944628Y-52999015D01*
X181933328Y-52997741D01*
X181922164Y-52996559D01*
X181911158Y-52995471D01*
X181900337Y-52994479D01*
X181889736Y-52993583D01*
X181879392Y-52992784D01*
X181869356Y-52992084D01*
X181859690Y-52991484D01*
X181850479Y-52990986D01*
X181841837Y-52990590D01*
X181833940Y-52990296D01*
X181827076Y-52990105D01*
X181821843Y-52990014D01*
X181820000Y-52990000D01*
X177180000Y-53390000D02*
X177188869Y-53382661D01*
X177197791Y-53375382D01*
X177206764Y-53368163D01*
X177215790Y-53361005D01*
X177224868Y-53353906D01*
X177233999Y-53346868D01*
X177243181Y-53339891D01*
X177252416Y-53332973D01*
X177261703Y-53326116D01*
X177271042Y-53319320D01*
X177280433Y-53312584D01*
X177289876Y-53305909D01*
X177299371Y-53299295D01*
X177308918Y-53292742D01*
X177318517Y-53286250D01*
X177328167Y-53279819D01*
X177337869Y-53273449D01*
X177347623Y-53267141D01*
X177357427Y-53260894D01*
X177367284Y-53254709D01*
X177377191Y-53248586D01*
X177387149Y-53242524D01*
X177397159Y-53236525D01*
X177407219Y-53230589D01*
X177417330Y-53224715D01*
X177427491Y-53218903D01*
X177437702Y-53213155D01*
X177447963Y-53207470D01*
X177458274Y-53201848D01*
X177468634Y-53196290D01*
X177479043Y-53190796D01*
X177489502Y-53185366D01*
X177500009Y-53180000D01*
X177510564Y-53174699D01*
X177521167Y-53169462D01*
X177531818Y-53164291D01*
X177542516Y-53159186D01*
X177553260Y-53154146D01*
X177564051Y-53149172D01*
X177574888Y-53144265D01*
X177585770Y-53139424D01*
X177596696Y-53134651D01*
X177607667Y-53129945D01*
X177618681Y-53125307D01*
X177629737Y-53120737D01*
X177640836Y-53116235D01*
X177651977Y-53111802D01*
X177663157Y-53107439D01*
X177674378Y-53103145D01*
X177685637Y-53098922D01*
X177696934Y-53094769D01*
X177708267Y-53090687D01*
X177719637Y-53086676D01*
X177731040Y-53082737D01*
X177742477Y-53078871D01*
X177753946Y-53075078D01*
X177765446Y-53071358D01*
X177776974Y-53067712D01*
X177788530Y-53064140D01*
X177800111Y-53060643D01*
X177811717Y-53057221D01*
X177823344Y-53053876D01*
X177834991Y-53050607D01*
X177846656Y-53047416D01*
X177858335Y-53044302D01*
X177870028Y-53041266D01*
X177881730Y-53038310D01*
X177893440Y-53035433D01*
X177905153Y-53032636D01*
X177916866Y-53029921D01*
X177928576Y-53027287D01*
X177940279Y-53024735D01*
X177951970Y-53022266D01*
X177963645Y-53019882D01*
X177975298Y-53017582D01*
X177986925Y-53015367D01*
X177998519Y-53013238D01*
X178010073Y-53011196D01*
X178021580Y-53009242D01*
X178033032Y-53007377D01*
X178044421Y-53005601D01*
X178055736Y-53003915D01*
X178066966Y-53002321D01*
X178078100Y-53000818D01*
X178089122Y-52999409D01*
X178100017Y-52998095D01*
X178110767Y-52996875D01*
X178121351Y-52995751D01*
X178131742Y-52994725D01*
X178141913Y-52993797D01*
X178151826Y-52992968D01*
X178161439Y-52992240D01*
X178170693Y-52991613D01*
X178179517Y-52991089D01*
X178187809Y-52990668D01*
X178195422Y-52990351D01*
X178202115Y-52990138D01*
X178207423Y-52990025D01*
X178210000Y-52990000D01*
D10*
X183900000Y-134450000D02*
X203510000Y-127300000D01*
X182820000Y-53360000D02*
X204040000Y-71180000D01*
X178210000Y-52990000D02*
X181820000Y-52990000D01*
X155690000Y-71420000D02*
X177180000Y-53390000D01*
X155010000Y-125250000D02*
X155010000Y-73000000D01*
X175910000Y-134610000D02*
X156730000Y-127610000D01*
X181250000Y-135040000D02*
X178210000Y-135040000D01*
M02*
