M48
; DRILL file KiCad 10.0.3 date 2026-06-20T18:38:40
; FORMAT={-:-/ absolute / metric / decimal}
; #@! TF.CreationDate,2026-06-20T18:38:40-04:00
; #@! TF.GenerationSoftware,Kicad,Pcbnew,10.0.3
; #@! TF.FileFunction,Plated,1,2,PTH
FMAT,2
METRIC
; #@! TA.AperFunction,Plated,PTH,ViaDrill
T1C0.300
; #@! TA.AperFunction,Plated,PTH,ComponentDrill
T2C0.889
; #@! TA.AperFunction,Plated,PTH,ComponentDrill
T3C1.000
; #@! TA.AperFunction,Plated,PTH,ComponentDrill
T4C1.000
; #@! TA.AperFunction,Plated,PTH,ComponentDrill
T5C1.050
; #@! TA.AperFunction,Plated,PTH,ComponentDrill
T6C1.100
; #@! TA.AperFunction,Plated,PTH,ComponentDrill
T7C2.500
%
G90
G05
T1
X168.714Y-76.784
X173.26Y-74.53
X173.719Y-77.631
X193.124Y-92.624
X197.21Y-97.41
T2
X186.782Y-75.24
X186.782Y-90.48
X189.321Y-90.48
X189.321Y-75.24
X191.861Y-75.24
X191.861Y-90.48
X194.401Y-90.48
X194.402Y-75.24
X194.788Y-87.305
X196.692Y-87.305
X196.941Y-75.24
X196.942Y-90.48
X199.481Y-90.48
X199.482Y-75.24
X202.021Y-75.24
X202.021Y-90.48
T3
X156.71Y-102.85
X156.71Y-107.65
X156.73Y-112.96
X156.73Y-117.76
X159.71Y-102.85
X159.71Y-107.65
X159.73Y-112.96
X159.73Y-117.76
X199.79Y-102.7
X199.79Y-107.5
X199.8Y-112.91
X199.8Y-117.71
X202.79Y-102.7
X202.79Y-107.5
X202.8Y-112.91
X202.8Y-117.71
T4
X177.95Y-122.05
X180.49Y-122.05
T5
X175.68Y-97.79
X178.18Y-97.79
X180.68Y-97.79
X183.18Y-97.79
T6
X170.93Y-71.07
X170.93Y-81.07
T7
X167.78Y-97.85
X167.78Y-121.65
X191.08Y-97.85
X191.08Y-121.65
M30
