%TF.GenerationSoftware,KiCad,Pcbnew,10.0.3*%
%TF.CreationDate,2026-06-20T18:38:36-04:00*%
%TF.ProjectId,BTtamagotchi,42547461-6d61-4676-9f74-6368692e6b69,rev?*%
%TF.SameCoordinates,Original*%
%TF.FileFunction,Legend,Bot*%
%TF.FilePolarity,Positive*%
%FSLAX46Y46*%
G04 Gerber Fmt 4.6, Leading zero omitted, Abs format (unit mm)*
G04 Created by KiCad (PCBNEW 10.0.3) date 2026-06-20 18:38:36*
%MOMM*%
%LPD*%
G01*
G04 APERTURE LIST*
%ADD10C,0.101600*%
%ADD11C,0.300000*%
%ADD12C,0.150000*%
%ADD13C,0.504000*%
%ADD14C,0.127000*%
%ADD15C,0.100000*%
%ADD16C,0.000000*%
%ADD17C,0.120000*%
%ADD18C,0.250000*%
%ADD19C,0.060000*%
G04 APERTURE END LIST*
D10*
X193642691Y-93481521D02*
X193642691Y-92967474D01*
X193642691Y-92967474D02*
X193672929Y-92906998D01*
X193672929Y-92906998D02*
X193703167Y-92876760D01*
X193703167Y-92876760D02*
X193763643Y-92846521D01*
X193763643Y-92846521D02*
X193884596Y-92846521D01*
X193884596Y-92846521D02*
X193945072Y-92876760D01*
X193945072Y-92876760D02*
X193975310Y-92906998D01*
X193975310Y-92906998D02*
X194005548Y-92967474D01*
X194005548Y-92967474D02*
X194005548Y-93481521D01*
X194640548Y-92846521D02*
X194277691Y-92846521D01*
X194459119Y-92846521D02*
X194459119Y-93481521D01*
X194459119Y-93481521D02*
X194398643Y-93390807D01*
X194398643Y-93390807D02*
X194338167Y-93330331D01*
X194338167Y-93330331D02*
X194277691Y-93300093D01*
D11*
X180341427Y-103679757D02*
X180484285Y-103608328D01*
X180484285Y-103608328D02*
X180698570Y-103608328D01*
X180698570Y-103608328D02*
X180912856Y-103679757D01*
X180912856Y-103679757D02*
X181055713Y-103822614D01*
X181055713Y-103822614D02*
X181127142Y-103965471D01*
X181127142Y-103965471D02*
X181198570Y-104251185D01*
X181198570Y-104251185D02*
X181198570Y-104465471D01*
X181198570Y-104465471D02*
X181127142Y-104751185D01*
X181127142Y-104751185D02*
X181055713Y-104894042D01*
X181055713Y-104894042D02*
X180912856Y-105036900D01*
X180912856Y-105036900D02*
X180698570Y-105108328D01*
X180698570Y-105108328D02*
X180555713Y-105108328D01*
X180555713Y-105108328D02*
X180341427Y-105036900D01*
X180341427Y-105036900D02*
X180269999Y-104965471D01*
X180269999Y-104965471D02*
X180269999Y-104465471D01*
X180269999Y-104465471D02*
X180555713Y-104465471D01*
X179412856Y-103608328D02*
X179412856Y-103965471D01*
X179769999Y-103822614D02*
X179412856Y-103965471D01*
X179412856Y-103965471D02*
X179055713Y-103822614D01*
X179627142Y-104251185D02*
X179412856Y-103965471D01*
X179412856Y-103965471D02*
X179198570Y-104251185D01*
X178269999Y-103608328D02*
X178269999Y-103965471D01*
X178627142Y-103822614D02*
X178269999Y-103965471D01*
X178269999Y-103965471D02*
X177912856Y-103822614D01*
X178484285Y-104251185D02*
X178269999Y-103965471D01*
X178269999Y-103965471D02*
X178055713Y-104251185D01*
X177127142Y-103608328D02*
X177127142Y-103965471D01*
X177484285Y-103822614D02*
X177127142Y-103965471D01*
X177127142Y-103965471D02*
X176769999Y-103822614D01*
X177341428Y-104251185D02*
X177127142Y-103965471D01*
X177127142Y-103965471D02*
X176912856Y-104251185D01*
D12*
X175501009Y-121264285D02*
X175548628Y-121407142D01*
X175548628Y-121407142D02*
X175596247Y-121454761D01*
X175596247Y-121454761D02*
X175691485Y-121502380D01*
X175691485Y-121502380D02*
X175834342Y-121502380D01*
X175834342Y-121502380D02*
X175929580Y-121454761D01*
X175929580Y-121454761D02*
X175977200Y-121407142D01*
X175977200Y-121407142D02*
X176024819Y-121311904D01*
X176024819Y-121311904D02*
X176024819Y-120930952D01*
X176024819Y-120930952D02*
X175024819Y-120930952D01*
X175024819Y-120930952D02*
X175024819Y-121264285D01*
X175024819Y-121264285D02*
X175072438Y-121359523D01*
X175072438Y-121359523D02*
X175120057Y-121407142D01*
X175120057Y-121407142D02*
X175215295Y-121454761D01*
X175215295Y-121454761D02*
X175310533Y-121454761D01*
X175310533Y-121454761D02*
X175405771Y-121407142D01*
X175405771Y-121407142D02*
X175453390Y-121359523D01*
X175453390Y-121359523D02*
X175501009Y-121264285D01*
X175501009Y-121264285D02*
X175501009Y-120930952D01*
X175024819Y-121788095D02*
X175024819Y-122359523D01*
X176024819Y-122073809D02*
X175024819Y-122073809D01*
X176024819Y-123216666D02*
X176024819Y-122645238D01*
X176024819Y-122930952D02*
X175024819Y-122930952D01*
X175024819Y-122930952D02*
X175167676Y-122835714D01*
X175167676Y-122835714D02*
X175262914Y-122740476D01*
X175262914Y-122740476D02*
X175310533Y-122645238D01*
X167337200Y-74308095D02*
X167384819Y-74450952D01*
X167384819Y-74450952D02*
X167384819Y-74689047D01*
X167384819Y-74689047D02*
X167337200Y-74784285D01*
X167337200Y-74784285D02*
X167289580Y-74831904D01*
X167289580Y-74831904D02*
X167194342Y-74879523D01*
X167194342Y-74879523D02*
X167099104Y-74879523D01*
X167099104Y-74879523D02*
X167003866Y-74831904D01*
X167003866Y-74831904D02*
X166956247Y-74784285D01*
X166956247Y-74784285D02*
X166908628Y-74689047D01*
X166908628Y-74689047D02*
X166861009Y-74498571D01*
X166861009Y-74498571D02*
X166813390Y-74403333D01*
X166813390Y-74403333D02*
X166765771Y-74355714D01*
X166765771Y-74355714D02*
X166670533Y-74308095D01*
X166670533Y-74308095D02*
X166575295Y-74308095D01*
X166575295Y-74308095D02*
X166480057Y-74355714D01*
X166480057Y-74355714D02*
X166432438Y-74403333D01*
X166432438Y-74403333D02*
X166384819Y-74498571D01*
X166384819Y-74498571D02*
X166384819Y-74736666D01*
X166384819Y-74736666D02*
X166432438Y-74879523D01*
X167384819Y-75308095D02*
X166384819Y-75308095D01*
X166384819Y-75308095D02*
X166384819Y-75689047D01*
X166384819Y-75689047D02*
X166432438Y-75784285D01*
X166432438Y-75784285D02*
X166480057Y-75831904D01*
X166480057Y-75831904D02*
X166575295Y-75879523D01*
X166575295Y-75879523D02*
X166718152Y-75879523D01*
X166718152Y-75879523D02*
X166813390Y-75831904D01*
X166813390Y-75831904D02*
X166861009Y-75784285D01*
X166861009Y-75784285D02*
X166908628Y-75689047D01*
X166908628Y-75689047D02*
X166908628Y-75308095D01*
X167384819Y-76308095D02*
X166384819Y-76308095D01*
X167384819Y-76879523D02*
X166813390Y-76450952D01*
X166384819Y-76879523D02*
X166956247Y-76308095D01*
X167384819Y-77831904D02*
X167384819Y-77260476D01*
X167384819Y-77546190D02*
X166384819Y-77546190D01*
X166384819Y-77546190D02*
X166527676Y-77450952D01*
X166527676Y-77450952D02*
X166622914Y-77355714D01*
X166622914Y-77355714D02*
X166670533Y-77260476D01*
%TO.C,U1*%
D13*
X204903500Y-91860000D02*
G75*
G02*
X204399500Y-91860000I-252000J0D01*
G01*
X204399500Y-91860000D02*
G75*
G02*
X204903500Y-91860000I252000J0D01*
G01*
X204023500Y-90717001D02*
G75*
G02*
X203519500Y-90717001I-252000J0D01*
G01*
X203519500Y-90717001D02*
G75*
G02*
X204023500Y-90717001I252000J0D01*
G01*
D14*
X206452500Y-86851272D02*
G75*
G02*
X205952773Y-87351200I-499900J-28D01*
G01*
X205952501Y-78356000D02*
G75*
G02*
X206452500Y-78856000I-1J-500000D01*
G01*
X204942500Y-89845000D02*
G75*
G02*
X203037499Y-91750000I-1905000J0D01*
G01*
X203037499Y-73970000D02*
G75*
G02*
X204942500Y-75875001I1J-1905000D01*
G01*
X185892501Y-91750000D02*
G75*
G02*
X183987501Y-89844999I0J1905000D01*
G01*
X183987501Y-75875000D02*
G75*
G02*
X185892500Y-73970000I1905000J0D01*
G01*
X206452500Y-86851272D02*
X206452500Y-78856000D01*
X205952501Y-78356000D02*
X204942500Y-78356000D01*
X204942501Y-87354999D02*
X205952773Y-87351271D01*
X204942501Y-75875001D02*
X204942500Y-89845000D01*
D15*
X204942501Y-75875001D02*
X204942500Y-89845000D01*
X204942501Y-75875001D02*
X204942500Y-89845000D01*
D14*
X185892501Y-91750000D02*
X203037499Y-91749999D01*
X185892500Y-73970000D02*
X203037499Y-73970000D01*
X183987501Y-89844999D02*
X183987501Y-75875000D01*
D16*
%TO.C,G\u002A\u002A\u002A*%
G36*
X176449398Y-118935542D02*
G01*
X176418795Y-118966145D01*
X176388193Y-118935542D01*
X176418795Y-118904940D01*
X176449398Y-118935542D01*
G37*
G36*
X176265783Y-122913855D02*
G01*
X176235181Y-122944458D01*
X176204578Y-122913855D01*
X176235181Y-122883253D01*
X176265783Y-122913855D01*
G37*
G36*
X173878795Y-84477229D02*
G01*
X173848193Y-84507831D01*
X173817590Y-84477229D01*
X173848193Y-84446626D01*
X173878795Y-84477229D01*
G37*
G36*
X173878795Y-85456506D02*
G01*
X173848193Y-85487108D01*
X173817590Y-85456506D01*
X173848193Y-85425904D01*
X173878795Y-85456506D01*
G37*
G36*
X172960723Y-86435783D02*
G01*
X172930120Y-86466385D01*
X172899518Y-86435783D01*
X172930120Y-86405181D01*
X172960723Y-86435783D01*
G37*
G36*
X172715904Y-85823735D02*
G01*
X172685301Y-85854337D01*
X172654699Y-85823735D01*
X172685301Y-85793132D01*
X172715904Y-85823735D01*
G37*
G36*
X172532289Y-85701325D02*
G01*
X172501687Y-85731928D01*
X172471084Y-85701325D01*
X172501687Y-85670723D01*
X172532289Y-85701325D01*
G37*
G36*
X172409880Y-85640120D02*
G01*
X172379277Y-85670723D01*
X172348675Y-85640120D01*
X172379277Y-85609518D01*
X172409880Y-85640120D01*
G37*
G36*
X172287470Y-85578916D02*
G01*
X172256867Y-85609518D01*
X172226265Y-85578916D01*
X172256867Y-85548313D01*
X172287470Y-85578916D01*
G37*
G36*
X172226265Y-84905663D02*
G01*
X172195663Y-84936265D01*
X172165060Y-84905663D01*
X172195663Y-84875060D01*
X172226265Y-84905663D01*
G37*
G36*
X172165060Y-86129759D02*
G01*
X172134458Y-86160361D01*
X172103855Y-86129759D01*
X172134458Y-86099157D01*
X172165060Y-86129759D01*
G37*
G36*
X172103855Y-85517711D02*
G01*
X172073253Y-85548313D01*
X172042651Y-85517711D01*
X172073253Y-85487108D01*
X172103855Y-85517711D01*
G37*
G36*
X172103855Y-90169277D02*
G01*
X172073253Y-90199879D01*
X172042651Y-90169277D01*
X172073253Y-90138675D01*
X172103855Y-90169277D01*
G37*
G36*
X172042651Y-85089277D02*
G01*
X172012048Y-85119879D01*
X171981446Y-85089277D01*
X172012048Y-85058675D01*
X172042651Y-85089277D01*
G37*
G36*
X172042651Y-90475301D02*
G01*
X172012048Y-90505904D01*
X171981446Y-90475301D01*
X172012048Y-90444699D01*
X172042651Y-90475301D01*
G37*
G36*
X171981446Y-90658916D02*
G01*
X171950843Y-90689518D01*
X171920241Y-90658916D01*
X171950843Y-90628313D01*
X171981446Y-90658916D01*
G37*
G36*
X171920241Y-86741807D02*
G01*
X171889639Y-86772410D01*
X171859036Y-86741807D01*
X171889639Y-86711205D01*
X171920241Y-86741807D01*
G37*
G36*
X171920241Y-90781325D02*
G01*
X171889639Y-90811928D01*
X171859036Y-90781325D01*
X171889639Y-90750723D01*
X171920241Y-90781325D01*
G37*
G36*
X171797831Y-85946145D02*
G01*
X171767229Y-85976747D01*
X171736627Y-85946145D01*
X171767229Y-85915542D01*
X171797831Y-85946145D01*
G37*
G36*
X171553012Y-86619398D02*
G01*
X171522410Y-86650000D01*
X171491807Y-86619398D01*
X171522410Y-86588795D01*
X171553012Y-86619398D01*
G37*
G36*
X171553012Y-86803012D02*
G01*
X171522410Y-86833614D01*
X171491807Y-86803012D01*
X171522410Y-86772410D01*
X171553012Y-86803012D01*
G37*
G36*
X171491807Y-87047831D02*
G01*
X171461205Y-87078434D01*
X171430602Y-87047831D01*
X171461205Y-87017229D01*
X171491807Y-87047831D01*
G37*
G36*
X171430602Y-87231446D02*
G01*
X171400000Y-87262048D01*
X171369398Y-87231446D01*
X171400000Y-87200843D01*
X171430602Y-87231446D01*
G37*
G36*
X171369398Y-87537470D02*
G01*
X171338795Y-87568072D01*
X171308193Y-87537470D01*
X171338795Y-87506867D01*
X171369398Y-87537470D01*
G37*
G36*
X171124578Y-92862289D02*
G01*
X171093976Y-92892891D01*
X171063373Y-92862289D01*
X171093976Y-92831687D01*
X171124578Y-92862289D01*
G37*
G36*
X171002169Y-88516747D02*
G01*
X170971566Y-88547349D01*
X170940964Y-88516747D01*
X170971566Y-88486145D01*
X171002169Y-88516747D01*
G37*
G36*
X170757349Y-89190000D02*
G01*
X170726747Y-89220602D01*
X170696145Y-89190000D01*
X170726747Y-89159398D01*
X170757349Y-89190000D01*
G37*
G36*
X170573735Y-89924458D02*
G01*
X170543133Y-89955060D01*
X170512530Y-89924458D01*
X170543133Y-89893855D01*
X170573735Y-89924458D01*
G37*
G36*
X170390120Y-90475301D02*
G01*
X170359518Y-90505904D01*
X170328916Y-90475301D01*
X170359518Y-90444699D01*
X170390120Y-90475301D01*
G37*
G36*
X170328916Y-90658916D02*
G01*
X170298313Y-90689518D01*
X170267711Y-90658916D01*
X170298313Y-90628313D01*
X170328916Y-90658916D01*
G37*
G36*
X179183213Y-117701245D02*
G01*
X179192788Y-117719654D01*
X179142410Y-117742048D01*
X179110008Y-117737631D01*
X179101606Y-117701245D01*
X179110577Y-117693920D01*
X179183213Y-117701245D01*
G37*
G36*
X178775181Y-118170482D02*
G01*
X178770764Y-118202883D01*
X178734378Y-118211285D01*
X178727052Y-118202314D01*
X178734378Y-118129679D01*
X178752787Y-118120103D01*
X178775181Y-118170482D01*
G37*
G36*
X171308193Y-87751687D02*
G01*
X171303776Y-87784088D01*
X171267390Y-87792490D01*
X171260065Y-87783519D01*
X171267390Y-87710883D01*
X171285799Y-87701308D01*
X171308193Y-87751687D01*
G37*
G36*
X194425521Y-96771505D02*
G01*
X194435963Y-96803633D01*
X194382410Y-96871205D01*
X194306974Y-96903013D01*
X194261363Y-96879360D01*
X194308964Y-96797759D01*
X194351104Y-96767986D01*
X194425521Y-96771505D01*
G37*
G36*
X194504181Y-96993721D02*
G01*
X194443614Y-97054819D01*
X194394976Y-97078098D01*
X194324750Y-97078766D01*
X194321843Y-97054713D01*
X194382410Y-96993614D01*
X194431048Y-96970336D01*
X194501274Y-96969668D01*
X194504181Y-96993721D01*
G37*
G36*
X169689802Y-92222393D02*
G01*
X169747470Y-92280843D01*
X169758870Y-92302513D01*
X169754694Y-92342048D01*
X169743933Y-92339294D01*
X169686265Y-92280843D01*
X169674865Y-92259174D01*
X169679041Y-92219638D01*
X169689802Y-92222393D01*
G37*
G36*
X163418129Y-118394829D02*
G01*
X163530452Y-118504168D01*
X163648647Y-118645448D01*
X163742051Y-118781829D01*
X163780000Y-118876467D01*
X163774714Y-118928113D01*
X163731680Y-118957510D01*
X163639053Y-118890903D01*
X163489277Y-118724338D01*
X163459013Y-118687292D01*
X163330788Y-118505485D01*
X163292216Y-118392769D01*
X163345226Y-118354096D01*
X163418129Y-118394829D01*
G37*
G36*
X176908434Y-117954682D02*
G01*
X176740371Y-118092668D01*
X176631074Y-118211537D01*
X176572432Y-118336170D01*
X176538237Y-118505564D01*
X176522750Y-118597463D01*
X176492908Y-118723830D01*
X176469571Y-118761900D01*
X176462802Y-118729019D01*
X176466170Y-118602544D01*
X176485225Y-118419466D01*
X176504515Y-118291146D01*
X176546823Y-118152321D01*
X176628361Y-118063845D01*
X176779003Y-117981142D01*
X176876764Y-117936057D01*
X176944094Y-117915609D01*
X176908434Y-117954682D01*
G37*
G36*
X179962163Y-121135565D02*
G01*
X179968675Y-121230723D01*
X179958985Y-121318390D01*
X180025755Y-121353132D01*
X180080602Y-121373617D01*
X180121687Y-121471930D01*
X180146565Y-121582394D01*
X180208089Y-121636801D01*
X180274082Y-121598950D01*
X180287376Y-121581289D01*
X180370118Y-121536747D01*
X180419948Y-121572610D01*
X180416459Y-121666614D01*
X180354265Y-121769325D01*
X180338583Y-121785128D01*
X180283067Y-121831996D01*
X180223517Y-121828713D01*
X180105397Y-121776951D01*
X180091047Y-121769818D01*
X179962932Y-121660953D01*
X179850716Y-121500934D01*
X179779730Y-121333771D01*
X179775306Y-121203471D01*
X179811801Y-121144548D01*
X179894323Y-121104648D01*
X179962163Y-121135565D01*
G37*
G36*
X163627147Y-100911876D02*
G01*
X163674030Y-100969233D01*
X163709735Y-101122570D01*
X163737583Y-101385060D01*
X163765731Y-101656352D01*
X163815388Y-102006957D01*
X163872010Y-102318434D01*
X163886958Y-102393535D01*
X163935818Y-102698721D01*
X163978243Y-103046102D01*
X164006408Y-103374217D01*
X164012049Y-103472701D01*
X164020108Y-103752493D01*
X164008737Y-103917091D01*
X163977723Y-103970964D01*
X163951493Y-103962887D01*
X163910969Y-103901132D01*
X163876099Y-103765045D01*
X163843361Y-103538633D01*
X163809232Y-103205904D01*
X163792917Y-103053211D01*
X163754564Y-102754486D01*
X163705529Y-102415065D01*
X163652495Y-102082834D01*
X163651573Y-102077373D01*
X163583212Y-101637429D01*
X163545886Y-101308273D01*
X163539375Y-101082424D01*
X163563459Y-100952401D01*
X163617916Y-100910723D01*
X163627147Y-100911876D01*
G37*
G36*
X177585414Y-122529952D02*
G01*
X177588068Y-122555190D01*
X177557910Y-122666168D01*
X177492311Y-122828236D01*
X177456289Y-122912325D01*
X177394047Y-123087192D01*
X177368814Y-123205896D01*
X177353004Y-123287746D01*
X177298577Y-123466938D01*
X177215574Y-123706583D01*
X177114686Y-123978066D01*
X177006604Y-124252771D01*
X176902017Y-124502081D01*
X176811618Y-124697381D01*
X176790544Y-124738168D01*
X176594735Y-125023854D01*
X176336449Y-125242083D01*
X175986245Y-125418580D01*
X175808293Y-125487296D01*
X175637313Y-125546164D01*
X175539491Y-125570857D01*
X175509797Y-125569445D01*
X175485062Y-125545521D01*
X175485859Y-125479173D01*
X175515624Y-125352024D01*
X175577792Y-125145695D01*
X175675801Y-124841807D01*
X175712443Y-124723740D01*
X175798123Y-124416739D01*
X175885373Y-124070616D01*
X175960065Y-123740120D01*
X176005347Y-123528954D01*
X176057513Y-123299484D01*
X176097788Y-123138180D01*
X176119979Y-123070948D01*
X176136704Y-123065496D01*
X176206377Y-123105389D01*
X176212482Y-123114608D01*
X176221257Y-123228312D01*
X176195382Y-123449589D01*
X176136250Y-123770680D01*
X176045250Y-124183827D01*
X175923774Y-124681275D01*
X175885296Y-124847651D01*
X175859157Y-124999243D01*
X175859632Y-125068106D01*
X175893380Y-125049023D01*
X175978505Y-124952870D01*
X176091570Y-124800205D01*
X176184358Y-124658857D01*
X176247568Y-124529529D01*
X176286313Y-124382976D01*
X176309738Y-124184148D01*
X176326988Y-123897995D01*
X176329962Y-123842177D01*
X176355352Y-123531151D01*
X176389939Y-123339680D01*
X176434096Y-123265546D01*
X176436204Y-123264920D01*
X176471567Y-123287388D01*
X176494504Y-123387027D01*
X176506891Y-123578854D01*
X176510602Y-123877885D01*
X176510602Y-124515490D01*
X176267687Y-124862263D01*
X176258152Y-124875917D01*
X176145920Y-125044265D01*
X176075934Y-125163664D01*
X176062994Y-125209036D01*
X176076896Y-125205039D01*
X176168096Y-125151581D01*
X176302224Y-125055721D01*
X176400495Y-124959499D01*
X176566425Y-124719831D01*
X176743063Y-124382615D01*
X176924029Y-123961843D01*
X177102942Y-123471509D01*
X177273423Y-122925606D01*
X177320559Y-122784732D01*
X177410961Y-122604293D01*
X177503180Y-122514378D01*
X177585414Y-122529952D01*
G37*
G36*
X170361321Y-92895784D02*
G01*
X170305616Y-93123506D01*
X170244431Y-93380026D01*
X170184726Y-93635815D01*
X170133461Y-93861345D01*
X170097598Y-94027088D01*
X170084096Y-94103513D01*
X170094299Y-94103823D01*
X170147050Y-94033102D01*
X170230832Y-93898429D01*
X170329863Y-93727360D01*
X170428364Y-93547450D01*
X170510555Y-93386254D01*
X170560657Y-93271327D01*
X170562631Y-93265587D01*
X170594276Y-93124280D01*
X170584038Y-93037823D01*
X170583199Y-93025669D01*
X170650241Y-93070717D01*
X170715456Y-93134795D01*
X170746701Y-93226511D01*
X170723374Y-93355444D01*
X170640963Y-93543096D01*
X170494959Y-93810964D01*
X170373734Y-94014919D01*
X170253457Y-94182701D01*
X170143303Y-94283826D01*
X170021231Y-94343051D01*
X170020935Y-94343153D01*
X169810242Y-94395694D01*
X169602108Y-94419557D01*
X169546059Y-94421498D01*
X169480700Y-94420473D01*
X169440660Y-94399979D01*
X169426663Y-94343468D01*
X169439433Y-94234391D01*
X169447555Y-94198447D01*
X169655663Y-94198447D01*
X169665276Y-94216797D01*
X169745760Y-94239398D01*
X169747063Y-94239379D01*
X169804950Y-94201347D01*
X169867506Y-94083568D01*
X169938252Y-93875736D01*
X170020709Y-93567547D01*
X170118395Y-93148698D01*
X170135633Y-93068485D01*
X170176272Y-92822558D01*
X170176181Y-92680866D01*
X170135942Y-92647342D01*
X170056134Y-92725919D01*
X170035923Y-92767611D01*
X169984803Y-92914049D01*
X169918792Y-93130639D01*
X169846184Y-93386884D01*
X169775272Y-93652286D01*
X169714352Y-93896346D01*
X169671717Y-94088565D01*
X169655663Y-94198447D01*
X169447555Y-94198447D01*
X169479696Y-94056200D01*
X169548174Y-93792346D01*
X169645594Y-93426279D01*
X169658783Y-93376450D01*
X169729097Y-93101782D01*
X169768306Y-92919697D01*
X169778769Y-92808359D01*
X169762842Y-92745934D01*
X169722884Y-92710588D01*
X169680746Y-92683824D01*
X169661376Y-92632388D01*
X169732169Y-92546615D01*
X169804660Y-92491380D01*
X169839277Y-92506492D01*
X169848148Y-92525445D01*
X169946821Y-92558452D01*
X170139375Y-92565511D01*
X170245598Y-92559079D01*
X170373350Y-92538207D01*
X170411185Y-92510361D01*
X170405805Y-92498351D01*
X170440739Y-92464458D01*
X170451698Y-92467339D01*
X170519430Y-92537666D01*
X170597364Y-92672623D01*
X170615632Y-92711827D01*
X170677274Y-92863264D01*
X170689747Y-92930260D01*
X170655255Y-92902703D01*
X170576007Y-92770482D01*
X170534044Y-92697139D01*
X170467222Y-92619388D01*
X170427181Y-92648072D01*
X170404584Y-92726389D01*
X170380023Y-92822558D01*
X170361321Y-92895784D01*
G37*
G36*
X184993585Y-124022615D02*
G01*
X184899148Y-124276222D01*
X184793714Y-124416452D01*
X184640680Y-124546872D01*
X184431031Y-124658035D01*
X184143115Y-124761132D01*
X183755279Y-124867351D01*
X183579213Y-124913125D01*
X183272349Y-124999662D01*
X182997273Y-125084924D01*
X182797717Y-125155740D01*
X182586770Y-125223513D01*
X182301212Y-125288822D01*
X182019036Y-125331676D01*
X181869371Y-125344147D01*
X181557474Y-125360258D01*
X181206012Y-125369639D01*
X180866287Y-125370559D01*
X180172573Y-125362048D01*
X180002315Y-125171341D01*
X179951070Y-125106968D01*
X179824636Y-124901930D01*
X179724507Y-124681702D01*
X179668307Y-124529340D01*
X179493027Y-124103327D01*
X179325056Y-123768238D01*
X179169704Y-123533825D01*
X179032279Y-123409843D01*
X178829206Y-123266325D01*
X178611967Y-123012356D01*
X178468082Y-122716495D01*
X178457858Y-122686025D01*
X178384647Y-122502281D01*
X178277947Y-122264114D01*
X178157066Y-122015071D01*
X177918848Y-121544720D01*
X177962377Y-121317216D01*
X178056961Y-121317216D01*
X178074956Y-121388465D01*
X178137032Y-121535669D01*
X178230925Y-121729469D01*
X178335575Y-121946647D01*
X178472900Y-122257396D01*
X178588397Y-122544750D01*
X178666500Y-122739887D01*
X178766429Y-122923976D01*
X178895710Y-123071901D01*
X179088305Y-123230229D01*
X179186136Y-123308165D01*
X179334056Y-123450018D01*
X179459379Y-123615184D01*
X179576233Y-123827241D01*
X179698746Y-124109763D01*
X179841047Y-124486326D01*
X179870860Y-124563015D01*
X179975114Y-124789077D01*
X180081833Y-124975965D01*
X180218184Y-125178434D01*
X181133911Y-125192488D01*
X181344053Y-125195508D01*
X181646554Y-125196907D01*
X181875769Y-125189612D01*
X182063325Y-125169555D01*
X182240847Y-125132671D01*
X182439959Y-125074897D01*
X182692289Y-124992165D01*
X182874671Y-124933008D01*
X183201317Y-124833668D01*
X183508395Y-124747483D01*
X183747974Y-124688250D01*
X183794886Y-124677948D01*
X184143339Y-124588636D01*
X184395376Y-124493512D01*
X184574183Y-124381753D01*
X184702950Y-124242537D01*
X184801649Y-124068194D01*
X184824464Y-123880670D01*
X184741008Y-123695144D01*
X184670262Y-123624640D01*
X184543783Y-123553678D01*
X184347483Y-123480074D01*
X184064468Y-123397544D01*
X183677841Y-123299805D01*
X183520055Y-123256630D01*
X183340499Y-123173439D01*
X183265875Y-123059572D01*
X183286642Y-122893351D01*
X183393263Y-122653099D01*
X183436332Y-122571450D01*
X183571438Y-122327835D01*
X183734154Y-122046159D01*
X183898202Y-121772257D01*
X183993547Y-121615283D01*
X184111622Y-121416709D01*
X184192445Y-121275398D01*
X184222410Y-121214749D01*
X184202091Y-121183032D01*
X184109679Y-121077157D01*
X183958210Y-120915738D01*
X183764920Y-120716046D01*
X183547048Y-120495356D01*
X183321833Y-120270942D01*
X183106511Y-120060075D01*
X182918321Y-119880030D01*
X182774501Y-119748079D01*
X182692289Y-119681497D01*
X182665665Y-119667535D01*
X182507272Y-119613361D01*
X182278427Y-119558851D01*
X182019036Y-119513936D01*
X181955113Y-119504492D01*
X181685611Y-119456060D01*
X181446968Y-119400872D01*
X181284578Y-119349118D01*
X181268508Y-119342400D01*
X181076026Y-119278073D01*
X180906571Y-119244371D01*
X180896270Y-119243577D01*
X180809247Y-119247003D01*
X180754961Y-119291118D01*
X180716526Y-119402722D01*
X180677053Y-119608616D01*
X180662703Y-119692085D01*
X180622362Y-119963287D01*
X180614024Y-120145836D01*
X180642352Y-120264532D01*
X180712009Y-120344175D01*
X180827658Y-120409564D01*
X180956591Y-120481950D01*
X181095807Y-120610531D01*
X181135360Y-120736348D01*
X181134932Y-120737012D01*
X181066413Y-120843347D01*
X180989601Y-120891973D01*
X180903498Y-120924699D01*
X180879821Y-120961745D01*
X180943315Y-121079717D01*
X181096676Y-121277841D01*
X181339311Y-121555256D01*
X181422545Y-121648004D01*
X181634708Y-121898213D01*
X181763581Y-122078745D01*
X181792923Y-122147166D01*
X181815097Y-122198873D01*
X181795188Y-122267872D01*
X181728665Y-122303791D01*
X181575860Y-122368241D01*
X181376386Y-122442975D01*
X181242020Y-122496007D01*
X180983042Y-122612715D01*
X180687659Y-122757934D01*
X180397116Y-122911915D01*
X180173032Y-123033982D01*
X179959312Y-123146270D01*
X179805328Y-123222432D01*
X179734533Y-123250482D01*
X179730174Y-123249998D01*
X179654930Y-123199682D01*
X179550911Y-123091846D01*
X179542946Y-123082372D01*
X179430559Y-122950468D01*
X179272575Y-122766923D01*
X179100546Y-122568411D01*
X178918194Y-122343480D01*
X178736552Y-122093429D01*
X178599173Y-121877427D01*
X178510789Y-121736562D01*
X178374704Y-121558021D01*
X178239111Y-121412998D01*
X178126153Y-121324487D01*
X178057974Y-121315480D01*
X178056961Y-121317216D01*
X177962377Y-121317216D01*
X178004558Y-121096756D01*
X178011458Y-121065568D01*
X178101928Y-121065568D01*
X178110058Y-121119121D01*
X178158437Y-121169518D01*
X178192606Y-121176686D01*
X178316250Y-121253794D01*
X178465123Y-121391254D01*
X178608789Y-121558737D01*
X178716808Y-121725913D01*
X178729664Y-121749821D01*
X178841312Y-121921040D01*
X179001761Y-122133055D01*
X179180833Y-122345564D01*
X179227135Y-122397910D01*
X179390123Y-122591722D01*
X179518701Y-122758884D01*
X179588340Y-122867952D01*
X179651198Y-122955319D01*
X179748981Y-123003866D01*
X179820500Y-122982712D01*
X179981646Y-122912509D01*
X180201506Y-122804897D01*
X180454164Y-122672072D01*
X180655923Y-122565991D01*
X180927099Y-122433136D01*
X181162288Y-122328404D01*
X181326332Y-122268082D01*
X181402979Y-122244598D01*
X181537396Y-122190218D01*
X181590602Y-122147166D01*
X181569737Y-122109758D01*
X181481374Y-121995694D01*
X181339721Y-121828277D01*
X181162169Y-121628554D01*
X181030607Y-121481260D01*
X180877286Y-121302047D01*
X180772525Y-121170006D01*
X180733735Y-121106360D01*
X180711128Y-121052292D01*
X180630564Y-120952681D01*
X180579115Y-120904353D01*
X180522706Y-120892009D01*
X180476606Y-120986801D01*
X180461227Y-121118787D01*
X180531474Y-121243080D01*
X180680024Y-121291928D01*
X180776736Y-121324516D01*
X180780756Y-121407307D01*
X180687831Y-121512752D01*
X180630273Y-121553088D01*
X180524590Y-121592266D01*
X180488916Y-121532663D01*
X180485418Y-121514210D01*
X180432414Y-121408017D01*
X180335904Y-121266766D01*
X180325491Y-121252990D01*
X180214660Y-121078161D01*
X180186515Y-120964953D01*
X180244096Y-120924699D01*
X180247891Y-120924679D01*
X180314935Y-120905020D01*
X180282859Y-120856674D01*
X180167320Y-120791805D01*
X179983976Y-120722582D01*
X179858589Y-120676022D01*
X179617571Y-120569879D01*
X179336389Y-120432824D01*
X179053384Y-120282971D01*
X178830760Y-120160246D01*
X178626177Y-120048800D01*
X178484605Y-119973241D01*
X178428002Y-119945422D01*
X178425329Y-119947194D01*
X178394239Y-120018633D01*
X178342915Y-120171722D01*
X178280475Y-120375136D01*
X178216038Y-120597551D01*
X178158722Y-120807644D01*
X178117646Y-120974091D01*
X178101928Y-121065568D01*
X178011458Y-121065568D01*
X178059190Y-120849812D01*
X178141899Y-120541909D01*
X178226190Y-120281806D01*
X178293759Y-120080231D01*
X178381027Y-119774671D01*
X178449436Y-119486385D01*
X178525703Y-119121226D01*
X178592689Y-118820192D01*
X178641590Y-118622115D01*
X178670944Y-118529742D01*
X178679287Y-118545816D01*
X178665156Y-118673082D01*
X178627089Y-118914285D01*
X178563623Y-119272169D01*
X178544576Y-119379995D01*
X178515284Y-119598620D01*
X178517525Y-119732043D01*
X178550719Y-119804219D01*
X178620060Y-119859795D01*
X178795209Y-119970753D01*
X179034250Y-120105531D01*
X179308750Y-120249373D01*
X179590275Y-120387525D01*
X179850392Y-120505233D01*
X180060667Y-120587743D01*
X180458683Y-120723509D01*
X180459984Y-120520661D01*
X180641744Y-120520661D01*
X180672530Y-120618675D01*
X180738329Y-120691131D01*
X180873599Y-120739048D01*
X181009157Y-120737012D01*
X180864665Y-120616638D01*
X180805976Y-120570476D01*
X180690180Y-120504553D01*
X180641744Y-120520661D01*
X180459984Y-120520661D01*
X180461670Y-120257959D01*
X180468705Y-119997806D01*
X180488670Y-119652343D01*
X180516498Y-119345900D01*
X180538319Y-118971085D01*
X180499965Y-118580839D01*
X180461747Y-118392531D01*
X180408637Y-118110194D01*
X180360289Y-117833855D01*
X180314876Y-117594572D01*
X180238142Y-117260433D01*
X180145257Y-116906464D01*
X180042581Y-116552508D01*
X179936474Y-116218411D01*
X179833298Y-115924015D01*
X179739413Y-115689163D01*
X179661180Y-115533700D01*
X179604960Y-115477470D01*
X179583466Y-115482496D01*
X179481230Y-115547646D01*
X179353818Y-115664016D01*
X179263034Y-115770558D01*
X179203338Y-115888643D01*
X179171093Y-116048870D01*
X179153486Y-116291366D01*
X179149682Y-116522579D01*
X179161162Y-116853171D01*
X179187890Y-117145301D01*
X179189003Y-117153566D01*
X179211248Y-117357842D01*
X179217313Y-117503123D01*
X179205850Y-117558434D01*
X179199500Y-117556823D01*
X179154859Y-117483075D01*
X179104542Y-117318914D01*
X179054599Y-117091266D01*
X179011079Y-116827058D01*
X178980030Y-116553217D01*
X178970540Y-116181639D01*
X179019151Y-115895586D01*
X179134122Y-115670035D01*
X179323659Y-115479343D01*
X179476419Y-115367758D01*
X179632538Y-115298104D01*
X179751732Y-115326565D01*
X179854399Y-115460431D01*
X179960942Y-115706988D01*
X180039579Y-115919982D01*
X180145647Y-116229240D01*
X180240494Y-116540625D01*
X180328912Y-116873974D01*
X180415697Y-117249122D01*
X180505642Y-117685907D01*
X180603541Y-118204165D01*
X180714188Y-118823732D01*
X180758747Y-118958398D01*
X180827843Y-118987395D01*
X180917757Y-118990476D01*
X181050116Y-119048084D01*
X181089912Y-119071348D01*
X181304013Y-119163509D01*
X181574472Y-119248099D01*
X181849185Y-119310491D01*
X182076049Y-119336060D01*
X182107095Y-119336781D01*
X182477478Y-119401007D01*
X182839209Y-119571234D01*
X183200627Y-119852565D01*
X183570073Y-120250103D01*
X183618614Y-120307854D01*
X183822028Y-120529927D01*
X184027519Y-120728804D01*
X184197207Y-120867209D01*
X184325015Y-120962153D01*
X184417668Y-121070086D01*
X184430527Y-121188294D01*
X184364536Y-121345083D01*
X184220642Y-121568759D01*
X184156631Y-121668129D01*
X184029542Y-121880749D01*
X183880683Y-122142076D01*
X183730592Y-122416578D01*
X183652241Y-122564891D01*
X183539359Y-122791721D01*
X183479691Y-122940061D01*
X183466852Y-123027639D01*
X183494457Y-123072183D01*
X183538264Y-123095206D01*
X183659484Y-123127135D01*
X183663352Y-123127192D01*
X183879451Y-123152980D01*
X184140972Y-123215120D01*
X184406253Y-123300275D01*
X184633632Y-123395110D01*
X184781449Y-123486286D01*
X184834675Y-123539226D01*
X184970976Y-123769444D01*
X184980909Y-123880670D01*
X184993585Y-124022615D01*
G37*
G36*
X171306421Y-84627121D02*
G01*
X171051854Y-84949631D01*
X170833117Y-85278961D01*
X170666842Y-85598053D01*
X170637329Y-85659501D01*
X170568399Y-85768783D01*
X170512145Y-85857968D01*
X170410273Y-85971647D01*
X170376193Y-86009677D01*
X170356174Y-86025559D01*
X170166579Y-86135351D01*
X169917720Y-86238136D01*
X169663622Y-86314236D01*
X169458313Y-86343976D01*
X169367639Y-86371833D01*
X169208572Y-86457859D01*
X169025687Y-86581785D01*
X168865322Y-86694772D01*
X168690806Y-86803143D01*
X168570941Y-86860803D01*
X168534522Y-86873152D01*
X168472512Y-86919120D01*
X168455235Y-87012260D01*
X168471634Y-87189138D01*
X168538099Y-87443478D01*
X168695072Y-87674023D01*
X168754962Y-87731073D01*
X168976303Y-87895035D01*
X169259732Y-88063877D01*
X169565874Y-88217207D01*
X169855352Y-88334636D01*
X170088792Y-88395772D01*
X170152507Y-88404646D01*
X170346063Y-88433684D01*
X170484337Y-88457327D01*
X170513485Y-88458820D01*
X170629458Y-88390639D01*
X170749660Y-88212926D01*
X170868622Y-87935473D01*
X170980879Y-87568072D01*
X171029384Y-87412322D01*
X171113790Y-87205721D01*
X171208482Y-87020657D01*
X171299825Y-86880278D01*
X171374183Y-86807733D01*
X171417919Y-86826168D01*
X171420010Y-86839390D01*
X171393288Y-86947327D01*
X171320493Y-87093621D01*
X171259499Y-87216779D01*
X171175212Y-87438907D01*
X171104375Y-87678886D01*
X171052706Y-87857947D01*
X170956346Y-88122609D01*
X170856627Y-88336838D01*
X170806140Y-88431934D01*
X170759688Y-88561793D01*
X170791899Y-88616948D01*
X170905421Y-88612349D01*
X170924374Y-88623020D01*
X170905070Y-88658890D01*
X170888269Y-88690108D01*
X170869698Y-88709679D01*
X170701889Y-88799687D01*
X170418818Y-88863677D01*
X170018983Y-88901894D01*
X169500880Y-88914578D01*
X168727050Y-88914578D01*
X169053646Y-89325154D01*
X169200906Y-89505874D01*
X169370357Y-89698246D01*
X169555546Y-89887567D01*
X169782882Y-90100601D01*
X170078772Y-90364111D01*
X170130568Y-90411937D01*
X170223457Y-90526051D01*
X170220051Y-90589339D01*
X170199734Y-90592988D01*
X170094984Y-90547100D01*
X169933392Y-90431445D01*
X169732698Y-90262265D01*
X169510642Y-90055799D01*
X169284964Y-89828287D01*
X169073402Y-89595969D01*
X168893697Y-89375087D01*
X168755050Y-89191543D01*
X168630920Y-89044990D01*
X168517387Y-88957926D01*
X168381234Y-88914012D01*
X168189245Y-88896906D01*
X167908203Y-88890268D01*
X167706468Y-88869019D01*
X167448646Y-88793814D01*
X167132640Y-88653486D01*
X166762468Y-88436378D01*
X166432255Y-88154916D01*
X166143368Y-87797470D01*
X165873564Y-87340847D01*
X165862675Y-87320132D01*
X165696063Y-87031633D01*
X165500291Y-86730460D01*
X165315465Y-86478577D01*
X165069222Y-86155900D01*
X164864546Y-85838359D01*
X164728112Y-85550942D01*
X164645880Y-85268271D01*
X164617190Y-85085884D01*
X164620661Y-84925551D01*
X164771717Y-84925551D01*
X164786746Y-85055710D01*
X164824424Y-85229275D01*
X164896588Y-85479433D01*
X165020036Y-85751247D01*
X165204258Y-86041639D01*
X165465904Y-86380485D01*
X165488085Y-86407901D01*
X165685343Y-86677555D01*
X165876561Y-86977225D01*
X166023194Y-87246978D01*
X166205447Y-87572296D01*
X166507931Y-87964430D01*
X166856494Y-88287098D01*
X167226034Y-88513864D01*
X167340782Y-88565531D01*
X167527498Y-88640296D01*
X167635426Y-88660086D01*
X167685113Y-88626003D01*
X167697108Y-88539149D01*
X167697746Y-88519411D01*
X167706343Y-88460858D01*
X167888035Y-88460858D01*
X167930435Y-88582957D01*
X168073471Y-88663772D01*
X168223802Y-88712923D01*
X168324900Y-88728384D01*
X168341806Y-88684898D01*
X168276999Y-88570328D01*
X168132959Y-88372538D01*
X168109894Y-88342050D01*
X168020713Y-88237050D01*
X167970280Y-88220392D01*
X167934009Y-88280731D01*
X167888035Y-88460858D01*
X167706343Y-88460858D01*
X167720878Y-88361857D01*
X167766951Y-88175426D01*
X167793333Y-88074497D01*
X167800531Y-87910437D01*
X167741281Y-87739892D01*
X167691919Y-87617653D01*
X167611066Y-87299234D01*
X167567546Y-86940210D01*
X167563750Y-86650000D01*
X167701573Y-86650000D01*
X167710128Y-86894277D01*
X167732526Y-87128631D01*
X167764624Y-87304746D01*
X167802405Y-87401240D01*
X167841851Y-87396729D01*
X167852735Y-87359301D01*
X167863436Y-87213359D01*
X167861902Y-86993959D01*
X167847850Y-86732413D01*
X167827775Y-86523740D01*
X167794600Y-86325436D01*
X167760069Y-86235910D01*
X167729506Y-86258163D01*
X167708233Y-86395193D01*
X167701573Y-86650000D01*
X167563750Y-86650000D01*
X167562826Y-86579365D01*
X167598376Y-86255484D01*
X167675665Y-86007349D01*
X167681336Y-85984905D01*
X167965515Y-85984905D01*
X167976629Y-86168764D01*
X168004090Y-86444845D01*
X168014402Y-86556376D01*
X168033884Y-86889314D01*
X168039143Y-87213359D01*
X168039168Y-87214929D01*
X168028887Y-87476265D01*
X167991140Y-87904699D01*
X167995273Y-87910437D01*
X168287859Y-88316682D01*
X168553056Y-88684898D01*
X168584578Y-88728665D01*
X169395542Y-88729814D01*
X169716348Y-88725869D01*
X169982750Y-88711870D01*
X170148995Y-88689084D01*
X170209531Y-88658890D01*
X170158805Y-88622668D01*
X169991266Y-88581798D01*
X169906460Y-88561174D01*
X169644468Y-88463459D01*
X169341776Y-88316729D01*
X169036397Y-88142068D01*
X168766344Y-87960561D01*
X168569631Y-87793291D01*
X168483346Y-87700123D01*
X168375633Y-87551324D01*
X168317208Y-87389709D01*
X168283273Y-87160482D01*
X168243128Y-86783495D01*
X168456583Y-86713048D01*
X168474067Y-86706740D01*
X168635520Y-86624127D01*
X168842863Y-86490477D01*
X169055742Y-86331485D01*
X169082022Y-86310380D01*
X169296086Y-86144234D01*
X169387372Y-86077319D01*
X169732145Y-86077319D01*
X169778072Y-86092378D01*
X169830535Y-86088221D01*
X169968379Y-86045162D01*
X170022892Y-85971647D01*
X170013984Y-85935014D01*
X169941373Y-85925350D01*
X169805072Y-86005403D01*
X169789089Y-86017703D01*
X169732145Y-86077319D01*
X169387372Y-86077319D01*
X169496859Y-85997062D01*
X169643977Y-85898572D01*
X169677043Y-85878687D01*
X170172862Y-85878687D01*
X170191518Y-85915542D01*
X170236758Y-85900884D01*
X170328916Y-85823735D01*
X170362559Y-85768783D01*
X170343904Y-85731928D01*
X170298664Y-85746586D01*
X170206506Y-85823735D01*
X170172862Y-85878687D01*
X169677043Y-85878687D01*
X169846508Y-85776775D01*
X169674579Y-85595875D01*
X169482818Y-85423614D01*
X169214812Y-85285160D01*
X168907988Y-85242289D01*
X168686443Y-85267153D01*
X168373573Y-85401381D01*
X168100724Y-85649183D01*
X168066108Y-85691459D01*
X168006669Y-85775773D01*
X167974333Y-85863748D01*
X167965515Y-85984905D01*
X167681336Y-85984905D01*
X167693932Y-85935052D01*
X167710556Y-85749403D01*
X167716524Y-85487656D01*
X167710714Y-85176375D01*
X167701969Y-84939363D01*
X167880723Y-84939363D01*
X167880723Y-85623762D01*
X168121210Y-85406496D01*
X168125216Y-85402888D01*
X168448758Y-85180499D01*
X168785371Y-85078658D01*
X169128850Y-85097045D01*
X169472990Y-85235344D01*
X169811588Y-85493236D01*
X169856757Y-85534603D01*
X169979292Y-85630855D01*
X170056408Y-85668018D01*
X170081122Y-85664913D01*
X170223075Y-85611258D01*
X170387453Y-85514396D01*
X170528960Y-85404042D01*
X170602301Y-85309909D01*
X170609640Y-85291373D01*
X170678696Y-85168993D01*
X170796814Y-84989969D01*
X170943300Y-84786089D01*
X170992588Y-84719928D01*
X171122458Y-84543123D01*
X171212989Y-84416099D01*
X171246988Y-84362825D01*
X171204319Y-84314701D01*
X171081199Y-84223556D01*
X170906620Y-84109017D01*
X170709850Y-83988907D01*
X170520154Y-83881048D01*
X170366800Y-83803262D01*
X170279053Y-83773373D01*
X170195996Y-83786855D01*
X170020888Y-83841721D01*
X169818696Y-83924425D01*
X169625864Y-84009525D01*
X169312393Y-84125938D01*
X169058577Y-84180672D01*
X168836834Y-84178304D01*
X168619582Y-84123412D01*
X168497336Y-84082843D01*
X168231060Y-84025271D01*
X168049522Y-84043127D01*
X167944081Y-84136579D01*
X167922921Y-84215602D01*
X167901081Y-84399800D01*
X167886213Y-84651211D01*
X167880723Y-84939363D01*
X167701969Y-84939363D01*
X167684570Y-84467810D01*
X167394960Y-84542934D01*
X167266890Y-84565947D01*
X167026901Y-84593647D01*
X166713078Y-84620460D01*
X166351432Y-84644203D01*
X165967978Y-84662693D01*
X165949800Y-84663406D01*
X165531699Y-84680397D01*
X165221172Y-84698719D01*
X165004064Y-84725382D01*
X164866222Y-84767400D01*
X164793491Y-84831785D01*
X164771717Y-84925551D01*
X164620661Y-84925551D01*
X164623453Y-84796606D01*
X164708589Y-84591347D01*
X164731126Y-84578048D01*
X164867159Y-84549297D01*
X165116190Y-84522471D01*
X165471714Y-84498180D01*
X165927228Y-84477034D01*
X166226989Y-84464293D01*
X166698351Y-84436819D01*
X167065565Y-84402742D01*
X167340490Y-84359966D01*
X167534982Y-84306396D01*
X167660900Y-84239938D01*
X167730100Y-84158497D01*
X167757746Y-84106347D01*
X167898671Y-83927257D01*
X168077467Y-83841416D01*
X168312663Y-83844092D01*
X168622787Y-83930555D01*
X168783038Y-83977900D01*
X168975346Y-83997461D01*
X169185082Y-83968270D01*
X169441444Y-83885614D01*
X169773628Y-83744778D01*
X169990335Y-83648634D01*
X170154998Y-83585196D01*
X170267946Y-83562648D01*
X170360412Y-83575210D01*
X170463625Y-83617102D01*
X170592773Y-83686323D01*
X170794148Y-83811352D01*
X171002169Y-83954255D01*
X171002485Y-83954484D01*
X171177517Y-84077723D01*
X171313027Y-84166015D01*
X171379701Y-84200258D01*
X171380760Y-84200218D01*
X171447766Y-84160991D01*
X171578296Y-84062346D01*
X171745134Y-83924796D01*
X171773929Y-83900443D01*
X172066766Y-83686145D01*
X172325036Y-83571354D01*
X172571969Y-83549412D01*
X172830795Y-83613663D01*
X172905124Y-83641159D01*
X173167185Y-83727317D01*
X173419759Y-83798146D01*
X173558612Y-83838357D01*
X173714910Y-83919750D01*
X173805629Y-84037644D01*
X173885996Y-84151954D01*
X173972704Y-84201807D01*
X174000051Y-84204573D01*
X174134455Y-84239256D01*
X174307708Y-84300947D01*
X174312098Y-84302720D01*
X174543083Y-84447427D01*
X174713621Y-84652697D01*
X174804716Y-84886829D01*
X174797371Y-85118122D01*
X174717565Y-85302215D01*
X174601632Y-85468876D01*
X174464677Y-85614658D01*
X174628837Y-85749799D01*
X174657738Y-85774566D01*
X174824064Y-85985231D01*
X174876697Y-86203066D01*
X174820298Y-86408689D01*
X174659524Y-86582716D01*
X174399036Y-86705762D01*
X174316309Y-86730251D01*
X174150206Y-86782935D01*
X174074342Y-86820613D01*
X174068483Y-86857568D01*
X174112394Y-86908080D01*
X174119013Y-86915614D01*
X174165702Y-87032516D01*
X174184819Y-87199466D01*
X174184921Y-87210608D01*
X174205004Y-87358326D01*
X174210017Y-87395202D01*
X174265952Y-87539153D01*
X174356758Y-87703759D01*
X174470595Y-87961528D01*
X174586281Y-88264542D01*
X174689294Y-88574568D01*
X174765114Y-88853373D01*
X174790157Y-88971828D01*
X174846818Y-89425185D01*
X174844918Y-89918446D01*
X174784867Y-90485626D01*
X174773591Y-90568017D01*
X174749903Y-90792341D01*
X174742791Y-90958135D01*
X174754006Y-91034287D01*
X174756360Y-91036485D01*
X174802127Y-91049152D01*
X174886218Y-91028945D01*
X175021740Y-90969481D01*
X175221798Y-90864377D01*
X175499500Y-90707247D01*
X175867952Y-90491709D01*
X176074972Y-90369066D01*
X176477376Y-90125748D01*
X176820780Y-89906540D01*
X177119797Y-89697807D01*
X177389039Y-89485912D01*
X177643119Y-89257216D01*
X177896650Y-88998084D01*
X178164243Y-88694880D01*
X178460511Y-88333965D01*
X178800067Y-87901703D01*
X179197524Y-87384458D01*
X179632653Y-86843727D01*
X180121858Y-86298803D01*
X180605707Y-85822915D01*
X181069538Y-85430392D01*
X181498687Y-85135562D01*
X181755802Y-84990081D01*
X182204855Y-84766275D01*
X182637686Y-84586137D01*
X183027597Y-84460297D01*
X183347893Y-84399381D01*
X183573862Y-84394236D01*
X183854931Y-84410271D01*
X184153418Y-84443044D01*
X184434369Y-84487862D01*
X184662832Y-84540031D01*
X184803855Y-84594859D01*
X184936514Y-84648841D01*
X185115656Y-84677799D01*
X185250931Y-84698833D01*
X185463708Y-84757752D01*
X185693262Y-84840463D01*
X185784479Y-84876512D01*
X185966307Y-84935902D01*
X186085230Y-84944853D01*
X186141919Y-84893884D01*
X186137046Y-84773515D01*
X186071281Y-84574266D01*
X185945295Y-84286657D01*
X185759761Y-83901209D01*
X185741804Y-83864622D01*
X185609134Y-83586093D01*
X185523155Y-83378854D01*
X185473981Y-83209874D01*
X185451727Y-83046119D01*
X185446817Y-82865977D01*
X185637662Y-82865977D01*
X185640036Y-83038664D01*
X185661915Y-83188794D01*
X185711979Y-83349440D01*
X185798913Y-83553676D01*
X185931398Y-83834578D01*
X186100433Y-84214738D01*
X186209630Y-84522993D01*
X186252992Y-84743553D01*
X186268477Y-84893056D01*
X186315570Y-85004403D01*
X186411497Y-85064878D01*
X186495969Y-85086289D01*
X186688405Y-85110470D01*
X186911076Y-85119879D01*
X187265990Y-85119879D01*
X187133112Y-84606586D01*
X187069116Y-84380593D01*
X186974432Y-84134343D01*
X186846082Y-83905905D01*
X186658111Y-83642610D01*
X186629610Y-83604631D01*
X186430365Y-83320812D01*
X186230159Y-83009980D01*
X186068377Y-82732891D01*
X186023811Y-82652563D01*
X185904749Y-82459036D01*
X185804374Y-82324367D01*
X185740745Y-82273855D01*
X185734927Y-82274328D01*
X185690058Y-82326828D01*
X185660076Y-82475342D01*
X185642184Y-82732891D01*
X185637662Y-82865977D01*
X185446817Y-82865977D01*
X185446506Y-82854559D01*
X185457115Y-82569076D01*
X185505086Y-82285317D01*
X185592064Y-82115873D01*
X185718429Y-82059638D01*
X185765518Y-82062924D01*
X185871935Y-82104715D01*
X185977029Y-82208456D01*
X186095781Y-82391622D01*
X186243173Y-82671687D01*
X186278441Y-82739468D01*
X186428082Y-82996244D01*
X186612550Y-83281923D01*
X186799888Y-83546294D01*
X186942051Y-83743317D01*
X187091835Y-83987252D01*
X187204715Y-84236264D01*
X187297481Y-84529216D01*
X187386926Y-84904971D01*
X187390358Y-84920597D01*
X187437755Y-85073478D01*
X187485776Y-85119879D01*
X187515054Y-85148170D01*
X187662045Y-85185203D01*
X187900068Y-85252726D01*
X188148538Y-85417565D01*
X188364057Y-85687511D01*
X188464610Y-85845764D01*
X188614720Y-86079882D01*
X188764486Y-86311677D01*
X189001811Y-86677210D01*
X188989756Y-87443966D01*
X188988356Y-87730271D01*
X188993726Y-88092975D01*
X189005692Y-88426818D01*
X189006706Y-88441944D01*
X189023003Y-88685060D01*
X189025713Y-88713685D01*
X189043812Y-88944272D01*
X189042798Y-89079603D01*
X189020195Y-89143403D01*
X188973529Y-89159398D01*
X188942412Y-89147019D01*
X188830689Y-89044748D01*
X188654854Y-88839653D01*
X188415425Y-88532390D01*
X188112922Y-88123613D01*
X187747863Y-87613976D01*
X187741529Y-87605034D01*
X187588083Y-87398209D01*
X187474766Y-87275232D01*
X187378812Y-87216108D01*
X187277455Y-87200843D01*
X187212700Y-87209388D01*
X187024549Y-87295524D01*
X186820199Y-87453839D01*
X186629252Y-87658888D01*
X186481312Y-87885223D01*
X186475116Y-87897182D01*
X186359231Y-88060891D01*
X186244537Y-88118916D01*
X186175571Y-88128522D01*
X186089157Y-88180120D01*
X186086375Y-88183971D01*
X185997399Y-88224606D01*
X185847273Y-88241325D01*
X185695078Y-88263858D01*
X185607987Y-88333132D01*
X185596254Y-88359116D01*
X185514507Y-88427903D01*
X185411565Y-88406853D01*
X185310040Y-88314861D01*
X185232544Y-88170820D01*
X185201687Y-87993626D01*
X185184879Y-87924933D01*
X185108365Y-87874096D01*
X185063542Y-87861844D01*
X185006939Y-87793978D01*
X185386257Y-87793978D01*
X185392705Y-87972332D01*
X185414498Y-88133977D01*
X185446506Y-88210723D01*
X185446809Y-88210908D01*
X185490510Y-88186907D01*
X185507711Y-88068971D01*
X185518546Y-87995235D01*
X185539587Y-87924149D01*
X185706805Y-87924149D01*
X185713111Y-88009714D01*
X185771026Y-88048553D01*
X185878963Y-88057711D01*
X186029647Y-88045271D01*
X186192112Y-87980933D01*
X186341949Y-87843368D01*
X186507877Y-87612232D01*
X186614267Y-87452817D01*
X186775237Y-87250489D01*
X186932757Y-87123972D01*
X187118078Y-87051255D01*
X187362449Y-87010329D01*
X187535480Y-86988711D01*
X187772373Y-86953796D01*
X187948799Y-86921697D01*
X188048907Y-86907516D01*
X188131302Y-86926454D01*
X188124273Y-86979100D01*
X188036022Y-87045208D01*
X187874749Y-87104529D01*
X187834250Y-87115418D01*
X187702868Y-87162648D01*
X187649880Y-87202629D01*
X187652245Y-87209900D01*
X187703273Y-87293758D01*
X187810769Y-87451423D01*
X187961341Y-87663599D01*
X188141594Y-87910992D01*
X188174941Y-87956228D01*
X188364376Y-88213358D01*
X188532930Y-88442389D01*
X188663339Y-88619854D01*
X188738341Y-88722283D01*
X188739099Y-88723324D01*
X188776183Y-88768531D01*
X188802816Y-88777324D01*
X188820308Y-88735377D01*
X188829968Y-88628359D01*
X188833107Y-88441944D01*
X188831033Y-88161803D01*
X188825057Y-87773608D01*
X188821949Y-87598473D01*
X188813524Y-87244823D01*
X188802319Y-86986719D01*
X188786224Y-86805053D01*
X188763131Y-86680715D01*
X188730929Y-86594597D01*
X188687509Y-86527590D01*
X188641698Y-86464014D01*
X188528273Y-86285349D01*
X188415108Y-86085901D01*
X188364970Y-85998489D01*
X188211995Y-85775188D01*
X188055073Y-85590358D01*
X187978781Y-85522191D01*
X187804889Y-85418719D01*
X187580458Y-85351698D01*
X187282037Y-85315381D01*
X186886175Y-85304026D01*
X186581507Y-85303494D01*
X186821830Y-85502410D01*
X186858661Y-85532031D01*
X187094540Y-85671210D01*
X187366565Y-85731928D01*
X187473698Y-85747311D01*
X187625638Y-85789321D01*
X187696131Y-85839036D01*
X187695799Y-85877554D01*
X187626350Y-85915542D01*
X187618525Y-85915678D01*
X187561719Y-85947304D01*
X187582009Y-86053253D01*
X187591726Y-86076470D01*
X187675718Y-86163236D01*
X187685165Y-86172995D01*
X187865976Y-86221566D01*
X187907219Y-86228105D01*
X188052928Y-86272078D01*
X188124533Y-86328675D01*
X188125861Y-86334351D01*
X188097407Y-86368021D01*
X187991411Y-86389858D01*
X187792973Y-86401648D01*
X187487197Y-86405181D01*
X187283479Y-86405564D01*
X187052904Y-86410843D01*
X186892137Y-86428029D01*
X186769372Y-86464167D01*
X186652803Y-86526300D01*
X186510626Y-86621474D01*
X186483084Y-86640653D01*
X186324718Y-86765766D01*
X186199150Y-86905022D01*
X186080767Y-87091774D01*
X185943951Y-87359381D01*
X185855365Y-87544657D01*
X185753694Y-87774812D01*
X185706805Y-87924149D01*
X185539587Y-87924149D01*
X185572947Y-87811446D01*
X185662790Y-87572215D01*
X185776422Y-87310437D01*
X185835859Y-87184206D01*
X185961449Y-86939244D01*
X186074020Y-86765575D01*
X186195427Y-86632546D01*
X186347529Y-86509503D01*
X186451959Y-86439194D01*
X186692183Y-86313860D01*
X186905083Y-86246723D01*
X187022176Y-86225935D01*
X187130180Y-86187957D01*
X187142370Y-86127356D01*
X187075041Y-86022651D01*
X187002798Y-85963377D01*
X186950163Y-85949549D01*
X187263330Y-85949549D01*
X187293787Y-86068554D01*
X187328330Y-86127356D01*
X187354659Y-86172175D01*
X187414885Y-86221566D01*
X187445571Y-86216502D01*
X187460088Y-86163236D01*
X187402907Y-86033928D01*
X187371449Y-85982549D01*
X187298637Y-85917891D01*
X187263330Y-85949549D01*
X186950163Y-85949549D01*
X186861656Y-85926297D01*
X186629649Y-85915542D01*
X186579843Y-85915679D01*
X186396358Y-85924098D01*
X186258361Y-85958406D01*
X186135723Y-86036311D01*
X185998315Y-86175520D01*
X185816007Y-86393742D01*
X185718723Y-86523705D01*
X185530239Y-86882235D01*
X185421765Y-87298010D01*
X185386257Y-87793978D01*
X185006939Y-87793978D01*
X184977696Y-87758916D01*
X184917834Y-87574001D01*
X184894827Y-87334570D01*
X184894497Y-87302666D01*
X184872946Y-87053097D01*
X184821466Y-86891239D01*
X184744998Y-86833614D01*
X184670787Y-86805371D01*
X184562929Y-86715506D01*
X184507731Y-86644665D01*
X184486649Y-86565971D01*
X184503453Y-86446231D01*
X184557721Y-86247633D01*
X184592357Y-86123861D01*
X184624389Y-85969270D01*
X184617406Y-85876521D01*
X184572583Y-85811051D01*
X184506205Y-85766362D01*
X184425969Y-85785721D01*
X184297651Y-85882521D01*
X184279288Y-85898429D01*
X184108062Y-86093061D01*
X183973877Y-86323849D01*
X183895191Y-86551985D01*
X183890462Y-86738659D01*
X183922014Y-86807006D01*
X184027403Y-86962249D01*
X184184986Y-87159396D01*
X184374433Y-87371850D01*
X184512107Y-87524651D01*
X184816611Y-87916301D01*
X185043514Y-88291934D01*
X185088704Y-88375793D01*
X185289918Y-88682107D01*
X185555562Y-89020256D01*
X185859035Y-89359899D01*
X186173732Y-89670698D01*
X186473053Y-89922312D01*
X186554006Y-89990271D01*
X186648990Y-90094492D01*
X186759544Y-90215798D01*
X186966411Y-90504408D01*
X187157489Y-90825727D01*
X187315661Y-91149377D01*
X187423808Y-91444986D01*
X187464812Y-91682175D01*
X187466016Y-91721149D01*
X187492563Y-91811445D01*
X187567233Y-91809823D01*
X187572312Y-91807930D01*
X187625534Y-91804537D01*
X187640985Y-91859151D01*
X187618162Y-91991081D01*
X187556563Y-92219638D01*
X187550650Y-92270254D01*
X187585286Y-92399121D01*
X187636074Y-92443270D01*
X187719167Y-92425494D01*
X187865803Y-92337916D01*
X187961279Y-92263429D01*
X188130784Y-92061876D01*
X188299023Y-91762329D01*
X188372856Y-91606482D01*
X188465806Y-91379442D01*
X188498041Y-91229397D01*
X188471965Y-91138559D01*
X188389982Y-91089141D01*
X188345775Y-91067939D01*
X188216218Y-90968892D01*
X188065254Y-90823201D01*
X187921720Y-90662146D01*
X187814453Y-90517011D01*
X187772289Y-90419076D01*
X187772289Y-90418824D01*
X187805656Y-90311023D01*
X187878396Y-90301291D01*
X187949859Y-90395112D01*
X187952268Y-90401135D01*
X188070536Y-90578952D01*
X188282196Y-90783336D01*
X188567952Y-90995542D01*
X188589037Y-91009704D01*
X188784555Y-91151945D01*
X188931252Y-91270964D01*
X188962248Y-91296112D01*
X189142326Y-91454578D01*
X189044476Y-91297151D01*
X188964241Y-91173925D01*
X188837831Y-90986920D01*
X188696083Y-90782065D01*
X188634757Y-90693721D01*
X188512723Y-90506476D01*
X188457884Y-90393153D01*
X188464115Y-90337256D01*
X188525286Y-90322289D01*
X188570572Y-90352032D01*
X188671661Y-90464686D01*
X188804782Y-90637991D01*
X188952477Y-90847043D01*
X189097288Y-91066933D01*
X189221758Y-91272756D01*
X189308429Y-91439603D01*
X189420088Y-91582019D01*
X189623016Y-91672722D01*
X189764092Y-91707619D01*
X189923948Y-91725813D01*
X189983143Y-91681985D01*
X189948394Y-91566074D01*
X189826417Y-91368017D01*
X189706133Y-91182723D01*
X189537134Y-90907955D01*
X189386321Y-90648860D01*
X189303951Y-90497337D01*
X189237608Y-90353608D01*
X189227968Y-90281096D01*
X189269386Y-90261084D01*
X189281524Y-90262355D01*
X189378405Y-90325420D01*
X189473570Y-90454251D01*
X189478571Y-90463418D01*
X189569159Y-90616813D01*
X189700106Y-90825249D01*
X189844861Y-91046383D01*
X189887237Y-91110508D01*
X190083378Y-91443197D01*
X190189295Y-91706890D01*
X190206200Y-91911979D01*
X190174395Y-91982357D01*
X190135304Y-92068859D01*
X189977815Y-92187923D01*
X189912310Y-92218777D01*
X189640785Y-92278778D01*
X189395932Y-92222386D01*
X189187394Y-92053757D01*
X189024814Y-91777049D01*
X188999637Y-91716249D01*
X189194792Y-91716249D01*
X189201585Y-91782709D01*
X189300933Y-91928438D01*
X189410948Y-92041857D01*
X189588176Y-92115478D01*
X189807349Y-92082167D01*
X189898459Y-92045461D01*
X189967294Y-91982357D01*
X189916028Y-91926829D01*
X189746145Y-91883686D01*
X189734590Y-91881826D01*
X189528097Y-91831101D01*
X189348313Y-91761349D01*
X189280409Y-91729570D01*
X189194792Y-91716249D01*
X188999637Y-91716249D01*
X188916624Y-91515783D01*
X188862897Y-91758570D01*
X188807366Y-91971600D01*
X188700912Y-92290301D01*
X188572137Y-92609852D01*
X188434367Y-92900436D01*
X188300925Y-93132232D01*
X188185134Y-93275422D01*
X188140221Y-93312738D01*
X188005881Y-93406276D01*
X187914892Y-93443735D01*
X187872820Y-93424331D01*
X187776848Y-93314545D01*
X187662032Y-93129468D01*
X187543076Y-92893933D01*
X187453562Y-92678255D01*
X187681432Y-92678255D01*
X187702342Y-92789333D01*
X187768574Y-92946814D01*
X187810026Y-93023558D01*
X187891453Y-93149275D01*
X187945449Y-93198916D01*
X187947332Y-93198892D01*
X188054910Y-93141177D01*
X188179300Y-92988633D01*
X188309472Y-92765109D01*
X188434395Y-92494454D01*
X188543037Y-92200517D01*
X188624366Y-91907147D01*
X188667352Y-91638193D01*
X188697076Y-91270964D01*
X188503755Y-91715804D01*
X188495499Y-91734696D01*
X188357246Y-92011905D01*
X188210993Y-92214657D01*
X188026060Y-92385995D01*
X187899273Y-92486601D01*
X187763589Y-92594624D01*
X187690824Y-92653030D01*
X187681432Y-92678255D01*
X187453562Y-92678255D01*
X187434684Y-92632771D01*
X187393052Y-92527759D01*
X187328680Y-92394254D01*
X187285731Y-92342048D01*
X187270181Y-92306580D01*
X187262484Y-92178850D01*
X187269536Y-91990120D01*
X187271012Y-91967238D01*
X187239682Y-91544338D01*
X187096626Y-91099730D01*
X186839399Y-90625660D01*
X186828390Y-90608515D01*
X186674339Y-90377944D01*
X186562436Y-90241955D01*
X186475058Y-90189567D01*
X186394582Y-90209800D01*
X186303386Y-90291673D01*
X186285751Y-90310891D01*
X186235720Y-90377429D01*
X186199913Y-90460498D01*
X186175013Y-90581269D01*
X186157701Y-90760912D01*
X186144658Y-91020599D01*
X186132567Y-91381502D01*
X186126777Y-91601635D01*
X186123661Y-91967281D01*
X186132979Y-92244618D01*
X186155830Y-92456149D01*
X186193314Y-92624379D01*
X186247809Y-92766643D01*
X186365134Y-93006891D01*
X186522617Y-93293499D01*
X186704332Y-93600548D01*
X186894352Y-93902119D01*
X187076750Y-94172294D01*
X187235598Y-94385153D01*
X187354968Y-94514778D01*
X187552899Y-94640335D01*
X187840424Y-94748131D01*
X188122820Y-94789900D01*
X188179404Y-94784791D01*
X188371193Y-94737912D01*
X188618797Y-94653575D01*
X188885863Y-94545966D01*
X189136039Y-94429270D01*
X189332970Y-94317675D01*
X189579277Y-94137380D01*
X189875494Y-93877697D01*
X190154461Y-93591129D01*
X190399852Y-93297486D01*
X190595343Y-93016579D01*
X190724609Y-92768217D01*
X190771325Y-92572212D01*
X190765546Y-92474299D01*
X190686725Y-92147278D01*
X190521750Y-91764475D01*
X190278476Y-91340156D01*
X189964758Y-90888589D01*
X189588453Y-90424040D01*
X189477559Y-90289214D01*
X189346951Y-90089308D01*
X189313031Y-89955033D01*
X189326257Y-89921161D01*
X189369989Y-89923870D01*
X189453392Y-89994049D01*
X189587764Y-90141819D01*
X189784405Y-90377303D01*
X190044483Y-90698736D01*
X190246345Y-90960568D01*
X190400950Y-91181426D01*
X190525150Y-91387127D01*
X190635793Y-91603488D01*
X190749730Y-91856325D01*
X190823538Y-92035817D01*
X190922623Y-92352347D01*
X190947904Y-92613259D01*
X190900067Y-92846451D01*
X190779798Y-93079824D01*
X190563642Y-93391940D01*
X190108071Y-93915231D01*
X189590758Y-94343302D01*
X188996386Y-94689986D01*
X188895496Y-94738570D01*
X188655641Y-94844984D01*
X188467041Y-94906370D01*
X188288372Y-94933930D01*
X188078313Y-94938868D01*
X187929753Y-94933942D01*
X187684267Y-94901441D01*
X187474457Y-94827168D01*
X187282410Y-94697494D01*
X187090216Y-94498792D01*
X186879961Y-94217435D01*
X186633733Y-93839793D01*
X186573672Y-93744216D01*
X186366480Y-93412706D01*
X186212715Y-93153016D01*
X186104423Y-92938711D01*
X186033654Y-92743362D01*
X185992454Y-92540536D01*
X185972871Y-92303802D01*
X185966953Y-92006728D01*
X185966747Y-91622882D01*
X185965983Y-91335916D01*
X185963221Y-91029149D01*
X185958804Y-90785605D01*
X185953110Y-90625012D01*
X185946517Y-90567099D01*
X185892205Y-90596512D01*
X185763753Y-90676867D01*
X185590036Y-90790299D01*
X185412719Y-90926981D01*
X185125005Y-91209498D01*
X184820709Y-91567446D01*
X184515811Y-91977554D01*
X184226293Y-92416549D01*
X183968134Y-92861158D01*
X183757314Y-93288110D01*
X183609814Y-93674132D01*
X183579909Y-93775338D01*
X183517787Y-94042343D01*
X183487493Y-94306010D01*
X183491123Y-94585907D01*
X183530773Y-94901602D01*
X183608542Y-95272663D01*
X183726526Y-95718659D01*
X183886822Y-96259157D01*
X183981402Y-96613438D01*
X184082291Y-97314673D01*
X184062359Y-97997477D01*
X183921494Y-98663325D01*
X183659588Y-99313692D01*
X183621465Y-99388107D01*
X183499359Y-99603062D01*
X183356457Y-99814874D01*
X183175899Y-100045541D01*
X182940826Y-100317061D01*
X182634381Y-100651433D01*
X182213472Y-101086813D01*
X181752752Y-101522021D01*
X181333196Y-101871589D01*
X180962387Y-102129266D01*
X180647912Y-102288799D01*
X180478747Y-102360805D01*
X180383406Y-102428068D01*
X180402968Y-102479536D01*
X180534819Y-102520567D01*
X180720935Y-102582703D01*
X180925451Y-102705253D01*
X181080244Y-102855060D01*
X181150528Y-103004771D01*
X181146680Y-103073283D01*
X181145337Y-103097196D01*
X181110055Y-103291814D01*
X181049297Y-103546193D01*
X180969916Y-103829059D01*
X180939997Y-103929667D01*
X180821987Y-104376559D01*
X180755433Y-104760612D01*
X180740972Y-105116301D01*
X180779238Y-105478103D01*
X180822917Y-105669919D01*
X180870867Y-105880494D01*
X181016492Y-106357952D01*
X181042328Y-106437250D01*
X181123951Y-106692401D01*
X181201300Y-106939398D01*
X181238518Y-107053524D01*
X181297611Y-107210501D01*
X181339421Y-107291648D01*
X181341843Y-107293082D01*
X181393429Y-107250285D01*
X181490737Y-107121479D01*
X181620778Y-106925104D01*
X181770561Y-106679599D01*
X181975281Y-106334131D01*
X182193772Y-105970412D01*
X182397965Y-105635331D01*
X182578320Y-105344271D01*
X182725298Y-105112613D01*
X182829360Y-104955741D01*
X182880966Y-104889036D01*
X182882481Y-104887744D01*
X182934291Y-104819999D01*
X183036713Y-104671533D01*
X183175634Y-104463182D01*
X183336943Y-104215783D01*
X183482240Y-103990787D01*
X183696191Y-103659797D01*
X183902966Y-103340219D01*
X184072985Y-103077786D01*
X184132068Y-102985632D01*
X184295904Y-102720671D01*
X184443949Y-102469116D01*
X184549990Y-102275081D01*
X184559145Y-102257322D01*
X184647528Y-102108257D01*
X184772686Y-101932788D01*
X184944618Y-101718926D01*
X185173322Y-101454685D01*
X185468796Y-101128075D01*
X185841040Y-100727108D01*
X186026161Y-100523101D01*
X186255898Y-100258705D01*
X186459311Y-100014137D01*
X186537577Y-99923114D01*
X186759013Y-99697539D01*
X187021163Y-99460114D01*
X187282651Y-99249275D01*
X187390964Y-99167811D01*
X187703577Y-98928459D01*
X188032807Y-98671686D01*
X188323133Y-98440644D01*
X188392204Y-98386239D01*
X188758217Y-98128849D01*
X189183294Y-97868886D01*
X189629615Y-97627118D01*
X190059357Y-97424312D01*
X190434699Y-97281233D01*
X190592789Y-97244288D01*
X190877930Y-97202929D01*
X191241687Y-97168261D01*
X191659989Y-97143000D01*
X191994969Y-97129334D01*
X192279809Y-97123330D01*
X192498801Y-97129019D01*
X192681665Y-97148376D01*
X192858114Y-97183381D01*
X193057867Y-97236009D01*
X193128303Y-97255426D01*
X193341007Y-97309401D01*
X193495286Y-97341429D01*
X193561661Y-97345126D01*
X193566921Y-97320761D01*
X193559606Y-97204482D01*
X193549670Y-97140042D01*
X193723714Y-97140042D01*
X193807609Y-97420810D01*
X193883966Y-97561964D01*
X194011298Y-97662963D01*
X194148992Y-97649759D01*
X194281518Y-97519130D01*
X194339368Y-97417439D01*
X194319862Y-97359544D01*
X194299329Y-97350918D01*
X194465078Y-97350918D01*
X194573630Y-97356964D01*
X194614489Y-97359974D01*
X194794668Y-97394003D01*
X194874505Y-97417439D01*
X194994458Y-97452651D01*
X195124086Y-97496592D01*
X195275779Y-97532932D01*
X195394466Y-97526959D01*
X195530000Y-97481346D01*
X195591107Y-97447188D01*
X195631762Y-97384291D01*
X195903048Y-97384291D01*
X195903767Y-97435376D01*
X195969807Y-97520662D01*
X196136650Y-97609007D01*
X196148161Y-97613923D01*
X196333354Y-97678014D01*
X196433387Y-97672345D01*
X196463373Y-97596330D01*
X196458544Y-97583209D01*
X196389190Y-97512800D01*
X196266315Y-97418449D01*
X196127032Y-97325460D01*
X196008458Y-97259135D01*
X195947707Y-97244778D01*
X195931629Y-97276250D01*
X195917444Y-97329872D01*
X195903048Y-97384291D01*
X195631762Y-97384291D01*
X195666937Y-97329872D01*
X195658073Y-97181616D01*
X195576110Y-97028942D01*
X195432646Y-96898372D01*
X195239277Y-96816429D01*
X195235035Y-96815461D01*
X195042747Y-96767635D01*
X194879015Y-96720872D01*
X194800175Y-96699696D01*
X194755094Y-96722798D01*
X194773388Y-96835089D01*
X194778104Y-96906453D01*
X194783369Y-96986134D01*
X194708828Y-97174480D01*
X194546722Y-97299211D01*
X194472057Y-97331092D01*
X194465078Y-97350918D01*
X194299329Y-97350918D01*
X194200559Y-97309424D01*
X194147462Y-97287395D01*
X194028992Y-97184981D01*
X193968199Y-97044659D01*
X194137590Y-97044659D01*
X194150304Y-97078314D01*
X194234403Y-97140078D01*
X194293079Y-97160706D01*
X194397780Y-97168194D01*
X194520120Y-97111122D01*
X194603694Y-97033425D01*
X194610599Y-96906453D01*
X194500610Y-96758010D01*
X194498868Y-96756400D01*
X194379201Y-96687225D01*
X194257799Y-96671603D01*
X194173398Y-96706139D01*
X194164731Y-96787441D01*
X194184114Y-96835211D01*
X194239799Y-96973052D01*
X194254630Y-97034180D01*
X194209196Y-97030645D01*
X194176690Y-97016946D01*
X194137590Y-97044659D01*
X193968199Y-97044659D01*
X193948228Y-96998563D01*
X193901688Y-96864563D01*
X193851000Y-96797727D01*
X193791407Y-96817931D01*
X193723765Y-96932170D01*
X193723714Y-97140042D01*
X193549670Y-97140042D01*
X193532832Y-97030838D01*
X193506728Y-96726069D01*
X193538800Y-96559323D01*
X193709157Y-96559323D01*
X193726859Y-96611989D01*
X193799379Y-96611938D01*
X193953976Y-96557081D01*
X194001783Y-96542787D01*
X195066489Y-96542787D01*
X195116867Y-96565181D01*
X195149269Y-96560764D01*
X195157671Y-96524377D01*
X195148700Y-96517052D01*
X195076064Y-96524377D01*
X195066489Y-96542787D01*
X194001783Y-96542787D01*
X194029877Y-96534387D01*
X194222751Y-96500512D01*
X194443614Y-96480950D01*
X194467967Y-96479712D01*
X194705600Y-96449515D01*
X194913521Y-96394209D01*
X195060891Y-96324351D01*
X195116867Y-96250498D01*
X195070144Y-96204510D01*
X194948554Y-96159384D01*
X194814006Y-96114471D01*
X194659514Y-96035808D01*
X194556233Y-95983223D01*
X194466807Y-95975275D01*
X195299023Y-95975275D01*
X195368681Y-96049263D01*
X195374220Y-96053370D01*
X195410151Y-96150033D01*
X195407944Y-96250498D01*
X195406456Y-96318241D01*
X195405441Y-96325879D01*
X195398095Y-96478373D01*
X195422831Y-96524377D01*
X195447596Y-96570435D01*
X195581957Y-96655968D01*
X195600723Y-96666424D01*
X195762169Y-96781437D01*
X195876651Y-96902344D01*
X195893059Y-96924912D01*
X196019733Y-97049626D01*
X196183794Y-97166666D01*
X196402169Y-97295510D01*
X196402169Y-97125411D01*
X196362669Y-96970135D01*
X196214267Y-96775547D01*
X196006483Y-96542601D01*
X195847857Y-96292478D01*
X195770191Y-96070141D01*
X195751760Y-95999600D01*
X195682000Y-95934063D01*
X196051430Y-95934063D01*
X196092495Y-96123130D01*
X196203291Y-96328878D01*
X196360559Y-96514244D01*
X196541041Y-96642168D01*
X196641723Y-96696474D01*
X196746922Y-96781396D01*
X196768008Y-96845714D01*
X196692892Y-96871196D01*
X196669121Y-96881672D01*
X196641688Y-96958932D01*
X196631941Y-97125167D01*
X196631947Y-97125411D01*
X196638183Y-97396677D01*
X196643495Y-97596330D01*
X196644328Y-97627655D01*
X196635635Y-97832947D01*
X196603692Y-98026154D01*
X196593988Y-98060853D01*
X196541294Y-98249266D01*
X196445776Y-98530887D01*
X196441235Y-98544276D01*
X196278928Y-99005875D01*
X196222490Y-99166385D01*
X196206606Y-100910723D01*
X196190721Y-102655060D01*
X196403553Y-102670401D01*
X196517076Y-102664637D01*
X196733779Y-102619494D01*
X196959615Y-102543058D01*
X197098048Y-102483593D01*
X197475727Y-102290970D01*
X197747749Y-102090410D01*
X197926598Y-101867738D01*
X198024754Y-101608777D01*
X198054699Y-101299352D01*
X198048013Y-101043354D01*
X198021567Y-100855866D01*
X197970138Y-100756349D01*
X197888590Y-100727108D01*
X197837706Y-100711685D01*
X197835409Y-100626450D01*
X197843446Y-100580295D01*
X197798796Y-100452734D01*
X197690505Y-100344413D01*
X197555574Y-100298675D01*
X197515374Y-100295281D01*
X197474613Y-100266785D01*
X197897552Y-100266785D01*
X197932289Y-100329277D01*
X197981588Y-100379532D01*
X198054699Y-100421084D01*
X198092511Y-100406006D01*
X198177108Y-100329277D01*
X198206482Y-100284908D01*
X198298751Y-100284908D01*
X198484936Y-100484219D01*
X198528777Y-100535526D01*
X198659326Y-100714903D01*
X198811157Y-100949454D01*
X198959657Y-101201966D01*
X199028976Y-101322240D01*
X199284359Y-101696108D01*
X199538916Y-101963911D01*
X199829639Y-102207423D01*
X199829639Y-101931748D01*
X199811075Y-101726798D01*
X199716980Y-101374763D01*
X199560727Y-101026959D01*
X199361880Y-100733507D01*
X199261676Y-100627231D01*
X199077883Y-100491252D01*
X198845893Y-100396710D01*
X198528652Y-100325459D01*
X198298751Y-100284908D01*
X198206482Y-100284908D01*
X198210226Y-100279252D01*
X198183315Y-100245387D01*
X198054699Y-100237470D01*
X197949705Y-100241353D01*
X197897552Y-100266785D01*
X197474613Y-100266785D01*
X197444410Y-100245670D01*
X197478754Y-100160563D01*
X197480359Y-100157839D01*
X197492964Y-100072997D01*
X197506414Y-99887605D01*
X197519729Y-99620880D01*
X197531929Y-99292036D01*
X197542032Y-98920291D01*
X197547906Y-98639405D01*
X197552622Y-98275048D01*
X197550382Y-97995453D01*
X197539829Y-97777504D01*
X197519606Y-97598085D01*
X197488356Y-97434082D01*
X197444724Y-97262378D01*
X197437493Y-97235769D01*
X197378145Y-96996368D01*
X197336165Y-96790139D01*
X197320241Y-96659185D01*
X197295918Y-96478591D01*
X197169828Y-96255061D01*
X196931408Y-96073231D01*
X196877459Y-96042414D01*
X196650944Y-95899004D01*
X196442359Y-95749811D01*
X196311164Y-95657018D01*
X196196936Y-95622699D01*
X196121348Y-95692307D01*
X196059007Y-95874073D01*
X196051430Y-95934063D01*
X195682000Y-95934063D01*
X195680057Y-95932238D01*
X195524245Y-95903534D01*
X195467283Y-95900821D01*
X195336824Y-95921173D01*
X195299023Y-95975275D01*
X194466807Y-95975275D01*
X194325344Y-95962702D01*
X194078824Y-96053235D01*
X194005639Y-96105574D01*
X193863064Y-96252927D01*
X193753168Y-96419330D01*
X193709157Y-96559323D01*
X193538800Y-96559323D01*
X193570971Y-96392064D01*
X193743342Y-96115148D01*
X194023514Y-95896070D01*
X194077794Y-95866547D01*
X194301520Y-95785835D01*
X194519819Y-95793312D01*
X194778321Y-95888519D01*
X194874031Y-95932995D01*
X194983357Y-95971466D01*
X195046099Y-95956035D01*
X195103117Y-95886442D01*
X195105604Y-95882944D01*
X195185390Y-95813846D01*
X195318500Y-95779079D01*
X195538947Y-95769518D01*
X195690983Y-95767205D01*
X195831684Y-95749457D01*
X195910574Y-95702993D01*
X195963381Y-95614788D01*
X195978829Y-95582576D01*
X196067179Y-95463798D01*
X196182289Y-95430155D01*
X196344427Y-95481782D01*
X196573862Y-95618812D01*
X196751707Y-95737119D01*
X196975278Y-95885441D01*
X197151783Y-96002110D01*
X197339488Y-96169175D01*
X197433600Y-96374489D01*
X197527020Y-96768118D01*
X197607249Y-97112109D01*
X197665771Y-97382813D01*
X197705410Y-97604453D01*
X197728988Y-97801251D01*
X197739330Y-97997430D01*
X197739257Y-98217211D01*
X197731595Y-98484817D01*
X197719166Y-98824472D01*
X197710372Y-99123628D01*
X197705903Y-99444623D01*
X197707777Y-99707094D01*
X197715797Y-99889791D01*
X197729767Y-99971463D01*
X197759781Y-99991944D01*
X197892365Y-100038862D01*
X198100539Y-100091347D01*
X198354916Y-100141410D01*
X198389298Y-100147392D01*
X198755441Y-100220953D01*
X198951036Y-100279252D01*
X199027725Y-100302110D01*
X199232429Y-100403619D01*
X199395831Y-100538235D01*
X199544206Y-100718713D01*
X199776752Y-101104012D01*
X199920940Y-101520451D01*
X199967930Y-101931748D01*
X199974209Y-101986708D01*
X199984946Y-102420042D01*
X199993694Y-102429863D01*
X200334826Y-102812825D01*
X200409443Y-102901243D01*
X200579451Y-103129359D01*
X200753133Y-103391379D01*
X200915066Y-103660934D01*
X201049828Y-103911658D01*
X201141995Y-104117185D01*
X201176145Y-104251146D01*
X201174181Y-104288480D01*
X201140054Y-104340851D01*
X201066376Y-104284429D01*
X200956905Y-104123273D01*
X200815395Y-103861441D01*
X200719988Y-103688579D01*
X200574825Y-103457124D01*
X200410320Y-103217328D01*
X200243224Y-102991677D01*
X200090289Y-102802657D01*
X199968265Y-102672755D01*
X199893905Y-102624458D01*
X199875975Y-102641867D01*
X199829742Y-102745973D01*
X199777913Y-102912778D01*
X199707324Y-103141964D01*
X199547710Y-103560078D01*
X199336326Y-104038062D01*
X199085052Y-104551983D01*
X198805769Y-105077906D01*
X198510357Y-105591897D01*
X198210697Y-106070023D01*
X198109626Y-106217018D01*
X197807349Y-106600992D01*
X197475311Y-106956935D01*
X197140674Y-107257208D01*
X196830602Y-107474175D01*
X196679109Y-107552765D01*
X196346696Y-107695098D01*
X195926408Y-107848519D01*
X195438355Y-108005873D01*
X194902651Y-108160004D01*
X194792987Y-108189812D01*
X194432505Y-108288036D01*
X194059680Y-108389908D01*
X193739759Y-108477609D01*
X193635305Y-108506965D01*
X193419723Y-108573242D01*
X193203943Y-108649765D01*
X192966174Y-108745567D01*
X192684625Y-108869678D01*
X192337506Y-109031133D01*
X191903026Y-109238964D01*
X191818809Y-109283679D01*
X191537750Y-109475536D01*
X191235072Y-109732100D01*
X190941834Y-110023309D01*
X190689095Y-110319098D01*
X190507912Y-110589405D01*
X190469220Y-110666297D01*
X190371001Y-110893105D01*
X190263672Y-111172970D01*
X190164387Y-111462305D01*
X190088879Y-111711216D01*
X190019973Y-112001943D01*
X189985608Y-112275309D01*
X189976600Y-112586274D01*
X189977090Y-112655035D01*
X189987931Y-112927374D01*
X190010682Y-113122501D01*
X190042360Y-113229117D01*
X190079981Y-113235922D01*
X190120562Y-113131617D01*
X190122537Y-113124178D01*
X190192292Y-112966848D01*
X190300812Y-112804476D01*
X190349946Y-112736272D01*
X190460958Y-112540670D01*
X190556042Y-112325422D01*
X190596738Y-112234638D01*
X190771325Y-112234638D01*
X190786424Y-112280866D01*
X190861913Y-112279057D01*
X191016145Y-112203012D01*
X191143276Y-112144325D01*
X191269127Y-112113374D01*
X191304163Y-112101366D01*
X191372956Y-112014094D01*
X191403964Y-111932600D01*
X191862344Y-111932600D01*
X192066594Y-112071056D01*
X192165755Y-112146271D01*
X192248379Y-112262097D01*
X192264891Y-112407293D01*
X192266391Y-112420479D01*
X192266206Y-112427997D01*
X192249673Y-112601668D01*
X192217682Y-112728801D01*
X192210891Y-112777096D01*
X192260096Y-112818085D01*
X192389500Y-112853206D01*
X192619965Y-112890862D01*
X192635936Y-112893194D01*
X192869343Y-112931140D01*
X193062010Y-112969024D01*
X193173614Y-112998971D01*
X193220585Y-113016973D01*
X193264438Y-113019725D01*
X193268301Y-112971773D01*
X193230824Y-112851949D01*
X193150657Y-112639081D01*
X193060172Y-112435768D01*
X192949284Y-112286493D01*
X192798729Y-112182078D01*
X192778273Y-112171240D01*
X192575012Y-112060691D01*
X192389813Y-111956061D01*
X192245568Y-111893165D01*
X192032551Y-111889881D01*
X191862344Y-111932600D01*
X191403964Y-111932600D01*
X191425481Y-111876049D01*
X191452617Y-111727540D01*
X191445246Y-111608874D01*
X191394247Y-111560361D01*
X191388448Y-111561383D01*
X191311649Y-111615726D01*
X191188663Y-111731930D01*
X191046314Y-111880958D01*
X190911425Y-112033776D01*
X190810821Y-112161347D01*
X190771325Y-112234638D01*
X190596738Y-112234638D01*
X190607212Y-112211272D01*
X190746617Y-111985919D01*
X190924465Y-111761816D01*
X191116348Y-111565435D01*
X191297856Y-111423252D01*
X191444578Y-111361739D01*
X191491862Y-111358388D01*
X191563958Y-111376885D01*
X191598791Y-111456843D01*
X191615913Y-111628729D01*
X191622320Y-111727540D01*
X191634235Y-111911314D01*
X191858372Y-111797043D01*
X191904840Y-111774137D01*
X192058754Y-111708965D01*
X192158252Y-111682771D01*
X192185839Y-111676099D01*
X192195788Y-111615165D01*
X192145712Y-111471482D01*
X192091940Y-111279534D01*
X192103041Y-111202168D01*
X192275063Y-111202168D01*
X192312446Y-111381993D01*
X192330805Y-111431672D01*
X192388147Y-111541475D01*
X192477513Y-111633118D01*
X192625398Y-111729485D01*
X192858298Y-111853461D01*
X192996129Y-111931952D01*
X193177045Y-112059588D01*
X193292900Y-112172410D01*
X193327458Y-112234369D01*
X193399886Y-112413511D01*
X193480219Y-112657356D01*
X193556560Y-112931645D01*
X193566678Y-112971773D01*
X193576916Y-113012376D01*
X193638323Y-113270102D01*
X193671175Y-113460454D01*
X193671268Y-113462703D01*
X193677913Y-113624039D01*
X193660981Y-113801462D01*
X193651296Y-113860309D01*
X193622821Y-114033331D01*
X193613207Y-114086943D01*
X193563686Y-114337740D01*
X193514935Y-114550193D01*
X193476259Y-114683041D01*
X193475531Y-114685019D01*
X193457561Y-114799460D01*
X193444078Y-115016403D01*
X193435629Y-115316699D01*
X193432762Y-115681199D01*
X193436024Y-116090751D01*
X193455189Y-117344217D01*
X193719884Y-117635653D01*
X193984578Y-117927089D01*
X194290602Y-117641545D01*
X194315981Y-117617858D01*
X194643359Y-117310048D01*
X194895122Y-117066613D01*
X195085699Y-116871197D01*
X195229520Y-116707444D01*
X195341015Y-116558997D01*
X195434612Y-116409501D01*
X195524741Y-116242598D01*
X195753973Y-115797297D01*
X195600355Y-115591480D01*
X195347571Y-115210622D01*
X195136751Y-114764726D01*
X194985066Y-114255317D01*
X194952517Y-114122776D01*
X194891197Y-113906901D01*
X194837455Y-113758021D01*
X194800119Y-113702530D01*
X194793828Y-113701130D01*
X194771219Y-113634306D01*
X194778069Y-113551100D01*
X195051027Y-113551100D01*
X195071766Y-113760056D01*
X195131110Y-114069254D01*
X195199064Y-114364870D01*
X195315836Y-114741094D01*
X195460367Y-115054112D01*
X195647214Y-115339759D01*
X195680439Y-115382405D01*
X195782706Y-115493949D01*
X195850101Y-115538675D01*
X195872261Y-115524786D01*
X195919954Y-115418152D01*
X195966446Y-115228198D01*
X196007012Y-114981152D01*
X196036929Y-114703240D01*
X196051472Y-114420691D01*
X196052495Y-114320054D01*
X196039895Y-114070934D01*
X195995693Y-113871848D01*
X195909782Y-113669199D01*
X195818486Y-113495696D01*
X195738571Y-113403228D01*
X195628899Y-113363522D01*
X195448058Y-113347746D01*
X195300782Y-113342802D01*
X195157501Y-113360761D01*
X195076928Y-113424098D01*
X195051027Y-113551100D01*
X194778069Y-113551100D01*
X194782423Y-113498207D01*
X194788377Y-113458882D01*
X194769746Y-113212678D01*
X194657966Y-112922940D01*
X194448642Y-112577548D01*
X194376544Y-112462998D01*
X194242736Y-112211612D01*
X194134086Y-111962876D01*
X194085282Y-111842753D01*
X193963427Y-111635013D01*
X193802701Y-111499287D01*
X193575628Y-111417039D01*
X193254728Y-111369737D01*
X193217165Y-111365902D01*
X192856135Y-111299114D01*
X192585232Y-111189958D01*
X192438980Y-111119670D01*
X192318113Y-111114113D01*
X192275063Y-111202168D01*
X192103041Y-111202168D01*
X192117315Y-111102684D01*
X192171825Y-110995453D01*
X192283221Y-110913382D01*
X192444337Y-110925609D01*
X192671839Y-111029948D01*
X192902866Y-111134819D01*
X193228942Y-111193132D01*
X193287966Y-111193801D01*
X193658390Y-111239804D01*
X193941454Y-111363642D01*
X194149209Y-111573040D01*
X194293704Y-111875723D01*
X194349843Y-112017293D01*
X194473589Y-112264559D01*
X194613797Y-112494282D01*
X194713253Y-112648074D01*
X194833720Y-112860472D01*
X194911142Y-113029277D01*
X194917420Y-113046378D01*
X194991901Y-113182148D01*
X195067385Y-113213351D01*
X195116495Y-113202982D01*
X195269575Y-113190586D01*
X195467787Y-113187651D01*
X195518236Y-113188929D01*
X195748562Y-113221465D01*
X195909268Y-113312537D01*
X196024775Y-113483417D01*
X196119504Y-113755380D01*
X196177589Y-114012647D01*
X196200072Y-114320054D01*
X196213654Y-114505761D01*
X196156807Y-115039234D01*
X196005936Y-115631403D01*
X196008547Y-115719077D01*
X196040942Y-115797297D01*
X196070821Y-115869442D01*
X196177072Y-116033549D01*
X196303282Y-116180267D01*
X196425433Y-116278471D01*
X196519508Y-116297031D01*
X196659872Y-116250984D01*
X196908491Y-116231580D01*
X197139052Y-116279799D01*
X197319113Y-116386724D01*
X197370023Y-116468874D01*
X197416234Y-116543442D01*
X197417150Y-116547114D01*
X197433137Y-116701566D01*
X197441596Y-116783296D01*
X197386244Y-116915783D01*
X197374858Y-116943037D01*
X197213133Y-117035548D01*
X197193649Y-117041455D01*
X197066301Y-117090402D01*
X197014217Y-117129649D01*
X197027271Y-117152650D01*
X197064558Y-117199041D01*
X197106128Y-117250762D01*
X197240511Y-117404102D01*
X197412031Y-117591330D01*
X197512475Y-117700301D01*
X197665389Y-117872485D01*
X197770666Y-117999561D01*
X197809862Y-118059812D01*
X197811152Y-118065171D01*
X197861270Y-118141953D01*
X197969629Y-118279515D01*
X198116200Y-118452203D01*
X198226794Y-118586280D01*
X198425472Y-118898882D01*
X198512572Y-119176896D01*
X198506028Y-119237042D01*
X198486528Y-119416249D01*
X198423767Y-119522726D01*
X198285956Y-119699219D01*
X198098306Y-119913148D01*
X197882878Y-120141242D01*
X197661734Y-120360230D01*
X197456935Y-120546842D01*
X197290542Y-120677806D01*
X197219604Y-120722993D01*
X197025123Y-120823468D01*
X196861562Y-120879427D01*
X196820621Y-120888635D01*
X196778596Y-120897202D01*
X196736841Y-120894738D01*
X196685834Y-120872729D01*
X196616053Y-120822658D01*
X196517976Y-120736012D01*
X196382078Y-120604275D01*
X196198838Y-120418932D01*
X195958734Y-120171468D01*
X195652242Y-119853368D01*
X195269840Y-119456117D01*
X195036391Y-119215528D01*
X194966063Y-119144117D01*
X195233879Y-119144117D01*
X195982717Y-119942601D01*
X196201696Y-120173132D01*
X196423577Y-120400089D01*
X196606382Y-120579908D01*
X196735515Y-120698271D01*
X196796380Y-120740855D01*
X196893638Y-120710095D01*
X197066903Y-120604869D01*
X197282965Y-120442754D01*
X197520794Y-120242431D01*
X197759359Y-120022581D01*
X197977630Y-119801883D01*
X198154576Y-119599018D01*
X198269165Y-119432666D01*
X198313410Y-119347988D01*
X198351552Y-119237042D01*
X198337063Y-119129626D01*
X198270052Y-118968663D01*
X198240983Y-118910757D01*
X198101233Y-118700478D01*
X197937324Y-118518453D01*
X197882273Y-118466470D01*
X197721341Y-118294408D01*
X197600317Y-118138076D01*
X197512368Y-118014765D01*
X197366688Y-117828200D01*
X197204672Y-117633270D01*
X196926782Y-117310274D01*
X196823495Y-117511601D01*
X196800244Y-117551292D01*
X196692925Y-117693891D01*
X196541462Y-117865835D01*
X196370389Y-118042476D01*
X196204244Y-118199166D01*
X196067560Y-118311256D01*
X195984873Y-118354096D01*
X195968830Y-118360579D01*
X195880804Y-118433448D01*
X195744080Y-118570132D01*
X195580679Y-118749107D01*
X195233879Y-119144117D01*
X194966063Y-119144117D01*
X194771701Y-118946763D01*
X194533310Y-118708802D01*
X194340573Y-118520941D01*
X194212848Y-118402475D01*
X193951479Y-118174764D01*
X193677306Y-118368020D01*
X193403133Y-118561275D01*
X193403133Y-118868694D01*
X193403133Y-119515151D01*
X193402964Y-119636241D01*
X193399255Y-119986604D01*
X193389371Y-120239611D01*
X193371574Y-120414683D01*
X193344127Y-120531244D01*
X193305290Y-120608718D01*
X193294126Y-120626420D01*
X193257619Y-120720581D01*
X193228484Y-120870666D01*
X193204816Y-121093295D01*
X193193396Y-121270433D01*
X193184714Y-121405090D01*
X193166273Y-121822674D01*
X193125097Y-122896940D01*
X192942790Y-123042805D01*
X192837136Y-123127198D01*
X192760174Y-123176338D01*
X192702938Y-123175637D01*
X192621941Y-123137999D01*
X192495643Y-123077040D01*
X192333426Y-122998715D01*
X192323944Y-122993968D01*
X192161585Y-122875605D01*
X192022253Y-122719381D01*
X191948645Y-122570495D01*
X191861974Y-122308026D01*
X191779556Y-121974066D01*
X191707969Y-121595727D01*
X191653787Y-121200120D01*
X191643460Y-121133985D01*
X191820544Y-121133985D01*
X191847758Y-121336051D01*
X191899895Y-121638494D01*
X191919393Y-121747812D01*
X191988618Y-122102606D01*
X192052537Y-122360954D01*
X192117961Y-122542880D01*
X192191703Y-122668408D01*
X192280573Y-122757562D01*
X192283508Y-122759857D01*
X192426021Y-122847086D01*
X192545887Y-122883253D01*
X192575132Y-122878488D01*
X192606327Y-122849146D01*
X192626622Y-122780828D01*
X192636269Y-122659689D01*
X192635519Y-122471883D01*
X192624625Y-122203565D01*
X192603837Y-121840888D01*
X192573409Y-121370009D01*
X192562991Y-121215024D01*
X192545175Y-120988795D01*
X192534623Y-120914969D01*
X192742501Y-120914969D01*
X192758888Y-121254960D01*
X192767282Y-121372997D01*
X192788220Y-121719030D01*
X192804588Y-122062061D01*
X192813407Y-122342612D01*
X192816946Y-122469237D01*
X192830636Y-122659689D01*
X192833669Y-122701881D01*
X192860347Y-122836833D01*
X192894707Y-122865867D01*
X192934476Y-122780757D01*
X192939845Y-122751090D01*
X192952576Y-122606569D01*
X192965029Y-122375223D01*
X192976005Y-122081780D01*
X192984310Y-121750964D01*
X192985932Y-121658466D01*
X192987677Y-121270433D01*
X192978438Y-120988866D01*
X192957480Y-120800849D01*
X192924066Y-120693466D01*
X192849783Y-120589086D01*
X192788332Y-120580728D01*
X192752443Y-120689790D01*
X192742501Y-120914969D01*
X192534623Y-120914969D01*
X192526259Y-120856446D01*
X192500256Y-120799155D01*
X192461176Y-120798102D01*
X192403033Y-120834467D01*
X192390260Y-120842734D01*
X192233081Y-120900888D01*
X192043008Y-120924699D01*
X192042096Y-120924699D01*
X191929031Y-120927654D01*
X191857123Y-120950027D01*
X191822313Y-121012058D01*
X191820544Y-121133985D01*
X191643460Y-121133985D01*
X191627995Y-121034953D01*
X191577319Y-120843358D01*
X191520146Y-120726403D01*
X191488123Y-120674735D01*
X191432106Y-120510948D01*
X191396774Y-120308174D01*
X191381316Y-120193953D01*
X191342856Y-120042425D01*
X191298591Y-119973236D01*
X191232206Y-119961368D01*
X191064478Y-119940566D01*
X190826065Y-119915287D01*
X190544654Y-119888640D01*
X190230950Y-119857083D01*
X189991516Y-119820225D01*
X189792597Y-119767805D01*
X189592908Y-119688888D01*
X189351160Y-119572540D01*
X189109971Y-119447276D01*
X188830940Y-119284372D01*
X188572776Y-119105685D01*
X188300712Y-118886619D01*
X187979980Y-118602581D01*
X187747865Y-118393421D01*
X187480669Y-118156106D01*
X187244288Y-117949304D01*
X187107476Y-117817593D01*
X186903091Y-117597777D01*
X186662582Y-117322400D01*
X186405471Y-117013874D01*
X186151280Y-116694605D01*
X185886834Y-116357249D01*
X185457231Y-115821699D01*
X185026091Y-115298212D01*
X184608170Y-114804138D01*
X184218220Y-114356831D01*
X183870997Y-113973643D01*
X183581253Y-113671928D01*
X183524646Y-113616628D01*
X183016022Y-113199986D01*
X182406232Y-112829227D01*
X181687377Y-112499458D01*
X181529755Y-112440383D01*
X180869466Y-112270449D01*
X180175047Y-112204141D01*
X179467681Y-112239283D01*
X178768549Y-112373699D01*
X178098833Y-112605214D01*
X177479714Y-112931651D01*
X177273270Y-113064912D01*
X176806144Y-113387902D01*
X176428552Y-113689675D01*
X176123290Y-113988332D01*
X175873152Y-114301973D01*
X175660936Y-114648699D01*
X175469435Y-115046608D01*
X175431235Y-115135332D01*
X175345826Y-115354806D01*
X175302106Y-115532299D01*
X175290771Y-115719063D01*
X175302523Y-115966348D01*
X175329650Y-116204105D01*
X175418306Y-116574897D01*
X175551652Y-116884334D01*
X175718910Y-117102991D01*
X175758966Y-117138351D01*
X175813077Y-117167117D01*
X175833922Y-117112852D01*
X175837349Y-116955871D01*
X175838827Y-116892648D01*
X175855345Y-116756028D01*
X175884289Y-116701566D01*
X175893044Y-116697604D01*
X175922404Y-116618670D01*
X175937291Y-116470388D01*
X175963824Y-116294478D01*
X176046739Y-116049023D01*
X176163700Y-115821869D01*
X176291912Y-115664797D01*
X176343428Y-115602826D01*
X176388193Y-115461899D01*
X176402932Y-115372073D01*
X176492268Y-115182409D01*
X176638989Y-114982106D01*
X176815666Y-114801487D01*
X176994869Y-114670878D01*
X177149169Y-114620602D01*
X177211225Y-114638452D01*
X177240469Y-114726483D01*
X177183855Y-114865422D01*
X177138783Y-114919147D01*
X177123588Y-114875282D01*
X177121011Y-114862503D01*
X177068390Y-114861271D01*
X176967816Y-114924470D01*
X176845609Y-115030015D01*
X176728088Y-115155817D01*
X176641572Y-115279790D01*
X176596582Y-115369011D01*
X176597431Y-115410148D01*
X176672175Y-115386927D01*
X176751632Y-115357631D01*
X176916990Y-115310741D01*
X177008758Y-115266801D01*
X177111764Y-115150299D01*
X177129995Y-115113865D01*
X177167425Y-115065152D01*
X177179713Y-115123970D01*
X177179776Y-115125258D01*
X177234101Y-115225531D01*
X177356626Y-115318850D01*
X177377727Y-115329933D01*
X177574296Y-115462384D01*
X177648971Y-115584942D01*
X177601850Y-115697754D01*
X177565050Y-115732641D01*
X177520877Y-115744664D01*
X177515300Y-115648779D01*
X177503217Y-115559488D01*
X177434305Y-115510987D01*
X177275663Y-115487926D01*
X176961405Y-115499864D01*
X176645588Y-115612482D01*
X176391661Y-115829239D01*
X176335374Y-115903433D01*
X176225820Y-116080503D01*
X176138824Y-116260272D01*
X176089930Y-116408177D01*
X176094678Y-116489658D01*
X176131488Y-116490975D01*
X176257640Y-116464696D01*
X176437405Y-116412670D01*
X176474575Y-116400586D01*
X176648469Y-116331856D01*
X176733151Y-116262805D01*
X176755422Y-116173255D01*
X176783874Y-116044664D01*
X176859614Y-115981940D01*
X176954016Y-116018811D01*
X176984990Y-116078854D01*
X176935692Y-116185354D01*
X176916388Y-116209637D01*
X176888092Y-116290431D01*
X176961914Y-116366860D01*
X177081739Y-116413239D01*
X177270500Y-116415126D01*
X177324038Y-116409401D01*
X177528424Y-116436592D01*
X177785475Y-116543269D01*
X177795201Y-116548226D01*
X177971933Y-116650658D01*
X178074157Y-116732213D01*
X178095736Y-116780132D01*
X178030532Y-116781655D01*
X177872410Y-116724021D01*
X177800432Y-116696816D01*
X177572174Y-116637985D01*
X177292864Y-116589582D01*
X177004821Y-116556937D01*
X176750362Y-116545379D01*
X176571807Y-116560238D01*
X176569577Y-116560765D01*
X176299694Y-116651813D01*
X176140765Y-116765842D01*
X176095579Y-116894956D01*
X176166925Y-117031260D01*
X176357590Y-117166861D01*
X176410680Y-117194456D01*
X176552416Y-117254390D01*
X176657869Y-117256744D01*
X176780303Y-117206515D01*
X176788980Y-117202200D01*
X176922892Y-117155017D01*
X177076155Y-117149969D01*
X177297256Y-117185042D01*
X177317009Y-117189005D01*
X177504622Y-117222028D01*
X177622905Y-117218426D01*
X177718618Y-117167150D01*
X177838519Y-117057151D01*
X177903780Y-116995678D01*
X178007312Y-116912045D01*
X178033485Y-116915411D01*
X177981552Y-116999609D01*
X177850768Y-117158473D01*
X177790744Y-117221211D01*
X177653262Y-117331259D01*
X177546316Y-117374819D01*
X177517626Y-117388260D01*
X177439466Y-117424878D01*
X177342475Y-117547590D01*
X177252613Y-117689211D01*
X177146599Y-117807711D01*
X177082797Y-117855816D01*
X177082771Y-117833882D01*
X177150855Y-117724837D01*
X177159734Y-117710853D01*
X177218998Y-117587054D01*
X177221054Y-117514026D01*
X177159270Y-117504528D01*
X177011369Y-117517707D01*
X176818349Y-117549380D01*
X176619111Y-117592051D01*
X176452557Y-117638224D01*
X176357590Y-117680403D01*
X176286597Y-117716056D01*
X176145419Y-117751485D01*
X176021565Y-117806111D01*
X175903971Y-117934392D01*
X175899045Y-117943274D01*
X175863508Y-118023450D01*
X175856677Y-118107527D01*
X175884734Y-118222061D01*
X175953861Y-118393611D01*
X176070238Y-118648735D01*
X176180088Y-118890975D01*
X176273520Y-119120728D01*
X176317021Y-119273932D01*
X176315192Y-119368150D01*
X176272638Y-119420944D01*
X176230108Y-119394835D01*
X176158442Y-119280642D01*
X176077352Y-119103231D01*
X176015257Y-118954356D01*
X175900104Y-118697431D01*
X175795075Y-118482691D01*
X175739848Y-118370418D01*
X175666238Y-118143889D01*
X175678617Y-117959597D01*
X175776145Y-117786552D01*
X175781284Y-117779983D01*
X175864281Y-117662017D01*
X175898554Y-117590363D01*
X175872639Y-117540815D01*
X175786390Y-117420967D01*
X175660597Y-117263390D01*
X175636711Y-117232869D01*
X176024690Y-117232869D01*
X176031478Y-117324868D01*
X176039147Y-117357139D01*
X176128398Y-117455834D01*
X176285816Y-117485202D01*
X176480000Y-117437366D01*
X176523557Y-117417592D01*
X176562498Y-117388260D01*
X176492262Y-117379121D01*
X176489549Y-117378989D01*
X176357659Y-117347123D01*
X176196752Y-117278965D01*
X176172715Y-117266564D01*
X176061800Y-117216203D01*
X176024690Y-117232869D01*
X175636711Y-117232869D01*
X175494526Y-117051192D01*
X175338192Y-116796464D01*
X175235331Y-116528028D01*
X175161855Y-116194248D01*
X175131171Y-115957574D01*
X175132964Y-115663686D01*
X175189668Y-115366193D01*
X175307916Y-115034000D01*
X175494344Y-114636014D01*
X175637325Y-114380898D01*
X176018199Y-113865271D01*
X176481256Y-113410454D01*
X177000241Y-113044200D01*
X177071859Y-113001916D01*
X177313989Y-112852771D01*
X177536819Y-112708249D01*
X177720065Y-112598566D01*
X178126372Y-112413986D01*
X178602754Y-112254665D01*
X179115787Y-112131047D01*
X179632048Y-112053575D01*
X179704276Y-112047220D01*
X180161339Y-112039276D01*
X180650987Y-112076200D01*
X181122650Y-112152416D01*
X181525755Y-112262350D01*
X181709581Y-112335772D01*
X181992012Y-112463712D01*
X182309603Y-112618447D01*
X182625381Y-112781354D01*
X182902372Y-112933807D01*
X183103605Y-113057181D01*
X183229720Y-113151438D01*
X183481120Y-113368943D01*
X183775598Y-113650658D01*
X184093339Y-113976657D01*
X184414525Y-114327016D01*
X184719340Y-114681807D01*
X184898181Y-114897737D01*
X185117600Y-115162384D01*
X185314561Y-115399666D01*
X185461286Y-115576102D01*
X185596057Y-115741574D01*
X185784767Y-115978731D01*
X185997911Y-116250486D01*
X186210180Y-116524776D01*
X186502663Y-116890322D01*
X186964535Y-117412009D01*
X187489843Y-117943060D01*
X188101129Y-118507108D01*
X188357261Y-118730449D01*
X188651633Y-118969155D01*
X188920580Y-119159611D01*
X189197709Y-119325130D01*
X189516627Y-119489025D01*
X189643940Y-119548956D01*
X189845208Y-119629083D01*
X190047788Y-119683076D01*
X190292038Y-119720532D01*
X190618313Y-119751050D01*
X190851505Y-119767184D01*
X191086851Y-119777647D01*
X191252425Y-119778084D01*
X191322169Y-119767871D01*
X191326765Y-119742847D01*
X191332371Y-119612562D01*
X191334714Y-119387512D01*
X191333795Y-119085348D01*
X191329613Y-118723726D01*
X191322169Y-118320298D01*
X191303428Y-117456273D01*
X191503573Y-117456273D01*
X191503999Y-117997760D01*
X191507080Y-118517940D01*
X191512646Y-119002371D01*
X191520527Y-119436612D01*
X191530551Y-119806221D01*
X191542551Y-120096755D01*
X191556354Y-120293772D01*
X191571791Y-120382830D01*
X191665730Y-120488372D01*
X191810582Y-120587439D01*
X191819053Y-120591785D01*
X191954739Y-120652523D01*
X192038286Y-120674619D01*
X192145646Y-120652287D01*
X192371744Y-120567987D01*
X192607470Y-120444244D01*
X192674843Y-120404432D01*
X192849966Y-120327605D01*
X192982293Y-120331498D01*
X193107590Y-120413944D01*
X193113928Y-120419637D01*
X193157131Y-120451213D01*
X193186889Y-120444183D01*
X193205992Y-120381786D01*
X193217228Y-120247261D01*
X193223385Y-120023848D01*
X193227254Y-119694787D01*
X193230290Y-119300081D01*
X193231455Y-118868694D01*
X193229689Y-118449385D01*
X193224666Y-118015273D01*
X193224152Y-117986867D01*
X193403133Y-117986867D01*
X193406703Y-118097059D01*
X193425875Y-118237833D01*
X193456083Y-118292891D01*
X193461048Y-118292444D01*
X193548147Y-118251019D01*
X193674403Y-118162812D01*
X193822236Y-118046527D01*
X194106988Y-118046527D01*
X194596627Y-118503501D01*
X194764483Y-118658052D01*
X194941002Y-118815304D01*
X195068670Y-118922817D01*
X195127533Y-118963310D01*
X195142846Y-118955459D01*
X195224788Y-118878695D01*
X195355111Y-118737418D01*
X195513687Y-118553012D01*
X195733306Y-118262718D01*
X195918714Y-117957974D01*
X196173930Y-117957974D01*
X196186527Y-117974784D01*
X196264805Y-117909428D01*
X196416706Y-117757349D01*
X196534079Y-117627814D01*
X196687216Y-117397410D01*
X196732422Y-117199041D01*
X196673149Y-117022825D01*
X196603013Y-116915783D01*
X196830602Y-116915783D01*
X196861205Y-116946385D01*
X196891807Y-116915783D01*
X196861205Y-116885181D01*
X196830602Y-116915783D01*
X196603013Y-116915783D01*
X196573649Y-116870968D01*
X196423801Y-117315956D01*
X196414197Y-117344342D01*
X196333697Y-117573020D01*
X196261953Y-117762394D01*
X196213498Y-117873906D01*
X196173930Y-117957974D01*
X195918714Y-117957974D01*
X196000340Y-117823810D01*
X196207790Y-117375591D01*
X196335235Y-116957713D01*
X196365892Y-116794075D01*
X196369944Y-116653647D01*
X196327104Y-116534419D01*
X196587730Y-116534419D01*
X196604473Y-116598904D01*
X196635487Y-116653647D01*
X196672411Y-116718821D01*
X196717235Y-116773467D01*
X196759199Y-116779807D01*
X196784945Y-116701566D01*
X196953012Y-116701566D01*
X196954791Y-116716196D01*
X197014217Y-116762771D01*
X197028846Y-116760992D01*
X197075422Y-116701566D01*
X197073643Y-116686937D01*
X197014217Y-116640361D01*
X196999587Y-116642140D01*
X196953012Y-116701566D01*
X196784945Y-116701566D01*
X196792976Y-116677161D01*
X196839368Y-116581366D01*
X196968414Y-116502361D01*
X197019439Y-116492548D01*
X197064127Y-116468874D01*
X196998779Y-116430312D01*
X196908927Y-116408468D01*
X196761842Y-116417618D01*
X196638419Y-116463745D01*
X196587730Y-116534419D01*
X196327104Y-116534419D01*
X196326157Y-116531782D01*
X196223926Y-116372747D01*
X196118611Y-116228697D01*
X195988248Y-116075041D01*
X195887094Y-115983412D01*
X195834545Y-115973688D01*
X195803446Y-116034838D01*
X195733394Y-116175656D01*
X195639930Y-116364940D01*
X195622965Y-116398446D01*
X195502004Y-116597611D01*
X195332144Y-116816663D01*
X195097719Y-117074332D01*
X194783063Y-117389348D01*
X194121179Y-118032733D01*
X194106988Y-118046527D01*
X193822236Y-118046527D01*
X193839772Y-118032733D01*
X193671206Y-117856788D01*
X193636698Y-117821807D01*
X193523252Y-117721264D01*
X193452886Y-117680843D01*
X193434974Y-117701473D01*
X193412085Y-117812273D01*
X193403133Y-117986867D01*
X193224152Y-117986867D01*
X193216062Y-117539478D01*
X193203550Y-116995118D01*
X193186805Y-116355315D01*
X193149869Y-114999184D01*
X192969000Y-114924266D01*
X192967685Y-114923724D01*
X192745942Y-114871589D01*
X192451922Y-114855257D01*
X192130002Y-114874537D01*
X191824559Y-114929236D01*
X191536386Y-115003055D01*
X191518937Y-115898214D01*
X191511367Y-116367150D01*
X191505973Y-116907923D01*
X191503573Y-117456273D01*
X191303428Y-117456273D01*
X191291566Y-116909391D01*
X190948711Y-116574819D01*
X190782170Y-116404918D01*
X190664884Y-116255909D01*
X190600263Y-116116524D01*
X190566181Y-115950666D01*
X190558372Y-115893649D01*
X190522336Y-115630224D01*
X190488711Y-115384041D01*
X190478873Y-115327678D01*
X190407639Y-115100178D01*
X190346153Y-114984200D01*
X190563854Y-114984200D01*
X190593636Y-115082568D01*
X190639458Y-115296305D01*
X190692907Y-115596519D01*
X190750342Y-115964084D01*
X190829667Y-116174204D01*
X191014021Y-116407819D01*
X191107878Y-116496671D01*
X191235085Y-116600072D01*
X191312172Y-116640361D01*
X191346198Y-116594031D01*
X191377136Y-116448257D01*
X191395878Y-116227229D01*
X191400201Y-115997606D01*
X191391323Y-115722989D01*
X191369605Y-115477166D01*
X191338174Y-115278853D01*
X191300157Y-115146768D01*
X191258684Y-115099626D01*
X191216882Y-115156145D01*
X191214559Y-115162125D01*
X191144767Y-115224994D01*
X191058410Y-115219111D01*
X191016145Y-115147184D01*
X191033142Y-115088100D01*
X191134626Y-114960902D01*
X191300154Y-114826168D01*
X191497912Y-114708061D01*
X191601834Y-114667517D01*
X192250711Y-114667517D01*
X192566801Y-114700165D01*
X192675799Y-114712950D01*
X192879199Y-114744252D01*
X193020602Y-114775653D01*
X193069800Y-114788886D01*
X193141879Y-114774120D01*
X193158313Y-114666038D01*
X193160599Y-114625780D01*
X193192538Y-114450515D01*
X193250120Y-114253373D01*
X193319126Y-114026022D01*
X193330886Y-113860309D01*
X193273986Y-113742176D01*
X193143012Y-113640654D01*
X193082159Y-113607340D01*
X192907506Y-113544917D01*
X192740570Y-113522265D01*
X192604017Y-113535078D01*
X192520512Y-113579048D01*
X192512721Y-113649866D01*
X192603308Y-113743227D01*
X192627864Y-113761818D01*
X192693986Y-113852547D01*
X192690077Y-113966568D01*
X192689842Y-113973414D01*
X192610814Y-114144012D01*
X192452281Y-114383939D01*
X192250711Y-114667517D01*
X191601834Y-114667517D01*
X191696082Y-114630747D01*
X191769789Y-114610485D01*
X191933638Y-114557234D01*
X192028757Y-114514202D01*
X192074170Y-114464208D01*
X192161374Y-114339220D01*
X192255858Y-114186184D01*
X192331618Y-114047749D01*
X192362651Y-113966568D01*
X192339595Y-113956454D01*
X192226574Y-113955752D01*
X192051031Y-113972917D01*
X192012427Y-113977673D01*
X191785446Y-113984615D01*
X191655873Y-113944924D01*
X191584326Y-113917796D01*
X191464589Y-113945024D01*
X191274047Y-114037943D01*
X191139346Y-114127844D01*
X190954880Y-114295037D01*
X190927978Y-114326073D01*
X190785141Y-114490861D01*
X190713540Y-114595759D01*
X190650085Y-114688724D01*
X190569670Y-114862035D01*
X190563854Y-114984200D01*
X190346153Y-114984200D01*
X190306659Y-114909703D01*
X190248046Y-114827228D01*
X190133969Y-114637614D01*
X190058687Y-114443839D01*
X190009354Y-114206488D01*
X190000318Y-114126589D01*
X190162185Y-114126589D01*
X190178822Y-114266920D01*
X190247961Y-114469556D01*
X190263183Y-114504225D01*
X190352619Y-114644087D01*
X190436132Y-114676511D01*
X190502163Y-114595759D01*
X190498344Y-114529278D01*
X190446342Y-114394164D01*
X190363827Y-114243803D01*
X190275280Y-114121489D01*
X190205181Y-114070517D01*
X190200424Y-114070696D01*
X190162185Y-114126589D01*
X190000318Y-114126589D01*
X189976955Y-113919994D01*
X190342892Y-113919994D01*
X190348890Y-113938191D01*
X190403274Y-114035750D01*
X190495904Y-114179021D01*
X190520458Y-114214281D01*
X190609772Y-114320517D01*
X190646043Y-114326073D01*
X190624859Y-114240940D01*
X190541807Y-114075106D01*
X190528131Y-114051758D01*
X190439567Y-113930662D01*
X190370647Y-113881147D01*
X190342892Y-113919994D01*
X189976955Y-113919994D01*
X189973127Y-113886145D01*
X189967687Y-113829308D01*
X189962748Y-113788750D01*
X190570635Y-113788750D01*
X190619993Y-113932048D01*
X190648488Y-113995898D01*
X190725276Y-114106510D01*
X190818650Y-114110843D01*
X190961987Y-114017208D01*
X190965475Y-114014496D01*
X191341379Y-113792063D01*
X191767050Y-113675953D01*
X191783729Y-113673375D01*
X192032092Y-113601284D01*
X192226087Y-113486325D01*
X192393253Y-113339169D01*
X192173462Y-113337235D01*
X192105261Y-113333602D01*
X191885419Y-113301297D01*
X191659830Y-113246868D01*
X191529948Y-113210058D01*
X191388623Y-113190502D01*
X191259861Y-113219248D01*
X191083958Y-113302014D01*
X190993367Y-113351636D01*
X190804145Y-113475169D01*
X190668851Y-113589363D01*
X190586949Y-113691960D01*
X190570635Y-113788750D01*
X189962748Y-113788750D01*
X189939472Y-113597603D01*
X190199505Y-113597603D01*
X190211656Y-113666473D01*
X190269264Y-113647097D01*
X190394408Y-113566701D01*
X190557158Y-113442802D01*
X190594225Y-113413815D01*
X190817188Y-113262242D01*
X191091291Y-113101058D01*
X191173549Y-113058949D01*
X192566326Y-113058949D01*
X192598870Y-113135618D01*
X192630986Y-113219384D01*
X192625718Y-113296651D01*
X192638637Y-113322490D01*
X192737340Y-113335301D01*
X192774353Y-113338047D01*
X192778796Y-113339169D01*
X192942119Y-113380411D01*
X193127711Y-113457711D01*
X193147078Y-113467595D01*
X193301593Y-113545024D01*
X193376889Y-113569675D01*
X193401293Y-113542064D01*
X193403133Y-113462703D01*
X193351807Y-113349941D01*
X193209056Y-113229851D01*
X193004873Y-113125785D01*
X192769337Y-113056998D01*
X192719284Y-113047889D01*
X192598356Y-113033445D01*
X192566326Y-113058949D01*
X191173549Y-113058949D01*
X191365659Y-112960605D01*
X191475750Y-112908103D01*
X191718912Y-112776448D01*
X191874185Y-112659687D01*
X191963263Y-112542648D01*
X191973239Y-112523307D01*
X192024088Y-112407293D01*
X192004007Y-112353048D01*
X191901645Y-112319458D01*
X191830407Y-112307866D01*
X191638172Y-112298806D01*
X191419524Y-112307117D01*
X191414745Y-112307517D01*
X191192630Y-112342902D01*
X191009967Y-112421572D01*
X190807704Y-112568783D01*
X190677335Y-112680054D01*
X190455204Y-112909110D01*
X190313240Y-113134526D01*
X190229279Y-113387681D01*
X190215963Y-113453652D01*
X190199505Y-113597603D01*
X189939472Y-113597603D01*
X189933964Y-113552374D01*
X189892958Y-113300629D01*
X189852336Y-113122552D01*
X189838208Y-113069671D01*
X189803423Y-112751899D01*
X189823144Y-112359733D01*
X189892239Y-111919719D01*
X190005572Y-111458404D01*
X190158011Y-111002334D01*
X190344421Y-110578055D01*
X190541662Y-110260650D01*
X190841018Y-109898823D01*
X191196356Y-109553129D01*
X191576576Y-109253541D01*
X191950583Y-109030029D01*
X192204961Y-108908343D01*
X192573778Y-108741858D01*
X192934371Y-108594048D01*
X193308104Y-108457736D01*
X193716339Y-108325744D01*
X194180438Y-108190892D01*
X194721767Y-108046004D01*
X195361687Y-107883902D01*
X195479878Y-107850413D01*
X195734660Y-107764653D01*
X196029178Y-107654495D01*
X196324350Y-107535361D01*
X196581095Y-107422678D01*
X196760333Y-107331870D01*
X196802784Y-107306113D01*
X197039788Y-107139640D01*
X197290802Y-106934297D01*
X197516241Y-106724156D01*
X197676519Y-106543288D01*
X197708938Y-106499154D01*
X197773077Y-106393703D01*
X197767272Y-106318579D01*
X197694426Y-106221631D01*
X197628536Y-106143130D01*
X197492100Y-105980103D01*
X197341694Y-105799997D01*
X197304950Y-105755951D01*
X197007123Y-105399485D01*
X196777465Y-105125989D01*
X196607099Y-104925210D01*
X196487149Y-104786896D01*
X196408736Y-104700795D01*
X196362986Y-104656653D01*
X196341020Y-104644217D01*
X196324815Y-104654002D01*
X196271159Y-104740038D01*
X196212016Y-104875649D01*
X196166855Y-105012749D01*
X196155148Y-105103253D01*
X196155582Y-105105732D01*
X196148062Y-105198969D01*
X196127947Y-105317470D01*
X196118481Y-105373234D01*
X196072830Y-105592891D01*
X196063245Y-105636756D01*
X196007661Y-105924545D01*
X195951986Y-106258459D01*
X195906966Y-106574876D01*
X195837185Y-107128426D01*
X195584135Y-107278731D01*
X195398910Y-107380882D01*
X195154028Y-107491371D01*
X194954508Y-107552716D01*
X194828086Y-107554788D01*
X194794214Y-107511184D01*
X194768425Y-107386051D01*
X194754079Y-107166825D01*
X194749639Y-106839490D01*
X194748590Y-106741578D01*
X194735019Y-106437902D01*
X194708391Y-106117339D01*
X194672036Y-105803073D01*
X194629282Y-105518288D01*
X194583458Y-105286167D01*
X194537895Y-105129894D01*
X194495920Y-105072651D01*
X194489934Y-105056251D01*
X194484658Y-104997424D01*
X194754155Y-104997424D01*
X194767044Y-105216522D01*
X194817639Y-105470482D01*
X194822216Y-105489334D01*
X194849842Y-105660255D01*
X194877927Y-105916581D01*
X194903424Y-106226894D01*
X194923288Y-106559774D01*
X194939026Y-106868570D01*
X194954972Y-107107086D01*
X194972474Y-107255222D01*
X194994644Y-107329726D01*
X195024594Y-107347348D01*
X195065436Y-107324835D01*
X195072754Y-107318909D01*
X195113289Y-107269550D01*
X195136073Y-107190046D01*
X195142448Y-107057486D01*
X195133757Y-106848963D01*
X195111342Y-106541566D01*
X195070627Y-106032920D01*
X195035639Y-105618503D01*
X195005607Y-105302384D01*
X194978485Y-105072505D01*
X194952227Y-104916810D01*
X194935108Y-104858434D01*
X195167891Y-104858434D01*
X195201225Y-105317470D01*
X195203922Y-105354776D01*
X195225257Y-105657461D01*
X195249012Y-106004278D01*
X195270527Y-106327349D01*
X195277694Y-106431868D01*
X195298015Y-106686911D01*
X195318366Y-106893959D01*
X195335257Y-107015904D01*
X195352914Y-107057486D01*
X195382575Y-107127337D01*
X195468789Y-107138404D01*
X195599517Y-107038194D01*
X195616590Y-107019316D01*
X195679701Y-106899520D01*
X195725530Y-106704550D01*
X195760110Y-106410844D01*
X195763712Y-106371605D01*
X195796865Y-106085342D01*
X195838521Y-105812797D01*
X195880543Y-105608193D01*
X195955804Y-105317470D01*
X195755008Y-105317470D01*
X195649100Y-105306966D01*
X195510944Y-105239599D01*
X195361052Y-105087952D01*
X195167891Y-104858434D01*
X194935108Y-104858434D01*
X194924787Y-104823240D01*
X194894120Y-104779739D01*
X194858178Y-104774249D01*
X194814915Y-104794712D01*
X194779099Y-104844066D01*
X194754155Y-104997424D01*
X194484658Y-104997424D01*
X194479442Y-104939263D01*
X194470454Y-104722100D01*
X194463275Y-104419357D01*
X194458210Y-104045627D01*
X194457999Y-104011262D01*
X194605782Y-104011262D01*
X194606547Y-104244441D01*
X194612413Y-104375769D01*
X194641585Y-104627562D01*
X194894527Y-104599180D01*
X195013305Y-104590843D01*
X195137927Y-104610512D01*
X195263330Y-104681572D01*
X195432283Y-104821724D01*
X195497183Y-104878506D01*
X195651888Y-105004000D01*
X195756147Y-105058648D01*
X195838987Y-105052634D01*
X195929440Y-104996145D01*
X195974621Y-104957865D01*
X196092180Y-104791898D01*
X196163941Y-104553543D01*
X196193043Y-104227971D01*
X196182627Y-103800349D01*
X196170253Y-103630591D01*
X196142524Y-103380118D01*
X196347084Y-103380118D01*
X196364448Y-103794593D01*
X196432694Y-104194229D01*
X196445632Y-104227971D01*
X196558842Y-104523231D01*
X196749427Y-104804733D01*
X196836613Y-104908073D01*
X197027454Y-105136363D01*
X197197831Y-105342464D01*
X197305105Y-105473677D01*
X197490167Y-105700841D01*
X197666951Y-105918600D01*
X197921853Y-106233332D01*
X198148121Y-105892445D01*
X198199041Y-105814050D01*
X198400915Y-105478587D01*
X198624328Y-105076432D01*
X198855011Y-104636082D01*
X199078693Y-104186035D01*
X199281104Y-103754791D01*
X199447976Y-103370847D01*
X199565038Y-103062703D01*
X199777160Y-102429863D01*
X199420869Y-102105655D01*
X199407482Y-102093385D01*
X199216438Y-101900587D01*
X199050790Y-101704226D01*
X198945078Y-101545001D01*
X198893923Y-101446384D01*
X198738161Y-101171969D01*
X198580411Y-100926068D01*
X198435098Y-100728803D01*
X198316644Y-100600295D01*
X198239473Y-100560666D01*
X198197233Y-100581949D01*
X198170012Y-100669539D01*
X198172196Y-100679125D01*
X198187997Y-100797106D01*
X198206380Y-100993898D01*
X198223801Y-101232422D01*
X198227854Y-101299352D01*
X198229454Y-101325767D01*
X198235766Y-101543417D01*
X198219968Y-101693202D01*
X198174644Y-101815701D01*
X198092376Y-101951492D01*
X197926085Y-102143004D01*
X197667119Y-102354297D01*
X197358529Y-102551383D01*
X197033608Y-102715449D01*
X196725655Y-102827685D01*
X196467963Y-102869277D01*
X196431334Y-102871970D01*
X196385921Y-102899795D01*
X196360543Y-102977695D01*
X196349499Y-103129769D01*
X196347084Y-103380118D01*
X196142524Y-103380118D01*
X196139082Y-103349028D01*
X196100866Y-103133240D01*
X196060004Y-103011538D01*
X196049599Y-102991315D01*
X196024648Y-102900339D01*
X196005203Y-102748786D01*
X195990616Y-102524296D01*
X195980235Y-102214504D01*
X195973413Y-101807049D01*
X195969498Y-101289568D01*
X195962120Y-99700758D01*
X195738409Y-99663763D01*
X195602441Y-99647730D01*
X195365499Y-99632318D01*
X195114692Y-99626095D01*
X194714685Y-99625422D01*
X194706601Y-100375181D01*
X194705106Y-100482648D01*
X194698315Y-100809898D01*
X194687633Y-101217296D01*
X194673922Y-101675250D01*
X194658050Y-102154168D01*
X194640879Y-102624458D01*
X194630760Y-102905020D01*
X194618220Y-103321113D01*
X194609783Y-103696673D01*
X194605782Y-104011262D01*
X194457999Y-104011262D01*
X194455564Y-103615507D01*
X194455641Y-103143590D01*
X194461732Y-101214530D01*
X193903427Y-100672981D01*
X193892815Y-100662668D01*
X193674453Y-100442094D01*
X193486795Y-100237568D01*
X193349523Y-100071488D01*
X193282320Y-99966249D01*
X193259746Y-99897513D01*
X193221111Y-99616988D01*
X193226607Y-99562851D01*
X193403133Y-99562851D01*
X193407425Y-99688188D01*
X193438867Y-99837908D01*
X193517644Y-99983374D01*
X193663253Y-100170105D01*
X193787781Y-100310645D01*
X194010240Y-100536898D01*
X194220761Y-100727023D01*
X194364626Y-100842297D01*
X194490254Y-100935983D01*
X194550963Y-100971928D01*
X194553243Y-100970730D01*
X194560784Y-100900304D01*
X194554063Y-100742771D01*
X194534213Y-100528193D01*
X194512091Y-100284182D01*
X194495998Y-99996680D01*
X194493030Y-99763131D01*
X194495078Y-99592618D01*
X194487354Y-99540611D01*
X195790120Y-99540611D01*
X195797496Y-99550272D01*
X195873817Y-99564217D01*
X195899833Y-99554628D01*
X195963597Y-99453480D01*
X196018023Y-99258193D01*
X196036856Y-99143537D01*
X196045073Y-99005875D01*
X196026133Y-98952169D01*
X195998447Y-98968378D01*
X195973358Y-99059277D01*
X195965684Y-99095535D01*
X195946853Y-99184510D01*
X195881551Y-99341695D01*
X195876921Y-99350601D01*
X195815462Y-99475750D01*
X195810528Y-99488379D01*
X195790120Y-99540611D01*
X194487354Y-99540611D01*
X194479853Y-99490110D01*
X194446961Y-99466034D01*
X194888625Y-99466034D01*
X194889572Y-99486927D01*
X194968956Y-99498180D01*
X195029117Y-99488379D01*
X195005934Y-99461202D01*
X194970540Y-99451423D01*
X194888625Y-99466034D01*
X194446961Y-99466034D01*
X194431474Y-99454698D01*
X194334802Y-99457106D01*
X194217487Y-99451031D01*
X194154056Y-99411205D01*
X194153169Y-99406156D01*
X194203345Y-99343257D01*
X194371612Y-99296917D01*
X194659061Y-99266948D01*
X195066780Y-99253160D01*
X195067734Y-99253148D01*
X195373869Y-99243283D01*
X195573569Y-99218220D01*
X195682476Y-99171217D01*
X195716234Y-99095535D01*
X195690483Y-98984436D01*
X195675266Y-98959941D01*
X195552054Y-98892389D01*
X195329427Y-98846383D01*
X195023819Y-98823407D01*
X194651665Y-98824945D01*
X194229398Y-98852482D01*
X194061804Y-98867873D01*
X193899646Y-98882339D01*
X193820973Y-98888774D01*
X193803650Y-98895906D01*
X193715297Y-98963645D01*
X193591455Y-99079286D01*
X193477236Y-99212230D01*
X193417703Y-99357736D01*
X193403133Y-99562851D01*
X193226607Y-99562851D01*
X193249757Y-99334795D01*
X193341928Y-99105181D01*
X193344238Y-99101657D01*
X193428690Y-98915872D01*
X193463934Y-98726652D01*
X193464503Y-98719604D01*
X193615367Y-98719604D01*
X193649755Y-98768554D01*
X193678528Y-98764821D01*
X193732475Y-98695664D01*
X193705800Y-98554337D01*
X193672373Y-98490495D01*
X193647571Y-98493132D01*
X193640872Y-98534871D01*
X193618082Y-98661446D01*
X193615367Y-98719604D01*
X193464503Y-98719604D01*
X193476582Y-98569934D01*
X193509840Y-98342055D01*
X193515234Y-98313332D01*
X193913748Y-98313332D01*
X193979458Y-98508244D01*
X194017103Y-98584845D01*
X194083284Y-98675772D01*
X194165103Y-98695664D01*
X194174876Y-98698040D01*
X194339052Y-98673301D01*
X194381582Y-98665662D01*
X194597927Y-98636411D01*
X194780241Y-98624721D01*
X194796549Y-98624895D01*
X194960784Y-98632540D01*
X195194773Y-98649214D01*
X195453494Y-98671772D01*
X195615881Y-98685598D01*
X195829838Y-98692690D01*
X195967695Y-98675318D01*
X196057990Y-98631585D01*
X196073951Y-98619134D01*
X196138424Y-98530887D01*
X196104144Y-98416272D01*
X196042221Y-98344603D01*
X195862160Y-98232980D01*
X195603908Y-98127939D01*
X195294317Y-98036932D01*
X194960237Y-97967414D01*
X194628520Y-97926838D01*
X194326016Y-97922658D01*
X194188535Y-97932871D01*
X194053382Y-97959518D01*
X193981190Y-98015287D01*
X193935820Y-98118299D01*
X193928648Y-98141286D01*
X193913748Y-98313332D01*
X193515234Y-98313332D01*
X193556434Y-98093926D01*
X193561649Y-98068816D01*
X193600847Y-97852217D01*
X193604927Y-97818649D01*
X193783438Y-97818649D01*
X193790763Y-97891285D01*
X193809172Y-97900860D01*
X193831566Y-97850482D01*
X193827149Y-97818080D01*
X193790763Y-97809679D01*
X193783438Y-97818649D01*
X193604927Y-97818649D01*
X193609859Y-97778070D01*
X195586250Y-97778070D01*
X195596222Y-97814371D01*
X195663485Y-97850482D01*
X195690836Y-97865166D01*
X195884608Y-97945910D01*
X196060302Y-98023804D01*
X196205746Y-98102257D01*
X196269322Y-98155796D01*
X196273216Y-98166547D01*
X196325644Y-98220407D01*
X196378234Y-98178474D01*
X196402169Y-98061257D01*
X196402169Y-98060853D01*
X196379814Y-97954122D01*
X196294607Y-97869488D01*
X196118996Y-97779543D01*
X196113964Y-97777321D01*
X195927127Y-97705597D01*
X195797547Y-97690428D01*
X195678177Y-97726110D01*
X195646402Y-97740804D01*
X195586250Y-97778070D01*
X193609859Y-97778070D01*
X193620968Y-97686671D01*
X193617728Y-97606275D01*
X193615847Y-97603825D01*
X193537129Y-97560394D01*
X193375792Y-97497558D01*
X193164202Y-97428037D01*
X192978590Y-97383520D01*
X192621268Y-97332915D01*
X192202081Y-97302540D01*
X191756488Y-97292884D01*
X191319949Y-97304431D01*
X190927923Y-97337668D01*
X190615871Y-97393083D01*
X190593450Y-97398949D01*
X190188895Y-97537471D01*
X189731631Y-97745365D01*
X189252853Y-98005746D01*
X188783753Y-98301734D01*
X188355524Y-98616444D01*
X188120940Y-98802791D01*
X187817720Y-99040014D01*
X187530269Y-99261426D01*
X187298189Y-99436319D01*
X187270509Y-99457090D01*
X187008564Y-99675868D01*
X186742330Y-99930194D01*
X186525439Y-100169203D01*
X186481259Y-100222806D01*
X186296233Y-100439362D01*
X186060860Y-100706680D01*
X185800791Y-100995848D01*
X185541682Y-101277952D01*
X185431721Y-101398106D01*
X185202119Y-101661318D01*
X185002946Y-101905784D01*
X184852531Y-102108525D01*
X184769200Y-102246560D01*
X184727846Y-102330633D01*
X184611930Y-102537533D01*
X184460270Y-102787026D01*
X184294860Y-103042223D01*
X183907456Y-103621383D01*
X183421828Y-104354164D01*
X182996446Y-105004619D01*
X182634084Y-105568459D01*
X182337516Y-106041401D01*
X182109514Y-106419157D01*
X182095122Y-106443662D01*
X181925734Y-106727331D01*
X181764464Y-106989655D01*
X181628944Y-107202374D01*
X181536800Y-107337229D01*
X181509987Y-107373857D01*
X181440078Y-107477748D01*
X181383384Y-107562000D01*
X181284824Y-107729870D01*
X181277034Y-107744082D01*
X181150951Y-107895426D01*
X180984948Y-108017676D01*
X180978138Y-108021293D01*
X180957338Y-108034330D01*
X180787419Y-108140831D01*
X180617719Y-108273976D01*
X180542421Y-108338670D01*
X180363222Y-108477645D01*
X180167590Y-108616460D01*
X180044580Y-108703724D01*
X179923652Y-108802431D01*
X179876867Y-108859827D01*
X179876770Y-108861075D01*
X179821427Y-108910623D01*
X179688250Y-108986056D01*
X179512368Y-109070466D01*
X179328912Y-109146944D01*
X179258814Y-109170163D01*
X179173012Y-109198584D01*
X179020614Y-109227876D01*
X178774693Y-109262597D01*
X178476296Y-109297511D01*
X178161173Y-109328778D01*
X177865075Y-109352557D01*
X177623752Y-109365008D01*
X177546602Y-109366183D01*
X177288932Y-109346855D01*
X177136715Y-109283182D01*
X177080625Y-109168446D01*
X177087918Y-109127470D01*
X177245997Y-109127470D01*
X177262176Y-109142583D01*
X177366507Y-109164042D01*
X177535783Y-109171768D01*
X177826506Y-109170163D01*
X177581687Y-109058984D01*
X177395050Y-108996479D01*
X177283638Y-109017951D01*
X177245997Y-109127470D01*
X177087918Y-109127470D01*
X177111330Y-108995925D01*
X177119093Y-108972957D01*
X177145623Y-108825199D01*
X177106701Y-108742711D01*
X177470052Y-108742711D01*
X177484186Y-108783602D01*
X177593302Y-108871744D01*
X177795904Y-108970349D01*
X178085435Y-109063039D01*
X178497605Y-109101906D01*
X178926121Y-109031004D01*
X179387229Y-108849094D01*
X179785060Y-108653132D01*
X179838892Y-108218720D01*
X180013008Y-108218720D01*
X180041645Y-108302104D01*
X180142308Y-108300988D01*
X180325430Y-108217764D01*
X180440083Y-108130006D01*
X180464191Y-108034330D01*
X180441057Y-107966573D01*
X180390132Y-107803540D01*
X180329696Y-107600355D01*
X180288600Y-107471131D01*
X180230960Y-107352045D01*
X180182069Y-107350068D01*
X180137968Y-107466955D01*
X180094700Y-107704458D01*
X180085377Y-107766330D01*
X180051274Y-107979702D01*
X180021740Y-108148193D01*
X180013008Y-108218720D01*
X179838892Y-108218720D01*
X179854568Y-108092221D01*
X179905358Y-107761712D01*
X180019290Y-107262137D01*
X180142023Y-106887939D01*
X180305515Y-106887939D01*
X180458420Y-107398791D01*
X180488365Y-107499221D01*
X180551306Y-107713223D01*
X180594978Y-107865956D01*
X180611325Y-107929460D01*
X180645976Y-107950843D01*
X180756739Y-107894880D01*
X180934007Y-107761207D01*
X181005596Y-107697359D01*
X181117896Y-107570539D01*
X181162169Y-107477748D01*
X181158395Y-107446925D01*
X181124848Y-107308128D01*
X181064051Y-107100055D01*
X180985139Y-106854855D01*
X180953158Y-106758729D01*
X180870599Y-106503044D01*
X180803557Y-106285031D01*
X180764167Y-106143735D01*
X180720223Y-105960120D01*
X180644356Y-106204940D01*
X180637499Y-106226339D01*
X180546307Y-106455192D01*
X180437002Y-106668849D01*
X180305515Y-106887939D01*
X180142023Y-106887939D01*
X180166313Y-106813881D01*
X180336081Y-106452174D01*
X180369580Y-106388530D01*
X180464043Y-106147104D01*
X180523139Y-105904439D01*
X180539281Y-105786569D01*
X180545200Y-105669919D01*
X180518321Y-105633008D01*
X180451428Y-105650260D01*
X180444794Y-105652527D01*
X180328714Y-105668987D01*
X180120943Y-105681261D01*
X179848792Y-105688201D01*
X179539574Y-105688655D01*
X179203997Y-105681073D01*
X178831388Y-105656260D01*
X178499600Y-105609961D01*
X178162466Y-105537094D01*
X178002045Y-105499138D01*
X177781968Y-105453658D01*
X177627795Y-105430399D01*
X177565744Y-105433894D01*
X177567419Y-105460167D01*
X177597424Y-105582990D01*
X177655627Y-105778652D01*
X177734058Y-106019429D01*
X177751665Y-106072631D01*
X177885681Y-106631732D01*
X177899612Y-106912510D01*
X177912310Y-107168423D01*
X177830500Y-107707701D01*
X177639199Y-108274563D01*
X177561102Y-108469291D01*
X177498178Y-108642728D01*
X177470052Y-108742711D01*
X177106701Y-108742711D01*
X177100948Y-108730519D01*
X176944407Y-108541200D01*
X176783647Y-108287418D01*
X176659497Y-108030239D01*
X176596793Y-107814778D01*
X176593576Y-107648576D01*
X176755422Y-107648576D01*
X176755667Y-107691008D01*
X176773388Y-107910638D01*
X176833841Y-108088687D01*
X176957611Y-108290513D01*
X177026528Y-108387426D01*
X177164550Y-108551773D01*
X177262174Y-108613113D01*
X177326977Y-108577328D01*
X177414214Y-108397062D01*
X177511778Y-108123024D01*
X177601609Y-107806526D01*
X177672147Y-107488616D01*
X177711837Y-107210346D01*
X177718946Y-107122620D01*
X177731522Y-106912510D01*
X177726095Y-106792336D01*
X177699520Y-106737944D01*
X177648652Y-106725181D01*
X177587193Y-106732198D01*
X177391920Y-106804473D01*
X177168217Y-106937920D01*
X176954337Y-107111268D01*
X176879721Y-107185797D01*
X176798474Y-107300334D01*
X176763137Y-107438127D01*
X176755422Y-107648576D01*
X176593576Y-107648576D01*
X176592310Y-107583140D01*
X176678741Y-107258090D01*
X176865214Y-106974664D01*
X177138672Y-106750641D01*
X177486059Y-106603800D01*
X177721911Y-106540292D01*
X177520079Y-105944182D01*
X177425268Y-105678679D01*
X177332604Y-105464782D01*
X177246920Y-105329023D01*
X177156749Y-105249472D01*
X177130885Y-105232411D01*
X176981536Y-105103369D01*
X176840930Y-104943448D01*
X176749504Y-104801030D01*
X176712028Y-104656114D01*
X176720033Y-104547712D01*
X176888116Y-104547712D01*
X176890671Y-104701719D01*
X176941802Y-104819086D01*
X177059136Y-104956265D01*
X177135549Y-105036453D01*
X177212618Y-105107196D01*
X177234684Y-105096863D01*
X177219111Y-105011446D01*
X177148229Y-104584045D01*
X177149883Y-104457376D01*
X177327870Y-104457376D01*
X177353700Y-104681384D01*
X177398708Y-104904646D01*
X177455099Y-105086629D01*
X177515082Y-105186805D01*
X177543993Y-105201910D01*
X177676835Y-105249581D01*
X177883204Y-105311795D01*
X178132530Y-105379034D01*
X178301891Y-105416371D01*
X178615814Y-105466656D01*
X178970212Y-105506843D01*
X179338184Y-105535448D01*
X179692830Y-105550989D01*
X180007250Y-105551985D01*
X180254542Y-105536953D01*
X180407809Y-105504410D01*
X180434436Y-105491695D01*
X180491958Y-105442085D01*
X180528212Y-105351451D01*
X180550856Y-105192669D01*
X180567548Y-104938614D01*
X180629798Y-104435395D01*
X180785592Y-103817952D01*
X180798881Y-103775387D01*
X180894838Y-103456754D01*
X180950739Y-103229922D01*
X180966143Y-103073283D01*
X180940609Y-102965230D01*
X180873695Y-102884157D01*
X180764959Y-102808457D01*
X180620091Y-102731033D01*
X180461670Y-102700678D01*
X180356723Y-102773424D01*
X180354453Y-102779746D01*
X180292137Y-102953286D01*
X180285135Y-102985875D01*
X180167058Y-103342340D01*
X179992853Y-103592155D01*
X179758652Y-103739197D01*
X179460585Y-103787349D01*
X179452023Y-103787332D01*
X179339104Y-103780727D01*
X179235691Y-103753500D01*
X179122063Y-103692986D01*
X178978500Y-103586523D01*
X178785281Y-103421447D01*
X178522686Y-103185095D01*
X178374698Y-103060116D01*
X178248026Y-102972217D01*
X178181004Y-102950039D01*
X178146949Y-102990684D01*
X178070605Y-103117371D01*
X177979022Y-103293754D01*
X177896879Y-103447032D01*
X177805078Y-103560311D01*
X177722332Y-103581211D01*
X177713007Y-103579048D01*
X177625639Y-103586242D01*
X177602214Y-103666231D01*
X177631709Y-103783287D01*
X177643279Y-103829202D01*
X177749382Y-104085344D01*
X177836004Y-104293093D01*
X177880113Y-104457198D01*
X177862367Y-104541031D01*
X177843961Y-104559004D01*
X177802787Y-104583213D01*
X177763142Y-104554101D01*
X177708335Y-104451985D01*
X177621674Y-104257180D01*
X177525675Y-104074398D01*
X177446855Y-104010098D01*
X177383635Y-104066222D01*
X177333531Y-104242645D01*
X177329011Y-104273150D01*
X177327870Y-104457376D01*
X177149883Y-104457376D01*
X177152871Y-104228564D01*
X177233011Y-103957557D01*
X177271769Y-103883035D01*
X177317346Y-103783287D01*
X177305726Y-103759974D01*
X177237496Y-103791397D01*
X177114585Y-103886726D01*
X176975624Y-104117315D01*
X176899040Y-104443584D01*
X176888116Y-104547712D01*
X176720033Y-104547712D01*
X176726466Y-104460602D01*
X176788731Y-104199811D01*
X176966171Y-103858822D01*
X177238167Y-103591889D01*
X177307095Y-103539860D01*
X177364013Y-103481325D01*
X177650593Y-103481325D01*
X177652809Y-103480893D01*
X177699640Y-103422055D01*
X177774175Y-103289184D01*
X177859198Y-103118344D01*
X177937495Y-102945603D01*
X177991853Y-102807025D01*
X178005058Y-102738676D01*
X177958903Y-102689190D01*
X177882349Y-102706621D01*
X177805511Y-102839553D01*
X177731696Y-103083811D01*
X177731438Y-103084893D01*
X177685691Y-103284623D01*
X177656651Y-103427022D01*
X177650593Y-103481325D01*
X177364013Y-103481325D01*
X177420536Y-103423197D01*
X177498131Y-103271292D01*
X177565491Y-103041045D01*
X177661760Y-102655060D01*
X177541255Y-102561964D01*
X178182757Y-102561964D01*
X178269958Y-102687896D01*
X178319552Y-102738676D01*
X178454911Y-102877273D01*
X178461394Y-102883523D01*
X178671358Y-103078931D01*
X178885850Y-103267726D01*
X179059410Y-103409855D01*
X179216523Y-103526432D01*
X179344086Y-103594535D01*
X179423939Y-103572056D01*
X179452532Y-103509621D01*
X179654947Y-103509621D01*
X179659323Y-103587372D01*
X179718063Y-103570150D01*
X179848960Y-103463930D01*
X179875750Y-103436802D01*
X179964544Y-103302974D01*
X180050440Y-103123579D01*
X180118895Y-102936531D01*
X180155371Y-102779746D01*
X180145327Y-102691138D01*
X180141622Y-102688254D01*
X180077322Y-102712145D01*
X179976482Y-102801466D01*
X179869691Y-102925305D01*
X179787535Y-103052747D01*
X179724985Y-103210820D01*
X179672922Y-103404819D01*
X179654947Y-103509621D01*
X179452532Y-103509621D01*
X179480193Y-103449220D01*
X179536961Y-103216252D01*
X179550190Y-103166671D01*
X179638382Y-102962993D01*
X179766345Y-102763597D01*
X179907341Y-102605567D01*
X180034633Y-102525989D01*
X180118957Y-102486745D01*
X180142564Y-102406969D01*
X180140734Y-102401360D01*
X180148546Y-102287166D01*
X180203667Y-102136129D01*
X180233298Y-102074133D01*
X180255068Y-102002605D01*
X180218876Y-102000089D01*
X180112910Y-102069960D01*
X179925360Y-102215587D01*
X179877453Y-102253221D01*
X179761531Y-102331559D01*
X179650163Y-102368528D01*
X179501320Y-102373049D01*
X179272972Y-102354042D01*
X179093036Y-102340463D01*
X178895121Y-102343673D01*
X178807735Y-102376481D01*
X178791516Y-102391423D01*
X178680044Y-102427074D01*
X178511448Y-102441781D01*
X178307999Y-102451201D01*
X178194905Y-102487169D01*
X178182757Y-102561964D01*
X177541255Y-102561964D01*
X177503312Y-102532651D01*
X177487746Y-102520528D01*
X177195520Y-102261003D01*
X176967298Y-102015348D01*
X177214458Y-102015348D01*
X177454173Y-102228096D01*
X177645204Y-102372891D01*
X177816799Y-102440186D01*
X177935333Y-102403422D01*
X178031763Y-102357532D01*
X178219243Y-102308052D01*
X178464315Y-102261253D01*
X178734375Y-102222534D01*
X178996819Y-102197291D01*
X179219044Y-102190921D01*
X179245437Y-102191567D01*
X179466636Y-102190652D01*
X179619471Y-102165523D01*
X179753035Y-102101649D01*
X179916421Y-101984496D01*
X180036290Y-101900848D01*
X180248726Y-101779604D01*
X180429277Y-101705964D01*
X180472874Y-101693253D01*
X180599830Y-101633647D01*
X180693510Y-101532509D01*
X180772392Y-101363552D01*
X180854957Y-101100493D01*
X180914050Y-100892433D01*
X180318953Y-100930032D01*
X180239872Y-100935737D01*
X179716981Y-101004207D01*
X179173227Y-101122001D01*
X178637258Y-101279730D01*
X178137725Y-101468008D01*
X177703279Y-101677448D01*
X177362569Y-101898663D01*
X177214458Y-102015348D01*
X176967298Y-102015348D01*
X176912760Y-101956644D01*
X176797967Y-101808366D01*
X177000241Y-101808366D01*
X177001862Y-101816694D01*
X177062303Y-101826636D01*
X177185278Y-101782971D01*
X177336867Y-101696926D01*
X177792747Y-101435955D01*
X178343134Y-101195931D01*
X178943742Y-100994458D01*
X179558558Y-100843583D01*
X180151567Y-100755353D01*
X180212046Y-100749473D01*
X180426508Y-100721592D01*
X180530791Y-100693521D01*
X180528946Y-100689401D01*
X180711812Y-100689401D01*
X180713791Y-100693521D01*
X180721015Y-100708561D01*
X180825542Y-100715177D01*
X180844549Y-100714773D01*
X180925843Y-100704176D01*
X180900883Y-100684694D01*
X180838772Y-100674854D01*
X180717269Y-100686962D01*
X180711812Y-100689401D01*
X180528946Y-100689401D01*
X180518796Y-100666733D01*
X180451832Y-100650631D01*
X180224603Y-100643009D01*
X179915723Y-100673187D01*
X179547773Y-100736313D01*
X179143339Y-100827539D01*
X178725001Y-100942011D01*
X178315344Y-101074881D01*
X177936949Y-101221298D01*
X177918195Y-101229512D01*
X177755014Y-101311514D01*
X177558370Y-101422832D01*
X177356418Y-101545821D01*
X177177311Y-101662836D01*
X177049201Y-101756232D01*
X177000241Y-101808366D01*
X176797967Y-101808366D01*
X176670833Y-101644147D01*
X176501106Y-101360206D01*
X176457836Y-101263174D01*
X176318276Y-100784591D01*
X176273080Y-100273011D01*
X176457891Y-100273011D01*
X176472521Y-100580197D01*
X176533916Y-100913969D01*
X176639791Y-101242807D01*
X176716566Y-101416884D01*
X176794226Y-101560513D01*
X176847229Y-101621753D01*
X176907820Y-101606081D01*
X177043045Y-101535270D01*
X177214458Y-101424890D01*
X177299149Y-101367130D01*
X177506071Y-101238915D01*
X177726800Y-101124672D01*
X177987397Y-101012812D01*
X178313922Y-100891747D01*
X178732436Y-100749889D01*
X178839715Y-100714800D01*
X179121715Y-100628520D01*
X179360205Y-100570529D01*
X179596665Y-100533790D01*
X179872574Y-100511265D01*
X180229413Y-100495917D01*
X180296053Y-100493621D01*
X180604866Y-100481771D01*
X180815218Y-100468740D01*
X180947401Y-100450353D01*
X181021704Y-100422433D01*
X181058419Y-100380802D01*
X181077836Y-100321286D01*
X181094851Y-100201897D01*
X181100050Y-99993255D01*
X181089626Y-99755907D01*
X181066529Y-99527617D01*
X181033708Y-99346150D01*
X180994112Y-99249268D01*
X180943969Y-99223688D01*
X180779749Y-99186134D01*
X180531031Y-99152794D01*
X180220907Y-99125221D01*
X179872470Y-99104967D01*
X179508811Y-99093585D01*
X179153023Y-99092627D01*
X178828197Y-99103646D01*
X178758302Y-99107980D01*
X178113968Y-99177546D01*
X177565222Y-99293980D01*
X177117109Y-99455507D01*
X176774674Y-99660356D01*
X176542961Y-99906753D01*
X176492311Y-100023933D01*
X176457891Y-100273011D01*
X176273080Y-100273011D01*
X176272283Y-100263990D01*
X176323617Y-99735787D01*
X176339220Y-99662403D01*
X176384232Y-99508946D01*
X176588042Y-99508946D01*
X176608646Y-99556820D01*
X176656561Y-99514424D01*
X176670728Y-99495169D01*
X176805968Y-99391802D01*
X177035689Y-99278743D01*
X177338258Y-99165455D01*
X177692044Y-99061402D01*
X177816863Y-99030603D01*
X177997801Y-98993698D01*
X178188465Y-98967249D01*
X178411387Y-98949672D01*
X178689099Y-98939384D01*
X179044132Y-98934798D01*
X179499016Y-98934332D01*
X179586808Y-98934412D01*
X179984960Y-98931886D01*
X180313544Y-98924894D01*
X180559355Y-98913982D01*
X180709188Y-98899697D01*
X180749838Y-98882585D01*
X180718688Y-98872581D01*
X180579360Y-98854858D01*
X180346133Y-98836719D01*
X180036794Y-98819262D01*
X179669134Y-98803583D01*
X179260942Y-98790779D01*
X178804467Y-98779959D01*
X178427514Y-98774307D01*
X178135378Y-98775165D01*
X177908877Y-98783236D01*
X177728832Y-98799220D01*
X177576063Y-98823820D01*
X177431389Y-98857738D01*
X177098378Y-98957163D01*
X176861778Y-99058513D01*
X176711171Y-99169779D01*
X176628373Y-99300998D01*
X176598696Y-99400692D01*
X176588042Y-99508946D01*
X176384232Y-99508946D01*
X176438265Y-99324733D01*
X176577533Y-98974253D01*
X176666229Y-98795133D01*
X176877831Y-98795133D01*
X176881288Y-98812596D01*
X176908647Y-98820888D01*
X176983307Y-98807344D01*
X177128502Y-98767256D01*
X177367470Y-98695914D01*
X177410430Y-98683182D01*
X177548305Y-98647091D01*
X177689493Y-98621142D01*
X177853832Y-98604369D01*
X178061158Y-98595808D01*
X178331307Y-98594495D01*
X178684116Y-98599465D01*
X179139420Y-98609754D01*
X180513539Y-98643565D01*
X180382155Y-98512181D01*
X180334751Y-98467560D01*
X180242873Y-98418716D01*
X180159999Y-98456132D01*
X180132973Y-98474098D01*
X180032265Y-98499636D01*
X179864403Y-98496992D01*
X179603290Y-98466660D01*
X179262867Y-98405693D01*
X178994831Y-98318794D01*
X178795804Y-98196837D01*
X178638555Y-98027423D01*
X178590455Y-97964538D01*
X178502548Y-97883830D01*
X178393202Y-97860480D01*
X178212967Y-97877008D01*
X178127095Y-97891409D01*
X177847473Y-97969181D01*
X177561791Y-98084912D01*
X177312392Y-98219720D01*
X177141623Y-98354724D01*
X177111265Y-98389620D01*
X176999926Y-98541385D01*
X176912942Y-98691871D01*
X176877831Y-98795133D01*
X176666229Y-98795133D01*
X176740979Y-98644176D01*
X176912555Y-98367715D01*
X177076215Y-98178082D01*
X177267626Y-98041716D01*
X177588969Y-97881564D01*
X177706275Y-97840996D01*
X178775181Y-97840996D01*
X178814648Y-97965540D01*
X178961834Y-98100531D01*
X179203614Y-98204399D01*
X179396007Y-98251916D01*
X179610432Y-98289121D01*
X179804455Y-98309748D01*
X179945071Y-98310352D01*
X179999277Y-98287484D01*
X179969404Y-98260011D01*
X179848775Y-98211750D01*
X179667171Y-98162868D01*
X179553656Y-98131473D01*
X179299185Y-98029887D01*
X179145186Y-97941957D01*
X179528479Y-97941957D01*
X179603157Y-97978323D01*
X179701030Y-98006480D01*
X179873264Y-98029795D01*
X179947821Y-98030365D01*
X179982180Y-98012427D01*
X179910891Y-97952359D01*
X179804355Y-97907549D01*
X179640783Y-97900887D01*
X179560168Y-97918143D01*
X179528479Y-97941957D01*
X179145186Y-97941957D01*
X179086255Y-97908309D01*
X179064518Y-97892583D01*
X178904729Y-97781395D01*
X178818000Y-97738928D01*
X178782196Y-97760391D01*
X178775181Y-97840996D01*
X177706275Y-97840996D01*
X177952321Y-97755906D01*
X178089566Y-97728072D01*
X179111807Y-97728072D01*
X179124369Y-97746389D01*
X179176624Y-97789277D01*
X179182732Y-97787686D01*
X179203614Y-97728072D01*
X179201124Y-97711297D01*
X179138798Y-97666867D01*
X179417831Y-97666867D01*
X179433885Y-97717274D01*
X179450177Y-97728072D01*
X179524940Y-97777625D01*
X179601071Y-97767321D01*
X179632048Y-97666867D01*
X179611695Y-97577400D01*
X179524940Y-97556109D01*
X179468712Y-97580447D01*
X179417831Y-97666867D01*
X179138798Y-97666867D01*
X179116660Y-97671673D01*
X179111807Y-97728072D01*
X178089566Y-97728072D01*
X178312406Y-97682879D01*
X178405373Y-97669251D01*
X178616510Y-97621808D01*
X178772107Y-97565464D01*
X178928074Y-97510580D01*
X179123124Y-97483630D01*
X179294736Y-97467917D01*
X179473936Y-97423987D01*
X179527966Y-97405557D01*
X179629758Y-97407075D01*
X179704978Y-97500493D01*
X179749035Y-97603855D01*
X179758049Y-97666867D01*
X179764616Y-97712771D01*
X179788686Y-97763320D01*
X179900415Y-97789277D01*
X179914663Y-97789684D01*
X180065912Y-97834470D01*
X180191608Y-97929067D01*
X180231457Y-98012427D01*
X180244096Y-98038867D01*
X180247795Y-98050753D01*
X180310589Y-98137749D01*
X180434978Y-98278060D01*
X180444150Y-98287484D01*
X180600015Y-98447628D01*
X180777665Y-98643565D01*
X180794534Y-98662170D01*
X180960827Y-98882585D01*
X180988446Y-98919193D01*
X181127715Y-99151651D01*
X181202710Y-99312410D01*
X181253437Y-99456876D01*
X181276028Y-99604967D01*
X181276141Y-99796108D01*
X181264102Y-99993255D01*
X181259432Y-100069723D01*
X181251112Y-100188763D01*
X181233954Y-100445112D01*
X181221116Y-100651959D01*
X181218433Y-100704176D01*
X181214896Y-100773012D01*
X181200838Y-100858684D01*
X181173589Y-100892433D01*
X181158822Y-100910723D01*
X181124534Y-100946845D01*
X181064303Y-101072202D01*
X180998285Y-101256300D01*
X180866434Y-101557437D01*
X180627929Y-101892642D01*
X180531930Y-102002605D01*
X180503027Y-102035712D01*
X180404327Y-102157741D01*
X180366506Y-102217326D01*
X180382581Y-102228258D01*
X180477122Y-102202006D01*
X180634698Y-102129393D01*
X180830244Y-102023498D01*
X181038693Y-101897399D01*
X181234979Y-101764176D01*
X181438488Y-101603873D01*
X181747187Y-101329237D01*
X182062956Y-101019558D01*
X182350184Y-100710165D01*
X182573264Y-100436385D01*
X182649557Y-100339353D01*
X182761466Y-100221660D01*
X182835295Y-100175335D01*
X182875486Y-100157094D01*
X182980978Y-100054618D01*
X183118833Y-99882350D01*
X183272060Y-99663712D01*
X183423665Y-99422128D01*
X183556657Y-99181019D01*
X183584853Y-99121866D01*
X183685420Y-98868456D01*
X183784916Y-98564379D01*
X183865391Y-98263007D01*
X183904729Y-98087162D01*
X183949060Y-97845984D01*
X183965110Y-97643250D01*
X183955487Y-97428427D01*
X183922799Y-97150987D01*
X183902709Y-97021481D01*
X183833315Y-96681009D01*
X183741067Y-96313158D01*
X183640354Y-95977702D01*
X183574910Y-95775854D01*
X183426619Y-95234465D01*
X183346210Y-94761135D01*
X183332285Y-94331525D01*
X183383445Y-93921296D01*
X183498290Y-93506109D01*
X183540085Y-93394611D01*
X183698295Y-93051235D01*
X183912087Y-92657999D01*
X184163927Y-92241863D01*
X184436284Y-91829789D01*
X184711625Y-91448737D01*
X184972417Y-91125668D01*
X185201128Y-90887543D01*
X185290611Y-90814740D01*
X185473291Y-90683637D01*
X185676024Y-90551919D01*
X185830282Y-90452935D01*
X185939812Y-90359017D01*
X185987144Y-90263506D01*
X185997349Y-90133779D01*
X185994873Y-90079854D01*
X185992133Y-90065229D01*
X186180964Y-90065229D01*
X186184969Y-90140346D01*
X186215526Y-90196160D01*
X186276067Y-90133342D01*
X186287329Y-90094492D01*
X186249077Y-89998691D01*
X186247656Y-89997280D01*
X186195959Y-89976434D01*
X186180964Y-90065229D01*
X185992133Y-90065229D01*
X185960436Y-89896050D01*
X185897745Y-89716696D01*
X185822570Y-89580614D01*
X185750685Y-89526626D01*
X185685624Y-89486471D01*
X185567321Y-89363048D01*
X185416197Y-89178253D01*
X185248884Y-88954414D01*
X185082013Y-88713861D01*
X184932217Y-88478922D01*
X184816127Y-88271928D01*
X184804084Y-88248421D01*
X184556199Y-87856447D01*
X184253249Y-87506867D01*
X184060829Y-87304878D01*
X183852704Y-87037420D01*
X183719097Y-86797766D01*
X183673290Y-86606535D01*
X183703352Y-86466432D01*
X183778769Y-86293060D01*
X183877879Y-86125692D01*
X183979041Y-86000748D01*
X184060619Y-85954645D01*
X184113841Y-85944244D01*
X184161205Y-85859778D01*
X184193386Y-85738311D01*
X184303671Y-85640353D01*
X184457392Y-85607479D01*
X184617690Y-85645856D01*
X184747703Y-85761651D01*
X184788358Y-85829078D01*
X184815268Y-85920204D01*
X184798489Y-86035960D01*
X184736983Y-86220797D01*
X184689883Y-86364893D01*
X184664720Y-86513882D01*
X184694585Y-86595814D01*
X184697387Y-86598557D01*
X184792540Y-86634420D01*
X184861447Y-86579880D01*
X184862794Y-86532183D01*
X185058396Y-86532183D01*
X185061233Y-86858414D01*
X185064422Y-86993994D01*
X185079826Y-87300717D01*
X185103390Y-87516592D01*
X185132871Y-87635315D01*
X185166028Y-87650581D01*
X185200620Y-87556084D01*
X185234406Y-87345521D01*
X185256742Y-87196084D01*
X185306546Y-86960440D01*
X185361340Y-86782030D01*
X185372940Y-86755776D01*
X185465983Y-86592533D01*
X185603472Y-86391180D01*
X185763286Y-86179934D01*
X185923303Y-85987017D01*
X186061399Y-85840648D01*
X186155453Y-85769045D01*
X186205387Y-85756724D01*
X186364569Y-85738924D01*
X186565089Y-85731928D01*
X186877999Y-85731928D01*
X186667192Y-85574172D01*
X186549732Y-85490451D01*
X186282448Y-85328650D01*
X186042342Y-85220493D01*
X185860416Y-85181084D01*
X185853709Y-85181202D01*
X185687838Y-85238576D01*
X185503730Y-85383816D01*
X185326977Y-85592079D01*
X185183172Y-85838521D01*
X185182902Y-85839106D01*
X185124096Y-85981662D01*
X185086177Y-86124339D01*
X185065493Y-86297668D01*
X185058396Y-86532183D01*
X184862794Y-86532183D01*
X184864686Y-86465206D01*
X184855742Y-86332499D01*
X184899831Y-86109756D01*
X184991847Y-85851052D01*
X185119039Y-85591123D01*
X185268657Y-85364701D01*
X185390393Y-85219772D01*
X185504044Y-85103328D01*
X185570339Y-85058675D01*
X185583368Y-85057516D01*
X185630120Y-85010563D01*
X185622048Y-84998989D01*
X185527646Y-84953333D01*
X185346146Y-84891574D01*
X185101428Y-84820110D01*
X184817374Y-84745342D01*
X184517864Y-84673667D01*
X184226780Y-84611485D01*
X183968003Y-84565194D01*
X183909196Y-84556373D01*
X183626231Y-84525944D01*
X183398334Y-84530234D01*
X183172341Y-84569532D01*
X183007144Y-84614978D01*
X182639551Y-84747296D01*
X182230507Y-84926179D01*
X181817393Y-85134682D01*
X181437590Y-85355862D01*
X181408423Y-85374654D01*
X181105301Y-85600106D01*
X180755867Y-85904736D01*
X180380110Y-86268423D01*
X179998018Y-86671049D01*
X179629583Y-87092493D01*
X179294793Y-87512635D01*
X178926907Y-87996912D01*
X178597218Y-88420328D01*
X178311968Y-88770751D01*
X178057806Y-89062040D01*
X177821380Y-89308050D01*
X177589340Y-89522639D01*
X177348335Y-89719663D01*
X177085013Y-89912980D01*
X176786024Y-90116445D01*
X176629353Y-90217977D01*
X176348929Y-90391804D01*
X176040848Y-90575565D01*
X175727057Y-90756850D01*
X175429502Y-90923250D01*
X175170130Y-91062355D01*
X174970888Y-91161756D01*
X174853723Y-91209043D01*
X174844771Y-91211423D01*
X174739274Y-91271299D01*
X174639306Y-91401822D01*
X174526219Y-91626778D01*
X174478862Y-91725201D01*
X174386948Y-91881633D01*
X174264089Y-92047944D01*
X174095279Y-92242139D01*
X173865508Y-92482222D01*
X173559769Y-92786199D01*
X173496568Y-92848073D01*
X173209514Y-93124865D01*
X172981776Y-93333356D01*
X172791892Y-93490270D01*
X172618400Y-93612334D01*
X172439838Y-93716274D01*
X172234744Y-93818814D01*
X172101320Y-93882542D01*
X171772548Y-94040486D01*
X171417910Y-94211786D01*
X171093976Y-94369152D01*
X171057572Y-94386806D01*
X170720896Y-94538895D01*
X170390632Y-94663749D01*
X170048382Y-94764770D01*
X169675751Y-94845361D01*
X169254343Y-94908927D01*
X168765762Y-94958869D01*
X168191611Y-94998591D01*
X167513494Y-95031496D01*
X167204789Y-95043564D01*
X166704685Y-95060255D01*
X166211963Y-95073577D01*
X165755345Y-95082882D01*
X165363551Y-95087520D01*
X165065301Y-95086842D01*
X164931847Y-95085554D01*
X164524970Y-95092003D01*
X164122389Y-95117129D01*
X163682982Y-95164170D01*
X163165625Y-95236362D01*
X163072475Y-95250434D01*
X162544972Y-95332305D01*
X162127365Y-95401688D01*
X161809607Y-95460567D01*
X161581652Y-95510927D01*
X161433453Y-95554752D01*
X161354965Y-95594027D01*
X161352053Y-95596221D01*
X161255934Y-95644313D01*
X161081438Y-95714588D01*
X160864153Y-95792643D01*
X160736665Y-95836959D01*
X160384680Y-95975455D01*
X160111731Y-96116942D01*
X159885963Y-96279918D01*
X159675521Y-96482881D01*
X159471787Y-96716400D01*
X159240973Y-97010766D01*
X159027258Y-97311156D01*
X158853020Y-97585956D01*
X158740638Y-97803553D01*
X158699502Y-97926779D01*
X158636871Y-98197611D01*
X158577442Y-98543818D01*
X158524850Y-98937033D01*
X158482729Y-99348889D01*
X158454716Y-99751021D01*
X158444444Y-100115060D01*
X158444708Y-100209946D01*
X158453963Y-100520969D01*
X158482297Y-100775911D01*
X158537667Y-101027321D01*
X158628027Y-101327753D01*
X158724151Y-101600334D01*
X158842479Y-101882409D01*
X158958498Y-102110022D01*
X159061364Y-102262211D01*
X159140236Y-102318015D01*
X159155185Y-102314868D01*
X159254504Y-102270383D01*
X159400357Y-102189978D01*
X159560693Y-102063603D01*
X159618072Y-101923608D01*
X159640576Y-101806907D01*
X159641604Y-101804895D01*
X159837701Y-101804895D01*
X159848748Y-101907458D01*
X159893237Y-101987447D01*
X159943737Y-102134819D01*
X159981686Y-102203721D01*
X160097612Y-102352165D01*
X160276193Y-102555077D01*
X160502884Y-102796056D01*
X160763141Y-103058702D01*
X160989749Y-103279143D01*
X161227984Y-103504722D01*
X161428074Y-103687552D01*
X161573935Y-103812978D01*
X161649483Y-103866344D01*
X161672510Y-103872531D01*
X161730274Y-103853067D01*
X161776336Y-103757253D01*
X161823659Y-103562474D01*
X161894376Y-103221832D01*
X161587220Y-102953140D01*
X161569066Y-102937140D01*
X161254950Y-102621922D01*
X160978900Y-102275480D01*
X160763279Y-101929111D01*
X160635759Y-101626703D01*
X160819346Y-101626703D01*
X160900727Y-101843760D01*
X161070995Y-102111008D01*
X161334993Y-102439644D01*
X161425826Y-102543219D01*
X161620630Y-102746357D01*
X161748207Y-102847562D01*
X161807087Y-102848043D01*
X161795798Y-102749008D01*
X161712870Y-102551667D01*
X161556832Y-102257229D01*
X161530100Y-102210090D01*
X161340253Y-101892429D01*
X161169605Y-101635793D01*
X161027314Y-101452159D01*
X160922540Y-101353505D01*
X160864442Y-101351807D01*
X160822010Y-101448646D01*
X160819346Y-101626703D01*
X160635759Y-101626703D01*
X160630449Y-101614110D01*
X160577850Y-101454928D01*
X160504887Y-101319452D01*
X160425644Y-101277952D01*
X160332101Y-101297262D01*
X160177894Y-101384019D01*
X160027364Y-101515796D01*
X159905603Y-101665214D01*
X159837701Y-101804895D01*
X159641604Y-101804895D01*
X159743649Y-101605128D01*
X159906532Y-101401513D01*
X160102917Y-101233505D01*
X160123083Y-101221085D01*
X161074403Y-101221085D01*
X161383339Y-101693253D01*
X161566364Y-101986851D01*
X161740252Y-102295056D01*
X161878941Y-102572539D01*
X161970866Y-102796044D01*
X161982810Y-102848043D01*
X162004462Y-102942312D01*
X162038699Y-103034240D01*
X162141088Y-103141228D01*
X162241541Y-103203734D01*
X162323039Y-103221832D01*
X162342934Y-103226250D01*
X162463337Y-103188146D01*
X162643533Y-103084846D01*
X162718354Y-103041661D01*
X162856122Y-102978327D01*
X162932462Y-102966850D01*
X162960763Y-102971281D01*
X163005041Y-102896451D01*
X163030278Y-102720102D01*
X163035141Y-102455446D01*
X163018298Y-102115693D01*
X162970875Y-101623032D01*
X162821030Y-100702956D01*
X162629479Y-99984174D01*
X162838660Y-99984174D01*
X162869602Y-100102190D01*
X162930227Y-100291312D01*
X163011629Y-100658595D01*
X163082116Y-101116027D01*
X163139353Y-101644555D01*
X163181007Y-102225122D01*
X163189917Y-102455446D01*
X163204743Y-102838675D01*
X163207416Y-102950119D01*
X163223299Y-103446633D01*
X163244684Y-103927189D01*
X163270320Y-104374047D01*
X163298956Y-104769468D01*
X163329339Y-105095713D01*
X163360219Y-105335043D01*
X163390345Y-105469719D01*
X163412146Y-105513944D01*
X163465223Y-105562060D01*
X163478568Y-105561005D01*
X163605367Y-105506550D01*
X163765330Y-105391596D01*
X163920584Y-105246770D01*
X164024330Y-105114111D01*
X164208434Y-105114111D01*
X164208669Y-105117927D01*
X164264960Y-105190672D01*
X164385816Y-105268856D01*
X164521323Y-105325809D01*
X164621566Y-105334859D01*
X164687533Y-105292280D01*
X164675417Y-105229282D01*
X164560361Y-105179464D01*
X164465463Y-105155169D01*
X164315542Y-105104575D01*
X164253878Y-105088672D01*
X164208434Y-105114111D01*
X164024330Y-105114111D01*
X164033256Y-105102698D01*
X164050170Y-105074037D01*
X164129918Y-104952164D01*
X164204894Y-104902478D01*
X164315297Y-104914115D01*
X164501329Y-104976211D01*
X164748409Y-105063386D01*
X164717979Y-103859223D01*
X164717315Y-103833382D01*
X164704998Y-103450705D01*
X164689371Y-103100756D01*
X164671758Y-102805953D01*
X164653487Y-102588710D01*
X164635884Y-102471446D01*
X164627504Y-102440286D01*
X164582868Y-102242421D01*
X164543959Y-102027711D01*
X164543732Y-102026246D01*
X164507902Y-101861007D01*
X164453538Y-101785559D01*
X164357477Y-101767590D01*
X164234430Y-101741998D01*
X164107655Y-101618365D01*
X164043788Y-101398809D01*
X164044268Y-101336341D01*
X164222902Y-101336341D01*
X164238478Y-101459806D01*
X164284169Y-101532598D01*
X164396173Y-101583976D01*
X164444087Y-101578214D01*
X164489234Y-101534824D01*
X164509665Y-101424955D01*
X164514458Y-101220731D01*
X164503700Y-100985345D01*
X164467003Y-100755857D01*
X164410201Y-100600581D01*
X164339488Y-100543494D01*
X164337118Y-100543773D01*
X164301855Y-100605974D01*
X164268844Y-100752235D01*
X164242043Y-100946652D01*
X164225409Y-101153322D01*
X164222902Y-101336341D01*
X164044268Y-101336341D01*
X164046158Y-101090572D01*
X164065086Y-100928000D01*
X164095251Y-100716482D01*
X164122486Y-100572542D01*
X164137499Y-100492088D01*
X164113577Y-100443201D01*
X164020857Y-100423926D01*
X163832539Y-100420182D01*
X163779032Y-100419412D01*
X163471505Y-100379532D01*
X163256166Y-100274837D01*
X163119269Y-100099137D01*
X163116405Y-100093117D01*
X163088827Y-99997991D01*
X163290361Y-99997991D01*
X163298109Y-100050647D01*
X163395820Y-100160782D01*
X163606115Y-100225512D01*
X163929641Y-100245088D01*
X164112779Y-100247197D01*
X164266533Y-100268084D01*
X164376601Y-100322338D01*
X164486626Y-100423976D01*
X164544289Y-100486853D01*
X164600172Y-100567322D01*
X164636745Y-100667070D01*
X164659647Y-100811870D01*
X164674516Y-101027492D01*
X164682238Y-101220731D01*
X164686993Y-101339708D01*
X164687269Y-101347394D01*
X164700471Y-101629464D01*
X164716965Y-101859784D01*
X164734673Y-102014811D01*
X164751520Y-102071005D01*
X164774647Y-102062327D01*
X164875524Y-101989015D01*
X165017010Y-101863997D01*
X165170026Y-101715063D01*
X165305498Y-101570003D01*
X165394347Y-101456608D01*
X165441213Y-101373555D01*
X165462011Y-101281150D01*
X165441752Y-101158691D01*
X165379135Y-100964026D01*
X165362469Y-100916200D01*
X165186436Y-100485823D01*
X164990016Y-100145995D01*
X164759274Y-99870726D01*
X165124766Y-99870726D01*
X165142179Y-99977349D01*
X165163178Y-100002206D01*
X165244567Y-100050215D01*
X165293575Y-99980578D01*
X165309798Y-99793735D01*
X165309476Y-99533614D01*
X165195568Y-99717229D01*
X165124766Y-99870726D01*
X164759274Y-99870726D01*
X164756738Y-99867701D01*
X164702278Y-99815775D01*
X164518301Y-99685774D01*
X164315069Y-99625751D01*
X164062521Y-99630662D01*
X163932606Y-99656024D01*
X163730597Y-99695460D01*
X163607780Y-99727835D01*
X163417423Y-99799878D01*
X163318623Y-99885115D01*
X163290361Y-99997991D01*
X163088827Y-99997991D01*
X163071569Y-99938465D01*
X163111051Y-99800994D01*
X163182118Y-99668204D01*
X162993860Y-99802256D01*
X162874938Y-99899029D01*
X162838660Y-99984174D01*
X162629479Y-99984174D01*
X162599116Y-99870241D01*
X162541938Y-99686136D01*
X162450799Y-99288795D01*
X162620287Y-99288795D01*
X162641596Y-99417861D01*
X162696784Y-99584740D01*
X162770938Y-99758275D01*
X162900929Y-99656024D01*
X163229157Y-99656024D01*
X163259759Y-99686626D01*
X163290361Y-99656024D01*
X163259759Y-99625422D01*
X163229157Y-99656024D01*
X162900929Y-99656024D01*
X162935265Y-99629015D01*
X162954635Y-99614290D01*
X163092362Y-99527239D01*
X163490552Y-99527239D01*
X163491500Y-99548132D01*
X163570884Y-99559385D01*
X163631045Y-99549584D01*
X163607861Y-99522407D01*
X163572468Y-99512628D01*
X163490552Y-99527239D01*
X163092362Y-99527239D01*
X163134369Y-99500688D01*
X163332688Y-99401815D01*
X163376470Y-99383227D01*
X163490732Y-99327018D01*
X163506543Y-99290640D01*
X163437027Y-99255716D01*
X163433936Y-99254526D01*
X163307538Y-99169780D01*
X163183781Y-99036661D01*
X163059291Y-98865764D01*
X162838618Y-99016075D01*
X162809815Y-99036503D01*
X162670948Y-99169319D01*
X162620287Y-99288795D01*
X162450799Y-99288795D01*
X162439938Y-99241444D01*
X162415551Y-98875663D01*
X162556322Y-98875663D01*
X162558105Y-98903918D01*
X162590796Y-98941487D01*
X162679673Y-98911255D01*
X162844269Y-98808680D01*
X162923770Y-98747475D01*
X162984357Y-98680191D01*
X163260167Y-98680191D01*
X163296841Y-98822036D01*
X163323629Y-98882558D01*
X163484990Y-99061984D01*
X163744854Y-99198251D01*
X164088018Y-99282507D01*
X164134334Y-99290640D01*
X164144892Y-99292494D01*
X164372781Y-99357138D01*
X164563834Y-99443562D01*
X164613196Y-99471296D01*
X164831148Y-99548161D01*
X164869167Y-99549584D01*
X165031745Y-99555669D01*
X165175470Y-99490771D01*
X165215737Y-99442144D01*
X165250471Y-99289939D01*
X165164528Y-99120550D01*
X164958193Y-98934698D01*
X164688434Y-98746992D01*
X164469963Y-98623705D01*
X164269953Y-98555420D01*
X164051110Y-98529469D01*
X163776141Y-98533184D01*
X163724329Y-98535738D01*
X163502603Y-98551535D01*
X163448894Y-98557910D01*
X163338485Y-98571015D01*
X163264351Y-98590549D01*
X163261462Y-98594464D01*
X163260167Y-98680191D01*
X162984357Y-98680191D01*
X163018921Y-98641806D01*
X163050676Y-98557910D01*
X163003426Y-98523735D01*
X162964845Y-98533140D01*
X162847870Y-98598446D01*
X162713433Y-98698837D01*
X162602571Y-98802010D01*
X162556322Y-98875663D01*
X162415551Y-98875663D01*
X162413108Y-98839013D01*
X162461124Y-98439483D01*
X162462016Y-98436310D01*
X162652923Y-98436310D01*
X162712645Y-98446586D01*
X162861305Y-98393988D01*
X162951259Y-98374867D01*
X163148194Y-98357787D01*
X163409471Y-98349619D01*
X163702992Y-98351964D01*
X163951603Y-98356528D01*
X164180139Y-98355837D01*
X164335122Y-98349559D01*
X164392168Y-98338181D01*
X164376342Y-98322783D01*
X164275192Y-98277282D01*
X164111492Y-98222801D01*
X163807370Y-98093037D01*
X163559177Y-97889889D01*
X163412110Y-97634262D01*
X163376171Y-97542206D01*
X163582675Y-97542206D01*
X163604418Y-97646999D01*
X163687223Y-97792195D01*
X163842800Y-97913245D01*
X164087569Y-98021394D01*
X164437952Y-98127885D01*
X164523951Y-98169925D01*
X164575663Y-98251027D01*
X164575782Y-98254366D01*
X164622889Y-98338181D01*
X164627230Y-98345904D01*
X164743976Y-98444609D01*
X164811833Y-98493648D01*
X164973526Y-98633973D01*
X165136058Y-98797947D01*
X165359828Y-99043976D01*
X165403728Y-98872020D01*
X165428017Y-98721132D01*
X165418465Y-98444786D01*
X165352959Y-98185750D01*
X165240703Y-97993625D01*
X165079409Y-97859322D01*
X164825811Y-97707669D01*
X164529004Y-97568357D01*
X164224663Y-97456128D01*
X163948466Y-97385724D01*
X163736087Y-97371887D01*
X163678298Y-97380750D01*
X163592268Y-97429176D01*
X163582675Y-97542206D01*
X163376171Y-97542206D01*
X163371575Y-97530435D01*
X163294619Y-97443424D01*
X163167603Y-97422048D01*
X163085070Y-97428861D01*
X163007414Y-97471756D01*
X162940048Y-97577862D01*
X162859513Y-97773976D01*
X162799903Y-97934229D01*
X162725125Y-98144365D01*
X162675773Y-98294217D01*
X162659717Y-98351102D01*
X162652923Y-98436310D01*
X162462016Y-98436310D01*
X162583659Y-98003494D01*
X162601635Y-97952167D01*
X162703114Y-97695620D01*
X162810190Y-97468016D01*
X162902465Y-97313502D01*
X162984138Y-97186795D01*
X163031035Y-97034617D01*
X162988930Y-96940482D01*
X162859419Y-96919018D01*
X162736976Y-96950174D01*
X162507708Y-97059618D01*
X162259803Y-97221866D01*
X162029566Y-97412140D01*
X161853302Y-97605663D01*
X161842038Y-97621095D01*
X161743311Y-97768459D01*
X161665447Y-97918618D01*
X161603690Y-98091468D01*
X161553285Y-98306906D01*
X161509478Y-98584826D01*
X161467514Y-98945123D01*
X161422638Y-99407695D01*
X161379930Y-99818644D01*
X161323051Y-100246166D01*
X161262163Y-100592235D01*
X161260020Y-100600714D01*
X161200451Y-100836386D01*
X161074403Y-101221085D01*
X160123083Y-101221085D01*
X160150466Y-101204220D01*
X160319514Y-101131641D01*
X160484207Y-101096771D01*
X160609052Y-101104359D01*
X160658554Y-101159154D01*
X160665336Y-101183136D01*
X160726352Y-101182070D01*
X160729063Y-101180252D01*
X160766203Y-101085695D01*
X160757009Y-100907900D01*
X160747028Y-100837739D01*
X160746532Y-100710390D01*
X160912156Y-100710390D01*
X160918209Y-100860368D01*
X160937950Y-100950911D01*
X160963553Y-100944087D01*
X161014857Y-100830232D01*
X161065104Y-100693943D01*
X161086988Y-100600714D01*
X161059439Y-100549203D01*
X160988690Y-100557889D01*
X160927215Y-100630850D01*
X160912156Y-100710390D01*
X160746532Y-100710390D01*
X160746254Y-100639067D01*
X160812350Y-100511632D01*
X160958575Y-100423571D01*
X160962739Y-100421842D01*
X161031436Y-100388333D01*
X161080404Y-100340564D01*
X161115863Y-100257010D01*
X161144033Y-100116147D01*
X161171134Y-99896452D01*
X161203386Y-99576401D01*
X161234675Y-99277770D01*
X161304390Y-98736923D01*
X161380965Y-98291763D01*
X161462744Y-97951193D01*
X161548070Y-97724115D01*
X161610100Y-97618213D01*
X161797925Y-97383272D01*
X162032060Y-97168928D01*
X162291314Y-96987070D01*
X162554497Y-96849584D01*
X162800418Y-96768359D01*
X163007886Y-96755282D01*
X163155711Y-96822241D01*
X163205162Y-96918142D01*
X163229157Y-97072803D01*
X163229157Y-97249920D01*
X163550482Y-97206654D01*
X163675925Y-97189145D01*
X163818786Y-97167083D01*
X163876216Y-97155007D01*
X163899725Y-97111031D01*
X164117498Y-97111031D01*
X164125388Y-97186300D01*
X164203686Y-97248116D01*
X164376489Y-97318360D01*
X164467564Y-97350732D01*
X164635678Y-97403917D01*
X164719494Y-97408209D01*
X164740877Y-97359512D01*
X164721695Y-97253735D01*
X164670294Y-97072820D01*
X164597318Y-96880848D01*
X164524610Y-96741416D01*
X164467045Y-96687590D01*
X164401681Y-96717746D01*
X164293324Y-96820628D01*
X164188899Y-96957836D01*
X164123403Y-97088540D01*
X164117498Y-97111031D01*
X163899725Y-97111031D01*
X163917063Y-97078597D01*
X164090920Y-96787993D01*
X164237974Y-96606930D01*
X164363533Y-96528585D01*
X164393465Y-96521562D01*
X164535852Y-96512836D01*
X164641085Y-96571103D01*
X164727953Y-96714328D01*
X164815249Y-96960479D01*
X164872363Y-97140360D01*
X164952732Y-97359512D01*
X164957127Y-97371497D01*
X165042588Y-97537324D01*
X165147686Y-97671550D01*
X165291361Y-97807885D01*
X165408490Y-97917879D01*
X165497556Y-98030225D01*
X165555415Y-98159839D01*
X165585740Y-98327614D01*
X165592205Y-98554445D01*
X165584750Y-98721132D01*
X165578484Y-98861224D01*
X165548250Y-99268844D01*
X165546559Y-99289939D01*
X165506185Y-99793735D01*
X165471369Y-100228170D01*
X165709995Y-100523543D01*
X165823505Y-100661886D01*
X165931758Y-100788840D01*
X165989048Y-100849518D01*
X166015334Y-100884660D01*
X166090910Y-101016643D01*
X166200503Y-101224928D01*
X166333806Y-101488508D01*
X166480514Y-101786376D01*
X166630320Y-102097525D01*
X166772920Y-102400948D01*
X166898008Y-102675638D01*
X166995277Y-102900588D01*
X167097471Y-103171990D01*
X167253614Y-103778173D01*
X167308729Y-104367461D01*
X167264453Y-104927275D01*
X167122428Y-105445036D01*
X166884292Y-105908165D01*
X166551684Y-106304083D01*
X166403589Y-106436299D01*
X166024999Y-106732199D01*
X165578639Y-107037767D01*
X165096611Y-107331688D01*
X164611017Y-107592647D01*
X164590835Y-107602718D01*
X164288671Y-107756870D01*
X163926926Y-107946108D01*
X163549264Y-108147389D01*
X163199348Y-108337670D01*
X163007200Y-108444451D01*
X162751522Y-108593198D01*
X162538804Y-108731169D01*
X162343478Y-108878159D01*
X162139976Y-109053964D01*
X161902731Y-109278381D01*
X161606175Y-109571205D01*
X161558598Y-109618762D01*
X161199028Y-109990877D01*
X160923475Y-110305657D01*
X160721006Y-110579535D01*
X160580691Y-110828945D01*
X160491595Y-111070322D01*
X160442786Y-111320102D01*
X160439793Y-111343561D01*
X160423785Y-111451573D01*
X160400661Y-111576332D01*
X160366461Y-111734787D01*
X160317220Y-111943889D01*
X160248976Y-112220588D01*
X160157767Y-112581835D01*
X160039630Y-113044578D01*
X160031919Y-113075153D01*
X159940627Y-113583188D01*
X159915238Y-114130964D01*
X159915617Y-114163912D01*
X159930601Y-114458304D01*
X159971389Y-114736818D01*
X160045376Y-115023644D01*
X160159961Y-115342975D01*
X160322539Y-115719001D01*
X160540508Y-116175916D01*
X160640465Y-116363516D01*
X160790739Y-116615709D01*
X160963745Y-116884733D01*
X161145160Y-117150312D01*
X161320659Y-117392170D01*
X161475920Y-117590031D01*
X161596619Y-117723616D01*
X161668434Y-117772651D01*
X161697425Y-117739586D01*
X161733977Y-117614031D01*
X161760469Y-117426897D01*
X161772050Y-117327196D01*
X161791129Y-117258709D01*
X161956156Y-117258709D01*
X161958811Y-117264636D01*
X162008117Y-117258974D01*
X162085763Y-117168960D01*
X162111070Y-117127027D01*
X162143047Y-117027666D01*
X162102246Y-117012300D01*
X162006768Y-117097340D01*
X161970870Y-117156036D01*
X161956156Y-117258709D01*
X161791129Y-117258709D01*
X161847054Y-117057957D01*
X161983830Y-116883994D01*
X162190792Y-116792908D01*
X162220405Y-116786155D01*
X162319892Y-116753398D01*
X162398605Y-116695550D01*
X162473267Y-116590538D01*
X162560604Y-116416287D01*
X162677340Y-116150723D01*
X162852655Y-115771025D01*
X163054588Y-115412887D01*
X163241273Y-115175393D01*
X163412987Y-115058132D01*
X163516678Y-115014244D01*
X163562307Y-114944343D01*
X163537162Y-114811124D01*
X163535489Y-114805195D01*
X163509750Y-114584826D01*
X163516493Y-114549679D01*
X163669047Y-114549679D01*
X163684241Y-114774075D01*
X163690387Y-114804406D01*
X163729208Y-114931754D01*
X163767472Y-114978661D01*
X163840223Y-114965870D01*
X163978916Y-114943993D01*
X164032225Y-114932684D01*
X164130641Y-114864125D01*
X164130603Y-114862971D01*
X164457885Y-114862971D01*
X164541350Y-114832986D01*
X164664649Y-114760734D01*
X164773580Y-114678582D01*
X164820482Y-114618648D01*
X164795330Y-114563746D01*
X164710421Y-114591449D01*
X164575663Y-114712410D01*
X164557177Y-114732301D01*
X164476865Y-114826106D01*
X164457885Y-114862971D01*
X164130603Y-114862971D01*
X164126543Y-114739992D01*
X164020652Y-114553545D01*
X163929374Y-114446798D01*
X163805407Y-114376999D01*
X163714034Y-114414306D01*
X163669047Y-114549679D01*
X163516493Y-114549679D01*
X163547522Y-114387941D01*
X163636998Y-114246426D01*
X163766369Y-114192169D01*
X163825186Y-114213971D01*
X163952279Y-114305380D01*
X164099566Y-114443838D01*
X164338973Y-114695507D01*
X164481619Y-114561499D01*
X164624265Y-114427490D01*
X164504610Y-114087051D01*
X164443566Y-113922171D01*
X164299823Y-113581384D01*
X164264186Y-113508471D01*
X164467470Y-113508471D01*
X164601108Y-113926826D01*
X164614073Y-113967163D01*
X164688937Y-114177204D01*
X164761882Y-114309591D01*
X164858569Y-114399679D01*
X165004661Y-114482823D01*
X165030991Y-114496371D01*
X165229389Y-114616943D01*
X165230772Y-114618648D01*
X165326696Y-114736922D01*
X165337142Y-114889133D01*
X165304513Y-115003132D01*
X165274954Y-115106404D01*
X165272311Y-115113758D01*
X165223899Y-115258087D01*
X165202844Y-115373976D01*
X165211502Y-115497724D01*
X165252230Y-115665630D01*
X165327384Y-115913990D01*
X165346584Y-115976987D01*
X165424620Y-116253444D01*
X165488789Y-116511221D01*
X165526751Y-116701566D01*
X165543726Y-116801344D01*
X165593306Y-117043475D01*
X165660239Y-117337459D01*
X165736056Y-117648959D01*
X165754792Y-117721382D01*
X165812289Y-117943638D01*
X165880467Y-118187160D01*
X165932124Y-118345187D01*
X165961333Y-118452528D01*
X165994742Y-118658967D01*
X166015784Y-118892391D01*
X166021741Y-118978385D01*
X166077739Y-119285186D01*
X166195968Y-119550343D01*
X166310986Y-119713800D01*
X166445286Y-119817413D01*
X166555178Y-119805753D01*
X166629385Y-119681354D01*
X166648983Y-119512584D01*
X166779036Y-119512584D01*
X166808851Y-119540796D01*
X166940150Y-119568220D01*
X167156466Y-119578193D01*
X167343075Y-119575712D01*
X167472957Y-119565457D01*
X167480847Y-119547509D01*
X167366822Y-119522146D01*
X167130964Y-119489644D01*
X167007140Y-119477074D01*
X166835771Y-119477115D01*
X166779036Y-119512584D01*
X166648983Y-119512584D01*
X166656627Y-119446754D01*
X166675786Y-119287479D01*
X166694297Y-119238463D01*
X166847338Y-119238463D01*
X166879845Y-119253851D01*
X167008485Y-119284553D01*
X167192153Y-119312366D01*
X167355755Y-119329832D01*
X167452995Y-119325153D01*
X167481306Y-119282097D01*
X167468740Y-119188056D01*
X167451186Y-119120565D01*
X167385196Y-119045560D01*
X167242635Y-119027349D01*
X167227889Y-119027605D01*
X167076273Y-119053934D01*
X166938901Y-119110354D01*
X166850885Y-119178114D01*
X166847338Y-119238463D01*
X166694297Y-119238463D01*
X166751858Y-119086047D01*
X166864705Y-118951781D01*
X166888779Y-118940924D01*
X167018729Y-118916197D01*
X167198332Y-118905877D01*
X167464615Y-118904940D01*
X167436278Y-118644819D01*
X167415346Y-118513088D01*
X167368360Y-118281615D01*
X167303817Y-117993506D01*
X167228897Y-117678155D01*
X167150779Y-117364953D01*
X167076645Y-117083293D01*
X167013674Y-116862568D01*
X166970805Y-116737305D01*
X167160210Y-116737305D01*
X167161903Y-116802377D01*
X167184093Y-116936610D01*
X167186518Y-116948334D01*
X167225871Y-117077027D01*
X167266362Y-117130000D01*
X167277275Y-117127960D01*
X167370374Y-117079175D01*
X167515805Y-116982621D01*
X167682682Y-116861358D01*
X167840120Y-116738446D01*
X167957232Y-116636944D01*
X168003133Y-116579913D01*
X167976317Y-116522276D01*
X167863823Y-116490387D01*
X167687563Y-116513497D01*
X167473716Y-116591056D01*
X167356486Y-116645771D01*
X167220562Y-116709049D01*
X167161141Y-116736473D01*
X167160210Y-116737305D01*
X166970805Y-116737305D01*
X166969047Y-116732169D01*
X166956975Y-116703038D01*
X166900152Y-116545653D01*
X166839465Y-116355832D01*
X166746732Y-116152945D01*
X166744474Y-116150723D01*
X167023855Y-116150723D01*
X167052233Y-116207850D01*
X167143648Y-116176725D01*
X167290931Y-116050569D01*
X167352610Y-115988124D01*
X167427643Y-115893372D01*
X167435820Y-115811212D01*
X167391084Y-115691687D01*
X167364971Y-115633376D01*
X167341415Y-115613895D01*
X167334181Y-115711012D01*
X167315645Y-115806549D01*
X167298350Y-115895685D01*
X167217359Y-116034687D01*
X167113509Y-116089518D01*
X167073275Y-116096069D01*
X167023855Y-116150723D01*
X166744474Y-116150723D01*
X166613050Y-116021370D01*
X166575569Y-115997761D01*
X166440628Y-115863278D01*
X166333216Y-115692266D01*
X166299580Y-115574253D01*
X166480268Y-115574253D01*
X166507689Y-115644013D01*
X166598667Y-115750994D01*
X166608385Y-115760426D01*
X166794815Y-115894896D01*
X166966267Y-115944279D01*
X167100763Y-115913266D01*
X167176327Y-115806549D01*
X167170981Y-115628820D01*
X167148268Y-115552082D01*
X167101819Y-115494824D01*
X167005408Y-115481461D01*
X166823419Y-115498656D01*
X166714986Y-115513396D01*
X166559229Y-115542790D01*
X166483259Y-115569231D01*
X166480268Y-115574253D01*
X166299580Y-115574253D01*
X166289398Y-115538530D01*
X166289530Y-115535919D01*
X166345666Y-115470452D01*
X166473012Y-115407094D01*
X166537024Y-115384851D01*
X166632178Y-115339700D01*
X166641663Y-115275010D01*
X166585597Y-115143723D01*
X166549400Y-115077961D01*
X166454979Y-115006195D01*
X166289059Y-114987831D01*
X166202771Y-114981197D01*
X166017168Y-114914188D01*
X165897207Y-114793802D01*
X165878183Y-114683835D01*
X166061834Y-114683835D01*
X166087852Y-114748837D01*
X166156038Y-114781638D01*
X166319533Y-114814262D01*
X166528732Y-114829129D01*
X166643836Y-114829662D01*
X166809308Y-114818110D01*
X166901023Y-114782019D01*
X166951509Y-114712410D01*
X166957777Y-114697289D01*
X166972401Y-114533139D01*
X166917407Y-114373900D01*
X166810972Y-114276018D01*
X166693107Y-114259044D01*
X166478515Y-114323794D01*
X166228193Y-114494484D01*
X166115815Y-114597401D01*
X166061834Y-114683835D01*
X165878183Y-114683835D01*
X165871180Y-114643358D01*
X165896005Y-114591073D01*
X165998864Y-114469896D01*
X166149598Y-114338216D01*
X166407070Y-114141835D01*
X166229990Y-113919009D01*
X166089424Y-113706059D01*
X166006760Y-113440665D01*
X166017148Y-113365904D01*
X166168862Y-113365904D01*
X166184635Y-113514655D01*
X166228193Y-113641325D01*
X166249419Y-113669878D01*
X166279247Y-113664695D01*
X166287523Y-113549518D01*
X166271751Y-113400767D01*
X166228193Y-113274096D01*
X166206966Y-113245544D01*
X166177138Y-113250727D01*
X166168862Y-113365904D01*
X166017148Y-113365904D01*
X166039174Y-113207380D01*
X166420869Y-113207380D01*
X166434759Y-113342952D01*
X166460647Y-113510977D01*
X166463474Y-113549518D01*
X166473012Y-113679578D01*
X166487350Y-113772805D01*
X166534217Y-113824940D01*
X166587844Y-113808059D01*
X166699283Y-113719750D01*
X166797806Y-113597338D01*
X166840241Y-113488313D01*
X166831047Y-113440147D01*
X166749506Y-113310692D01*
X166622061Y-113199138D01*
X166495964Y-113151687D01*
X166460720Y-113155685D01*
X166420869Y-113207380D01*
X166039174Y-113207380D01*
X166041555Y-113190241D01*
X166059666Y-113141831D01*
X166075957Y-113061591D01*
X166023280Y-113041707D01*
X165875769Y-113062204D01*
X165497432Y-113143857D01*
X165093700Y-113260943D01*
X164739156Y-113392013D01*
X164467470Y-113508471D01*
X164264186Y-113508471D01*
X164144566Y-113263728D01*
X163993669Y-113000480D01*
X163863008Y-112822918D01*
X163828221Y-112780893D01*
X163784210Y-112694093D01*
X164016109Y-112694093D01*
X164067985Y-112817369D01*
X164171921Y-112993145D01*
X164174364Y-112997201D01*
X164284298Y-113177293D01*
X164367125Y-113308533D01*
X164405079Y-113362760D01*
X164413024Y-113362901D01*
X164496844Y-113332669D01*
X164636867Y-113267449D01*
X164646142Y-113262907D01*
X164837057Y-113186815D01*
X165106619Y-113099293D01*
X165415976Y-113011423D01*
X165726279Y-112934288D01*
X165998675Y-112878971D01*
X166228193Y-112840116D01*
X166228193Y-112480064D01*
X166228193Y-112120013D01*
X165885897Y-112077246D01*
X165513954Y-112056014D01*
X164997113Y-112118510D01*
X164526103Y-112290834D01*
X164286469Y-112413934D01*
X164113987Y-112514909D01*
X164027655Y-112600784D01*
X164016109Y-112694093D01*
X163784210Y-112694093D01*
X163724349Y-112576034D01*
X163652449Y-112280007D01*
X163626652Y-112034401D01*
X163931376Y-112034401D01*
X163945197Y-112219231D01*
X163994217Y-112399012D01*
X164392048Y-112193279D01*
X164807150Y-112016086D01*
X165302004Y-111902230D01*
X165774714Y-111900912D01*
X166086295Y-111939260D01*
X166057250Y-111741362D01*
X166028205Y-111543464D01*
X165439645Y-111577752D01*
X165279863Y-111590188D01*
X164934833Y-111635752D01*
X164604151Y-111701703D01*
X164314781Y-111781164D01*
X164093686Y-111867260D01*
X163967831Y-111953112D01*
X163931376Y-112034401D01*
X163626652Y-112034401D01*
X163610790Y-111883386D01*
X163599478Y-111447510D01*
X163723598Y-111447510D01*
X163732774Y-111700295D01*
X163762328Y-111860598D01*
X163809816Y-111918675D01*
X163872798Y-111864783D01*
X163969083Y-111783442D01*
X164165427Y-111689704D01*
X164431788Y-111596620D01*
X164741398Y-111511491D01*
X165067490Y-111441617D01*
X165383296Y-111394297D01*
X165662048Y-111376831D01*
X165676779Y-111376775D01*
X165807344Y-111370983D01*
X165860964Y-111358596D01*
X165855279Y-111340640D01*
X165813927Y-111233094D01*
X165741288Y-111051833D01*
X165647788Y-110823054D01*
X165434612Y-110305663D01*
X165089376Y-110318196D01*
X164793112Y-110339640D01*
X164421333Y-110401118D01*
X164120471Y-110493712D01*
X163915561Y-110611172D01*
X163861224Y-110661045D01*
X163799472Y-110742860D01*
X163762421Y-110853359D01*
X163741361Y-111023781D01*
X163727582Y-111285365D01*
X163723598Y-111447510D01*
X163599478Y-111447510D01*
X163597642Y-111376747D01*
X163597741Y-111339356D01*
X163608274Y-111007350D01*
X163642920Y-110769870D01*
X163711361Y-110602136D01*
X163823279Y-110479370D01*
X163988356Y-110376791D01*
X164109042Y-110328359D01*
X164336319Y-110267879D01*
X164607342Y-110217000D01*
X164889619Y-110179780D01*
X165150661Y-110160276D01*
X165357978Y-110162545D01*
X165479079Y-110190644D01*
X165503573Y-110214184D01*
X165583098Y-110337245D01*
X165682228Y-110532159D01*
X165785117Y-110768979D01*
X165827659Y-110872711D01*
X165928210Y-111101937D01*
X166015537Y-111280582D01*
X166063331Y-111358596D01*
X166074451Y-111376747D01*
X166088868Y-111395634D01*
X166152372Y-111532852D01*
X166200392Y-111713373D01*
X166209630Y-111761376D01*
X166250772Y-111923492D01*
X166257317Y-111939260D01*
X166290582Y-112019398D01*
X166291703Y-112020982D01*
X166320712Y-112113601D01*
X166321857Y-112120013D01*
X166352181Y-112289895D01*
X166379493Y-112513111D01*
X166390490Y-112621707D01*
X166415776Y-112805626D01*
X166451440Y-112910358D01*
X166511712Y-112966025D01*
X166610824Y-113002749D01*
X166773612Y-113086841D01*
X166919736Y-113222865D01*
X166997152Y-113380198D01*
X166993187Y-113488313D01*
X166989589Y-113586421D01*
X166863434Y-113792478D01*
X166620653Y-113993304D01*
X166561150Y-114033194D01*
X166540647Y-114062040D01*
X166626024Y-114058080D01*
X166817967Y-114074222D01*
X166995795Y-114176116D01*
X167107828Y-114344988D01*
X167141280Y-114533139D01*
X167145415Y-114556399D01*
X167099906Y-114785910D01*
X166962651Y-115009083D01*
X166909302Y-115071481D01*
X166815975Y-115191275D01*
X166779036Y-115256032D01*
X166784646Y-115264132D01*
X166868341Y-115285348D01*
X167020442Y-115293855D01*
X167201763Y-115316604D01*
X167406762Y-115419562D01*
X167536987Y-115582980D01*
X167587767Y-115781909D01*
X167583104Y-115811212D01*
X167554431Y-115991402D01*
X167432309Y-116186510D01*
X167216731Y-116342285D01*
X167216206Y-116342540D01*
X167092652Y-116427457D01*
X167076688Y-116504405D01*
X167096459Y-116525799D01*
X167181468Y-116530217D01*
X167337009Y-116461494D01*
X167591106Y-116359018D01*
X167843884Y-116328600D01*
X168049640Y-116381407D01*
X168185694Y-116515985D01*
X168186924Y-116518308D01*
X168199726Y-116579913D01*
X168204574Y-116603239D01*
X168153288Y-116698621D01*
X168017316Y-116834219D01*
X167957395Y-116886461D01*
X167752287Y-117048670D01*
X167559781Y-117181712D01*
X167518632Y-117207402D01*
X167403873Y-117290620D01*
X167377239Y-117350597D01*
X167422471Y-117414949D01*
X167475894Y-117473244D01*
X167551107Y-117583610D01*
X167621416Y-117735538D01*
X167698013Y-117954841D01*
X167792094Y-118267334D01*
X167847182Y-118453459D01*
X167928313Y-118700558D01*
X168014068Y-118911624D01*
X168120756Y-119120794D01*
X168264684Y-119362206D01*
X168462162Y-119670000D01*
X168525490Y-119764698D01*
X168962893Y-120311275D01*
X169461359Y-120771309D01*
X170007940Y-121135920D01*
X170589693Y-121396230D01*
X171193671Y-121543361D01*
X171378502Y-121566320D01*
X171607845Y-121578151D01*
X171824423Y-121561172D01*
X172047473Y-121509073D01*
X172296234Y-121415544D01*
X172589943Y-121274276D01*
X172947838Y-121078958D01*
X173389157Y-120823281D01*
X173816916Y-120573495D01*
X174259875Y-120321875D01*
X174625418Y-120125789D01*
X174927807Y-119979640D01*
X175181305Y-119877832D01*
X175400173Y-119814768D01*
X175598675Y-119784851D01*
X175791072Y-119782485D01*
X175991627Y-119802073D01*
X175991860Y-119802105D01*
X176182431Y-119839016D01*
X176256635Y-119877309D01*
X176220317Y-119911479D01*
X176079320Y-119936018D01*
X175839488Y-119945422D01*
X175648780Y-119950943D01*
X175334814Y-119992800D01*
X175028129Y-120085030D01*
X174696382Y-120238589D01*
X174307229Y-120464433D01*
X173914170Y-120706468D01*
X173436548Y-120993895D01*
X173037384Y-121223216D01*
X172703227Y-121400528D01*
X172420627Y-121531928D01*
X172176135Y-121623514D01*
X171956300Y-121681383D01*
X171747671Y-121711633D01*
X171536798Y-121720361D01*
X170951683Y-121659536D01*
X170364217Y-121476404D01*
X169775843Y-121170933D01*
X169186483Y-120743089D01*
X168875094Y-120447431D01*
X168512729Y-120013942D01*
X168182782Y-119526915D01*
X167909941Y-119023405D01*
X167718896Y-118540464D01*
X167691213Y-118451054D01*
X167611517Y-118197521D01*
X167542533Y-117983263D01*
X167496731Y-117847194D01*
X167493690Y-117838731D01*
X167442039Y-117713160D01*
X167419245Y-117698037D01*
X167424841Y-117785336D01*
X167458359Y-117967030D01*
X167519331Y-118235092D01*
X167557997Y-118412506D01*
X167601130Y-118683287D01*
X167623129Y-118904940D01*
X167632461Y-118998960D01*
X167648509Y-119282097D01*
X167654360Y-119385336D01*
X167659342Y-119547509D01*
X167669195Y-119868223D01*
X167675060Y-120207820D01*
X167674119Y-120663729D01*
X167658599Y-121022612D01*
X167626433Y-121299795D01*
X167575554Y-121510604D01*
X167503893Y-121670366D01*
X167409385Y-121794406D01*
X167394066Y-121810204D01*
X167236873Y-121939516D01*
X167119729Y-121957220D01*
X167032323Y-121859828D01*
X166964349Y-121643855D01*
X166948420Y-121580637D01*
X166874157Y-121347748D01*
X166769654Y-121069052D01*
X166652221Y-120791802D01*
X166595070Y-120662862D01*
X166500946Y-120436186D01*
X166436014Y-120260019D01*
X166411807Y-120164453D01*
X166416248Y-120118699D01*
X166460369Y-120069591D01*
X166530793Y-120112029D01*
X166601419Y-120236145D01*
X166650236Y-120353218D01*
X166739520Y-120552523D01*
X166842261Y-120771687D01*
X166923255Y-120952594D01*
X167024859Y-121211930D01*
X167095089Y-121429638D01*
X167124399Y-121529905D01*
X167177445Y-121666713D01*
X167218753Y-121720361D01*
X167220160Y-121720294D01*
X167284627Y-121671276D01*
X167371865Y-121558567D01*
X167412902Y-121478878D01*
X167445380Y-121358475D01*
X167466011Y-121183459D01*
X167477330Y-120931255D01*
X167481875Y-120579290D01*
X167485873Y-119761807D01*
X167146057Y-119761807D01*
X166948201Y-119770354D01*
X166799519Y-119807639D01*
X166701430Y-119884217D01*
X166665678Y-119922030D01*
X166519438Y-119998147D01*
X166359711Y-119957061D01*
X166179807Y-119797659D01*
X166098367Y-119696674D01*
X165965270Y-119462509D01*
X165882890Y-119179845D01*
X165838918Y-118813132D01*
X165802870Y-118535379D01*
X165730948Y-118257780D01*
X165637269Y-118056087D01*
X165605447Y-118064054D01*
X165523182Y-118132291D01*
X165485512Y-118165968D01*
X165352221Y-118272368D01*
X165161328Y-118416604D01*
X164940691Y-118577391D01*
X164912013Y-118597942D01*
X164695293Y-118757620D01*
X164552459Y-118880781D01*
X164459131Y-118997054D01*
X164404128Y-119109159D01*
X164390925Y-119136068D01*
X164323461Y-119327452D01*
X164284125Y-119437036D01*
X164098618Y-119786222D01*
X163844913Y-120042989D01*
X163509461Y-120222232D01*
X163376738Y-120267640D01*
X163206200Y-120293579D01*
X163049333Y-120261939D01*
X162957956Y-120234377D01*
X162872555Y-120239580D01*
X162792046Y-120309015D01*
X162680825Y-120462012D01*
X162586328Y-120592520D01*
X162336983Y-120865748D01*
X162098905Y-121017243D01*
X161870273Y-121046933D01*
X161649267Y-120954747D01*
X161434068Y-120740612D01*
X161222855Y-120404458D01*
X161213073Y-120385855D01*
X161143821Y-120241840D01*
X161100405Y-120108308D01*
X161077710Y-119952066D01*
X161070621Y-119739919D01*
X161071737Y-119641098D01*
X161254558Y-119641098D01*
X161258702Y-119869742D01*
X161278667Y-120035515D01*
X161319068Y-120171968D01*
X161384522Y-120312651D01*
X161430541Y-120397190D01*
X161548698Y-120587134D01*
X161654168Y-120725783D01*
X161693487Y-120764600D01*
X161871930Y-120857222D01*
X162064742Y-120828341D01*
X162271963Y-120677941D01*
X162493632Y-120406008D01*
X162613588Y-120216214D01*
X162656550Y-120099910D01*
X163288989Y-120099910D01*
X163305097Y-120124264D01*
X163402234Y-120101398D01*
X163565783Y-120027118D01*
X163584838Y-120016911D01*
X163870107Y-119814697D01*
X164071417Y-119552786D01*
X164210657Y-119203213D01*
X164233805Y-119109159D01*
X164217035Y-119061434D01*
X164127679Y-119083808D01*
X164031348Y-119157788D01*
X163955614Y-119332438D01*
X163944296Y-119369346D01*
X163906277Y-119493331D01*
X163726352Y-119767587D01*
X163437619Y-119990318D01*
X163368524Y-120032533D01*
X163323650Y-120070547D01*
X163288989Y-120099910D01*
X162656550Y-120099910D01*
X162667397Y-120070547D01*
X162644994Y-119957790D01*
X162579200Y-119882094D01*
X163098720Y-119882094D01*
X163109901Y-119941796D01*
X163209743Y-119923280D01*
X163394498Y-119825490D01*
X163462515Y-119776005D01*
X163590006Y-119646914D01*
X163696517Y-119500081D01*
X163759293Y-119369346D01*
X163755576Y-119288548D01*
X163695441Y-119295792D01*
X163576545Y-119368503D01*
X163429763Y-119485890D01*
X163283972Y-119624696D01*
X163168052Y-119761667D01*
X163098720Y-119882094D01*
X162579200Y-119882094D01*
X162549391Y-119847799D01*
X162536403Y-119835761D01*
X162410256Y-119683031D01*
X162290043Y-119463490D01*
X162167284Y-119159126D01*
X162033501Y-118751928D01*
X161992496Y-118620953D01*
X161916365Y-118393483D01*
X161853358Y-118224850D01*
X161814069Y-118144386D01*
X161742866Y-118134120D01*
X161632182Y-118209184D01*
X161507061Y-118353036D01*
X161389273Y-118545137D01*
X161355829Y-118620887D01*
X161306594Y-118804126D01*
X161275752Y-119055528D01*
X161259219Y-119402004D01*
X161254558Y-119641098D01*
X161071737Y-119641098D01*
X161074022Y-119438675D01*
X161084157Y-119155687D01*
X161117245Y-118827552D01*
X161179136Y-118571971D01*
X161277694Y-118359996D01*
X161420789Y-118162678D01*
X161572649Y-117982203D01*
X161418510Y-117780546D01*
X161970627Y-117780546D01*
X161978272Y-117894134D01*
X162000210Y-117992687D01*
X162075309Y-118277314D01*
X162171980Y-118598753D01*
X162277588Y-118918068D01*
X162379500Y-119196322D01*
X162465085Y-119394578D01*
X162512178Y-119482265D01*
X162622756Y-119657352D01*
X162718496Y-119773556D01*
X162748701Y-119799531D01*
X162808302Y-119828445D01*
X162875020Y-119804638D01*
X162972920Y-119714602D01*
X163126069Y-119544834D01*
X163225166Y-119438622D01*
X163511273Y-119199104D01*
X163866654Y-118997255D01*
X163988307Y-118938989D01*
X164129833Y-118864844D01*
X164231182Y-118788227D01*
X164300853Y-118689227D01*
X164329170Y-118603172D01*
X164519894Y-118603172D01*
X164524265Y-118658984D01*
X164526572Y-118658515D01*
X164596362Y-118615393D01*
X164731952Y-118516724D01*
X164907303Y-118382932D01*
X165096378Y-118234439D01*
X165273137Y-118091671D01*
X165411542Y-117975048D01*
X165485555Y-117904996D01*
X165489178Y-117900296D01*
X165511822Y-117834422D01*
X165511954Y-117721382D01*
X165487106Y-117549608D01*
X165434810Y-117307530D01*
X165352599Y-116983578D01*
X165238004Y-116566184D01*
X165088559Y-116043776D01*
X164995505Y-115722613D01*
X164788461Y-115880533D01*
X164581417Y-116038453D01*
X164588889Y-116813744D01*
X164588719Y-117102104D01*
X164587981Y-117141349D01*
X164581577Y-117482037D01*
X164568148Y-117839513D01*
X164549915Y-118124578D01*
X164540728Y-118235722D01*
X164525820Y-118452939D01*
X164519894Y-118603172D01*
X164329170Y-118603172D01*
X164347346Y-118547936D01*
X164379161Y-118344444D01*
X164404798Y-118058841D01*
X164432756Y-117671217D01*
X164470777Y-117141349D01*
X163967940Y-117319289D01*
X163749583Y-117390485D01*
X163470401Y-117461615D01*
X163247184Y-117494537D01*
X163099156Y-117486818D01*
X163045542Y-117436024D01*
X163063750Y-117402634D01*
X163157232Y-117374819D01*
X163221687Y-117365678D01*
X163391737Y-117322090D01*
X163617945Y-117252808D01*
X163865453Y-117169261D01*
X164099404Y-117082877D01*
X164284940Y-117005084D01*
X164301961Y-116996853D01*
X164398523Y-116925014D01*
X164445640Y-116815597D01*
X164448786Y-116641837D01*
X164413438Y-116376969D01*
X164399230Y-116303597D01*
X164353343Y-116191244D01*
X164286016Y-116178315D01*
X164096392Y-116240621D01*
X163950661Y-116254281D01*
X163902410Y-116197648D01*
X163907412Y-116177465D01*
X163990156Y-116102276D01*
X164147229Y-116035544D01*
X164171196Y-116028271D01*
X164316232Y-115970867D01*
X164378569Y-115895680D01*
X164391707Y-115765736D01*
X164391375Y-115745915D01*
X164369954Y-115543445D01*
X164325462Y-115331925D01*
X164285341Y-115187429D01*
X164471427Y-115187429D01*
X164490245Y-115355060D01*
X164527856Y-115575157D01*
X164570488Y-115702099D01*
X164626363Y-115738655D01*
X164705626Y-115701129D01*
X164775286Y-115638284D01*
X164916499Y-115443177D01*
X165022916Y-115212389D01*
X165065072Y-115003132D01*
X165064888Y-114963608D01*
X165053328Y-114853649D01*
X165006575Y-114816117D01*
X164900794Y-114846868D01*
X164866486Y-114864125D01*
X164712148Y-114941758D01*
X164579990Y-115014285D01*
X164493285Y-115088844D01*
X164471427Y-115187429D01*
X164285341Y-115187429D01*
X164259558Y-115094572D01*
X163930272Y-115133273D01*
X163760067Y-115155457D01*
X163577218Y-115194417D01*
X163433630Y-115259136D01*
X163311244Y-115366716D01*
X163192001Y-115534256D01*
X163057839Y-115778857D01*
X162890700Y-116117619D01*
X162867482Y-116165235D01*
X162698748Y-116496146D01*
X162521865Y-116821120D01*
X162401546Y-117027666D01*
X162356488Y-117105015D01*
X162222272Y-117312688D01*
X162094814Y-117499226D01*
X162005238Y-117659004D01*
X161970627Y-117780546D01*
X161418510Y-117780546D01*
X161141692Y-117418390D01*
X161070504Y-117322392D01*
X160800349Y-116914573D01*
X160524197Y-116439225D01*
X160262871Y-115935836D01*
X160037193Y-115443895D01*
X159867985Y-115002889D01*
X159858986Y-114975030D01*
X159774445Y-114579392D01*
X159741191Y-114128739D01*
X159760291Y-113675507D01*
X159832808Y-113272133D01*
X159883466Y-113077562D01*
X159952884Y-112788371D01*
X160014755Y-112509036D01*
X160065520Y-112276710D01*
X160123252Y-112031448D01*
X160170351Y-111850262D01*
X160181574Y-111808060D01*
X160207724Y-111653182D01*
X160199775Y-111560777D01*
X160193270Y-111522388D01*
X160211822Y-111389259D01*
X160262173Y-111210176D01*
X160350160Y-110974630D01*
X160515013Y-110633194D01*
X160728191Y-110303299D01*
X161007580Y-109958532D01*
X161371066Y-109572476D01*
X161522822Y-109420018D01*
X161775284Y-109172837D01*
X162004738Y-108961797D01*
X162227818Y-108775681D01*
X162461156Y-108603273D01*
X162721385Y-108433357D01*
X163025138Y-108254716D01*
X163389048Y-108056133D01*
X163829748Y-107826393D01*
X164363870Y-107554279D01*
X164874863Y-107284798D01*
X165496830Y-106917749D01*
X166007649Y-106562244D01*
X166413021Y-106213765D01*
X166718646Y-105867792D01*
X166930221Y-105519808D01*
X167024821Y-105263662D01*
X167108932Y-104856085D01*
X167144600Y-104406259D01*
X167129138Y-103955155D01*
X167059857Y-103543743D01*
X166998333Y-103339073D01*
X166859982Y-102970272D01*
X166678496Y-102550994D01*
X166467801Y-102108910D01*
X166241823Y-101671689D01*
X166014488Y-101267001D01*
X165799722Y-100922516D01*
X165611452Y-100665904D01*
X165483313Y-100512891D01*
X165521987Y-100665904D01*
X165538942Y-100747736D01*
X165569347Y-100942178D01*
X165596335Y-101164580D01*
X165608366Y-101281150D01*
X165632010Y-101510244D01*
X165234061Y-101899037D01*
X164836112Y-102287831D01*
X164886223Y-103511928D01*
X164900839Y-103867630D01*
X164918112Y-104297924D01*
X164929685Y-104629925D01*
X164934829Y-104877945D01*
X164932816Y-105056296D01*
X164932245Y-105063386D01*
X164922917Y-105179288D01*
X164904402Y-105261235D01*
X164888738Y-105292280D01*
X164876543Y-105316448D01*
X164838612Y-105359238D01*
X164789880Y-105403917D01*
X164736816Y-105456450D01*
X164689717Y-105524773D01*
X164660342Y-105618461D01*
X164644521Y-105761775D01*
X164638086Y-105978973D01*
X164636867Y-106294317D01*
X164636401Y-106330315D01*
X164632687Y-106617226D01*
X164611998Y-106903723D01*
X164565786Y-107112785D01*
X164485131Y-107268529D01*
X164361113Y-107395071D01*
X164184813Y-107516528D01*
X164003096Y-107611849D01*
X163862707Y-107626015D01*
X163743884Y-107542849D01*
X163677040Y-107444366D01*
X163864165Y-107444366D01*
X163892282Y-107469480D01*
X163977153Y-107440751D01*
X164098737Y-107363583D01*
X164236996Y-107243381D01*
X164453253Y-107027124D01*
X164453253Y-106330315D01*
X164453225Y-106292035D01*
X164448961Y-105943172D01*
X164435775Y-105699308D01*
X164411285Y-105544659D01*
X164373109Y-105463444D01*
X164318866Y-105439879D01*
X164303383Y-105457676D01*
X164283122Y-105576666D01*
X164274111Y-105794950D01*
X164275218Y-105900792D01*
X164277280Y-106097831D01*
X164279155Y-106448693D01*
X164255563Y-106729158D01*
X164197632Y-106947896D01*
X164097120Y-107135342D01*
X163945786Y-107321928D01*
X163912842Y-107360004D01*
X163864165Y-107444366D01*
X163677040Y-107444366D01*
X163615278Y-107353370D01*
X163559241Y-107252478D01*
X163498137Y-107109690D01*
X163459812Y-106949156D01*
X163436926Y-106735987D01*
X163422141Y-106435298D01*
X163412595Y-106242784D01*
X163393943Y-106017789D01*
X163371683Y-105864040D01*
X163348799Y-105807108D01*
X163348321Y-105807098D01*
X163309761Y-105752133D01*
X163596386Y-105752133D01*
X163596386Y-106333504D01*
X163604542Y-106654470D01*
X163635046Y-106922345D01*
X163689765Y-107095449D01*
X163697689Y-107110658D01*
X163763706Y-107227942D01*
X163799978Y-107276024D01*
X163818218Y-107252812D01*
X163878650Y-107147271D01*
X163962931Y-106985301D01*
X163991417Y-106926511D01*
X164051808Y-106770832D01*
X164088838Y-106599399D01*
X164108451Y-106376701D01*
X164116590Y-106067229D01*
X164116802Y-105900792D01*
X164108572Y-105657943D01*
X164090744Y-105497699D01*
X164064951Y-105439879D01*
X164045914Y-105444049D01*
X163941878Y-105498552D01*
X163801078Y-105596006D01*
X163596386Y-105752133D01*
X163309761Y-105752133D01*
X163307083Y-105748316D01*
X163259376Y-105589826D01*
X163208257Y-105353666D01*
X163156782Y-105061879D01*
X163108011Y-104736505D01*
X163065000Y-104399584D01*
X163030807Y-104073156D01*
X163008489Y-103779262D01*
X163001105Y-103539943D01*
X163011712Y-103377239D01*
X163016165Y-103349336D01*
X163011074Y-103193070D01*
X162940105Y-103137217D01*
X162807190Y-103185466D01*
X162721082Y-103279809D01*
X162720054Y-103429907D01*
X162728193Y-103515259D01*
X162723682Y-103529348D01*
X162687643Y-103641894D01*
X162563064Y-103789605D01*
X162514163Y-103841174D01*
X162412688Y-103970743D01*
X162372289Y-104059985D01*
X162326257Y-104172866D01*
X162294096Y-104191434D01*
X162189287Y-104251946D01*
X161990609Y-104269302D01*
X161824565Y-104280885D01*
X161637302Y-104356156D01*
X161487655Y-104426168D01*
X161296714Y-104460602D01*
X161278141Y-104461677D01*
X161116480Y-104514189D01*
X160893129Y-104635067D01*
X160630505Y-104809603D01*
X160351026Y-105023089D01*
X160077108Y-105260815D01*
X159952102Y-105363280D01*
X159633293Y-105557579D01*
X159264494Y-105717328D01*
X158894062Y-105819683D01*
X158808230Y-105834881D01*
X158614106Y-105855709D01*
X158466356Y-105837697D01*
X158311715Y-105776934D01*
X158219182Y-105721069D01*
X158014589Y-105533257D01*
X157801821Y-105268623D01*
X157597825Y-104954595D01*
X157419545Y-104618598D01*
X157283927Y-104288061D01*
X157207917Y-103990409D01*
X157205993Y-103977082D01*
X157198102Y-103750244D01*
X157198616Y-103748265D01*
X157379154Y-103748265D01*
X157380908Y-103934218D01*
X157395960Y-104010674D01*
X157485715Y-104293796D01*
X157624914Y-104608036D01*
X157796448Y-104923778D01*
X157983206Y-105211405D01*
X158168077Y-105441303D01*
X158333952Y-105583853D01*
X158492123Y-105652634D01*
X158648239Y-105681261D01*
X158761608Y-105668943D01*
X159014646Y-105606837D01*
X159296520Y-105508276D01*
X159559316Y-105390953D01*
X159755118Y-105272561D01*
X159781583Y-105252187D01*
X159933176Y-105136431D01*
X160150738Y-104971170D01*
X160409242Y-104775389D01*
X160683661Y-104568077D01*
X160790280Y-104487027D01*
X161027910Y-104301553D01*
X161028175Y-104301337D01*
X161359368Y-104301337D01*
X161378024Y-104338193D01*
X161423264Y-104323534D01*
X161515422Y-104246385D01*
X161549065Y-104191434D01*
X161530410Y-104154578D01*
X161485170Y-104169237D01*
X161393012Y-104246385D01*
X161359368Y-104301337D01*
X161028175Y-104301337D01*
X161219160Y-104145460D01*
X161346653Y-104033175D01*
X161364711Y-104012121D01*
X161891602Y-104012121D01*
X161917138Y-104079391D01*
X162028528Y-104093373D01*
X162146072Y-104070720D01*
X162188675Y-103984593D01*
X162193980Y-103954918D01*
X162262918Y-103834593D01*
X162386094Y-103702581D01*
X162583513Y-103529348D01*
X162370793Y-103416095D01*
X162200685Y-103333795D01*
X162084554Y-103313400D01*
X162020872Y-103375399D01*
X161983734Y-103527229D01*
X161981599Y-103540207D01*
X161944442Y-103746066D01*
X161907336Y-103925060D01*
X161897565Y-103979125D01*
X161891602Y-104012121D01*
X161364711Y-104012121D01*
X161393012Y-103979125D01*
X161383314Y-103960596D01*
X161304684Y-103867241D01*
X161159882Y-103713617D01*
X160964375Y-103515885D01*
X160733631Y-103290205D01*
X160648578Y-103207788D01*
X160403310Y-102964857D01*
X160183137Y-102739491D01*
X160009400Y-102553807D01*
X159903442Y-102429921D01*
X159732634Y-102204783D01*
X159527807Y-102325634D01*
X159496218Y-102345108D01*
X159360703Y-102449132D01*
X159287344Y-102539350D01*
X159259805Y-102581183D01*
X159186377Y-102591839D01*
X159132914Y-102578885D01*
X159011517Y-102602300D01*
X158823372Y-102677693D01*
X158556562Y-102810044D01*
X158199170Y-103004333D01*
X158167086Y-103022317D01*
X157827254Y-103227951D01*
X157590524Y-103408545D01*
X157445092Y-103577512D01*
X157379154Y-103748265D01*
X157198616Y-103748265D01*
X157250168Y-103549778D01*
X157373444Y-103362726D01*
X157579184Y-103176133D01*
X157878643Y-102977039D01*
X158283073Y-102752487D01*
X158520885Y-102627414D01*
X158730076Y-102516678D01*
X158875155Y-102439054D01*
X158933936Y-102406342D01*
X158933223Y-102391072D01*
X158891528Y-102299295D01*
X158809359Y-102155903D01*
X158779123Y-102106067D01*
X158655740Y-101883320D01*
X158560531Y-101663734D01*
X158477590Y-101405976D01*
X158391013Y-101068712D01*
X158382121Y-101030917D01*
X158315766Y-100670411D01*
X158283368Y-100294327D01*
X158284915Y-99877153D01*
X158320392Y-99393379D01*
X158389785Y-98817494D01*
X158450381Y-98418692D01*
X158527476Y-98050165D01*
X158626270Y-97740017D01*
X158760385Y-97454195D01*
X158943444Y-97158643D01*
X159189068Y-96819306D01*
X159486170Y-96457630D01*
X159800502Y-96156504D01*
X160131324Y-95931108D01*
X160505542Y-95759787D01*
X160682721Y-95688317D01*
X160853611Y-95607710D01*
X160948586Y-95547998D01*
X161005575Y-95511672D01*
X161186876Y-95445376D01*
X161461013Y-95373573D01*
X161809816Y-95298974D01*
X162215114Y-95224292D01*
X162658736Y-95152241D01*
X163122512Y-95085532D01*
X163588272Y-95026878D01*
X164037844Y-94978993D01*
X164453059Y-94944588D01*
X164815744Y-94926377D01*
X165107731Y-94927073D01*
X165111292Y-94927227D01*
X165335451Y-94931215D01*
X165658514Y-94929294D01*
X166057635Y-94921983D01*
X166509969Y-94909805D01*
X166992670Y-94893280D01*
X167482892Y-94872928D01*
X167568893Y-94868986D01*
X168206268Y-94836526D01*
X168740871Y-94801252D01*
X169190192Y-94759887D01*
X169571723Y-94709158D01*
X169902954Y-94645789D01*
X170201377Y-94566505D01*
X170484483Y-94468031D01*
X170769762Y-94347093D01*
X171074707Y-94200414D01*
X171075432Y-94200051D01*
X171332100Y-94072726D01*
X171547091Y-93968471D01*
X171697898Y-93898036D01*
X171762015Y-93872169D01*
X171810959Y-93863556D01*
X171968286Y-93800719D01*
X172179562Y-93691371D01*
X172414830Y-93552676D01*
X172644137Y-93401797D01*
X172837527Y-93255899D01*
X173171830Y-92964770D01*
X173503439Y-92650000D01*
X173803129Y-92339823D01*
X174058248Y-92048714D01*
X174256141Y-91791149D01*
X174384155Y-91581601D01*
X174429639Y-91434547D01*
X174396887Y-91423050D01*
X174266644Y-91428008D01*
X174060180Y-91453534D01*
X173802289Y-91497153D01*
X173409818Y-91558616D01*
X172891852Y-91589134D01*
X172446295Y-91544889D01*
X172057952Y-91425255D01*
X171878166Y-91337728D01*
X171760418Y-91255998D01*
X171738179Y-91199958D01*
X171820653Y-91179157D01*
X171872445Y-91188537D01*
X172018854Y-91236969D01*
X172203184Y-91312815D01*
X172510037Y-91400525D01*
X172909347Y-91433629D01*
X173377007Y-91411268D01*
X173892977Y-91334418D01*
X174437220Y-91204055D01*
X174447107Y-91199543D01*
X174505618Y-91107505D01*
X174561328Y-90921486D01*
X174611353Y-90665828D01*
X174652807Y-90364874D01*
X174682808Y-90042966D01*
X174698472Y-89724448D01*
X174696913Y-89433661D01*
X174675249Y-89194950D01*
X174671544Y-89172291D01*
X174611692Y-88881624D01*
X174529482Y-88573629D01*
X174433295Y-88271057D01*
X174331517Y-87996659D01*
X174232530Y-87773186D01*
X174144719Y-87623389D01*
X174076467Y-87570019D01*
X173969932Y-87615580D01*
X173863806Y-87729927D01*
X173817590Y-87858762D01*
X173814628Y-87871034D01*
X173789225Y-87976285D01*
X173705961Y-88120801D01*
X173594332Y-88258658D01*
X173062790Y-88160059D01*
X172945021Y-88137761D01*
X172651708Y-88074462D01*
X172457946Y-88013864D01*
X172347060Y-87947136D01*
X172302380Y-87865453D01*
X172305470Y-87798289D01*
X172473927Y-87798289D01*
X172573473Y-87859623D01*
X172779256Y-87924935D01*
X173088146Y-87988853D01*
X173109669Y-87992529D01*
X173359925Y-88032714D01*
X173514419Y-88045636D01*
X173596216Y-88026316D01*
X173628380Y-87969775D01*
X173633976Y-87871034D01*
X173631355Y-87843761D01*
X173581065Y-87771861D01*
X173455095Y-87725041D01*
X173238121Y-87699469D01*
X172914819Y-87691318D01*
X172843992Y-87691863D01*
X172606057Y-87709038D01*
X172483745Y-87746304D01*
X172473927Y-87798289D01*
X172305470Y-87798289D01*
X172307232Y-87759984D01*
X172316344Y-87690742D01*
X172284046Y-87585446D01*
X172160742Y-87493053D01*
X172105277Y-87458359D01*
X172006780Y-87347744D01*
X171981446Y-87180127D01*
X171986213Y-87100681D01*
X172028974Y-86986626D01*
X172195663Y-86986626D01*
X172195663Y-87169974D01*
X172204617Y-87271307D01*
X172264072Y-87359076D01*
X172409880Y-87422193D01*
X172451830Y-87433892D01*
X172642909Y-87470866D01*
X172898397Y-87505877D01*
X173174940Y-87532664D01*
X173467869Y-87545879D01*
X173730647Y-87527331D01*
X173883516Y-87466154D01*
X173930513Y-87358326D01*
X173875677Y-87199824D01*
X173723044Y-86986626D01*
X173684227Y-86941687D01*
X173583859Y-86858303D01*
X173523825Y-86877232D01*
X173515598Y-86886126D01*
X173402805Y-86924537D01*
X173174501Y-86952416D01*
X172836114Y-86969039D01*
X172195663Y-86986626D01*
X172028974Y-86986626D01*
X172046674Y-86939417D01*
X172186260Y-86836917D01*
X172417172Y-86786891D01*
X172751610Y-86783049D01*
X172790702Y-86784765D01*
X173001282Y-86793956D01*
X173149617Y-86800335D01*
X173205685Y-86802608D01*
X173188079Y-86750564D01*
X173124691Y-86459095D01*
X173146970Y-86245245D01*
X173156480Y-86224408D01*
X173273568Y-86096301D01*
X173463915Y-85977887D01*
X173686224Y-85890551D01*
X173899197Y-85855681D01*
X173899525Y-85855679D01*
X174023808Y-85876680D01*
X174045274Y-85929383D01*
X173972341Y-85994461D01*
X173813427Y-86052588D01*
X173756217Y-86067340D01*
X173496132Y-86165555D01*
X173332775Y-86286583D01*
X173274681Y-86421438D01*
X173330389Y-86561130D01*
X173458131Y-86632143D01*
X173660968Y-86657481D01*
X173905878Y-86643108D01*
X174160029Y-86595218D01*
X174390585Y-86520001D01*
X174564714Y-86423651D01*
X174649579Y-86312357D01*
X174671459Y-86187093D01*
X174646376Y-86036249D01*
X174534990Y-85913764D01*
X174320502Y-85793132D01*
X174314646Y-85790353D01*
X174091410Y-85660666D01*
X173977269Y-85521365D01*
X173960574Y-85344817D01*
X174029671Y-85103388D01*
X174057955Y-85023846D01*
X174103126Y-84858985D01*
X174112189Y-84756626D01*
X174110961Y-84721957D01*
X174169518Y-84648092D01*
X174229100Y-84658203D01*
X174239983Y-84766166D01*
X174189879Y-84973035D01*
X174169870Y-85036986D01*
X174106230Y-85263858D01*
X174086995Y-85401194D01*
X174111790Y-85468957D01*
X174180240Y-85487108D01*
X174287206Y-85465807D01*
X174455002Y-85357156D01*
X174582823Y-85191033D01*
X174633655Y-85006658D01*
X174631232Y-84965523D01*
X174556785Y-84757384D01*
X174401573Y-84568744D01*
X174197140Y-84440514D01*
X174092556Y-84410985D01*
X173903101Y-84384217D01*
X173706147Y-84376913D01*
X173544317Y-84390004D01*
X173460234Y-84424420D01*
X173360735Y-84502727D01*
X173173442Y-84589125D01*
X172937855Y-84667871D01*
X172691295Y-84726575D01*
X172471084Y-84752844D01*
X172248537Y-84758426D01*
X172042447Y-84757788D01*
X171924419Y-84745538D01*
X171874895Y-84719161D01*
X171874320Y-84676145D01*
X171913854Y-84642176D01*
X172073679Y-84607037D01*
X172353758Y-84590986D01*
X172531571Y-84581700D01*
X172826806Y-84541079D01*
X173095238Y-84475819D01*
X173323679Y-84393469D01*
X173498943Y-84301577D01*
X173607840Y-84207692D01*
X173637183Y-84119362D01*
X173573785Y-84044137D01*
X173404458Y-83989565D01*
X173348417Y-83977628D01*
X173127056Y-83913189D01*
X172907039Y-83829742D01*
X172827910Y-83797293D01*
X172641698Y-83736350D01*
X172505889Y-83712169D01*
X172350308Y-83746423D01*
X172118761Y-83871081D01*
X171856508Y-84070789D01*
X171580184Y-84328488D01*
X171548707Y-84362825D01*
X171306421Y-84627121D01*
G37*
%TO.C,BT1*%
D17*
X179220000Y-123430000D02*
X181870000Y-123430000D01*
X176570000Y-120670000D02*
X176570000Y-122050000D01*
X177950000Y-120670000D02*
X176570000Y-120670000D01*
X179220000Y-120670000D02*
X179220000Y-123430000D01*
X179220000Y-120670000D02*
X181870000Y-120670000D01*
X181870000Y-120670000D02*
X181870000Y-123430000D01*
%TO.C,SPK1*%
D18*
X182430000Y-76070000D02*
G75*
G02*
X159430000Y-76070000I-11500000J0D01*
G01*
X159430000Y-76070000D02*
G75*
G02*
X182430000Y-76070000I11500000J0D01*
G01*
D19*
X182590000Y-64440000D02*
G75*
G02*
X182530000Y-64440000I-30000J0D01*
G01*
X182530000Y-64440000D02*
G75*
G02*
X182590000Y-64440000I30000J0D01*
G01*
D16*
G36*
X168180018Y-72820045D02*
G01*
X167680019Y-72820045D01*
X167680019Y-70320050D01*
X168180018Y-70320050D01*
X168180018Y-72820045D01*
G37*
G36*
X168430005Y-82569987D02*
G01*
X167930006Y-82569987D01*
X167930006Y-80069992D01*
X168430005Y-80069992D01*
X168430005Y-82569987D01*
G37*
G36*
X169180016Y-71820021D02*
G01*
X166680021Y-71820021D01*
X166680021Y-71320048D01*
X169180016Y-71320048D01*
X169180016Y-71820021D01*
G37*
%TD*%
M02*
